<svg width="96" height="96" viewBox="0 0 96 96" fill="none" xmlns="http://www.w3.org/2000/svg">
<circle cx="48" cy="48" r="48" fill="#C12127" fill-opacity="0.1"/>
<path d="M56.38 28H39.62C32.34 28 28 32.34 28 39.62V56.36C28 63.66 32.34 68 39.62 68H56.36C63.64 68 67.98 63.66 67.98 56.38V39.62C68 32.34 63.66 28 56.38 28ZM58 58.5H38C37.18 58.5 36.5 57.82 36.5 57C36.5 56.18 37.18 55.5 38 55.5H58C58.82 55.5 59.5 56.18 59.5 57C59.5 57.82 58.82 58.5 58 58.5ZM58 49.5H38C37.18 49.5 36.5 48.82 36.5 48C36.5 47.18 37.18 46.5 38 46.5H58C58.82 46.5 59.5 47.18 59.5 48C59.5 48.82 58.82 49.5 58 49.5ZM58 40.5H38C37.18 40.5 36.5 39.82 36.5 39C36.5 38.18 37.18 37.5 38 37.5H58C58.82 37.5 59.5 38.18 59.5 39C59.5 39.82 58.82 40.5 58 40.5Z" fill="#C12127"/>
</svg>
