<svg width="96" height="96" viewBox="0 0 96 96" fill="none" xmlns="http://www.w3.org/2000/svg">
<circle cx="48" cy="48" r="48" fill="#C12127" fill-opacity="0.1"/>
<path d="M39.3001 65.8199C39.2401 65.8199 39.1601 65.8599 39.1001 65.8599C35.2201 63.9399 32.0601 60.7599 30.1201 56.8799C30.1201 56.8199 30.1601 56.7399 30.1601 56.6799C32.6001 57.3999 35.1201 57.9399 37.6201 58.3599C38.0601 60.8799 38.5801 63.3799 39.3001 65.8199Z" fill="#C12127"/>
<path d="M65.8801 56.8999C63.9001 60.8799 60.6001 64.0999 56.5801 66.0399C57.3401 63.4999 57.9801 60.9399 58.4001 58.3599C60.9201 57.9399 63.4001 57.3999 65.8401 56.6799C65.8201 56.7599 65.8801 56.8399 65.8801 56.8999Z" fill="#C12127"/>
<path d="M66.0401 39.42C63.5201 38.66 60.9801 38.04 58.4001 37.6C57.9801 35.02 57.3601 32.46 56.5801 29.96C60.7201 31.94 64.0601 35.28 66.0401 39.42Z" fill="#C12127"/>
<path d="M39.3 30.1801C38.58 32.6201 38.06 35.1001 37.64 37.6201C35.06 38.0201 32.5 38.6601 29.96 39.4201C31.9 35.4001 35.12 32.1001 39.1 30.1201C39.16 30.1201 39.24 30.1801 39.3 30.1801Z" fill="#C12127"/>
<path d="M54.98 37.18C50.34 36.66 45.66 36.66 41.02 37.18C41.52 34.44 42.16 31.7 43.06 29.06C43.1 28.9 43.08 28.78 43.1 28.62C44.68 28.24 46.3 28 48 28C49.68 28 51.32 28.24 52.88 28.62C52.9 28.78 52.9 28.9 52.94 29.06C53.84 31.72 54.48 34.44 54.98 37.18Z" fill="#C12127"/>
<path d="M37.18 54.98C34.42 54.48 31.7 53.84 29.06 52.94C28.9 52.9 28.78 52.92 28.62 52.9C28.24 51.32 28 49.7 28 48C28 46.32 28.24 44.68 28.62 43.12C28.78 43.1 28.9 43.1 29.06 43.06C31.72 42.18 34.42 41.52 37.18 41.02C36.68 45.66 36.68 50.34 37.18 54.98Z" fill="#C12127"/>
<path d="M68.0001 48C68.0001 49.7 67.7601 51.32 67.3801 52.9C67.2201 52.92 67.1001 52.9 66.9401 52.94C64.2801 53.82 61.5601 54.48 58.8201 54.98C59.3401 50.34 59.3401 45.66 58.8201 41.02C61.5601 41.52 64.3001 42.16 66.9401 43.06C67.1001 43.1 67.2201 43.12 67.3801 43.12C67.7601 44.7 68.0001 46.32 68.0001 48Z" fill="#C12127"/>
<path d="M54.98 58.8201C54.48 61.5801 53.84 64.3001 52.94 66.9401C52.9 67.1001 52.9 67.2201 52.88 67.3801C51.32 67.7601 49.68 68.0001 48 68.0001C46.3 68.0001 44.68 67.7601 43.1 67.3801C43.08 67.2201 43.1 67.1001 43.06 66.9401C42.18 64.2801 41.52 61.5801 41.02 58.8201C43.34 59.0801 45.66 59.2601 48 59.2601C50.34 59.2601 52.68 59.0801 54.98 58.8201Z" fill="#C12127"/>
<path d="M55.5267 55.5267C50.5245 56.1578 45.4755 56.1578 40.4733 55.5267C39.8422 50.5245 39.8422 45.4755 40.4733 40.4733C45.4755 39.8422 50.5245 39.8422 55.5267 40.4733C56.1578 45.4755 56.1578 50.5245 55.5267 55.5267Z" fill="#C12127"/>
</svg>
