<svg width="96" height="96" viewBox="0 0 96 96" fill="none" xmlns="http://www.w3.org/2000/svg">
<circle cx="48" cy="48" r="48" fill="#C12127" fill-opacity="0.1"/>
<path d="M48.2132 28.4199L43.3932 39.6399H38.5732C37.7732 39.6399 36.9932 39.6999 36.2332 39.8599L38.2332 35.0599L38.3132 34.8799L38.4332 34.5599C38.4932 34.4199 38.5332 34.2999 38.5932 34.1999C40.9132 28.8199 43.5132 27.1399 48.2132 28.4199Z" fill="#C12127"/>
<path d="M61.7932 40.18L61.7532 40.16C60.5532 39.82 59.3332 39.64 58.0932 39.64H45.5732L50.0732 29.18L50.1332 29.04C50.4132 29.14 50.7132 29.28 51.0132 29.38L55.4332 31.24C57.8932 32.26 59.6132 33.32 60.6732 34.6C60.8532 34.84 61.0132 35.06 61.1732 35.32C61.3532 35.6 61.4932 35.88 61.5732 36.18C61.6532 36.36 61.7132 36.52 61.7532 36.7C62.0532 37.72 62.0732 38.88 61.7932 40.18Z" fill="#C12127"/>
<path d="M49.3733 59.3199H49.8733C50.4733 59.3199 50.9733 58.7799 50.9733 58.1199C50.9733 57.2799 50.7333 57.1599 50.2133 56.9599L49.3733 56.6599V59.3199Z" fill="#C12127"/>
<path d="M60.9132 43.0399C60.0132 42.7799 59.0732 42.6399 58.0932 42.6399H38.5732C37.2132 42.6399 35.9332 42.8999 34.7332 43.4199C31.2532 44.9199 28.8132 48.3799 28.8132 52.3999V56.2999C28.8132 56.7799 28.8532 57.2399 28.9132 57.7199C29.3532 64.0799 32.7532 67.4799 39.1132 67.8999C39.5732 67.9599 40.0332 67.9999 40.5332 67.9999H56.1332C63.5332 67.9999 67.4332 64.4799 67.8132 57.4799C67.8332 57.0999 67.8532 56.6999 67.8532 56.2999V52.3999C67.8532 47.9799 64.9132 44.2599 60.9132 43.0399ZM50.8932 54.9999C51.8132 55.3199 53.0532 55.9999 53.0532 58.1199C53.0532 59.9399 51.6332 61.3999 49.8732 61.3999H49.3732V61.8399C49.3732 62.4199 48.9132 62.8799 48.3332 62.8799C47.7532 62.8799 47.2932 62.4199 47.2932 61.8399V61.3999H47.1132C45.1932 61.3999 43.6132 59.7799 43.6132 57.7799C43.6132 57.1999 44.0732 56.7399 44.6532 56.7399C45.2332 56.7399 45.6932 57.1999 45.6932 57.7799C45.6932 58.6199 46.3332 59.3199 47.1132 59.3199H47.2932V55.9399L45.7732 55.3999C44.8532 55.0799 43.6132 54.3999 43.6132 52.2799C43.6132 50.4599 45.0332 48.9999 46.7932 48.9999H47.2932V48.5599C47.2932 47.9799 47.7532 47.5199 48.3332 47.5199C48.9132 47.5199 49.3732 47.9799 49.3732 48.5599V48.9999H49.5532C51.4732 48.9999 53.0532 50.6199 53.0532 52.6199C53.0532 53.1999 52.5932 53.6599 52.0132 53.6599C51.4332 53.6599 50.9732 53.1999 50.9732 52.6199C50.9732 51.7799 50.3332 51.0799 49.5532 51.0799H49.3732V54.4599L50.8932 54.9999Z" fill="#C12127"/>
<path d="M45.6934 52.2801C45.6934 53.1201 45.9334 53.2401 46.4534 53.4401L47.2934 53.7401V51.0801H46.7934C46.1734 51.0801 45.6934 51.6201 45.6934 52.2801Z" fill="#C12127"/>
</svg>
