<svg width="96" height="96" viewBox="0 0 96 96" fill="none" xmlns="http://www.w3.org/2000/svg">
<circle cx="48" cy="48" r="48" fill="#C12127" fill-opacity="0.1"/>
<g clip-path="url(#clip0_540_751)">
<path d="M48 72C61.2548 72 72 61.2548 72 48C72 34.7452 61.2548 24 48 24C34.7452 24 24 34.7452 24 48C24 61.2548 34.7452 72 48 72Z" fill="#C12127"/>
<path d="M48 52.8C47.1309 52.8 46.2955 52.4636 45.6688 51.8614C45.0421 51.2592 44.6728 50.4378 44.6382 49.5694L44.1947 38.3719C44.1769 37.9193 44.2507 37.4677 44.4116 37.0443C44.5726 36.6209 44.8173 36.2343 45.1313 35.9078C45.4452 35.5812 45.8218 35.3214 46.2386 35.144C46.6553 34.9665 47.1036 34.875 47.5566 34.875H48.4435C48.8965 34.875 49.3448 34.9665 49.7615 35.144C50.1783 35.3214 50.5549 35.5812 50.8688 35.9078C51.1828 36.2343 51.4275 36.6209 51.5884 37.0443C51.7494 37.4677 51.8232 37.9193 51.8054 38.3719L51.3619 49.5694C51.3273 50.4378 50.958 51.2592 50.3313 51.8614C49.7046 52.4636 48.8692 52.8 48 52.8Z" fill="white"/>
<path d="M51.359 57.766C51.359 55.9109 49.8551 54.407 47.9999 54.407C46.1448 54.407 44.6409 55.9109 44.6409 57.766C44.6409 59.6212 46.1448 61.1251 47.9999 61.1251C49.8551 61.1251 51.359 59.6212 51.359 57.766Z" fill="white"/>
</g>
<defs>
<clipPath id="clip0_540_751">
<rect width="48" height="48" fill="white" transform="translate(24 24)"/>
</clipPath>
</defs>
</svg>
