<svg width="600" height="577" viewBox="0 0 600 577" fill="none" xmlns="http://www.w3.org/2000/svg">
<path d="M84.478 0H57.5342L59.3501 99.2861H82.6621L84.478 0Z" fill="#EBEBEB"/>
<path d="M59.3503 111.717H82.6475V135.014H59.3503V111.717Z" fill="#EBEBEB"/>
<path d="M21.9091 81.3782L-0.000231117 87.7561L24.9652 168.056L43.9219 162.534L21.9091 81.3782Z" fill="#EBEBEB"/>
<path d="M27.9289 178.176L46.8672 172.663L52.38 191.601L33.4417 197.114L27.9289 178.176Z" fill="#EBEBEB"/>
<path d="M286.121 48.4841L268.67 40.2312L239.467 105.133L254.571 112.278L286.121 48.4841Z" fill="#EBEBEB"/>
<path d="M235.662 113.224L250.762 120.352L243.634 135.452L228.534 128.324L235.662 113.224Z" fill="#EBEBEB"/>
<path d="M19.237 455.491H156.953C156.953 455.491 143.297 418.198 122.273 418.198C101.25 418.198 94.6797 443.931 94.6797 443.931C94.6797 443.931 80.5065 429.95 68.8579 429.95C57.2093 429.95 47.0814 448.434 47.0814 448.434C47.0814 448.434 30.6346 438.498 19.237 455.491Z" fill="#EBEBEB"/>
<path d="M195.339 398.606H267.947C267.947 398.606 251.707 375.087 238.937 375.087C226.166 375.087 222.401 390.781 222.401 390.781C222.401 390.781 213.366 383.473 205.009 384.772C196.653 386.072 195.339 398.606 195.339 398.606Z" fill="#EBEBEB"/>
<path d="M446.381 205.482H587.848C587.848 205.482 568.478 162.239 547.749 159.522C527.021 156.806 517.114 191.663 517.114 191.663C517.114 191.663 503.827 179.35 493.242 179.35C482.656 179.35 474.61 195.59 474.61 195.59C474.61 195.59 453.586 184.458 446.381 205.482Z" fill="#EBEBEB"/>
<path d="M311.928 81.0974H407.493C407.493 81.0974 391.076 49.7392 373.271 49.2963C355.466 48.8534 346.091 73.0216 346.091 73.0216C346.091 73.0216 318.394 50.7874 311.928 81.0974Z" fill="#EBEBEB"/>
<path d="M166.313 98.2378H148.715V576.671H166.313V98.2378Z" fill="#DBDBDB"/>
<path d="M157.514 16.3877L19.2371 255.885H295.791L157.514 16.3877Z" fill="white"/>
<path d="M157.514 51.0825L49.2961 238.538H265.747L157.514 51.0825Z" fill="white"/>
<path d="M146.56 105.324H168.484L167.007 186.141H148.036L146.56 105.324Z" fill="#C12127"/>
<path d="M166.993 196.269H148.036V215.226H166.993V196.269Z" fill="#C12127"/>
<path d="M295.792 269.822H19.2373V362.346H295.792V269.822Z" fill="white"/>
<path d="M289.576 356.175H25.4526V275.993H289.576V356.175ZM26.929 354.699H288.099V277.47H26.929V354.699Z" fill="#263238"/>
<path d="M61.5353 289.62H67.0127L70.4674 299.763L73.9074 289.62H79.4438L74.2174 303.557L78.1002 313.36L86.7813 289.532H93.2478L80.7725 320.167H75.7676L70.4674 307.307L65.1524 320.167H60.1475L47.7607 289.532H54.1535L62.8641 313.36L66.6584 303.557L61.5353 289.62Z" fill="#263238"/>
<path d="M102.475 289.532H107.745L119.424 320.167H113.297L110.418 312.534H99.714L96.9089 320.167H90.782L102.475 289.532ZM109.34 308.341L105.118 296.294L100.688 308.326L109.34 308.341Z" fill="#263238"/>
<path d="M122.76 320.166V289.532H136.314C137.664 289.518 138.999 289.822 140.211 290.418C141.381 290.989 142.428 291.781 143.297 292.75C144.168 293.711 144.859 294.821 145.334 296.028C145.809 297.2 146.055 298.453 146.058 299.719C146.081 301.627 145.569 303.504 144.581 305.137C143.639 306.707 142.222 307.937 140.536 308.651L147.534 320.166H140.846L134.586 309.906H128.681V320.166H122.76ZM128.666 304.679H136.136C136.652 304.67 137.158 304.539 137.613 304.295C138.089 304.028 138.506 303.666 138.838 303.232C139.198 302.754 139.477 302.221 139.665 301.653C139.863 301.027 139.963 300.375 139.96 299.719C139.965 299.039 139.851 298.365 139.621 297.726C139.4 297.156 139.085 296.627 138.691 296.161C138.319 295.726 137.862 295.374 137.347 295.127C136.89 294.893 136.385 294.767 135.871 294.758H128.666V304.679Z" fill="#263238"/>
<path d="M157.411 300.531V320.167H151.506V289.532H156.112L172.042 309.581V289.576H177.947V320.167H173.164L157.411 300.531Z" fill="#263238"/>
<path d="M184.385 320.167V289.532H190.29V320.167H184.385Z" fill="#263238"/>
<path d="M202.676 300.531V320.167H196.771V289.532H201.377L217.307 309.581V289.576H223.213V320.167H218.385L202.676 300.531Z" fill="#263238"/>
<path d="M250.91 316.712C249.815 317.876 248.493 318.804 247.025 319.436C245.557 320.069 243.975 320.393 242.376 320.388C240.416 320.403 238.476 319.99 236.692 319.177C234.948 318.392 233.381 317.262 232.086 315.855C230.744 314.402 229.687 312.709 228.971 310.865C228.196 308.896 227.81 306.795 227.834 304.679C227.803 300.655 229.345 296.777 232.13 293.872C233.471 292.465 235.077 291.336 236.855 290.55C238.71 289.713 240.725 289.29 242.76 289.31C245.34 289.239 247.89 289.866 250.142 291.126C252.135 292.262 253.748 293.962 254.778 296.013L250.349 299.29C249.641 297.825 248.51 296.606 247.101 295.791C245.716 294.987 244.14 294.569 242.539 294.581C241.304 294.571 240.084 294.854 238.981 295.408C237.908 295.946 236.966 296.712 236.22 297.652C235.446 298.635 234.847 299.743 234.448 300.929C234.029 302.196 233.819 303.522 233.828 304.856C233.821 306.23 234.055 307.595 234.522 308.887C234.949 310.08 235.589 311.186 236.412 312.15C237.216 313.059 238.195 313.797 239.291 314.32C240.415 314.856 241.647 315.129 242.893 315.117C244.457 315.067 245.99 314.666 247.378 313.942C248.766 313.219 249.973 312.193 250.91 310.939V308.784H244.739V304.354H255.841V320.107H250.91V316.712Z" fill="#263238"/>
<path d="M261.481 308.651V289.236H267.268V308.651H261.481ZM261.481 320.166V313.656H267.268V320.166H261.481Z" fill="#263238"/>
<path d="M56.3088 329.143H59.0992L65.2704 345.383H62.0224L60.546 341.338H54.8768L53.4004 345.383H50.1523L56.3088 329.143ZM59.9407 339.094L57.7114 332.731L55.3787 339.109L59.9407 339.094Z" fill="#C12127"/>
<path d="M77.5688 331.904H72.3867V345.354H69.2273V331.904H64.0452V329.143H77.5392L77.5688 331.904Z" fill="#C12127"/>
<path d="M91.6974 331.904H86.5154V345.354H83.3855V331.904H78.2034V329.143H91.6974V331.904Z" fill="#C12127"/>
<path d="M104.955 342.592V345.353H93.7053V329.113H104.749V331.874H96.85V335.786H103.686V338.34H96.85V342.563L104.955 342.592Z" fill="#C12127"/>
<path d="M110.565 334.96V345.294H107.406V329.054H109.857L118.302 339.699V329.084H121.446V345.324H118.892L110.565 334.96Z" fill="#C12127"/>
<path d="M136.963 331.904H131.781V345.354H128.651V331.904H123.469V329.143H136.963V331.904Z" fill="#C12127"/>
<path d="M138.971 345.353V329.113H142.13V345.353H138.971Z" fill="#C12127"/>
<path d="M152.421 345.471C151.304 345.483 150.198 345.24 149.188 344.762C148.245 344.32 147.402 343.693 146.708 342.917C146.009 342.152 145.462 341.26 145.098 340.289C144.719 339.32 144.523 338.288 144.522 337.248C144.522 336.185 144.728 335.132 145.128 334.147C145.515 333.175 146.081 332.284 146.796 331.519C147.507 330.75 148.366 330.133 149.321 329.703C150.317 329.25 151.4 329.018 152.495 329.024C153.604 329.017 154.7 329.264 155.699 329.748C156.641 330.21 157.484 330.852 158.179 331.638C158.863 332.416 159.403 333.311 159.773 334.28C160.339 335.743 160.483 337.335 160.188 338.875C159.893 340.415 159.171 341.841 158.105 342.991C157.398 343.754 156.544 344.366 155.595 344.792C154.598 345.244 153.516 345.476 152.421 345.471ZM147.711 337.248C147.716 337.939 147.826 338.626 148.036 339.285C148.239 339.913 148.554 340.498 148.966 341.012C149.371 341.513 149.873 341.925 150.443 342.223C151.068 342.529 151.755 342.689 152.451 342.689C153.147 342.689 153.833 342.529 154.458 342.223C155.034 341.921 155.538 341.498 155.935 340.983C156.34 340.461 156.65 339.871 156.85 339.241C157.055 338.601 157.16 337.934 157.16 337.262C157.158 336.569 157.043 335.881 156.821 335.225C156.613 334.6 156.298 334.016 155.891 333.498C155.488 332.999 154.985 332.592 154.414 332.302C153.792 331.996 153.107 331.837 152.414 331.837C151.72 331.837 151.036 331.996 150.413 332.302C149.837 332.604 149.334 333.027 148.937 333.542C148.539 334.061 148.234 334.646 148.036 335.269C147.826 335.908 147.717 336.575 147.711 337.248Z" fill="#C12127"/>
<path d="M165.915 334.96V345.294H162.755V329.054H165.191L173.636 339.699V329.084H176.781V345.324H174.227L165.915 334.96Z" fill="#C12127"/>
<path d="M185.654 345.353V329.113H192.534C193.25 329.11 193.957 329.271 194.601 329.585C195.213 329.89 195.764 330.306 196.225 330.811C196.681 331.326 197.045 331.915 197.303 332.553C197.55 333.173 197.68 333.834 197.687 334.502C197.689 335.183 197.563 335.859 197.317 336.495C197.09 337.13 196.744 337.716 196.299 338.222C195.851 338.726 195.309 339.137 194.704 339.433C194.06 339.744 193.352 339.901 192.637 339.891H188.814V345.324L185.654 345.353ZM188.814 337.159H192.46C192.745 337.166 193.027 337.106 193.284 336.982C193.54 336.859 193.764 336.677 193.937 336.451C194.359 335.903 194.568 335.221 194.527 334.531C194.535 334.153 194.469 333.777 194.335 333.424C194.229 333.122 194.069 332.842 193.863 332.597C193.677 332.371 193.439 332.193 193.169 332.081C192.913 331.966 192.637 331.906 192.357 331.903H188.814V337.159Z" fill="#C12127"/>
<path d="M199.887 345.353V329.113H203.031V342.563H211.299V345.324L199.887 345.353Z" fill="#C12127"/>
<path d="M224.467 342.592V345.353H213.218V329.113H224.246V331.874H216.347V335.786H223.168V338.34H216.347V342.563L224.467 342.592Z" fill="#C12127"/>
<path d="M231.54 329.143H234.33L240.487 345.383H237.253L235.777 341.338H230.152L228.676 345.383H225.428L231.54 329.143ZM235.172 339.109L232.928 332.745L230.61 339.109H235.172Z" fill="#C12127"/>
<path d="M251.677 333.395C251.501 333.227 251.309 333.079 251.101 332.952C250.77 332.751 250.424 332.573 250.068 332.421C249.644 332.235 249.204 332.087 248.754 331.978C248.272 331.852 247.776 331.787 247.278 331.786C246.593 331.735 245.909 331.906 245.329 332.273C245.121 332.428 244.954 332.631 244.844 332.865C244.733 333.1 244.682 333.358 244.694 333.616C244.68 333.915 244.763 334.21 244.93 334.458C245.117 334.698 245.354 334.894 245.624 335.034C245.992 335.224 246.378 335.378 246.776 335.491L248.385 335.92C249.182 336.141 249.861 336.362 250.555 336.613C251.147 336.829 251.7 337.138 252.194 337.529C252.633 337.877 252.987 338.322 253.227 338.828C253.491 339.422 253.618 340.068 253.597 340.718C253.618 341.489 253.451 342.255 253.109 342.947C252.796 343.542 252.339 344.049 251.781 344.424C251.197 344.818 250.547 345.103 249.861 345.265C249.115 345.433 248.353 345.517 247.588 345.516C246.366 345.518 245.152 345.333 243.985 344.97C242.847 344.625 241.771 344.102 240.796 343.42L242.184 340.703C242.412 340.904 242.659 341.082 242.922 341.235C243.331 341.483 243.755 341.705 244.192 341.899C244.715 342.134 245.259 342.322 245.816 342.46C246.409 342.613 247.019 342.692 247.632 342.696C249.374 342.696 250.245 342.135 250.245 341.028C250.248 340.703 250.145 340.387 249.95 340.127C249.711 339.86 249.419 339.644 249.094 339.492C248.672 339.285 248.232 339.117 247.78 338.99L246.038 338.488C245.347 338.307 244.671 338.075 244.015 337.795C243.478 337.582 242.979 337.283 242.539 336.909C242.169 336.578 241.876 336.17 241.682 335.713C241.476 335.202 241.375 334.655 241.387 334.104C241.377 333.35 241.533 332.604 241.845 331.919C242.14 331.293 242.574 330.743 243.114 330.309C243.682 329.88 244.322 329.555 245.004 329.35C245.75 329.12 246.527 329.006 247.307 329.01C248.38 329.004 249.444 329.189 250.452 329.556C251.338 329.874 252.181 330.301 252.962 330.826L251.677 333.395Z" fill="#C12127"/>
<path d="M267.268 342.592V345.353H256.018V329.113H267.061V331.874H259.162V335.786H265.983V338.34H259.162V342.563L267.268 342.592Z" fill="#C12127"/>
<path d="M349.886 576.627H477.71C478.773 572.508 479.792 568.463 480.811 564.476C481.977 559.885 483.129 555.412 484.221 551.056C484.472 550.082 484.723 549.107 484.974 548.104C485.816 544.767 486.642 541.504 487.454 538.345C487.942 536.425 488.429 534.521 488.931 532.646C489.433 530.771 489.905 528.852 490.407 527.021C490.54 526.534 490.643 526.047 490.776 525.545C490.909 525.043 491.042 524.482 491.175 523.965C491.308 523.448 491.5 522.71 491.662 522.075C491.839 521.411 492.002 520.761 492.164 520.111L493.079 516.48C493.537 514.738 493.965 513.01 494.393 511.342C494.571 510.618 494.763 509.865 494.94 509.172C495.245 508 495.54 506.864 495.826 505.761C496.017 505.008 496.195 504.285 496.372 503.576C497.125 500.623 497.848 497.877 498.468 495.308C498.66 494.629 498.808 493.965 499 493.315C499.265 492.193 499.546 491.13 499.797 490.097C499.974 489.447 500.137 488.812 500.284 488.192C500.86 485.993 501.377 483.985 501.761 482.213C501.893 481.755 502.012 481.298 502.13 480.855C502.41 479.688 502.691 478.655 502.912 477.725C503.015 477.356 503.089 477.001 503.193 476.677C503.296 476.352 503.37 475.968 503.458 475.658C503.547 475.348 503.562 475.2 503.621 475.008C503.68 474.816 503.783 474.388 503.842 474.137C503.864 474.006 503.899 473.878 503.946 473.753C504.137 472.986 504.226 472.602 504.226 472.602H379.797C379.797 472.602 375.708 486.716 369.138 509.511C367.809 514.147 366.377 519.152 364.827 524.467C360.442 539.718 355.363 557.434 349.886 576.627Z" fill="#37474F"/>
<path d="M456.79 576.627H459.979C464.703 557.04 469.285 537.419 473.724 517.764C474.802 512.995 475.85 508.212 476.898 503.414C477.002 502.956 477.105 502.528 477.193 502.07C477.193 501.834 476.883 501.731 476.824 501.967L476.692 502.41C475.245 507.547 473.813 512.695 472.395 517.853C467.002 537.39 461.8 556.981 456.79 576.627Z" fill="#263238"/>
<path d="M383.813 472.69L389.29 500.181L393.808 522.725L401.47 561.11L402.253 565.038L403.567 571.608L404.556 576.583H477.725L480.811 564.432C481.977 559.841 483.129 555.367 484.221 551.012C484.472 550.038 484.723 549.063 484.974 548.059C485.816 544.723 486.642 541.46 487.454 538.301C487.942 536.381 488.429 534.477 488.931 532.602C489.433 530.727 489.905 528.807 490.407 526.977C490.54 526.49 490.643 526.002 490.776 525.5C490.909 524.998 491.042 524.437 491.175 523.921C491.308 523.404 491.5 522.666 491.662 522.031C491.839 521.366 492.002 520.717 492.164 520.067L493.079 516.435C493.537 514.693 493.965 512.966 494.393 511.298C494.585 510.559 494.763 509.821 494.94 509.127C495.245 507.956 495.54 506.819 495.826 505.717C496.017 504.964 496.195 504.241 496.372 503.532C497.125 500.579 497.848 497.833 498.468 495.264C498.66 494.585 498.808 493.921 499 493.271C499.265 492.149 499.546 491.086 499.797 490.053C499.974 489.403 500.137 488.768 500.284 488.148C500.86 485.948 501.377 483.94 501.761 482.169C501.893 481.711 502.012 481.253 502.13 480.811C502.41 479.644 502.691 478.611 502.912 477.681C503.015 477.311 503.089 476.957 503.193 476.632C503.296 476.308 503.37 475.924 503.458 475.614C503.547 475.304 503.562 475.156 503.621 474.964C503.68 474.772 503.783 474.344 503.842 474.093C503.864 473.962 503.899 473.833 503.946 473.709C504.137 472.941 504.226 472.558 504.226 472.558L383.813 472.69Z" fill="#263238"/>
<path d="M383.784 472.631C383.784 473.31 384.315 480.722 385.511 492.046C385.85 495.353 386.249 498.985 386.722 502.867C387.445 509.009 388.36 515.786 389.482 522.946C391.387 535.436 393.911 549.048 397.115 562.365C398.267 567.164 399.536 571.917 400.88 576.568H561.495C559.605 552.09 557.863 529.944 556.49 512.493C554.57 487.941 553.33 472.631 553.33 472.631H407.642H383.784Z" fill="#37474F"/>
<path d="M384.123 487.395C384.315 493.138 384.551 498.881 384.92 504.595C385.319 510.796 385.88 516.996 386.692 523.182C386.692 523.404 386.692 523.64 386.692 523.862C387.459 529.664 388.316 535.436 389.305 541.209C390.235 546.583 390.914 552.385 393.291 557.36C394.187 559.284 395.463 561.006 397.041 562.424C398.488 563.749 400.261 564.666 402.179 565.082C402.493 565.166 402.814 565.22 403.138 565.244H403.419C403.361 565.279 403.314 565.329 403.283 565.389C403.252 565.449 403.237 565.516 403.242 565.584C403.242 567.518 403.242 569.481 403.463 571.386C403.463 571.475 403.463 571.548 403.463 571.637C403.655 573.305 403.965 574.959 404.275 576.612H407.036C407.033 576.578 407.033 576.543 407.036 576.509C406.549 574.693 406.15 572.862 405.692 571.032C405.235 569.201 404.6 567.341 404.216 565.451C404.207 565.414 404.191 565.379 404.168 565.349C404.145 565.318 404.116 565.293 404.083 565.274C405.833 565.356 407.566 564.901 409.049 563.969C410.532 563.038 411.695 561.674 412.38 560.062C413.074 557.601 413.12 555.002 412.513 552.518C412.011 549.226 411.524 545.948 411.037 542.656C410.092 536.603 408.881 530.638 407.818 524.629L407.331 521.883C405.176 509.659 402.902 497.42 400.215 485.313C400.112 484.797 400.008 484.295 399.89 483.837C399.772 483.379 399.27 483.601 399.3 483.926C399.388 484.738 399.462 485.564 399.566 486.376C400.038 491.027 400.584 495.648 401.234 500.269C402.016 505.702 402.548 511.15 403.316 516.583C403.567 518.428 403.832 520.274 404.098 522.119C405.353 531.051 406.652 539.969 408.173 548.871C408.881 553.005 411.45 560.402 405.515 561.686C404.154 561.984 402.731 561.807 401.485 561.184C398.856 559.602 396.89 557.121 395.948 554.201C394.498 549.338 393.441 544.366 392.789 539.334C391.805 533.891 390.944 528.438 390.205 522.976C389.231 516.155 388.227 509.364 387.164 502.557L385.525 492.149C385.259 490.555 385.008 488.945 384.743 487.336C384.669 486.952 384.123 487.056 384.123 487.395Z" fill="#263238"/>
<path d="M526.312 530.092C519.624 530.021 512.97 529.129 506.5 527.434C503.547 526.667 500.594 525.707 497.641 524.747C494.742 523.944 492.028 522.579 489.654 520.732C485.225 516.849 483.055 510.737 481.091 505.303C478.948 499.175 477.212 492.911 475.894 486.554C475.894 486.243 475.378 486.347 475.363 486.642C475.203 493.828 476.114 500.998 478.065 507.917C479.674 513.822 481.844 520.348 486.598 524.467C491.588 528.793 498.409 530.372 504.757 531.11C511.935 531.945 519.191 531.841 526.342 530.8C526.389 530.799 526.434 530.787 526.476 530.768C526.519 530.748 526.557 530.721 526.588 530.686C526.62 530.652 526.644 530.612 526.66 530.568C526.676 530.524 526.684 530.478 526.682 530.431C526.68 530.385 526.669 530.339 526.649 530.297C526.629 530.255 526.602 530.217 526.567 530.185C526.533 530.154 526.493 530.129 526.449 530.113C526.405 530.097 526.359 530.09 526.312 530.092Z" fill="#263238"/>
<path d="M537.4 486.745C537.754 495.732 538.128 504.728 538.522 513.734C539.457 534.698 540.471 555.663 541.563 576.627H544.516C543.128 555.604 541.652 534.609 540.087 513.645C539.497 504.669 538.842 495.702 538.124 486.745C538.124 486.229 537.371 486.258 537.4 486.745Z" fill="#263238"/>
<path d="M408.616 287.567C386.574 314.26 307.809 412.542 318.897 439.914C330.132 467.641 356.426 486.701 370.112 467.39C381.406 451.46 423.926 341.189 430.009 312.71C435.796 285.604 430.348 261.332 408.616 287.567Z" fill="#FFC4C0"/>
<path d="M414.95 383.65L333.056 367.41C333.056 367.41 390.708 295.939 413.592 279.699C439.354 261.436 443.119 278.606 438.277 308.237C433.434 337.868 414.95 383.65 414.95 383.65Z" fill="white"/>
<path d="M333.055 367.366L414.95 383.606C414.95 383.606 433.493 337.838 438.276 308.149C443.06 278.459 439.354 261.348 413.591 279.61C412.292 280.54 410.875 281.648 409.354 282.903L407.494 284.482C399.182 291.702 388.449 302.952 377.73 314.837L377.14 315.486C368.695 324.891 360.265 334.679 353.075 343.153L350.122 346.741C340.009 358.744 333.055 367.366 333.055 367.366Z" fill="white"/>
<path d="M390.855 359.571C391.795 361.933 392.387 364.42 392.612 366.952C391.12 364.919 389.918 362.688 389.039 360.324C388.101 357.985 387.504 355.524 387.268 353.016C388.765 355.022 389.972 357.228 390.855 359.571ZM421.416 323.695C423.778 322.749 426.265 322.152 428.798 321.923C426.783 323.43 424.56 324.639 422.199 325.511C419.836 326.453 417.35 327.049 414.817 327.282C416.832 325.775 419.055 324.567 421.416 323.695ZM405.634 288.085C406.184 286.876 406.8 285.698 407.479 284.556L409.354 283.006C408.911 285.036 408.257 287.016 407.405 288.911C406.425 291.233 405.107 293.397 403.493 295.334C403.855 292.827 404.576 290.386 405.634 288.085ZM349.369 348.217C349.591 347.745 349.812 347.272 350.048 346.815L353.001 343.227C352.579 345.218 351.946 347.158 351.111 349.015C350.114 351.331 348.791 353.493 347.184 355.437C347.562 352.938 348.298 350.506 349.369 348.217ZM377.716 314.91C378.129 315.206 378.542 315.53 378.941 315.87C378.331 315.798 377.725 315.694 377.125 315.56L377.716 314.91Z" fill="#C12127"/>
<path d="M347.465 355.112C350.418 355.23 375.988 359.91 381.525 361.018C387.061 362.125 409.768 366.584 415.393 368.237C415.436 368.249 415.475 368.275 415.502 368.311C415.53 368.347 415.545 368.391 415.545 368.436C415.545 368.482 415.53 368.526 415.502 368.562C415.475 368.598 415.436 368.624 415.393 368.636C409.576 368.075 386.677 363.675 381.008 362.642C375.339 361.608 350.108 356.411 347.421 355.452C347.125 355.348 347.258 355.112 347.465 355.112Z" fill="#263238"/>
<path d="M367.75 374.26L414.994 383.635C414.994 383.635 433.537 337.868 438.321 308.193C441.849 286.328 440.757 271.283 429.595 272.184L367.75 374.26Z" fill="#263238"/>
<path d="M358.006 518.576L565.776 529.56C565.776 529.56 548.177 352.528 471.288 277.248C461.795 267.947 436.549 263.651 423.645 273.719C416.766 279.093 404.29 303.129 397.676 327.666C391.062 352.203 357.445 517.749 358.006 518.576Z" fill="white"/>
<path d="M447.888 293.798C448.813 296.14 449.404 298.6 449.644 301.106C448.137 299.085 446.928 296.858 446.057 294.492C445.125 292.151 444.529 289.691 444.285 287.184C445.789 289.209 447.002 291.436 447.888 293.798ZM471.79 388.552C472.741 390.911 473.338 393.399 473.562 395.933C470.593 391.84 468.75 387.04 468.217 382.011C469.707 384.014 470.909 386.216 471.79 388.552ZM486.982 489.078C487.919 491.412 488.516 493.868 488.754 496.371C485.785 492.278 483.942 487.477 483.409 482.449C484.91 484.477 486.113 486.709 486.982 489.078ZM390.59 358.921L390.855 359.57C391.795 361.933 392.387 364.42 392.612 366.952C391.52 365.508 390.598 363.943 389.866 362.287C390.117 361.091 390.353 359.999 390.59 358.921ZM429.994 478.669C430.943 481.031 431.544 483.517 431.78 486.051C430.268 484.036 429.055 481.814 428.178 479.452C427.251 477.111 426.66 474.65 426.421 472.144C427.91 474.142 429.112 476.339 429.994 478.669ZM514.221 351.849C515.157 354.187 515.748 356.649 515.978 359.157C514.48 357.133 513.277 354.906 512.405 352.543C511.46 350.181 510.863 347.695 510.633 345.161C512.148 347.204 513.356 349.457 514.221 351.849ZM421.416 323.695C423.778 322.749 426.265 322.152 428.798 321.923C426.783 323.43 424.56 324.639 422.199 325.511C419.836 326.453 417.35 327.049 414.817 327.282C416.832 325.775 419.055 324.566 421.416 323.695ZM400.644 402.872C402.979 401.942 405.435 401.35 407.937 401.116C405.924 402.624 403.701 403.828 401.338 404.688C398.998 405.625 396.537 406.226 394.029 406.475C396.048 404.96 398.276 403.746 400.644 402.872ZM389.763 497.08C392.124 496.134 394.611 495.538 397.145 495.308C393.055 498.276 388.261 500.124 383.237 500.667C385.233 499.171 387.43 497.964 389.763 497.08ZM545.254 491.927C547.616 490.982 550.103 490.385 552.636 490.156C548.54 493.121 543.742 494.969 538.714 495.515C540.714 494.016 542.916 492.808 545.254 491.927ZM489.89 428.65C492.251 427.698 494.738 427.096 497.272 426.864C495.252 428.376 493.024 429.589 490.658 430.466C488.294 431.4 485.808 431.991 483.276 432.223C485.301 430.724 487.528 429.521 489.89 428.65ZM470.004 338.96C471.001 336.644 472.324 334.482 473.931 332.538C473.139 337.534 471.046 342.234 467.863 346.165C468.236 343.675 468.957 341.25 470.004 338.96ZM434.084 418.684C435.081 416.371 436.398 414.209 437.996 412.262C437.632 414.754 436.911 417.18 435.855 419.467C434.862 421.782 433.545 423.945 431.943 425.889C432.31 423.393 433.031 420.962 434.084 418.67V418.684ZM518.665 462.016C519.66 459.703 520.983 457.545 522.592 455.609C522.219 458.098 521.498 460.524 520.451 462.813C519.46 465.128 518.137 467.286 516.524 469.221C516.889 466.724 517.61 464.293 518.665 462.001V462.016ZM504.61 525.131C505.602 522.815 506.919 520.652 508.522 518.709C508.167 521.203 507.446 523.63 506.382 525.913C506.293 526.12 506.19 526.312 506.101 526.519L504.078 526.415L504.61 525.131ZM394.443 449.275C396.76 450.259 398.923 451.572 400.865 453.173C395.874 452.383 391.176 450.301 387.238 447.134C389.73 447.459 392.158 448.155 394.443 449.201V449.275ZM455.89 513.32C458.205 514.313 460.367 515.63 462.312 517.232C459.821 516.864 457.395 516.143 455.107 515.092C452.788 514.1 450.624 512.777 448.685 511.164C451.179 511.527 453.606 512.253 455.89 513.32ZM556.283 527.936C557.169 528.349 558.055 528.778 558.911 529.25L554.024 528.999C552.244 528.144 550.581 527.062 549.078 525.781C551.585 526.15 554.026 526.876 556.327 527.936H556.283ZM517.705 393.276C520.019 394.272 522.181 395.589 524.128 397.188C519.132 396.389 514.431 394.303 510.486 391.135C512.998 391.495 515.444 392.216 517.75 393.276H517.705ZM461.234 455.992C463.549 456.993 465.711 458.315 467.656 459.92C465.158 459.562 462.726 458.841 460.437 457.779C458.12 456.783 455.957 455.46 454.015 453.852C456.525 454.219 458.97 454.939 461.278 455.992H461.234ZM436.136 359.334C438.451 360.327 440.613 361.645 442.558 363.247C437.562 362.447 432.861 360.361 428.916 357.193C431.453 357.547 433.925 358.268 436.254 359.334H436.136ZM491.721 302.863C492.238 303.099 492.74 303.335 493.197 303.601C493.773 304.428 494.349 305.269 494.91 306.111C493.537 305.703 492.191 305.21 490.88 304.635C488.567 303.636 486.405 302.319 484.457 300.722C486.989 301.077 489.456 301.798 491.78 302.863H491.721Z" fill="#C12127"/>
<path d="M499.265 302.671C557.656 371.485 597.562 480.234 576.834 496.209C553.315 514.353 466.431 529.28 431.913 532.277C421.21 533.207 419.586 444.521 431.072 444.787C444.994 445.111 497.051 434.541 498.439 434.526C501.391 434.526 473.06 344.467 464.866 309.211C453.454 260.063 477.341 276.834 499.265 302.671Z" fill="#FFC4C0"/>
<path d="M317.996 458.695C315.516 467.553 323.503 472.779 323.503 472.779C320.121 475.872 317.928 480.05 317.302 484.59C316.579 492.651 328.907 497.316 328.907 497.316C326.068 501.266 324.483 505.978 324.359 510.84C324.448 518.621 336.17 525.102 336.17 525.102C335.563 530.168 336.799 535.283 339.655 539.511C347.745 550.51 368.532 548.945 381.746 548.074C394.96 547.203 435.191 530.742 442.469 528.616L434.172 445.407C434.172 445.407 373.788 432.415 358.39 435.634C345.412 438.38 320.787 448.773 317.996 458.695Z" fill="#FFC4C0"/>
<path d="M323.754 472.41C336.85 466.224 351.067 464.231 365.093 461.44C365.403 461.44 365.491 461.883 365.181 461.942C351.141 464.541 337.809 469.9 323.843 473.074C323.77 473.06 323.704 473.023 323.654 472.969C323.603 472.915 323.571 472.847 323.561 472.774C323.551 472.701 323.565 472.626 323.599 472.561C323.634 472.496 323.688 472.443 323.754 472.41Z" fill="#263238"/>
<path d="M329.113 496.253C332.239 495.12 335.5 494.406 338.813 494.127C342.282 493.625 345.752 493.168 349.236 492.784C356.205 491.986 363.188 491.371 370.186 490.938C370.496 490.938 370.599 491.396 370.275 491.425C363.336 492.223 356.397 493.123 349.502 494.216C346.047 494.767 342.602 495.338 339.167 495.928C335.955 496.7 332.668 497.116 329.364 497.169C329.26 497.162 329.16 497.123 329.079 497.057C328.998 496.991 328.94 496.901 328.912 496.8C328.885 496.7 328.889 496.593 328.925 496.495C328.961 496.397 329.027 496.312 329.113 496.253Z" fill="#263238"/>
<path d="M336.51 525.131C339.079 523.876 342.504 523.965 345.294 523.655C348.483 523.359 351.657 523.049 354.846 522.725C361.195 522.075 367.543 521.411 373.877 520.54C374.187 520.54 374.29 520.982 373.965 521.027C367.543 521.942 361.136 522.961 354.699 523.817C351.539 524.25 348.38 524.659 345.22 525.042C342.519 525.382 339.197 526.105 336.525 525.412C336.502 525.396 336.484 525.376 336.47 525.352C336.457 525.328 336.45 525.302 336.448 525.275C336.447 525.248 336.452 525.221 336.462 525.196C336.473 525.171 336.489 525.149 336.51 525.131Z" fill="#263238"/>
<path d="M478.596 388.626L561.273 376.593C561.273 376.593 507.385 302.243 485.373 284.851C460.599 265.275 456.008 282.223 459.241 312.061C462.474 341.898 478.596 388.626 478.596 388.626Z" fill="white"/>
<path d="M491.78 302.863C494.119 303.845 496.303 305.163 498.262 306.776C493.266 305.976 488.565 303.89 484.62 300.722C487.096 301.092 489.507 301.813 491.78 302.863ZM470.004 338.96C471.001 336.644 472.324 334.482 473.931 332.538C473.139 337.534 471.046 342.234 467.863 346.165C468.236 343.675 468.957 341.25 470.004 338.96ZM551.795 363.823C552.193 364.369 552.592 364.915 552.991 365.432H552.887C550.524 366.375 548.039 366.977 545.506 367.218C547.433 365.798 549.55 364.655 551.795 363.823ZM514.221 351.849C515.157 354.188 515.748 356.649 515.978 359.157C514.48 357.133 513.277 354.906 512.405 352.543C511.46 350.181 510.863 347.695 510.634 345.161C512.148 347.205 513.356 349.458 514.221 351.849Z" fill="#C12127"/>
<path d="M547.454 363.011C544.501 363.011 518.724 366.333 513.143 367.189C507.563 368.045 484.649 371.278 478.936 372.637C478.881 372.637 478.828 372.658 478.79 372.697C478.751 372.736 478.729 372.789 478.729 372.843C478.729 372.898 478.751 372.951 478.79 372.99C478.828 373.028 478.881 373.05 478.936 373.05C484.767 372.784 507.873 369.581 513.586 368.828C519.3 368.075 544.767 364.207 547.543 363.395C547.779 363.321 547.661 363.011 547.454 363.011Z" fill="#263238"/>
<path d="M485.137 387.031C482.627 387.208 478.714 387.637 478.714 387.637C476.249 376.239 472.558 365.004 469.59 353.68C466.623 342.356 463.198 330.84 460.038 319.399C460.028 319.363 460.005 319.333 459.973 319.315C459.941 319.297 459.904 319.293 459.868 319.303C459.833 319.312 459.803 319.336 459.785 319.368C459.767 319.399 459.763 319.437 459.772 319.472C461.15 326.057 462.558 332.627 463.995 339.182L463.021 336.82C461.869 334.029 460.644 331.269 459.581 328.434C459.567 328.383 459.533 328.34 459.488 328.313C459.442 328.287 459.388 328.28 459.337 328.294C459.286 328.307 459.243 328.341 459.216 328.387C459.19 328.432 459.183 328.486 459.197 328.537C460.003 331.484 460.989 334.378 462.149 337.204C462.991 339.182 463.965 341.087 464.955 342.991C465.811 346.741 466.652 350.506 467.612 354.241C470.565 365.712 472.927 378.66 476.736 389.866C476.736 389.866 482.509 388.522 485.343 387.533C485.393 387.496 485.429 387.443 485.445 387.383C485.461 387.323 485.457 387.26 485.434 387.202C485.41 387.145 485.368 387.097 485.314 387.066C485.261 387.035 485.198 387.023 485.137 387.031Z" fill="#263238"/>
<path d="M423.852 309.241C435.013 313.035 456.332 297.43 465.427 284.039C466.032 283.109 465.53 272.745 465.515 260.107C465.515 252.445 465.722 243.867 466.475 236.131C466.637 234.537 416.559 243.306 416.559 243.306C416.559 243.306 419.792 260.063 418.419 273.616C418.301 274.687 418.084 275.745 417.769 276.776C417.769 276.908 417.681 277.086 417.651 277.292C416.086 283.257 413.045 305.565 423.852 309.241Z" fill="#FFC4C0"/>
<path d="M422.642 278.03C420.965 277.925 419.301 277.678 417.666 277.292C417.694 277.113 417.733 276.935 417.784 276.761C418.089 275.729 418.302 274.671 418.419 273.601C419.792 260.063 416.574 243.306 416.574 243.306C416.574 243.306 457.203 236.175 465.146 235.924C462.828 244.783 451.46 280.156 422.642 278.03Z" fill="#263238"/>
<path d="M480.279 175.319C484.191 193.036 471.081 242.362 457.882 252.548C438.69 267.312 409.384 266.53 397.351 243.986C385.673 222.12 403.892 158.164 418.463 149.114C439.9 135.797 474.492 149.129 480.279 175.319Z" fill="#FFC4C0"/>
<path d="M393.823 216.318H393.941C392.981 228.734 394.901 241.225 403.021 251.072C405.036 253.616 407.497 255.772 410.284 257.435C410.306 257.456 410.319 257.483 410.323 257.513C410.327 257.543 410.32 257.573 410.305 257.598C410.29 257.624 410.266 257.643 410.238 257.654C410.211 257.664 410.18 257.665 410.152 257.657C407.626 256.283 405.281 254.602 403.168 252.652C401.086 250.633 399.297 248.332 397.853 245.816C394.601 240.235 392.813 233.922 392.656 227.465C392.67 223.719 393.061 219.985 393.823 216.318Z" fill="#263238"/>
<path d="M428.724 202.16C428.724 202.027 428.946 202.381 428.901 202.514C428.001 205.806 427.425 209.748 430.245 211.579C430.333 211.579 430.245 211.8 430.171 211.756C426.628 210.354 427.322 205.127 428.724 202.16Z" fill="#263238"/>
<path d="M432.533 199.399C437.996 200.299 435.796 211.136 430.747 210.294C425.698 209.453 427.971 198.646 432.533 199.399Z" fill="#263238"/>
<path d="M409.413 197.967C409.413 197.834 409.118 198.07 409.089 198.203C408.542 201.584 407.347 205.364 404.084 205.88C403.98 205.88 403.966 206.072 404.084 206.087C407.893 206.235 409.428 201.245 409.413 197.967Z" fill="#263238"/>
<path d="M407.095 193.863C401.78 192.386 399.226 203.149 404.142 204.507C409.059 205.866 411.554 195.088 407.095 193.863Z" fill="#263238"/>
<path d="M429.492 193.907C430.757 194.735 432.062 195.499 433.404 196.195C434.671 197.185 436.226 197.735 437.833 197.76C438.343 197.667 438.807 197.408 439.155 197.024C439.502 196.639 439.712 196.151 439.752 195.634C439.752 193.42 438.276 191.914 436.416 190.806C434.661 189.626 432.529 189.142 430.437 189.448C429.965 189.549 429.533 189.784 429.192 190.125C428.852 190.467 428.617 190.899 428.517 191.371C428.417 191.843 428.456 192.333 428.629 192.783C428.802 193.233 429.102 193.623 429.492 193.907Z" fill="#263238"/>
<path d="M404.556 183.793C406.071 183.792 407.584 183.708 409.089 183.542C410.698 183.674 412.305 183.275 413.666 182.406C414.027 182.057 414.265 181.601 414.345 181.106C414.425 180.611 414.342 180.104 414.108 179.66C412.942 177.785 410.772 177.401 408.675 177.445C406.56 177.428 404.514 178.196 402.932 179.6C402.617 179.945 402.404 180.372 402.318 180.831C402.232 181.29 402.276 181.765 402.444 182.2C402.613 182.636 402.9 183.016 403.273 183.298C403.647 183.579 404.091 183.751 404.556 183.793Z" fill="#263238"/>
<path d="M423.823 228.941C419.925 226.372 414.359 225.767 410.816 225.471C410.432 225.338 410.24 224.512 410.255 224.128C410.255 224.01 411.938 217.1 411.938 217.1C410.919 217.366 405.722 218.577 406.032 217.189C408.985 206.308 412.292 194.202 417.548 184C417.576 183.922 417.633 183.857 417.708 183.821C417.782 183.786 417.868 183.781 417.947 183.808C418.025 183.836 418.089 183.893 418.125 183.968C418.161 184.042 418.166 184.128 418.139 184.207C415.688 194.792 411.421 204.876 408.793 215.447C410.649 215.008 412.558 214.839 414.462 214.945C414.802 215.122 412.277 222.327 412.159 223.463C412.159 223.463 419.349 222.858 424.133 227.524C425.432 228.705 425.683 230.166 423.823 228.941Z" fill="#263238"/>
<path d="M430.481 238.257C429.522 238.847 428.488 239.733 427.263 239.6C426.034 239.311 424.881 238.762 423.882 237.991C423.861 237.975 423.834 237.966 423.808 237.966C423.781 237.967 423.755 237.976 423.734 237.994C423.713 238.011 423.699 238.035 423.694 238.061C423.689 238.087 423.692 238.115 423.705 238.139C424.041 238.891 424.574 239.538 425.246 240.013C425.919 240.489 426.707 240.774 427.529 240.84C428.242 240.808 428.93 240.564 429.505 240.141C430.08 239.718 430.518 239.135 430.762 238.463C430.85 238.286 430.614 238.168 430.481 238.257Z" fill="#263238"/>
<path d="M416.81 223.789C419.954 224.409 429.935 228.454 427.454 233.09C426.377 235.127 423.025 233.917 420.456 230.949C418.809 228.808 417.573 226.38 416.81 223.789Z" fill="#263238"/>
<path d="M421.741 232.263C424.014 234.226 426.554 234.787 427.469 233.089C427.767 232.521 427.891 231.878 427.825 231.24C427.76 230.602 427.507 229.997 427.1 229.502C425.181 229.177 421.091 228.852 421.741 232.263Z" fill="#FF9ABB"/>
<path d="M404.202 165.812C419.246 182.317 448.153 169.488 448.153 169.488C448.759 173.761 450.729 177.724 453.77 180.786C456.811 183.848 460.76 185.846 465.028 186.481C465.028 186.481 461.426 217.677 469.457 219.492C481.682 222.283 495.176 181.771 493.242 172.736C491.308 163.7 481.431 159.183 481.431 159.183C481.431 159.183 482.154 152.701 475.968 145.172C469.147 136.83 438.38 138.661 438.38 138.661C437.645 134.433 435.925 130.438 433.36 126.998C432.749 126.148 431.973 125.43 431.077 124.889C430.181 124.348 429.185 123.994 428.148 123.849C427.111 123.704 426.056 123.771 425.046 124.046C424.036 124.321 423.093 124.797 422.272 125.447C423.275 128.045 423.674 130.837 423.439 133.612C422.789 142.839 415.525 141.127 417.533 133.08C418.158 130.044 419.856 127.334 422.317 125.447C419.969 119.335 414.521 116.235 410.314 118.228C402.622 121.83 391.682 152.096 404.202 165.812Z" fill="#263238"/>
<path d="M466.18 216.303C466.18 216.303 480.368 202.499 486.849 207.858C493.33 213.218 480.515 234.714 471.421 236.249C470.268 236.518 469.074 236.553 467.907 236.352C466.741 236.151 465.627 235.719 464.63 235.08C463.634 234.441 462.776 233.61 462.106 232.634C461.436 231.658 460.969 230.558 460.732 229.399L466.18 216.303Z" fill="#FFC4C0"/>
<path d="M483.025 213.926C483.158 213.926 483.144 214.133 483.025 214.163C476.603 215.432 472.41 220.363 469.133 225.664C471.318 223.789 473.961 223.05 476.515 225.664C476.648 225.796 476.515 226.018 476.293 225.944C475.31 225.41 474.186 225.195 473.075 225.327C471.965 225.459 470.922 225.933 470.092 226.682C468.712 227.944 467.47 229.35 466.387 230.875C466.003 231.362 465.102 230.875 465.412 230.314C465.442 230.273 465.467 230.229 465.486 230.181C466.8 222.622 474.728 213.129 483.025 213.926Z" fill="#263238"/>
<path d="M471.613 287.951C465.212 298.026 456.298 306.259 445.747 311.839C440.63 314.678 434.899 316.228 429.049 316.357C425.994 316.454 422.982 315.62 420.412 313.965C418.061 312.066 416.245 309.588 415.142 306.775C413.799 303.605 412.942 300.25 412.602 296.824C412.161 292.968 411.994 289.085 412.1 285.205C412.1 285.058 411.879 285.072 411.879 285.205C411.775 288.882 411.362 292.587 411.524 296.219C411.597 299.464 412.093 302.685 413.001 305.801C413.886 308.773 415.396 311.521 417.43 313.862C419.609 316.183 422.536 317.663 425.698 318.04C431.876 318.756 438.129 317.658 443.695 314.88C449.278 312.294 454.423 308.852 458.946 304.679C464.13 299.893 468.498 294.292 471.879 288.099C472.056 287.892 471.687 287.745 471.613 287.951Z" fill="#263238"/>
<path d="M368.517 463.714C357.548 485.032 328.921 469.501 322.75 453.955C308.148 417.444 303.66 340.673 307.646 305.343C308.931 293.975 381.568 304.546 384.3 316.46C387.105 328.935 390.766 420.441 368.517 463.714Z" fill="#FFC4C0"/>
<path d="M308.267 310.761C308.267 310.761 305.314 287.745 303.587 267.504C302.642 256.209 305.063 233.178 308.178 224.571C312.814 211.682 340.437 160.747 352.927 167.184C364.236 173.001 334.945 213.749 334.945 213.749C334.945 213.749 360.87 170.019 373.198 179.541C385.526 189.064 346.313 230.683 346.313 230.683C346.313 230.683 373.951 186.392 385.112 198.203C393.542 207.135 360.147 246.923 360.147 246.923C360.147 246.923 384.167 208.98 393.247 217.794C403.257 227.538 374.748 266.131 374.748 266.131C393.941 292.41 397.883 308.842 382.558 324.58C380.078 327.016 308.267 310.761 308.267 310.761Z" fill="#FFC4C0"/>
<path d="M325.024 228.292C327.873 223.05 330.737 217.721 334.044 212.745C337.351 207.77 340.85 202.913 344.615 198.262C353.857 186.879 361.416 181.195 360.988 181.594C350.845 191.102 338.695 208.73 335.388 213.705C332.081 218.68 328.523 223.464 325.201 228.469C325.112 228.557 324.95 228.38 325.024 228.292Z" fill="#263238"/>
<path d="M342.755 240.59C346.697 234.049 350.373 227.42 354.566 221.042C358.759 214.665 363.321 209.069 367.957 203.031C368.311 202.573 368.444 202.913 368.104 203.4C363.675 209.601 360.132 215.683 355.821 221.943C351.51 228.203 346.963 234.3 342.858 240.693C342.844 240.796 342.696 240.693 342.755 240.59Z" fill="#263238"/>
<path d="M356.087 253.877C361.872 243.486 368.693 233.707 376.446 224.689C376.815 224.246 376.933 224.689 376.579 225.191C369.625 234.536 364.148 242.509 356.441 254.083C356.323 254.261 355.968 254.098 356.087 253.877Z" fill="#263238"/>
<path d="M374.556 191.81C375.318 189.695 375.741 187.473 375.811 185.226C375.753 183.163 374.968 181.187 373.597 179.645C373.508 179.542 373.346 179.645 373.449 179.793C375.206 181.269 375.235 184.133 374.925 186.215C374.568 188.252 374.03 190.253 373.316 192.194C372.585 194.217 371.721 196.19 370.733 198.1C369.798 200.004 368.763 201.857 367.632 203.651C367.621 203.666 367.615 203.684 367.615 203.703C367.615 203.721 367.621 203.739 367.632 203.754C367.642 203.764 367.653 203.772 367.666 203.777C367.679 203.782 367.692 203.785 367.706 203.785C367.72 203.785 367.733 203.782 367.746 203.777C367.759 203.772 367.77 203.764 367.78 203.754C369.901 201.244 372.547 199.228 375.531 197.849C376.888 197.097 378.408 196.686 379.96 196.653C381.395 196.74 382.749 197.347 383.768 198.361C384.787 199.374 385.402 200.725 385.496 202.16C385.484 203.6 385.209 205.026 384.684 206.367C383.664 209.482 382.471 212.538 381.111 215.521C380.358 217.174 379.635 218.798 378.705 220.393C377.775 221.987 376.845 223.523 376.092 225.162C376.092 225.265 376.417 225.354 376.49 225.294C377.494 224.453 384.551 217.617 388.789 217.263C389.874 217.114 390.979 217.308 391.948 217.819C392.918 218.33 393.702 219.132 394.192 220.112C395.177 222.234 395.431 224.622 394.916 226.904C394.037 230.824 392.867 234.673 391.417 238.419C391.417 238.538 391.564 238.597 391.608 238.419C392.716 235.688 395.122 229.827 395.875 226.978C396.621 224.6 396.49 222.033 395.506 219.743C395.039 218.707 394.308 217.812 393.385 217.149C392.462 216.485 391.381 216.076 390.25 215.964C387.896 216.045 385.631 216.89 383.798 218.37C381.536 220.118 379.381 222.002 377.347 224.01C378.041 223.006 381.067 217.735 381.864 216.126C383.492 212.91 384.883 209.579 386.028 206.161C387.046 203.208 387.312 199.916 384.92 197.45C383.829 196.418 382.448 195.743 380.963 195.516C379.478 195.289 377.959 195.521 376.608 196.18C374.412 197.116 372.409 198.453 370.703 200.122C371.131 199.517 371.545 198.882 371.914 198.233C372.999 196.182 373.884 194.031 374.556 191.81Z" fill="#263238"/>
<path d="M379.31 432.547C377.966 436.475 376.696 440.402 375.235 444.27C373.773 448.138 372.371 452.006 370.806 455.785C369.306 459.523 367.405 463.088 365.136 466.415C364.869 466.806 364.572 467.176 364.251 467.523L363.306 468.468C362.556 469.077 361.761 469.63 360.929 470.121C359.282 471.101 357.494 471.823 355.629 472.262C353.756 472.69 351.831 472.839 349.915 472.705C347.977 472.531 346.068 472.12 344.231 471.479C340.466 470.12 336.939 468.177 333.778 465.721C332.125 464.555 330.619 463.153 329.083 461.839C327.612 460.478 326.308 458.947 325.2 457.277C322.895 453.872 321.127 450.132 319.959 446.189C320.6 450.328 321.954 454.324 323.96 458C325.003 459.868 326.267 461.603 327.725 463.167C329.174 464.712 330.707 466.175 332.317 467.552C335.566 470.356 339.271 472.583 343.271 474.137C345.324 474.904 347.468 475.4 349.649 475.613C351.869 475.79 354.102 475.641 356.278 475.17C358.434 474.635 360.495 473.774 362.39 472.616C363.34 472.042 364.243 471.396 365.092 470.682L366.332 469.442C366.703 469.019 367.044 468.57 367.351 468.098C369.67 464.53 371.535 460.687 372.902 456.657C375.707 448.813 377.85 440.748 379.31 432.547Z" fill="#263238"/>
<path d="M377.213 121.697L359.482 96.2738L350.757 105.162L334.753 85.9983L325.614 95.58L351.554 112.278L358.508 103.611L377.213 121.697Z" fill="#455A64"/>
<path d="M382.868 135.841L358.404 130.378L358.39 138.188L340.614 139.384L340.437 147.741L364.295 143.43L362.42 135.782L382.868 135.841Z" fill="#455A64"/>
<path d="M391.077 121.697L392.878 98.149L384.492 99.1677L384.669 79.9749L375.324 78.9709L380.624 103.833L388.08 102.431L391.077 121.697Z" fill="#455A64"/>
<path d="M599.113 92.5538C599.122 102.264 596.431 111.786 591.34 120.055C586.25 128.324 578.961 135.014 570.287 139.38C561.613 143.745 551.897 145.612 542.223 144.774C532.549 143.935 523.299 140.423 515.506 134.63L489.831 141.186L500.52 117.283C496.761 110.26 494.653 102.472 494.356 94.5124C494.059 86.5522 495.581 78.6291 498.805 71.3454C502.03 64.0617 506.873 57.6091 512.966 52.4783C519.06 47.3474 526.242 43.6734 533.969 41.7354C541.695 39.7975 549.761 39.6467 557.555 41.2945C565.348 42.9422 572.663 46.3452 578.944 51.2448C585.225 56.1443 590.306 62.4113 593.8 69.5694C597.295 76.7275 599.112 84.5881 599.113 92.5538Z" fill="white"/>
<path d="M599.113 92.5536C599.062 102.224 596.35 111.694 591.273 119.926C589.999 121.975 588.604 123.947 587.095 125.831C585.524 127.655 583.848 129.385 582.075 131.013C581.207 131.843 580.295 132.627 579.344 133.361L576.391 135.516C575.417 136.225 574.339 136.771 573.32 137.421L571.844 138.336C571.327 138.631 570.766 138.867 570.235 139.133L566.972 140.61L563.576 141.82C562.452 142.244 561.297 142.58 560.122 142.824C558.955 143.09 557.804 143.474 556.623 143.636C554.261 144.059 551.874 144.32 549.477 144.419C547.086 144.576 544.687 144.542 542.302 144.315C537.529 143.869 532.84 142.771 528.365 141.052C523.907 139.308 519.706 136.969 515.875 134.099L515.683 133.951H515.432L489.728 140.388L490.481 141.289L501.214 117.504L501.362 117.194L501.185 116.884C497.488 109.952 495.413 102.27 495.116 94.4188C494.819 86.5676 496.309 78.7515 499.472 71.5595C502.687 64.3841 507.434 57.9995 513.38 52.8539C519.384 47.74 526.48 44.0684 534.123 42.1207C541.785 40.1471 549.794 39.9301 557.553 41.4858C565.312 43.132 572.606 46.4914 578.901 51.3185C585.172 56.2126 590.25 62.4673 593.751 69.6104C597.253 76.7535 599.086 84.5986 599.113 92.5536ZM599.113 92.5536C599.107 84.5893 597.292 76.7304 593.806 69.5695C590.321 62.4086 585.254 56.1327 578.99 51.2151C572.728 46.2292 565.403 42.7515 557.582 41.0515C549.76 39.3515 541.652 39.4749 533.886 41.412C526.079 43.3039 518.807 46.9549 512.627 52.0862C506.439 57.2544 501.514 63.7674 498.226 71.1285C494.938 78.4896 493.375 86.5043 493.655 94.5614C493.909 102.635 496.048 110.538 499.9 117.637V117.002L489.27 140.934L488.724 142.16L490.023 141.82L515.668 135.147L515.225 135.058C523.107 140.864 532.455 144.351 542.213 145.127C544.631 145.319 547.059 145.319 549.477 145.127C551.896 145.007 554.304 144.716 556.682 144.256C557.892 144.079 559.044 143.68 560.21 143.4C561.395 143.129 562.56 142.773 563.694 142.337L567.09 141.067C568.183 140.565 569.26 140.019 570.353 139.487C570.899 139.207 571.445 138.971 571.977 138.675L573.453 137.716C574.457 137.066 575.535 136.49 576.509 135.767L579.462 133.582C580.416 132.842 581.328 132.048 582.193 131.205C583.974 129.569 585.65 127.824 587.213 125.979C588.72 124.1 590.105 122.128 591.362 120.073C596.431 111.789 599.114 102.266 599.113 92.5536Z" fill="#263238"/>
<path d="M553.714 60.9153H541.46L542.287 106.092H552.887L553.714 60.9153Z" fill="#C12127"/>
<path d="M542.287 111.747H552.887V122.347H542.287V111.747Z" fill="#C12127"/>
</svg>
