<svg width="65" height="65" viewBox="0 0 65 65" fill="none" xmlns="http://www.w3.org/2000/svg">
<path d="M32.5625 64.5625C50.2356 64.5625 64.5625 50.2356 64.5625 32.5625C64.5625 14.8894 50.2356 0.5625 32.5625 0.5625C14.8894 0.5625 0.5625 14.8894 0.5625 32.5625C0.5625 50.2356 14.8894 64.5625 32.5625 64.5625Z" fill="#E6E7E8"/>
<path d="M25.5612 47.8724C27.6892 47.8724 29.8195 47.0632 31.4401 45.4426L35.815 41.0655C36.0263 40.8716 36.1963 40.6369 36.3146 40.3755C36.4328 40.1142 36.497 39.8316 36.5032 39.5448C36.5093 39.2581 36.4574 38.973 36.3505 38.7068C36.2436 38.4406 36.0839 38.1988 35.881 37.996C35.6782 37.7931 35.4364 37.6335 35.1702 37.5265C34.904 37.4196 34.619 37.3677 34.3322 37.3739C34.0454 37.38 33.7628 37.4442 33.5015 37.5625C33.2401 37.6807 33.0055 37.8507 32.8115 38.0621L28.4344 42.4369C27.6717 43.1976 26.6385 43.6248 25.5612 43.6248C24.484 43.6248 23.4508 43.1976 22.6881 42.4369C21.9274 41.6742 21.5002 40.641 21.5002 39.5638C21.5002 38.4866 21.9274 37.4533 22.6881 36.6906L27.063 32.3135C27.2743 32.1196 27.4443 31.8849 27.5626 31.6235C27.6808 31.3622 27.745 31.0796 27.7512 30.7928C27.7573 30.5061 27.7054 30.221 27.5985 29.9548C27.4916 29.6886 27.3319 29.4468 27.129 29.244C26.9262 29.0411 26.6844 28.8815 26.4182 28.7745C26.152 28.6676 25.867 28.6157 25.5802 28.6219C25.2934 28.628 25.0108 28.6922 24.7495 28.8105C24.4882 28.9287 24.2535 29.0987 24.0595 29.3101L19.6824 33.6849C18.1253 35.2452 17.2507 37.3595 17.2507 39.5638C17.2507 41.7681 18.1253 43.8824 19.6824 45.4426C20.454 46.2148 21.3706 46.827 22.3794 47.244C23.3883 47.6609 24.4696 47.8745 25.5612 47.8724ZM45.4424 19.6826C43.8821 18.1255 41.7679 17.251 39.5635 17.251C37.3592 17.251 35.2449 18.1255 33.6847 19.6826L29.3098 24.0598C29.0984 24.2537 28.9285 24.4884 28.8102 24.7497C28.692 25.0111 28.6278 25.2936 28.6216 25.5804C28.6154 25.8672 28.6674 26.1523 28.7743 26.4185C28.8812 26.6847 29.0409 26.9265 29.2437 27.1293C29.4466 27.3321 29.6884 27.4918 29.9546 27.5987C30.2207 27.7056 30.5058 27.7576 30.7926 27.7514C31.0794 27.7452 31.362 27.6811 31.6233 27.5628C31.8846 27.4445 32.1193 27.2746 32.3132 27.0632L36.6904 22.6884C37.4531 21.9276 38.4863 21.5005 39.5635 21.5005C40.6407 21.5005 41.674 21.9276 42.4367 22.6884C43.1974 23.451 43.6246 24.4843 43.6246 25.5615C43.6246 26.6387 43.1974 27.6719 42.4367 28.4346L38.0618 32.8095C37.8536 33.0042 37.6867 33.2388 37.571 33.4994C37.4553 33.7599 37.3932 34.041 37.3884 34.3261C37.3836 34.6111 37.4362 34.8942 37.543 35.1585C37.6498 35.4228 37.8087 35.6629 38.0102 35.8645C38.2117 36.0662 38.4517 36.2253 38.7159 36.3323C38.9801 36.4393 39.2631 36.492 39.5482 36.4874C39.8332 36.4828 40.1144 36.421 40.375 36.3055C40.6356 36.19 40.8704 36.0233 41.0652 35.8152L45.4424 31.4381C46.9994 29.8782 47.8739 27.7643 47.8739 25.5603C47.8739 23.3564 46.9994 21.2425 45.4424 19.6826Z" fill="#231F20"/>
<path d="M38.4412 26.6839C38.0426 26.2854 37.502 26.0615 36.9384 26.0615C36.3747 26.0615 35.8341 26.2854 35.4355 26.6839L26.6835 35.4382C26.4755 35.633 26.3087 35.8678 26.1932 36.1284C26.0778 36.389 26.0159 36.6702 26.0113 36.9553C26.0067 37.2403 26.0594 37.5233 26.1664 37.7875C26.2735 38.0518 26.4325 38.2918 26.6342 38.4933C26.8358 38.6948 27.0759 38.8536 27.3402 38.9604C27.6045 39.0672 27.8876 39.1198 28.1726 39.115C28.4577 39.1102 28.7388 39.0481 28.9994 38.9324C29.2599 38.8167 29.4945 38.6498 29.6892 38.4416L38.4412 29.6873C38.839 29.2888 39.0624 28.7487 39.0624 28.1856C39.0624 27.6225 38.839 27.0824 38.4412 26.6839Z" fill="#231F20"/>
</svg>
