<svg width="250" height="194" viewBox="0 0 250 194" fill="none" xmlns="http://www.w3.org/2000/svg">
<path d="M116.184 35.5062C116.099 35.5062 116.077 32.4043 116.128 28.5805C116.178 24.7567 116.285 21.6604 116.364 21.6604C116.443 21.6604 116.472 24.7623 116.421 28.5861C116.37 32.4099 116.263 35.5062 116.184 35.5062Z" fill="#263238"/>
<path d="M96.6307 39.4373C95.5946 38.2148 94.634 36.9303 93.7544 35.5909C92.7976 34.307 91.9199 32.966 91.1262 31.5753C92.161 32.7974 93.1197 34.082 93.9969 35.4217C94.9581 36.7037 95.8378 38.0449 96.6307 39.4373Z" fill="#263238"/>
<path d="M136.86 38.4841C136.499 38.894 136.102 39.2714 135.675 39.6121C134.92 40.2776 133.848 41.1743 132.641 42.1275C131.434 43.0806 130.317 43.9209 129.5 44.5075C129.073 44.8484 128.614 45.1468 128.129 45.3986C128.516 45.0145 128.933 44.6618 129.376 44.3439L132.461 41.9019L135.54 39.4542C135.95 39.0919 136.391 38.7672 136.86 38.4841Z" fill="#263238"/>
<path d="M248.139 113.398C245.562 110.448 241.197 109.828 238.112 107.414C233.955 104.16 232.9 98.3394 232.754 93.0548C232.607 87.7703 233.013 82.232 230.718 77.4719C229.351 74.7667 227.205 72.5323 224.558 71.0559C221.911 69.5795 218.883 68.9286 215.862 69.187L208.909 75.9548C212.072 79.4741 213.9 84.9278 213.15 89.6033C212.4 94.2787 208.356 103.184 207.972 107.905C207.143 118.18 211.181 125.653 220.572 129.9C222.89 130.949 225.456 131.654 227.971 131.299C230.487 130.943 232.946 129.342 233.775 126.933C237.909 129.003 243.3 128.795 246.808 125.805C250.316 122.816 251.185 116.878 248.139 113.398Z" fill="#263238"/>
<path d="M113.488 64.3761C113.488 64.3761 116.494 58.5671 117.244 57.9523C117.994 57.3376 119.088 57.4729 119.021 58.5163C118.953 59.5597 117.656 62.4642 117.656 62.4642C117.656 62.4642 119.912 55.843 121.683 54.5402C123.454 53.2374 123.668 54.2695 123.668 55.2283C123.668 55.2283 124.965 50.942 126.674 51.7146C128.383 52.4873 127.012 55.1549 127.012 55.1549C127.012 55.1549 128.856 51.8105 130.221 53.0062C131.586 54.2018 127.903 60.5523 127.903 60.5523C127.903 60.5523 129.268 59.9375 128.857 62.3965C128.445 64.8555 127.971 68.3409 126.809 70.3882C125.647 72.4354 122.985 77.359 120.933 80.2974C118.88 83.2357 118.208 109.252 118.208 109.252C118.208 109.252 109.326 114.514 105.023 113.832L103.331 113.556L108.863 82.0683C108.863 82.0683 107.668 79.88 107.927 76.0562C108.186 72.2324 113.488 64.3761 113.488 64.3761Z" fill="#AE7461"/>
<path d="M124.976 63.2654C124.469 63.3488 123.956 63.3941 123.442 63.4007C122.489 63.4684 121.186 63.5868 119.754 63.8124C118.321 64.038 117.041 64.3256 116.116 64.5456C115.622 64.6959 115.117 64.8053 114.605 64.8727C115.069 64.6406 115.559 64.4646 116.065 64.3482C117.26 63.9925 118.478 63.7156 119.709 63.5191C120.941 63.327 122.184 63.2177 123.431 63.192C123.947 63.1553 124.466 63.1799 124.976 63.2654Z" fill="#6F4439"/>
<path d="M123.848 54.8674C123.746 55.3489 123.587 55.8166 123.375 56.2605C123.036 57.1008 122.523 58.2457 121.891 59.4808C121.26 60.7159 120.639 61.7988 120.154 62.5658C119.92 62.9965 119.638 63.3994 119.314 63.7671C119.494 63.3127 119.717 62.8765 119.979 62.4643C120.414 61.6691 121.006 60.575 121.632 59.3455C122.258 58.116 122.794 56.9936 123.183 56.1759C123.368 55.7221 123.591 55.2844 123.848 54.8674Z" fill="#6F4439"/>
<path d="M127.334 54.5065C127.135 54.9554 126.898 55.3857 126.623 55.7924L124.813 58.8322L123.03 61.8947C122.809 62.3328 122.549 62.75 122.252 63.1411C122.404 62.672 122.604 62.2202 122.85 61.7931C123.262 60.981 123.854 59.8812 124.542 58.6856C125.23 57.4899 125.918 56.4297 126.431 55.6796C126.687 55.2555 126.989 54.862 127.334 54.5065Z" fill="#6F4439"/>
<path d="M115.513 75.7857C115.513 75.7857 115.513 75.7124 115.541 75.577C115.569 75.4417 115.625 75.2443 115.704 75.013C115.942 74.3073 116.268 73.6346 116.675 73.0109C117.278 72.0859 118.042 71.2761 118.93 70.6196C119.929 69.8751 121.153 69.2547 122.134 68.2621C124.159 66.2487 124.339 63.4175 125.614 61.9455C126.063 61.3387 126.675 60.8715 127.379 60.5976C127.572 60.5299 127.773 60.49 127.977 60.4792C128.046 60.4679 128.116 60.4679 128.185 60.4792C127.925 60.5286 127.668 60.5983 127.418 60.6878C126.76 60.9924 126.194 61.4651 125.777 62.0583C125.18 62.9594 124.721 63.9439 124.412 64.9797C123.979 66.2713 123.275 67.4556 122.348 68.4539C121.316 69.4916 120.092 70.1007 119.1 70.8226C118.22 71.449 117.457 72.2238 116.844 73.1124C116.297 73.9483 115.85 74.8455 115.513 75.7857Z" fill="#6F4439"/>
<path d="M218.829 56.9205C215.687 48.9852 209.924 43.1592 201.836 40.4352C197.273 38.9012 195.068 39.2508 191.487 39.0873C187.906 38.9237 184.353 39.7471 181.487 41.9072C178.104 44.4846 174.94 47.5752 173.208 51.4949C171.432 55.4992 169.649 59.5317 168.634 63.7954C167.619 68.0591 167.416 72.6105 168.792 76.7671L178.797 81.9783C184.584 84.0425 190.455 86.1236 196.58 86.6029C202.705 87.0823 209.219 85.7852 213.86 81.7583C220.29 76.1692 221.982 64.8557 218.829 56.9205Z" fill="#263238"/>
<path d="M209.427 53.8522L197.093 43.74L193.269 42.9899C184.962 40.3787 176.316 47.7105 174.122 54.4162C171.686 61.8608 168.995 71.0538 168.431 76.9361C167.303 88.7798 176.446 92.6995 176.446 92.6995C176.446 92.6995 175.803 94.4478 174.545 98.1419L173.163 99.1909C173.919 105.677 183.45 108.576 193.625 104.667L194.053 104.312L211.954 58.8322C212.233 57.8365 212.128 56.7724 211.66 55.8502C211.193 54.9281 210.396 54.2151 209.427 53.8522Z" fill="#AE7461"/>
<path d="M174.438 64.1903C174.336 64.5693 174.387 64.9729 174.578 65.3153C174.77 65.6576 175.088 65.9116 175.464 66.0232C175.646 66.0865 175.838 66.1126 176.03 66.1001C176.222 66.0877 176.41 66.0368 176.582 65.9506C176.754 65.8643 176.907 65.7444 177.031 65.598C177.156 65.4517 177.25 65.2817 177.308 65.0983C177.41 64.72 177.36 64.317 177.17 63.9748C176.979 63.6325 176.663 63.3781 176.288 63.2653C176.105 63.202 175.913 63.1758 175.72 63.1882C175.528 63.2006 175.34 63.2514 175.168 63.3376C174.995 63.4238 174.842 63.5437 174.716 63.6901C174.591 63.8365 174.496 64.0066 174.438 64.1903Z" fill="#263238"/>
<path d="M175.464 58.9563C175.594 59.1932 176.908 58.6574 178.476 59.0691C180.044 59.4808 180.991 60.5637 181.211 60.4171C181.318 60.3494 181.211 59.9602 180.816 59.4639C180.259 58.8194 179.517 58.3624 178.69 58.1555C177.874 57.9418 177.012 57.9911 176.225 58.2965C175.65 58.5503 175.396 58.8435 175.464 58.9563Z" fill="#263238"/>
<path d="M181.516 74.1951C181.549 74.1105 180.613 73.6875 179.091 73.0671C178.701 72.9205 178.34 72.74 178.346 72.4524C178.411 72.0265 178.608 71.6319 178.91 71.3244C179.536 70.4502 180.19 69.5366 180.884 68.5778C183.653 64.6638 185.768 61.4039 185.61 61.2968C185.452 61.1896 183.078 64.269 180.309 68.183C179.632 69.1531 178.989 70.0724 178.38 70.9578C178.001 71.3742 177.783 71.9122 177.765 72.475C177.786 72.6308 177.842 72.78 177.929 72.9109C178.016 73.0419 178.131 73.1513 178.267 73.2307C178.474 73.3499 178.696 73.441 178.927 73.5014C180.506 74.0203 181.487 74.2853 181.516 74.1951Z" fill="#263238"/>
<path d="M176.429 92.6825C181.759 94.1484 187.391 94.1074 192.7 92.5641C192.7 92.5641 186.603 99.3883 175.509 95.384L176.429 92.6825Z" fill="#6F4439"/>
<path d="M177.709 53.7225C177.872 54.1737 179.141 54.2301 180.529 54.7095C181.916 55.1889 182.965 55.8375 183.349 55.595C183.529 55.4652 183.473 55.031 183.089 54.5403C182.549 53.8855 181.83 53.4015 181.019 53.1473C180.224 52.8665 179.363 52.8253 178.544 53.0288C177.929 53.2093 177.641 53.5082 177.709 53.7225Z" fill="#263238"/>
<path d="M191.126 68.8316C191.019 69.209 190.768 69.5293 190.428 69.7235C190.087 69.9176 189.683 69.97 189.304 69.8694C189.116 69.8302 188.938 69.7535 188.78 69.6439C188.622 69.5343 188.487 69.394 188.385 69.2314C188.282 69.0687 188.213 68.8871 188.182 68.6973C188.151 68.5075 188.159 68.3134 188.205 68.1266C188.314 67.7496 188.566 67.4302 188.907 67.2363C189.249 67.0425 189.652 66.9896 190.032 67.0889C190.22 67.1287 190.397 67.2059 190.555 67.3157C190.712 67.4256 190.846 67.566 190.948 67.7286C191.05 67.8911 191.118 68.0725 191.149 68.262C191.18 68.4515 191.172 68.6452 191.126 68.8316Z" fill="#263238"/>
<path d="M196.512 65.0022C196.275 65.1376 195.424 63.9983 193.873 63.5415C192.322 63.0847 190.951 63.5415 190.838 63.2764C190.782 63.1636 191.064 62.8816 191.667 62.6673C192.48 62.4089 193.353 62.4089 194.166 62.6673C194.972 62.9095 195.683 63.3987 196.196 64.066C196.563 64.5567 196.602 64.9458 196.512 65.0022Z" fill="#263238"/>
<path d="M197.166 59.7685C196.755 60.0279 195.666 59.306 194.234 58.8548C192.801 58.4036 191.504 58.2909 191.335 57.8453C191.267 57.631 191.56 57.3321 192.198 57.1572C193.048 56.9764 193.931 57.0248 194.756 57.2973C195.582 57.5698 196.32 58.0567 196.896 58.7082C197.285 59.2214 197.341 59.6388 197.166 59.7685Z" fill="#263238"/>
<path d="M204.058 76.987C204.278 76.1411 205.75 74.3984 206.641 74.483C208.965 74.7142 212.941 75.938 211.509 81.6117C209.552 89.3721 200.404 85.5596 200.443 85.334C200.483 85.1084 203.291 79.9028 204.058 76.987Z" fill="#AE7461"/>
<path d="M205.062 83.2867C205.102 83.2867 205.175 83.4164 205.378 83.58C205.665 83.7968 206.024 83.8956 206.382 83.8563C207.279 83.7604 208.294 82.6324 208.689 81.245C208.876 80.5849 208.913 79.891 208.796 79.2147C208.784 78.9535 208.709 78.6991 208.577 78.4732C208.446 78.2473 208.261 78.0567 208.04 77.9175C207.895 77.8386 207.727 77.8123 207.564 77.8431C207.402 77.874 207.255 77.96 207.149 78.0868C206.991 78.2785 207.002 78.4477 206.957 78.4477C206.912 78.4477 206.822 78.2785 206.957 77.9739C207.045 77.791 207.195 77.6451 207.38 77.5622C207.637 77.4599 207.924 77.4599 208.181 77.5622C208.487 77.7037 208.752 77.9217 208.95 78.1954C209.148 78.4691 209.271 78.7891 209.309 79.1245C209.469 79.8712 209.444 80.6456 209.236 81.3804C208.79 82.9314 207.623 84.2003 206.416 84.2342C206.193 84.2426 205.97 84.2008 205.765 84.112C205.56 84.0232 205.378 83.8896 205.231 83.7209C205.028 83.4784 205.062 83.2923 205.062 83.2867Z" fill="#6F4439"/>
<path d="M206.946 74.6069L204.374 75.9943C198.571 65.3406 188.622 40.1306 189.146 41.5913C189.146 41.5913 195.615 41.0611 201.486 44.0954C207.357 47.1296 218.146 53.9876 215.631 61.2574C213.116 68.5272 206.946 74.6069 206.946 74.6069Z" fill="#263238"/>
<path d="M218.175 75.436C218.192 75.2823 218.192 75.1272 218.175 74.9736C218.162 74.5288 218.115 74.0857 218.034 73.6482C217.691 72.0333 217 70.5127 216.009 69.1927C214.538 67.2348 212.743 65.5429 210.702 64.1902C208.446 62.5941 205.835 61.0713 203.443 59.0184C201.173 57.1178 199.13 54.9623 197.352 52.5947C195.909 50.6609 194.643 48.6016 193.568 46.4416C192.853 44.9844 192.222 43.4874 191.679 41.9579L191.25 40.7059C191.209 40.5546 191.151 40.4088 191.075 40.2716C191.092 40.4267 191.124 40.5797 191.171 40.7284C191.25 41.0217 191.357 41.456 191.526 42.0087C192.019 43.5644 192.616 45.085 193.314 46.56C194.361 48.7563 195.613 50.8486 197.053 52.809C198.833 55.2141 200.891 57.4006 203.184 59.323C205.609 61.3985 208.26 62.9156 210.516 64.4891C212.544 65.8028 214.343 67.4415 215.84 69.3394C216.831 70.6207 217.545 72.0936 217.938 73.6651C218.152 74.7931 218.13 75.436 218.175 75.436Z" fill="#455A64"/>
<path d="M215.947 76.9418C216.146 76.3779 216.225 75.7785 216.178 75.1822C216.08 73.5424 215.491 71.97 214.486 70.6703C213.279 68.9784 211.243 67.5233 208.931 66.1585C206.387 64.754 204.007 63.0705 201.836 61.139C199.692 59.1861 197.797 56.9754 196.196 54.5573C194.886 52.5778 193.775 50.4733 192.88 48.2745C192.283 46.7899 191.778 45.2699 191.368 43.7232L191.064 42.4542C191.04 42.3018 190.995 42.1536 190.928 42.0143C190.931 42.1663 190.95 42.3176 190.985 42.4655C191.041 42.8095 191.12 43.2325 191.216 43.7626C191.565 45.3348 192.031 46.8787 192.609 48.3817C194.544 53.3714 197.612 57.8431 201.571 61.4435C203.763 63.3916 206.172 65.0815 208.75 66.4799C211.063 67.8222 213.065 69.2265 214.266 70.8452C215.271 72.0849 215.894 73.5896 216.06 75.1766C216.075 75.7672 216.037 76.358 215.947 76.9418Z" fill="#455A64"/>
<path d="M186.022 76.4962C186.259 76.4094 186.517 76.3976 186.761 76.4624C186.971 76.5615 187.142 76.7284 187.246 76.9361C187.521 77.4097 187.648 77.9551 187.611 78.5017C187.574 79.0484 187.373 79.5713 187.036 80.0029C186.698 80.4346 186.239 80.7551 185.717 80.9232C185.196 81.0913 184.636 81.0993 184.11 80.946C183.067 80.6415 181.995 79.6884 181.916 77.6129C183.196 77.2914 184.758 76.8121 186.022 76.4962Z" fill="#6F4439"/>
<path d="M184.014 81.0196C184.587 81.0704 185.165 80.9954 185.706 80.7996C186.274 80.5697 186.74 80.1434 187.02 79.5983C187.185 79.2668 187.279 78.9048 187.298 78.5351C187.316 78.1654 187.258 77.7958 187.127 77.4495C186.981 77.0942 186.772 76.7277 186.49 76.6938C186.135 76.7033 185.783 76.7661 185.447 76.8799L183.568 77.348C182.996 77.525 182.406 77.6385 181.809 77.6864C182.348 77.4196 182.915 77.2153 183.501 77.0773L185.362 76.5133C185.743 76.3661 186.149 76.2915 186.558 76.2934C186.807 76.3418 187.027 76.4854 187.172 76.6938C187.307 76.8772 187.415 77.0784 187.494 77.2916C187.645 77.6878 187.709 78.1116 187.683 78.5348C187.657 78.9579 187.54 79.3705 187.342 79.745C187.013 80.3559 186.465 80.8195 185.807 81.0421C184.691 81.4313 183.98 81.0421 184.014 81.0196Z" fill="#263238"/>
<path d="M220.329 65.2786C220.372 65.5566 220.39 65.8377 220.386 66.1189C220.405 66.4495 220.405 66.7809 220.386 67.1115C220.386 67.5007 220.352 67.9406 220.284 68.4256C220.284 68.6681 220.228 68.9219 220.2 69.1813C220.171 69.4408 220.104 69.7453 220.053 69.9991C219.968 70.5631 219.799 71.1609 219.653 71.7869C219.283 73.1395 218.804 74.4598 218.22 75.7348C217.62 77.0006 216.908 78.2105 216.094 79.35C215.682 79.8519 215.332 80.3595 214.932 80.7656L214.368 81.3803L213.804 81.9048C213.485 82.2053 213.148 82.486 212.794 82.7452C212.642 82.8636 212.496 82.9707 212.366 83.0779L211.977 83.3148C211.745 83.4771 211.5 83.6186 211.243 83.7378C211.204 83.6757 212.264 83.0892 213.657 81.7526L214.221 81.2224L214.785 80.6077C215.18 80.1959 215.518 79.6884 215.913 79.1921C216.703 78.0568 217.399 76.859 217.994 75.6108C218.571 74.3518 219.052 73.0509 219.433 71.7193C219.585 71.1045 219.76 70.518 219.856 69.9596C219.906 69.6833 219.963 69.3957 220.013 69.1531C220.064 68.9106 220.087 68.6456 220.121 68.403C220.2 67.9237 220.228 67.4894 220.262 67.1059C220.299 66.78 220.319 66.4525 220.324 66.1245C220.299 65.843 220.301 65.5598 220.329 65.2786Z" fill="#455A64"/>
<path d="M102.823 110.268L100.082 118.118C98.8517 120.053 98.3481 122.361 98.6608 124.632C99.2248 128.276 99.3771 134.006 106.433 135.314C113.488 136.623 145.612 133.859 145.612 133.859C145.612 133.859 164.788 98.3282 164.641 98.7625C160.949 98.8496 157.299 99.5806 153.858 100.923C151.72 101.851 149.682 102.996 147.778 104.34C143.057 107.532 137.746 109.749 132.156 110.86C125.845 112.129 118.795 113.556 119.038 113.556L119.748 107.109L102.823 110.268Z" fill="#C12127"/>
<path d="M199.665 170.873L212.005 108.311L197.476 103.015L196.478 97.8204L177.303 104.69L175.171 96.2864L170.924 98.7002L164.562 98.7623C164.562 98.7623 146.041 124.373 144.406 139.64C143.565 147.496 147.169 166.147 147.169 166.147L146.458 181.499L144.005 188.058C143.199 190.224 143.678 191.724 145.59 193.021L205.372 192.88C206.364 191.536 206.961 189.941 207.096 188.276C207.23 186.611 206.897 184.942 206.134 183.456L199.665 170.873Z" fill="#C12127"/>
<path opacity="0.3" d="M169.593 99.9016C169.593 99.9016 166.26 107.318 169.593 111.999L176.299 107.645L177.799 115.625C177.799 115.625 192.542 112.693 196.884 103.85C196.884 103.85 186.541 113.437 177.963 113.556L176.992 105.869L170.337 109.816C170.337 109.816 169.649 103.37 169.593 99.9016Z" fill="black"/>
<g opacity="0.3">
<path d="M205.919 183.039L169.492 191.679C168.93 191.812 168.347 191.833 167.776 191.742C167.206 191.65 166.659 191.446 166.167 191.143C165.676 190.84 165.248 190.443 164.91 189.974C164.572 189.506 164.329 188.976 164.196 188.413L151.224 133.746C151.091 133.184 151.07 132.601 151.162 132.03C151.254 131.459 151.458 130.912 151.762 130.42C152.066 129.929 152.464 129.501 152.933 129.163C153.402 128.825 153.933 128.583 154.495 128.451L192.598 119.427C193.734 119.157 194.931 119.35 195.925 119.962C196.919 120.575 197.629 121.556 197.9 122.692L202.457 176.327C203.246 177.799 205.919 183.039 205.919 183.039Z" fill="black"/>
</g>
<path d="M194.182 115.817L156.445 124.772C153.978 125.358 152.453 127.832 153.038 130.299L165.923 184.592C166.508 187.059 168.982 188.584 171.449 187.999L209.187 179.043C211.653 178.458 213.179 175.983 212.593 173.516L199.709 119.224C199.124 116.757 196.649 115.231 194.182 115.817Z" fill="#E0E0E0"/>
<path d="M209.173 179.068L209.309 179.023C209.399 178.989 209.54 178.961 209.709 178.888C210.383 178.631 210.986 178.218 211.47 177.684C211.954 177.15 212.306 176.509 212.495 175.814C212.647 175.263 212.691 174.689 212.625 174.122C212.552 173.524 212.366 172.892 212.213 172.221L206.754 149.515L203.009 133.82L200.951 125.1C200.595 123.6 200.229 122.072 199.862 120.526C199.727 119.75 199.499 118.993 199.185 118.271C198.819 117.564 198.269 116.969 197.593 116.548C196.917 116.127 196.14 115.896 195.345 115.879C194.528 115.918 193.719 116.059 192.936 116.297L188.007 117.47L177.855 119.884L156.486 124.959C155.6 125.171 154.801 125.65 154.196 126.331C153.59 127.012 153.209 127.862 153.102 128.766C153.053 129.675 153.173 130.586 153.457 131.451C153.672 132.348 153.886 133.244 154.095 134.135L156.559 144.648C158.195 151.551 159.774 158.184 161.274 164.562L165.583 182.582C165.747 183.287 165.916 183.986 166.079 184.674C166.334 185.665 166.921 186.539 167.742 187.15C168.563 187.76 169.569 188.071 170.591 188.03C171.246 187.961 171.893 187.836 172.526 187.658L174.432 187.206L178.115 186.338L200.855 180.991L207.059 179.553L208.672 179.186C209.032 179.102 209.236 179.068 209.236 179.068C209.236 179.068 209.055 179.124 208.672 179.215L207.07 179.609L200.894 181.104L178.177 186.541L174.494 187.421L172.588 187.872C171.94 188.057 171.278 188.185 170.608 188.255C169.903 188.283 169.201 188.153 168.553 187.874C167.905 187.595 167.327 187.174 166.863 186.642C166.389 186.091 166.046 185.439 165.859 184.736C165.69 184.042 165.527 183.343 165.358 182.638C164.01 176.998 162.577 170.969 161.066 164.624C159.554 158.28 157.975 151.619 156.334 144.716C155.518 141.26 154.685 137.749 153.835 134.181C153.621 133.289 153.412 132.393 153.198 131.496C153.097 131.045 152.978 130.605 152.888 130.137C152.793 129.667 152.774 129.185 152.831 128.71C152.944 127.747 153.35 126.841 153.993 126.116C154.321 125.754 154.701 125.444 155.121 125.196C155.539 124.944 155.991 124.754 156.463 124.632L177.839 119.556L187.99 117.148L192.919 115.981L194.132 115.693C194.545 115.592 194.97 115.546 195.395 115.558C196.239 115.578 197.062 115.824 197.778 116.271C198.494 116.717 199.077 117.347 199.467 118.096C199.654 118.463 199.796 118.851 199.89 119.252C199.981 119.641 200.076 120.03 200.167 120.419L201.249 124.993L203.314 133.735C204.65 139.375 205.891 144.637 207.019 149.436C209.275 159.024 211.102 166.801 212.371 172.182C212.518 172.853 212.698 173.479 212.772 174.094C212.828 174.662 212.779 175.236 212.625 175.786C212.378 176.661 211.88 177.446 211.193 178.042C210.773 178.404 210.289 178.685 209.766 178.871C209.573 178.951 209.375 179.017 209.173 179.068Z" fill="#263238"/>
<path d="M187.445 151.72C187.863 149.156 186.122 146.739 183.558 146.322C180.994 145.905 178.577 147.645 178.16 150.209C177.743 152.773 179.484 155.19 182.048 155.607C184.612 156.024 187.028 154.284 187.445 151.72Z" fill="white"/>
<path opacity="0.3" d="M160.507 165.341C160.4 165.301 161.573 168.025 165.358 169.029C169.142 170.033 177.489 170.027 179.051 170.586C180.613 171.144 211.993 177.184 211.993 177.184C211.993 177.184 212.744 176.795 212.902 173.654C213.059 170.512 160.507 165.341 160.507 165.341Z" fill="black"/>
<path d="M169.965 136.059C169.938 135.928 169.879 135.806 169.795 135.702C169.711 135.597 169.604 135.515 169.482 135.46C169.36 135.405 169.227 135.379 169.094 135.385C168.96 135.392 168.83 135.429 168.713 135.495C167.54 136.172 165.894 137.801 166.187 141.135C166.313 143.148 166.891 145.106 167.879 146.865L158.291 147.931C158.291 147.931 154.907 148.878 155.403 150.925C155.9 152.973 156.357 152.826 156.357 152.826C156.044 152.852 155.74 152.943 155.465 153.092C155.189 153.242 154.948 153.448 154.756 153.696C154.564 153.945 154.427 154.23 154.352 154.535C154.277 154.84 154.266 155.157 154.321 155.465C154.433 156.887 156.108 157.913 156.108 157.913C156.108 157.913 155.578 160.361 155.95 160.891C156.323 161.421 158.607 162.414 158.607 162.414C158.607 162.414 158.15 163.993 159.137 164.743C160.124 165.493 165.273 166.74 165.273 166.74C165.273 166.74 176.31 167.303 178.656 167.303L189.784 169.858V156.729C189.784 156.729 180.659 155.037 180.157 154.473C179.091 153.249 173.186 144.885 173.186 144.885C173.186 144.885 170.902 142.065 170.428 139.933C170.207 138.651 170.053 137.357 169.965 136.059Z" fill="#AE7461"/>
<path d="M161.974 152.663C160.072 152.787 158.165 152.768 156.266 152.606C157.214 152.513 158.168 152.487 159.12 152.527C160.073 152.503 161.027 152.549 161.974 152.663Z" fill="#6F4439"/>
<path d="M162.989 158.375C162.653 158.425 162.312 158.436 161.974 158.409C161.348 158.409 160.479 158.359 159.52 158.28C158.562 158.201 157.699 158.099 157.078 158.009C156.737 157.98 156.401 157.914 156.074 157.811C156.413 157.79 156.754 157.806 157.09 157.857L159.532 158.065L161.974 158.257C162.315 158.261 162.655 158.301 162.989 158.375Z" fill="#6F4439"/>
<path d="M162.374 163.062C161.74 163.039 161.11 162.946 160.496 162.786C159.87 162.689 159.255 162.527 158.663 162.301C159.296 162.318 159.925 162.41 160.536 162.577C161.164 162.67 161.781 162.833 162.374 163.062Z" fill="#6F4439"/>
<path d="M211.644 108.181C211.644 108.181 213.364 108.226 216.471 112.89C219.579 117.554 229.313 157.597 229.877 161.872C230.644 167.258 228.185 175.549 222.641 176.237C215.287 177.156 180.151 169.091 180.151 169.091L184.73 154.428L208.344 155.731C208.344 155.731 205.175 140.909 203.917 137.119C201.853 130.814 203.178 110.73 211.644 108.181Z" fill="#C12127"/>
<path d="M153.672 114.063C153.654 114.151 153.622 114.235 153.576 114.311L153.249 115.011C152.939 115.654 152.522 116.517 152.02 117.566C150.999 119.726 149.634 122.737 148.303 126.132C146.972 129.528 145.917 132.663 145.263 134.959C144.942 136.087 144.699 137.051 144.547 137.7C144.479 137.999 144.417 138.264 144.366 138.45C144.353 138.538 144.326 138.623 144.287 138.704C144.271 138.616 144.271 138.526 144.287 138.439C144.321 138.23 144.361 137.976 144.411 137.677C144.535 137.017 144.744 136.064 145.043 134.908C145.857 131.892 146.845 128.926 148.004 126.025C149.341 122.641 150.739 119.618 151.811 117.475C152.375 116.404 152.798 115.541 153.125 114.96C153.272 114.689 153.401 114.469 153.503 114.289C153.55 114.207 153.607 114.132 153.672 114.063Z" fill="#263238"/>
<path d="M197.279 103.37C197.198 103.497 197.108 103.618 197.008 103.731C196.822 103.951 196.568 104.295 196.179 104.713C195.111 105.887 193.93 106.954 192.654 107.899C190.737 109.325 188.654 110.512 186.45 111.435C183.742 112.597 180.879 113.358 177.951 113.691H177.81V113.55L177.579 111.734C177.325 109.709 177.083 107.741 176.846 105.863L177.06 105.97L170.394 109.884L170.253 109.969L170.213 109.805C169.626 107.303 169.404 104.729 169.553 102.163C169.61 101.244 169.7 100.522 169.773 100.037C169.813 99.7946 169.847 99.6085 169.869 99.4731C169.876 99.4094 169.891 99.3468 169.914 99.287C169.923 99.3506 169.923 99.4151 169.914 99.4787C169.914 99.6254 169.875 99.8059 169.852 100.043C169.802 100.528 169.734 101.244 169.7 102.163C169.599 104.713 169.854 107.264 170.456 109.743L170.275 109.67L176.919 105.722L177.111 105.615V105.829C177.348 107.702 177.602 109.67 177.855 111.7C177.934 112.321 178.013 112.935 178.081 113.511L177.923 113.387C183.183 112.774 188.2 110.834 192.502 107.747C193.784 106.821 194.981 105.783 196.078 104.645C196.478 104.256 196.738 103.906 196.946 103.697C197.05 103.581 197.161 103.472 197.279 103.37Z" fill="#263238"/>
<path d="M115.468 125.428C115.456 125.258 115.465 125.087 115.496 124.92C115.53 124.593 115.597 124.119 115.699 123.544C115.97 122.034 116.334 120.542 116.787 119.077C117.238 117.612 117.781 116.177 118.412 114.78C118.654 114.249 118.863 113.821 119.015 113.528C119.084 113.37 119.175 113.224 119.286 113.093C119.092 113.696 118.864 114.287 118.603 114.864C118.163 115.947 117.599 117.464 117.069 119.167C116.539 120.871 116.156 122.438 115.908 123.583C115.801 124.207 115.654 124.823 115.468 125.428Z" fill="#263238"/>
<path d="M86.2305 133.865H61.8325V175.436H86.2305V133.865Z" fill="white"/>
<path d="M86.2307 175.436C86.2307 175.436 86.2307 175.363 86.2307 175.227C86.2307 175.092 86.2307 174.889 86.2307 174.635C86.2307 174.099 86.2307 173.332 86.2307 172.34C86.2307 170.332 86.2307 167.416 86.1912 163.745C86.1912 156.413 86.1518 146.03 86.1292 133.854L86.2646 133.989H61.8666L62.0132 133.842C62.0132 149.69 61.985 164.23 61.9794 175.414L61.8666 175.301L79.6434 175.357L84.5331 175.385H85.819C86.1067 175.385 86.2646 175.385 86.2646 175.385H85.8416H84.5783H79.7111L61.8666 175.447H61.7538V175.335C61.7538 164.151 61.7538 149.611 61.72 133.763V133.617H61.8102H86.2082H86.3435V133.752C86.3435 145.951 86.2928 156.357 86.2759 163.722C86.2759 167.382 86.2759 170.287 86.242 172.283C86.242 173.265 86.242 174.026 86.242 174.539V175.103C86.2364 175.374 86.2307 175.436 86.2307 175.436Z" fill="#263238"/>
<path d="M82.4239 135.895H28.6818C27.8097 135.895 27.1027 136.602 27.1027 137.474V179.751C27.1027 180.623 27.8097 181.33 28.6818 181.33H82.4239C83.296 181.33 84.003 180.623 84.003 179.751V137.474C84.003 136.602 83.296 135.895 82.4239 135.895Z" fill="#455A64"/>
<path d="M18.8344 77.7258L18.2704 30.5711C17.7459 18.8515 24.1302 8.77308 35.8667 8.57568L36.9496 8.6208C42.2177 8.83786 47.211 11.0306 50.9357 14.7625C54.6604 18.4945 56.8433 23.4921 57.05 28.7607C57.4504 38.9124 57.7606 50.1582 57.4673 55.5894C56.8526 66.8409 45.5278 68.1381 45.5278 68.1381C45.5278 68.1381 45.4601 74.9848 44.9976 78.4872L47.6427 86.1856L30.351 90.3365L18.8344 77.7258Z" fill="#FFBF9D"/>
<path d="M45.5279 68.138C45.5279 68.138 38.416 68.2621 31.056 63.2031C31.056 63.2031 34.2313 71.8095 45.4997 71.2568L45.5279 68.138Z" fill="#FF9A6C"/>
<path d="M43.131 46.8759C43.131 46.78 44.2082 46.639 45.9509 46.4867C46.3908 46.4585 46.8138 46.3908 46.8984 46.0919C46.955 45.6382 46.8724 45.1779 46.6615 44.7722L45.4941 41.3545C43.8755 36.4929 42.7306 32.4999 42.9223 32.4379C43.1141 32.3758 44.6143 36.2617 46.2047 41.1289C46.5939 42.3245 46.9605 43.4694 47.3327 44.5579C47.5888 45.1021 47.6447 45.7192 47.4906 46.3006C47.4186 46.453 47.3133 46.5874 47.1825 46.6938C47.0517 46.8002 46.8988 46.8759 46.7349 46.9153C46.4897 46.9759 46.237 47.0006 45.9848 46.9887C44.2195 47.0112 43.131 46.9774 43.131 46.8759Z" fill="#263238"/>
<path d="M18.8346 38.9519C18.6428 38.8616 11.1982 36.3463 11.1249 44.0277C11.0516 51.7092 18.8007 50.2316 18.8176 49.9947C18.8346 49.7578 18.8346 38.9519 18.8346 38.9519Z" fill="#FFBF9D"/>
<path d="M16.4884 47.0733C16.4545 47.0733 16.353 47.1692 16.1274 47.2707C15.8054 47.4006 15.4455 47.4006 15.1235 47.2707C14.3114 46.9662 13.6402 45.6634 13.6177 44.276C13.6012 43.6156 13.7342 42.9601 14.0068 42.3584C14.0819 42.1185 14.214 41.9003 14.3917 41.7225C14.5695 41.5448 14.7877 41.4127 15.0276 41.3376C15.1827 41.2992 15.3462 41.3159 15.4903 41.3848C15.6343 41.4538 15.7499 41.5707 15.8172 41.7155C15.9187 41.9298 15.868 42.0821 15.9075 42.099C15.9469 42.1159 16.0766 41.9693 16.0146 41.6534C15.9763 41.4612 15.8703 41.289 15.7157 41.1684C15.506 41.0057 15.2403 40.9327 14.9769 40.9654C14.6601 41.0253 14.3639 41.1649 14.1162 41.3712C13.8685 41.5774 13.6775 41.8435 13.5613 42.1441C13.2287 42.8088 13.0623 43.5442 13.0763 44.2873C13.1157 45.8382 13.894 47.2989 15.0051 47.6317C15.2112 47.6942 15.4289 47.7095 15.6417 47.6763C15.8546 47.6431 16.0572 47.5623 16.2346 47.4399C16.4714 47.2707 16.5166 47.0903 16.4884 47.0733Z" fill="#FF9A6C"/>
<path d="M61.6579 25.3147C56.8245 26.0592 51.8727 25.7039 48.0151 22.7035C46.8964 21.8277 45.8618 20.8497 44.9244 19.7821C43.2325 17.8419 41.8789 15.4225 39.5722 14.2494C36.6 12.7379 33.0244 13.77 29.8661 14.8134L30.0014 14.6949C28.3485 15.438 26.8533 16.491 25.5967 17.7968C26.3593 25.2604 25.1942 32.7948 22.2128 39.6794C21.9723 40.2464 21.5186 40.6961 20.9495 40.9315C19.1447 41.6477 19.7031 39.2395 18.3608 38.7883C17.3343 38.433 16.838 38.653 14.7908 38.5909C14.0801 36.6565 13.6628 31.3832 13.065 28.5351C11.373 26.7473 9.81643 23.4592 9.75439 20.848C9.69235 18.2367 11.1305 14.9656 11.1305 14.9656C13.0819 11.2603 14.2155 9.36527 17.2103 8.33882L17.2779 8.36702C19.9681 7.31801 23.2675 7.34056 25.4444 9.22427C26.0084 5.21434 29.5954 2.07295 33.5263 1.09161C37.4573 0.110282 43.7401 0.792709 47.4849 2.34931C50.0398 3.4096 52.51 5.42866 55.3807 8.33882C55.7586 8.72232 56.1477 9.12276 56.5425 9.5401L56.6384 9.64725C57.5295 10.1649 58.5265 10.4734 59.5542 10.5496C61.2462 10.7414 62.329 10.2056 63.5021 8.93664C63.8574 8.54749 64.303 8.06246 64.7993 8.22037C64.9494 8.29017 65.0815 8.39364 65.1852 8.52275C65.2888 8.65187 65.3614 8.80315 65.3971 8.96484C65.9611 10.6568 65.211 12.5292 63.9476 13.7587C63.3332 14.3433 62.6286 14.8251 61.8609 15.1856C62.6713 16.0945 63.7638 16.7043 64.9628 16.917C65.4874 17.0026 65.9891 17.1943 66.4371 17.4803C66.8851 17.7664 67.2701 18.1408 67.5684 18.5808C67.8807 19.0218 68.0536 19.5463 68.0647 20.0866C68.0422 23.3521 64.8049 24.8297 61.6579 25.3147Z" fill="#263238"/>
<path d="M63.7222 21.942L63.6319 22.021L63.3443 22.2184C63.1928 22.3324 63.0325 22.4342 62.8649 22.5229C62.6434 22.6542 62.4135 22.771 62.1769 22.8726C60.6564 23.5415 58.9937 23.8225 57.3379 23.6904C54.8788 23.4972 52.5282 22.5961 50.5701 21.096C48.2037 19.2455 46.2403 16.9309 44.8005 14.2944C43.9996 12.9183 43.3454 11.5139 42.6235 10.2111C41.966 8.94598 41.1303 7.78171 40.142 6.75392C39.2527 5.82392 38.1431 5.13335 36.916 4.74614C36.367 4.58487 35.7961 4.51065 35.2241 4.52618C34.6895 4.55104 34.1605 4.64584 33.6505 4.80818C32.0972 5.32657 30.7938 6.40677 29.9959 7.83677C29.73 8.37553 29.5275 8.94331 29.3925 9.52872C29.3925 9.52872 29.3925 9.48924 29.3925 9.41028C29.3925 9.33132 29.4263 9.20725 29.4489 9.06625C29.549 8.62781 29.6985 8.20211 29.8944 7.79729C30.2236 7.16573 30.6564 6.59382 31.1746 6.10533C31.8643 5.45394 32.6854 4.95778 33.5829 4.65025C34.108 4.47484 34.6543 4.37052 35.2071 4.34007C35.8065 4.31901 36.4055 4.38937 36.9837 4.54874C38.2509 4.93993 39.3991 5.64402 40.3225 6.59601C41.3285 7.63949 42.1811 8.82062 42.8548 10.104C43.5879 11.4124 44.2365 12.8167 45.0374 14.1816C46.4602 16.7873 48.3937 19.0795 50.7223 20.9212C52.6438 22.4034 54.9489 23.3055 57.3661 23.5212C58.9933 23.6685 60.632 23.4208 62.143 22.7993C63.192 22.3199 63.6996 21.8913 63.7222 21.942Z" fill="#455A64"/>
<path d="M64.8048 17.0017C64.6797 17.1107 64.5414 17.2035 64.3931 17.278C64.0102 17.5091 63.6083 17.7072 63.1918 17.8702C62.5773 18.1271 61.9413 18.329 61.2912 18.4737C60.4917 18.6458 59.678 18.7439 58.8604 18.767C58.0442 18.7756 57.2288 18.7114 56.424 18.5752C55.7673 18.4555 55.1221 18.2801 54.4952 18.0507C54.0734 17.8942 53.6643 17.7057 53.2714 17.4867C52.9894 17.3344 52.8427 17.2442 52.854 17.2273C52.8653 17.2104 53.4913 17.5093 54.546 17.8533C55.1694 18.052 55.8065 18.2047 56.4522 18.3101C57.2429 18.4354 58.043 18.492 58.8435 18.4793C59.6447 18.4565 60.4426 18.3678 61.2292 18.2143C61.8694 18.0703 62.4989 17.8819 63.1129 17.6503C64.1732 17.3119 64.7766 16.9566 64.8048 17.0017Z" fill="#455A64"/>
<path d="M21.7109 22.8615C21.7864 23.0963 21.8208 23.3424 21.8124 23.589C21.8501 24.2602 21.8369 24.9332 21.7729 25.6024C21.745 26.0829 21.6675 26.5591 21.5417 27.0237C21.4891 27.1873 21.386 27.3301 21.2472 27.4315C21.1083 27.5328 20.9409 27.5875 20.769 27.5876C20.4435 27.5481 20.1412 27.3989 19.9118 27.1647L17.1595 24.6154L17.5656 24.3786C17.6897 24.9426 17.825 25.4671 17.9604 26.031C18.327 27.5876 18.671 29.0653 18.9868 30.4132L19.156 31.152L18.592 30.6332C17.4189 29.5202 16.4003 28.255 15.5634 26.8714C15.2038 26.3521 14.9243 25.7818 14.7344 25.1794C14.8472 25.1005 16.0372 27.6497 18.9248 30.2891L18.5526 30.5091C18.2254 29.1612 17.8645 27.6892 17.4866 26.1382C17.3513 25.5742 17.2215 25.0102 17.0918 24.4801L16.9057 23.6792L17.4697 24.2432L20.1768 26.8263C20.327 26.9926 20.5234 27.1104 20.7408 27.1647C20.8316 27.1644 20.9198 27.1345 20.9921 27.0795C21.0643 27.0245 21.1167 26.9475 21.1412 26.8601C21.2695 26.4311 21.3583 25.9912 21.4063 25.546C21.6827 23.8935 21.6375 22.8671 21.7109 22.8615Z" fill="#455A64"/>
<path d="M42.7869 51.3031C42.6572 51.3031 36.8933 49.0471 36.8933 49.0471C36.8933 49.0471 35.2013 52.3803 37.243 53.9087C39.2846 55.4371 41.721 54.4727 42.1101 53.5646C42.3943 52.8296 42.6206 52.0734 42.7869 51.3031Z" fill="#FF9A6C"/>
<path d="M41.5068 54.2075C41.2412 54.3077 40.97 54.3924 40.6946 54.4613C39.9411 54.5656 39.1744 54.5196 38.4387 54.3259C38.0615 54.2278 37.7091 54.0513 37.4047 53.8078C37.1002 53.5644 36.8504 53.2596 36.6716 52.9132C36.4929 52.5668 36.3891 52.1866 36.367 51.7974C36.345 51.4082 36.4052 51.0188 36.5437 50.6544C36.6674 50.1379 36.857 49.6394 37.1077 49.1711L36.8144 49.2783C38.5628 49.9325 40.1025 50.4909 41.2079 50.8687C41.787 51.1131 42.3927 51.2891 43.0126 51.3932C42.4815 51.0589 41.9138 50.7864 41.3207 50.5811C40.2435 50.1243 38.7263 49.5095 36.9836 48.8271L36.7919 48.7538L36.6904 48.9343C36.4166 49.4411 36.2099 49.9814 36.0756 50.5416C35.9359 51.0011 35.8898 51.484 35.9402 51.9616C35.9906 52.4392 36.1364 52.9018 36.3689 53.3221C36.8402 53.9967 37.5325 54.4854 38.3259 54.7038C39.1165 54.8781 39.9366 54.8685 40.7228 54.6756C41.2981 54.5121 41.5068 54.2188 41.5068 54.2075Z" fill="#263238"/>
<path d="M52.6904 39.2056C52.6787 39.6315 52.5012 40.036 52.1957 40.3331C51.8902 40.6301 51.4809 40.7962 51.0549 40.7961C50.8469 40.8021 50.6398 40.7665 50.4458 40.6914C50.2517 40.6163 50.0747 40.5032 49.9249 40.3587C49.7752 40.2142 49.6559 40.0413 49.5739 39.8501C49.4919 39.6588 49.4489 39.4532 49.4475 39.2451C49.4578 38.8192 49.6339 38.4141 49.9383 38.116C50.2427 37.8179 50.6514 37.6504 51.0774 37.649C51.2863 37.6422 51.4945 37.6774 51.6895 37.7525C51.8846 37.8276 52.0626 37.9411 52.213 38.0863C52.3634 38.2314 52.4832 38.4053 52.5652 38.5976C52.6472 38.7898 52.6898 38.9966 52.6904 39.2056Z" fill="#263238"/>
<path d="M53.6944 33.6222C53.4857 33.8252 52.2957 32.8552 50.5474 32.7875C48.799 32.7198 47.4849 33.5489 47.3045 33.3515C47.2142 33.2556 47.4342 32.8721 48.0094 32.4886C48.7835 31.9887 49.6947 31.7441 50.615 31.7892C51.5268 31.8248 52.4029 32.1531 53.1135 32.7254C53.6324 33.1372 53.7959 33.5319 53.6944 33.6222Z" fill="#263238"/>
<path d="M36.6168 38.4726C36.6065 38.8981 36.4302 39.3026 36.1257 39.5997C35.8211 39.8969 35.4124 40.0632 34.9869 40.0631C34.7785 40.0699 34.5708 40.0348 34.3761 39.9601C34.1814 39.8853 34.0036 39.7723 33.8533 39.6278C33.703 39.4832 33.5831 39.3101 33.5008 39.1184C33.4184 38.9268 33.3753 38.7207 33.3739 38.5121C33.3842 38.0862 33.5603 37.6811 33.8647 37.383C34.1691 37.0849 34.5778 36.9174 35.0038 36.9161C35.2125 36.91 35.4203 36.9458 35.6151 37.0212C35.8098 37.0966 35.9875 37.2101 36.1377 37.3551C36.288 37.5001 36.4077 37.6736 36.49 37.8655C36.5723 38.0574 36.6154 38.2639 36.6168 38.4726Z" fill="#263238"/>
<path d="M36.5661 33.3177C36.3518 33.5207 35.1618 32.5507 33.4134 32.483C31.6651 32.4153 30.3566 33.2444 30.1762 33.0188C30.0859 32.9173 30.3059 32.5394 30.8811 32.1503C31.6589 31.6613 32.5696 31.4267 33.4868 31.4791C34.3959 31.5143 35.2698 31.8405 35.9796 32.4097C36.4984 32.827 36.6676 33.2218 36.5661 33.3177Z" fill="#263238"/>
<path d="M37.3557 27.8076C37.0963 28.2475 35.4269 27.7061 33.3627 27.5707C31.2985 27.4354 29.5727 27.6948 29.381 27.2211C29.2964 26.9955 29.663 26.6007 30.4018 26.2679C31.3771 25.8568 32.4377 25.6884 33.4924 25.7773C34.5491 25.8471 35.5738 26.168 36.4815 26.7135C37.164 27.1534 37.4685 27.5989 37.3557 27.8076Z" fill="#263238"/>
<path d="M53.9877 28.4279C53.6155 28.8171 52.1999 28.3602 50.491 28.2982C48.7821 28.2362 47.3271 28.4843 47.0056 28.0557C46.8646 27.847 47.1015 27.4466 47.7444 27.0856C48.6289 26.6423 49.6172 26.4474 50.6038 26.5217C51.5902 26.5549 52.5483 26.8593 53.373 27.4015C53.9651 27.8132 54.1513 28.2362 53.9877 28.4279Z" fill="#263238"/>
<path d="M25.1964 107.673C29.0653 111.367 59.5486 126.251 74.7142 125.332C89.8797 124.412 108.948 83.5178 108.948 83.5178L94.4705 75.2442L90.7934 80.5456L69.6552 101.413C69.6552 101.413 47.1466 84.894 42.3133 81.9048C37.4799 78.9157 29.4488 69.7284 17.9604 79.6094C6.47207 89.4904 17.2949 100.133 25.1964 107.673Z" fill="#C12127"/>
<path d="M97.1382 72.7063C97.1382 72.7063 93.8558 70.0894 93.6302 68.5328C93.4046 66.9762 93.743 65.4196 93.241 64.4721C92.7391 63.5246 95.0232 63.0283 96.1907 64.4721C97.3581 65.9159 98.3056 66.9762 98.3056 66.9762C98.3056 66.9762 99.5295 59.3004 100.082 57.0783C100.635 54.8562 101.532 49.346 101.774 47.4905C102.017 45.635 102.552 43.0407 103.607 43.0407H103.889C103.889 43.0407 105.113 43.1535 104.887 44.2081C104.887 44.2081 105.389 39.0364 107.893 39.2056C107.893 39.2056 109.45 39.2056 109.224 41.7097C108.999 44.2138 108.559 47.4341 108.559 47.4341L110.251 41.3713C110.251 41.3713 110.414 39.482 112.084 39.7583C113.753 40.0347 113.533 41.5405 113.212 44.0953C112.89 46.6502 111.824 52.6059 111.824 52.6059C111.824 52.6059 114.046 44.8793 114.938 44.3209C115.829 43.7626 117.385 43.7062 116.883 46.543C116.381 49.3799 115.107 55.4991 115.107 55.4991C115.107 55.4991 114.768 65.2842 114.328 67.3992C113.888 69.5141 107.561 82.7339 107.561 82.7339L96.2696 76.3327C96.2696 76.3327 98.3056 74.0373 98.1364 73.8737C97.9672 73.7102 97.1382 72.7063 97.1382 72.7063Z" fill="#FFBF9D"/>
<path d="M98.2041 66.9255C98.1961 67.4921 98.149 68.0574 98.0631 68.6175C98.0678 69.1837 98.0282 69.7494 97.9446 70.3094C97.7384 69.7609 97.6781 69.1681 97.7698 68.5893C97.7649 68.0061 97.9148 67.432 98.2041 66.9255Z" fill="#FF9A6C"/>
<path d="M103.15 54.732C103.104 54.1776 103.117 53.6198 103.19 53.0683C103.263 52.0418 103.415 50.6262 103.68 49.0809C103.945 47.5356 104.244 46.1482 104.532 45.133C104.653 44.5899 104.825 44.0593 105.045 43.5482C104.982 44.1003 104.878 44.6469 104.735 45.1838C104.521 46.182 104.233 47.5694 103.968 49.1317C103.703 50.6939 103.522 52.07 103.404 53.0796C103.361 53.6359 103.276 54.1883 103.15 54.732Z" fill="#FF9A6C"/>
<path d="M107.256 54.7322C107.198 54.2886 107.198 53.8393 107.256 53.3956C107.336 52.3268 107.473 51.2631 107.668 50.2091C107.857 49.1522 108.1 48.1056 108.395 47.0733C108.491 46.6382 108.642 46.2173 108.846 45.8213C108.803 46.264 108.72 46.702 108.598 47.1297C108.418 47.925 108.181 49.0304 107.955 50.2599C107.73 51.4893 107.572 52.606 107.459 53.4182C107.43 53.8613 107.362 54.301 107.256 54.7322Z" fill="#FF9A6C"/>
<path d="M111.238 56.0349C111.216 54.4298 111.566 52.8413 112.259 51.3933C112.148 52.1781 111.984 52.9545 111.768 53.7169C111.64 54.5 111.463 55.2742 111.238 56.0349Z" fill="#FF9A6C"/>
<path d="M72.1647 109.613C72.1361 109.558 72.1152 109.499 72.1027 109.439L71.9617 108.908C71.8433 108.429 71.6741 107.747 71.4654 106.878C71.2266 105.803 70.9022 104.749 70.4953 103.725C70.2324 103.094 69.8994 102.494 69.5027 101.938C69.0482 101.322 68.5001 100.782 67.8784 100.336C65.3123 98.3506 62.1766 96.0777 58.6573 93.6075C55.138 91.1372 51.2465 88.4639 47.2253 85.5538C45.2176 84.0987 43.2774 82.6887 41.3204 81.369C39.3634 80.0493 37.474 78.8593 35.6806 77.7088C34.8059 77.1465 33.8807 76.6669 32.9171 76.2762C32.4613 76.0937 31.9799 75.9833 31.4902 75.9491L30.7626 75.8702H30.0464C28.2818 75.8319 26.521 76.0484 24.8182 76.5131C22.3532 77.1877 19.9966 78.2093 17.8192 79.5474C17.0409 80.0155 16.4544 80.4102 16.0596 80.6753L15.6084 80.9799C15.558 81.0185 15.5031 81.0507 15.4448 81.0757C15.4876 81.0315 15.5349 80.9918 15.5858 80.9573L16.0257 80.6302C16.4092 80.3426 16.9845 79.9365 17.7572 79.4515C19.9264 78.0541 22.2907 76.986 24.7731 76.2819C26.4917 75.7969 28.2722 75.5669 30.0577 75.5995H30.7852L31.524 75.6728C32.0343 75.7114 32.5361 75.8254 33.0129 76.0112C33.9963 76.4026 34.9404 76.886 35.8329 77.455C37.6545 78.5829 39.5664 79.7899 41.5065 81.1096C43.4466 82.4293 45.4149 83.8393 47.4284 85.2944C51.4439 88.1989 55.3242 90.8778 58.8434 93.365C62.3627 95.8521 65.4759 98.1363 68.0364 100.133C68.6684 100.596 69.224 101.156 69.6832 101.791C70.0817 102.363 70.4147 102.978 70.6758 103.624C71.0728 104.659 71.3841 105.724 71.6064 106.81C71.7925 107.685 71.9391 108.373 72.0463 108.858C72.0914 109.078 72.1309 109.252 72.1591 109.388C72.1716 109.462 72.1735 109.538 72.1647 109.613Z" fill="#263238"/>
<path d="M5.91931 192.982L7.98349 184.336L68.6569 185.43L71.4656 192.982H5.91931Z" fill="#263238"/>
<path d="M16.4263 70.5012C14.96 70.9919 -0.634211 85.7626 0.0200112 102.998C0.674233 120.233 8.95916 173.067 8.95916 173.067C8.95916 173.067 1.80784 175.994 3.91714 182.655C6.02644 189.316 69.3393 187.167 69.3393 187.167C69.3393 187.167 69.9428 187.731 70.2135 182.616C70.5914 175.571 59.7121 107.042 59.7121 107.042C59.7121 107.042 50.2259 87.934 46.1765 78.961L45.5617 73.9415L18.2254 64.6583L16.4263 70.5012Z" fill="#C12127"/>
<path opacity="0.3" d="M28.1854 109.613C28.1854 109.613 49.3123 127.475 63.034 128.653L62.0132 122.004L28.1854 109.613Z" fill="black"/>
<path d="M22.8954 106.066C23.0373 106.132 23.1715 106.213 23.2958 106.308L24.4238 107.042C24.8975 107.369 25.4841 107.764 26.1834 108.17C26.8828 108.576 27.6498 109.128 28.5409 109.653C29.432 110.177 30.3851 110.781 31.4454 111.345C32.5057 111.909 33.6449 112.557 34.8293 113.2C37.2544 114.458 39.9503 115.766 42.8435 117.013C45.7367 118.259 48.5397 119.32 51.1115 120.228C53.6833 121.136 56.0351 121.863 58.0203 122.427C59.0073 122.726 59.9097 122.957 60.6992 123.177C61.4888 123.397 62.1769 123.572 62.7352 123.707L64.0211 124.046C64.1735 124.077 64.3227 124.122 64.4667 124.181C64.3123 124.169 64.1594 124.142 64.0098 124.102L62.707 123.82C62.1431 123.702 61.455 123.538 60.6598 123.335C59.8646 123.132 58.9678 122.912 57.9639 122.624C55.9674 122.089 53.6156 121.361 51.0213 120.487C48.427 119.613 45.624 118.53 42.7251 117.284C39.8262 116.037 37.1247 114.712 34.7052 113.443C33.5039 112.789 32.359 112.18 31.3213 111.553C30.2836 110.927 29.2684 110.437 28.3942 109.873C27.5201 109.309 26.7418 108.807 26.0593 108.356C25.3769 107.905 24.7904 107.498 24.3279 107.154L23.2507 106.37C23.1257 106.277 23.007 106.175 22.8954 106.066Z" fill="#263238"/>
<path d="M45.3305 73.9698C45.3734 74.1209 45.4017 74.2757 45.4151 74.4322C45.4715 74.765 45.5448 75.2049 45.6351 75.7576C45.9125 77.3779 46.2777 78.982 46.7292 80.5627L46.7912 80.7883L46.5769 80.6981C43.5088 79.3502 39.3974 77.6413 34.8291 75.9945C29.7871 74.1671 25.1512 72.7516 21.7673 71.8041L17.7517 70.7043L16.6519 70.3941C16.5218 70.3668 16.395 70.3252 16.274 70.27C16.406 70.2773 16.5366 70.3 16.6632 70.3377L17.7912 70.5802C18.7499 70.8002 20.1317 71.1442 21.8349 71.5841C25.2188 72.4865 29.8999 73.8682 34.9476 75.7012C39.5328 77.3537 43.6329 79.0851 46.6897 80.4781L46.5374 80.6078C46.1025 79.0154 45.7672 77.3974 45.5336 75.7632C45.4546 75.1992 45.4038 74.7311 45.3756 74.421C45.3455 74.2725 45.3304 74.1213 45.3305 73.9698Z" fill="#263238"/>
<path d="M13.7812 172.684C12.9373 172.945 12.0674 173.114 11.1869 173.186C10.3193 173.352 9.43621 173.424 8.5531 173.4C9.39536 173.132 10.266 172.964 11.1474 172.898C12.015 172.731 12.8981 172.66 13.7812 172.684Z" fill="#263238"/>
</svg>
