<svg width="250" height="241" viewBox="0 0 250 241" fill="none" xmlns="http://www.w3.org/2000/svg">
<path d="M18.4743 203.216L45.3123 202.584L40.1261 160.631L13.9397 166.556L18.4743 203.216Z" fill="#213C90"/>
<g opacity="0.2">
<path d="M18.4744 203.216L45.3124 202.585L40.1262 160.631L13.9398 166.557L18.4744 203.216Z" fill="white"/>
</g>
<path d="M52.7354 150.635L60.387 212.547L105.531 212.379L213.669 237.632L195.276 88.9514L96.5562 139.806L52.7354 150.635Z" fill="#213C90"/>
<path opacity="0.2" d="M52.7354 150.635L60.387 212.547L105.531 212.379L213.669 237.632L195.276 88.9514L96.5562 139.806L52.7354 150.635Z" fill="white"/>
<path opacity="0.1" d="M213.669 237.645L105.538 212.393L60.3939 212.568L58.4255 196.666C71.774 197.949 106.794 201.295 107.513 201.537L213.669 237.645Z" fill="black"/>
<path d="M216.124 237.709C229.387 236.069 236.002 201.289 230.899 160.027C225.796 118.765 210.908 86.6454 197.645 88.2857C184.381 89.9259 177.766 124.705 182.869 165.967C187.972 207.229 202.861 239.349 216.124 237.709Z" fill="#213C90"/>
<path opacity="0.2" d="M188.303 164.024C192.837 200.657 205.312 229.262 216.168 227.918C227.025 226.574 232.157 195.793 227.629 159.16C223.101 122.528 210.613 93.8959 199.763 95.2328C188.914 96.5696 183.775 127.364 188.303 164.024Z" fill="black"/>
<path d="M191.507 163.601C192.112 168.478 192.851 173.207 193.731 177.742C196.125 179.243 198.897 180.034 201.723 180.023C204.549 180.012 207.314 179.2 209.697 177.68C212.08 176.161 213.984 173.997 215.186 171.439C216.389 168.882 216.841 166.036 216.491 163.231L215.624 156.218C215.286 153.42 214.164 150.775 212.386 148.588C210.609 146.401 208.248 144.762 205.579 143.86C202.909 142.958 200.038 142.829 197.298 143.49C194.559 144.15 192.062 145.572 190.096 147.592C190.358 152.744 190.828 158.112 191.507 163.601Z" fill="#213C90"/>
<path opacity="0.2" d="M191.507 163.601C192.112 168.478 192.851 173.207 193.731 177.742C196.125 179.243 198.897 180.034 201.723 180.023C204.549 180.012 207.314 179.2 209.697 177.68C212.08 176.161 213.984 173.997 215.186 171.439C216.389 168.882 216.841 166.036 216.491 163.231L215.624 156.218C215.286 153.42 214.164 150.775 212.386 148.588C210.609 146.401 208.248 144.762 205.579 143.86C202.909 142.958 200.038 142.829 197.298 143.49C194.559 144.15 192.062 145.572 190.096 147.592C190.358 152.744 190.828 158.112 191.507 163.601Z" fill="white"/>
<path d="M36.8208 218.949L88.7233 217.726L78.6867 136.594L28.054 148.062L36.8208 218.949Z" fill="#213C90"/>
<g opacity="0.1">
<path d="M36.8208 218.949L88.7233 217.726L78.6867 136.594L28.054 148.062L36.8208 218.949Z" fill="black"/>
</g>
<path opacity="0.2" d="M190.211 94.1578C186.704 99.2298 184.924 105.269 183.453 111.215C182.108 117.225 181.244 123.333 180.866 129.48C180.591 132.551 180.591 135.627 180.483 138.704C180.551 141.781 180.524 144.858 180.658 147.928C180.792 150.998 180.927 154.075 181.209 157.138C181.491 160.201 181.726 163.265 182.076 166.321C183.56 178.514 185.73 190.681 189.411 202.444C191.223 208.334 193.552 214.053 196.371 219.534C199.341 224.908 202.767 230.222 207.724 233.917C203.022 229.926 199.824 224.579 197.144 219.138C194.505 213.637 192.352 207.916 190.708 202.04C187.392 190.281 185.09 178.259 183.829 166.106C182.391 154.014 181.612 141.741 182.21 129.554C182.43 123.463 183.126 117.399 184.292 111.416C185.468 105.457 187.047 99.4515 190.211 94.1578Z" fill="black"/>
<path d="M128.077 92.4513C126.632 100.345 116.3 102.044 114.722 100.352C108.313 93.506 101.507 80.1979 94.1379 65.3379C88.3739 53.7294 92.0822 53.3599 97.0938 56.4568C108.749 63.6651 128.856 88.2123 128.077 92.4513Z" fill="#213C90"/>
<path opacity="0.1" d="M128.077 92.4579C126.633 100.345 116.307 102.044 114.722 100.351C108.313 93.5059 101.515 80.1978 94.1383 65.3378C91.3504 59.7149 90.6652 56.1947 91.7602 55.1534L127.929 90.8859C128.093 91.3928 128.143 91.9294 128.077 92.4579Z" fill="black"/>
<path d="M110.516 92.8475C109.092 87.8359 113.277 80.2917 122.985 62.0728C124.328 59.5468 144.657 66.2916 143.36 69.0594C141.728 72.5392 133.216 85.6056 131.55 87.3858C123.415 96.0922 111.49 96.24 110.516 92.8475Z" fill="#EB9481"/>
<path d="M135.802 75.8916C135.802 75.8916 143.017 73.1239 147.646 71.0951C150.225 69.9597 154.485 67.6219 156.003 65.9223C158.274 63.3762 166.14 51.2907 163.245 49.3223C160.632 47.5354 155.183 58.7811 155.183 58.7811C155.183 58.7811 161.68 47.9183 158.132 46.353C154.585 44.7878 150.152 58.3042 150.152 58.3042C150.152 58.3042 156.574 46.998 152.657 45.9567C149.695 45.1707 144.965 57.2092 144.965 57.2092C144.965 57.2092 150.414 47.4548 147.411 46.5143C144.092 45.473 139.033 56.2955 139.033 56.2955C130.972 55.1938 124.778 58.9827 122.541 62.9261C122.111 63.6785 135.802 75.8916 135.802 75.8916Z" fill="#EB9481"/>
<path d="M153.511 62.1605C158.885 54.5222 159.208 49.1277 159.174 49.2688C158.294 52.6278 155.882 57.3303 155.184 58.6739C154.485 60.0175 154.156 60.8102 153.464 62.1269C153.41 62.1672 153.457 62.1873 153.511 62.1605Z" fill="#263238"/>
<path d="M148.391 60.2589C150.711 57.267 152.48 53.8869 153.618 50.2761C153.618 50.135 153.584 50.1551 153.517 50.2761C152.677 51.969 149.265 58.5727 148.351 60.2253C148.338 60.2656 148.371 60.279 148.391 60.2589Z" fill="#263238"/>
<path d="M143.897 58.9156C145.649 56.5609 146.945 53.8998 147.72 51.0691C147.76 50.9347 147.652 50.9683 147.592 51.0691C146.376 53.6958 145.436 55.7716 143.817 58.8283C143.79 58.9089 143.864 58.9693 143.897 58.9156Z" fill="#263238"/>
<path d="M138.946 78.8409L117.348 68.4819C117.348 68.4819 107.157 89.1999 109.522 93.7748C110.583 95.7901 114.291 101.131 118.457 101.272C128.03 101.601 138.946 78.8409 138.946 78.8409Z" fill="#213C90"/>
<path d="M116.099 73.8698C118.49 75.1261 120.936 76.2547 123.388 77.3766C125.84 78.4985 128.298 79.6271 130.777 80.6885C132.181 81.2864 133.579 81.8977 135.003 82.4486C135.043 82.4486 135.07 82.4016 135.037 82.3814C132.652 81.1252 130.2 79.9831 127.761 78.8478C125.322 77.7125 122.85 76.5973 120.371 75.4888C118.974 74.8775 117.57 74.2863 116.146 73.7355C116.092 73.722 116.032 73.8295 116.099 73.8698Z" fill="#263238"/>
<path d="M117.617 68.4481C117.409 68.3003 117.107 68.1189 117.08 68.1726C116.408 69.5162 115.824 71.0143 115.266 72.4116C114.709 73.8089 114.198 75.1794 113.701 76.5767C113.432 77.3291 113.177 78.0882 112.948 78.8474C112.309 79.7079 111.838 80.681 111.558 81.7159C111.558 81.7696 111.632 81.7965 111.645 81.7159C111.932 80.8027 112.341 79.9327 112.861 79.1295C112.278 80.9884 111.979 82.9249 111.974 84.8733C111.974 81.9645 113.244 79.1497 114.211 76.4625C114.695 75.1189 115.212 73.7754 115.73 72.4318C116.247 71.0882 116.825 69.7849 117.329 68.4481L117.611 68.5824C117.678 68.6294 117.658 68.4816 117.617 68.4481Z" fill="#263238"/>
<path d="M93.8022 55.8247C97.8329 58.2767 105.008 69.0455 108.454 81.8297C109.323 85.4092 110.012 89.0303 110.516 92.6791C112.532 106.034 115.219 121.008 115.494 125.993C115.837 132.637 104.255 144.172 98.5585 142.734C92.8617 141.297 83.4835 143.762 93.4663 105.893C96.0863 95.944 99.0086 74.131 95.6967 62.1597C95.1729 60.0173 94.5406 57.9029 93.8022 55.8247Z" fill="#213C90"/>
<path d="M153.121 220.239C151.26 219.842 106.727 193.623 105.659 191.547C105.249 190.761 108.695 184.056 113.049 176.096C113.996 174.369 114.983 172.596 115.998 170.795C122.568 159.119 129.817 146.879 129.817 146.879L159.657 164.346L145.019 187.785L141.842 192.91C141.842 192.91 154.404 210.578 155.324 212.977C156.245 215.375 154.989 220.635 153.121 220.239Z" fill="#EB9481"/>
<path d="M153.121 220.239C151.26 219.843 106.727 193.623 105.659 191.547C105.303 190.875 107.936 185.561 111.571 178.837C113.304 181.484 139.161 203.854 147.733 205.991C151.233 206.864 145.805 198.547 145.577 198.191C149.352 203.599 154.72 211.398 155.311 212.937C156.245 215.349 154.989 220.636 153.121 220.239Z" fill="#263238"/>
<path d="M146.081 198.883C146.081 198.883 142.191 195.443 134.721 198.46L146.081 198.883Z" fill="#263238"/>
<path d="M179.395 127.364C176.593 141.27 147.545 187.697 147.545 187.697L115.696 168.437L137.099 135.09C137.099 135.09 93.4325 140.33 76.8259 133.336C59.0637 125.873 61.6501 104.597 61.6501 104.597L104.88 99.4578C104.88 99.4578 106.029 103.522 110.886 103.153C127.627 101.849 150.461 102.481 159.254 103.435C170.594 104.671 181.968 114.607 179.395 127.364Z" fill="#37474F"/>
<path d="M146.981 123.441C145.973 124.434 145.029 125.488 144.152 126.598C143.185 127.707 142.204 128.802 141.23 129.91V129.944L141.774 128.95C142.446 127.821 142.95 126.652 143.689 125.591C143.729 125.523 143.635 125.449 143.588 125.517C142.829 126.571 141.969 127.532 141.304 128.688C140.995 129.218 140.693 129.756 140.417 130.3C140.263 130.595 140.102 130.898 139.96 131.2C139.9 131.341 139.819 131.489 139.772 131.637C139.336 132.154 138.906 132.671 138.483 133.202C137.555 134.371 136.716 135.62 135.795 136.783C135.742 136.843 135.842 136.91 135.896 136.85C136.843 135.761 137.911 134.76 138.852 133.686C139.792 132.611 140.76 131.455 141.687 130.327C142.614 129.198 143.467 128.083 144.374 126.968C145.354 125.877 146.265 124.726 147.102 123.521C147.068 123.461 147.021 123.407 146.981 123.441Z" fill="#263238"/>
<path d="M149.594 180.221C148.761 179.589 147.875 179.011 147.008 178.427C146.141 177.843 145.295 177.265 144.428 176.694C142.668 175.525 140.881 174.383 139.094 173.241C135.514 170.943 131.906 168.693 128.292 166.442C126.277 165.179 124.221 163.957 122.185 162.707C122.152 162.707 122.098 162.747 122.138 162.768C125.596 165.146 129.076 167.495 132.578 169.815C136.08 172.135 139.663 174.423 143.327 176.68C144.334 177.298 145.349 177.908 146.37 178.508C147.404 179.112 148.439 179.757 149.507 180.301C149.574 180.328 149.635 180.254 149.594 180.221Z" fill="#263238"/>
<path d="M67.5951 105.934C67.163 111.594 68.9102 117.206 72.479 121.62C74.2774 123.766 76.4743 125.543 78.9484 126.853C81.4432 128.124 84.1231 128.992 86.8889 129.426C92.4256 130.365 98.028 130.861 103.643 130.911C109.264 131.01 114.88 130.842 120.492 130.407C126.097 130.034 131.673 129.305 137.186 128.224C138.529 127.935 139.927 127.619 141.27 127.243C141.942 127.048 142.614 126.847 143.286 126.625C143.952 126.351 144.646 126.148 145.355 126.02C145.74 125.958 146.133 125.977 146.51 126.074C146.723 126.134 146.916 126.247 147.071 126.404C147.227 126.561 147.339 126.755 147.397 126.968C147.449 127.163 147.472 127.364 147.464 127.566C147.453 127.77 147.405 127.97 147.323 128.157C147.189 128.506 147.034 128.829 146.873 129.144C146.201 130.401 145.496 131.616 144.777 132.826C138.919 142.452 132.645 151.804 126.357 161.142C129.424 156.421 132.465 151.685 135.479 146.933C138.496 142.184 141.526 137.427 144.374 132.591C145.079 131.375 145.785 130.159 146.389 128.916C146.544 128.6 146.698 128.291 146.819 127.975C146.878 127.841 146.912 127.698 146.92 127.552C146.929 127.403 146.913 127.253 146.873 127.109C146.745 126.544 146.04 126.437 145.395 126.538C144.72 126.666 144.061 126.864 143.427 127.129C142.755 127.357 142.083 127.566 141.411 127.76C140.068 128.143 138.67 128.432 137.293 128.761C131.749 129.868 126.139 130.619 120.499 131.012C114.878 131.419 109.244 131.567 103.596 131.455C97.9504 131.4 92.319 130.872 86.7613 129.877C84.0069 129.299 81.2056 128.614 78.6998 127.189C76.198 125.84 73.9843 124.014 72.1834 121.815C70.436 119.591 69.1522 117.04 68.408 114.311C67.6218 111.593 67.3462 108.753 67.5951 105.934Z" fill="#263238"/>
<path d="M111.86 223.356C110.12 222.584 72.0228 187.664 71.4114 185.413C71.1763 184.56 75.9326 178.696 81.8914 171.816C83.1745 170.325 84.5113 168.793 85.8818 167.248C94.736 157.171 104.376 146.732 104.376 146.732L129.904 170.016L110.718 189.894L106.486 194.254C106.486 194.254 115.091 214.146 115.494 216.685C115.897 219.225 113.586 224.129 111.86 223.356Z" fill="#EB9481"/>
<path d="M111.86 223.356C110.126 222.584 72.0292 187.664 71.4179 185.414C71.2096 184.661 74.8843 180.039 79.8421 174.208C80.9841 177.157 101.615 204.439 109.549 208.295C112.8 209.88 109.219 200.616 109.065 200.233C111.631 206.279 115.259 215.06 115.514 216.685C115.89 219.225 113.586 224.135 111.86 223.356Z" fill="#263238"/>
<path d="M109.401 200.972C109.401 200.972 106.318 196.8 98.377 198.198L109.401 200.972Z" fill="#263238"/>
<path d="M159.987 130.609C157.186 144.515 119.861 182.673 115.548 187.039L114.547 188.047L87.4338 164.125L87.7965 163.721L108.36 141.082C108.36 141.082 76.6918 151.831 63.1284 132.228C57.7541 124.442 61.6303 104.597 61.6303 104.597L96.3618 100.614C96.3618 100.614 96.953 106.559 101.81 106.183C118.558 104.879 131.718 103.643 140.512 104.597C151.872 105.833 162.56 117.852 159.987 130.609Z" fill="#37474F"/>
<path d="M102.777 106.109C113.526 105.081 124.342 104.187 135.184 104.201C136.528 104.201 137.871 104.248 139.255 104.335C140.621 104.399 141.98 104.57 143.32 104.846C143.988 105.018 144.642 105.242 145.275 105.517C145.906 105.779 146.531 106.055 147.142 106.364C148.366 106.971 149.543 107.67 150.662 108.453C152.924 110.004 154.915 111.918 156.554 114.116C158.195 116.325 159.382 118.836 160.047 121.506C160.372 122.841 160.568 124.204 160.632 125.577C160.632 125.92 160.632 126.249 160.632 126.605C160.632 126.961 160.632 127.277 160.632 127.64C160.572 128.318 160.467 128.991 160.316 129.655C159.632 132.3 158.611 134.847 157.279 137.233C154.65 141.981 151.642 146.511 148.284 150.776C144.979 155.069 141.492 159.214 137.912 163.271C134.331 167.329 130.609 171.266 126.854 175.162C130.535 171.198 134.17 167.188 137.69 163.07C141.21 158.952 144.663 154.807 147.915 150.487C151.215 146.214 154.184 141.696 156.796 136.971C158.096 134.624 159.09 132.12 159.752 129.521C159.896 128.874 159.995 128.219 160.047 127.559C160.085 126.888 160.085 126.215 160.047 125.544C159.983 124.211 159.789 122.888 159.469 121.593C158.836 118.997 157.695 116.551 156.11 114.399C154.519 112.242 152.58 110.365 150.373 108.843C149.277 108.071 148.125 107.381 146.927 106.78C146.329 106.478 145.725 106.203 145.1 105.947C144.494 105.674 143.867 105.449 143.226 105.276C141.915 105.002 140.585 104.827 139.249 104.752C137.905 104.658 136.561 104.611 135.218 104.584C129.844 104.496 124.409 104.711 119.008 104.98C113.606 105.249 108.165 105.672 102.777 106.109Z" fill="#263238"/>
<path d="M119.559 127.687C118.552 128.676 117.609 129.728 116.737 130.838C115.763 131.946 114.782 133.041 113.815 134.15V134.183C113.996 133.854 114.171 133.511 114.359 133.189C114.997 132.067 115.528 130.898 116.267 129.83C116.277 129.817 116.281 129.8 116.278 129.784C116.276 129.767 116.267 129.753 116.253 129.743C116.24 129.733 116.223 129.729 116.207 129.731C116.191 129.734 116.176 129.743 116.166 129.756C115.414 130.818 114.547 131.812 113.882 132.934C113.573 133.458 113.277 133.995 112.995 134.539C112.841 134.842 112.686 135.137 112.545 135.439C112.472 135.584 112.407 135.732 112.35 135.883C111.914 136.393 111.484 136.917 111.067 137.441C110.133 138.61 109.294 139.86 108.38 141.022C108.333 141.083 108.434 141.15 108.481 141.089C109.428 140.008 110.496 139.007 111.437 137.925C112.377 136.844 113.351 135.695 114.272 134.566C115.192 133.438 116.059 132.329 116.959 131.207C117.935 130.113 118.844 128.959 119.68 127.754C119.653 127.707 119.599 127.647 119.559 127.687Z" fill="#263238"/>
<path d="M118.033 181.745C117.321 180.98 116.535 180.261 115.783 179.535C115.03 178.81 114.291 178.104 113.532 177.399C111.994 175.948 110.422 174.524 108.83 173.093C105.692 170.231 102.508 167.403 99.3239 164.574C97.5436 162.989 95.7298 161.437 93.9496 159.872C93.916 159.872 93.8555 159.872 93.8891 159.926C96.8987 162.85 99.9352 165.75 102.999 168.625C106.062 171.501 109.215 174.362 112.457 177.211C113.344 177.99 114.244 178.756 115.145 179.522C116.045 180.288 116.972 181.1 117.932 181.819C118 181.846 118.067 181.786 118.033 181.745Z" fill="#263238"/>
<path d="M66.3596 106.512C65.7339 109.549 65.5081 112.654 65.6878 115.749C65.8406 118.838 66.5697 121.87 67.8375 124.691C69.1372 127.488 71.2004 129.861 73.7896 131.536C76.4138 133.139 79.3727 134.114 82.4355 134.385C85.5156 134.716 88.6209 134.743 91.7062 134.465C94.7876 134.211 97.8531 133.791 100.89 133.209C106.972 132.071 112.968 130.511 118.833 128.54L119.055 128.466L119.156 128.661C119.525 129.405 119.752 130.212 119.827 131.039C119.906 131.852 119.856 132.673 119.68 133.471C119.502 134.266 119.219 135.034 118.84 135.755C118.438 136.443 117.989 137.103 117.496 137.73C115.521 140.209 113.398 142.554 111.275 144.891C109.153 147.229 106.976 149.527 104.793 151.797C102.609 154.068 100.406 156.345 98.189 158.596C100.357 156.298 102.509 153.987 104.645 151.663C106.774 149.332 108.904 147.001 111.007 144.65C113.109 142.298 115.192 139.947 117.12 137.441C117.601 136.832 118.038 136.19 118.43 135.52C118.779 134.836 119.04 134.112 119.209 133.364C119.547 131.874 119.381 130.315 118.739 128.93L119.062 129.044C113.148 131.052 107.101 132.639 100.963 133.793C97.902 134.371 94.8118 134.783 91.7062 135.03C88.5949 135.295 85.465 135.254 82.3616 134.909C79.2353 134.617 76.2221 133.59 73.5679 131.912C70.9235 130.171 68.8271 127.716 67.5218 124.832C66.2702 121.967 65.5858 118.888 65.5064 115.763C65.3826 112.655 65.6694 109.545 66.3596 106.512Z" fill="#263238"/>
<path d="M81.2461 106.075C80.9304 107.707 80.5139 109.326 80.0571 110.925C79.7289 112.38 79.1221 113.758 78.2701 114.983C77.355 116.057 76.206 116.907 74.9112 117.469C74.169 117.819 73.4063 118.124 72.6271 118.382C71.8252 118.607 71.0414 118.892 70.2825 119.235C70.2522 119.252 70.2279 119.277 70.2132 119.309C70.1985 119.34 70.1942 119.375 70.201 119.409C70.2078 119.443 70.2252 119.473 70.2508 119.497C70.2763 119.52 70.3087 119.534 70.343 119.538C71.2235 119.524 72.0989 119.403 72.9495 119.175C73.7789 118.989 74.5922 118.738 75.3814 118.422C76.8176 117.839 78.0805 116.898 79.0494 115.688C79.9666 114.366 80.5771 112.856 80.8364 111.268C81.2165 109.564 81.4302 107.827 81.4746 106.082C81.4754 106.051 81.4643 106.022 81.4435 106C81.4227 105.978 81.394 105.965 81.3637 105.964C81.3334 105.963 81.304 105.974 81.282 105.995C81.2599 106.016 81.247 106.045 81.2461 106.075Z" fill="#263238"/>
<path d="M60.9987 105.847L106.754 104.235L103.395 87.1039C103.395 87.1039 107.184 82.1528 106.25 76.9599C105.223 71.2765 94.4202 57.1555 93.4864 56.3695C89.8923 53.2188 86.6543 52.0499 83.6447 54.2668C73.1849 62.0058 60.9987 105.847 60.9987 105.847Z" fill="#213C90"/>
<path d="M97.2618 85.3773C95.2194 85.6342 93.1986 86.0406 91.2157 86.5933C90.2416 86.8821 89.2809 87.218 88.3203 87.5741C87.8433 87.7487 87.3596 87.91 86.8759 88.0645C86.3749 88.2441 85.8537 88.3614 85.3241 88.4138C85.2771 88.4138 85.2771 88.4877 85.3241 88.4877C85.827 88.4979 86.33 88.4709 86.8289 88.4071C87.3128 88.3331 87.7909 88.2254 88.2598 88.0846C89.2541 87.8025 90.2416 87.4733 91.2358 87.1777C93.2512 86.5865 95.2666 85.9954 97.2819 85.5453C97.3894 85.5251 97.3558 85.3639 97.2618 85.3773Z" fill="#263238"/>
<path d="M102.381 87.0165C100.688 86.8967 98.9906 86.8743 97.2955 86.9494C96.4491 86.9897 95.6093 87.077 94.7696 87.1912C94.3665 87.2449 93.9634 87.3054 93.5671 87.3726C93.1707 87.4398 92.6938 87.5741 92.2235 87.6413C92.1765 87.6413 92.1765 87.7219 92.2235 87.7152C92.64 87.6615 93.07 87.7152 93.4932 87.6615L94.7561 87.5808L97.2888 87.433C98.9817 87.3121 100.648 87.2114 102.361 87.1576C102.455 87.1509 102.455 87.0232 102.381 87.0165Z" fill="#263238"/>
<path d="M77.7461 60.4136C66.4264 74.5615 53.5079 103.059 57.1893 108.111C61.2939 113.734 77.0407 93.9157 76.8459 92.8879C76.6981 92.1086 81.011 75.2131 84.3497 62.8992C87.6885 50.5853 80.5474 56.9203 77.7461 60.4136Z" fill="#EB9481"/>
<path d="M76.967 92.8877C77.3029 91.0941 83.2617 68.7772 84.8874 61.7503C86.3452 55.4489 84.8874 53.0976 80.1849 57.4508C71.4516 65.4586 55.1741 88.8167 53.011 100.17C50.9351 111.113 60.058 110.919 66.8498 105.215C72.3787 100.533 76.967 92.8877 76.967 92.8877Z" fill="#213C90"/>
<path d="M76.208 95.7697C78.0353 87.332 80.1872 78.9705 82.6639 70.6851C80.8456 79.1272 78.6936 87.4888 76.208 95.7697Z" fill="#263238"/>
<path d="M81.5012 75.5625C81.7296 74.4257 82.2612 73.3719 83.0396 72.5126C82.8865 73.6739 82.3442 74.7491 81.5012 75.5625Z" fill="#263238"/>
<path d="M147.679 102.972H100.936V105.215H147.679V102.972Z" fill="#455A64"/>
<path d="M122.823 102.972H100.936V105.215H122.823V102.972Z" fill="#A6A6A6"/>
<path d="M121.89 105.215H170.661L177.554 72.0889H128.782L121.89 105.215Z" fill="#A6A6A6"/>
<path d="M124.1 105.215H172.872L179.764 72.0889H130.993L124.1 105.215Z" fill="#C7C7C7"/>
<path d="M148.681 89.3877C148.625 89.7987 148.66 90.2168 148.781 90.6132C148.903 91.0096 149.109 91.375 149.386 91.684C149.662 91.9931 150.002 92.2385 150.383 92.4034C150.763 92.5683 151.175 92.6488 151.59 92.6392C152.48 92.6213 153.334 92.2825 153.994 91.6851C154.655 91.0877 155.077 90.2718 155.184 89.3877C155.238 88.977 155.203 88.5593 155.081 88.1634C154.959 87.7675 154.752 87.4027 154.476 87.0939C154.2 86.7851 153.86 86.5396 153.48 86.3744C153.1 86.2091 152.689 86.1279 152.275 86.1363C151.385 86.1555 150.532 86.4948 149.872 87.092C149.212 87.6892 148.789 88.5042 148.681 89.3877Z" fill="#EBEBEB"/>
<path d="M57.2096 107.083C61.415 109.911 69.0734 107.801 88.8509 104.295C91.5851 103.811 93.3587 83.5767 90.4095 83.9462C86.6945 84.4098 72.3787 87.0096 71.3575 87.3052C62.7318 90.0528 54.3545 105.168 57.2096 107.083Z" fill="#EB9481"/>
<path d="M87.5272 85.3034C87.5272 85.3034 94.4131 81.4742 98.6521 80.6009C103.082 79.7813 107.645 80.0533 111.947 81.3936C116.596 82.8178 126.854 89.4551 125.456 92.767C124.18 95.743 114.036 88.4071 114.036 88.4071C114.036 88.4071 125.611 94.1845 123.441 97.483C121.271 100.781 109.965 91.6048 109.965 91.6048C109.965 91.6048 121.728 97.8054 118.927 100.855C116.817 103.16 106.122 95.4139 106.122 95.4139C106.122 95.4139 116.199 100.788 114.123 103.274C111.839 106.001 101.521 99.4648 101.521 99.4648C95.1991 104.839 89.9927 104.839 86.2911 104.362C85.3842 104.234 87.5272 85.3034 87.5272 85.3034Z" fill="#EB9481"/>
<path d="M110.167 86.1299C111.551 86.7546 112.955 87.3861 114.278 88.1453C115.602 88.9044 116.905 89.6904 118.148 90.5637C119.801 91.6695 121.323 92.961 122.682 94.4131C120.083 92.008 115.387 89.2537 114.063 88.5013C112.74 87.7489 111.457 86.936 110.14 86.1903L110.167 86.1299Z" fill="#263238"/>
<path d="M107.372 90.8593C109.106 91.7393 110.859 92.5455 112.552 93.4994C114.245 94.4533 115.756 95.5148 117.369 96.5695C117.496 96.6501 117.409 96.6904 117.281 96.6165C115.622 95.6155 114.016 94.8161 112.344 93.8353C110.671 92.8545 109.045 91.8199 107.346 90.8928C107.319 90.8794 107.346 90.8458 107.372 90.8593Z" fill="#263238"/>
<path d="M104.242 94.4868C106.934 95.7709 109.487 97.3287 111.86 99.1356C111.981 99.2229 111.86 99.2633 111.739 99.1826C109.233 97.5838 107.285 96.3208 104.208 94.5809C104.154 94.554 104.188 94.46 104.242 94.4868Z" fill="#263238"/>
<path d="M86.3921 82.4481L78.2702 110.751C78.2702 110.751 58.0291 111.107 54.7575 107.66C52.4197 105.195 61.5426 90.6305 71.0014 87.3119L86.3921 82.4481Z" fill="#213C90"/>
<path d="M61.2272 95.1854C62.1139 93.4186 65.5468 89.2938 70.9883 87.2919C71.0353 87.2919 71.0756 87.3456 71.0286 87.3725C67.1188 89.2535 62.2953 93.6 61.2943 95.2257C61.2675 95.2727 61.2003 95.2257 61.2272 95.1854Z" fill="#263238"/>
<path d="M74.2394 106.767C74.8105 103.979 75.5293 101.225 76.2548 98.4707C76.9803 95.7164 77.6991 92.9553 78.4919 90.2211C78.942 88.676 79.3786 87.1242 79.8825 85.5925C79.8825 85.5522 79.9631 85.5925 79.9564 85.5925C79.3921 88.3804 78.68 91.1415 77.941 93.8958C77.202 96.6502 76.5034 99.4112 75.7375 102.159C75.3076 103.711 74.8508 105.256 74.3469 106.781C74.32 106.875 74.1924 106.848 74.2394 106.767Z" fill="#263238"/>
<path d="M86.3316 82.2128C85.2435 82.4169 84.1706 82.6952 83.1205 83.0458C82.059 83.3638 81.0021 83.6975 79.9496 84.0468C77.8536 84.7186 73.3392 85.9547 69.772 87.8088C69.7317 87.8088 70.034 87.9163 70.0676 87.8962C71.7202 86.9288 85.1627 83.0526 86.1905 82.6092C86.1838 82.6941 86.1838 82.7795 86.1905 82.8645C86.1905 82.9249 86.2779 82.9652 86.3115 82.9048C86.3451 82.8443 86.4324 82.6025 86.4996 82.448C86.5137 82.4215 86.5202 82.3915 86.5182 82.3615C86.5163 82.3316 86.506 82.3027 86.4885 82.2783C86.4711 82.2538 86.4471 82.2347 86.4194 82.2232C86.3917 82.2116 86.3613 82.208 86.3316 82.2128Z" fill="#263238"/>
<path d="M79.721 105.954C79.3044 107.62 78.8543 109.273 78.3774 110.919C76.7516 110.919 75.1259 110.919 73.5069 110.865C68.8044 110.711 64.0011 110.502 59.359 109.522C64.693 110.153 72.7948 110.334 78.2497 110.59L78.0818 110.711C78.6058 109.116 79.1499 107.533 79.7142 105.961L79.721 105.954Z" fill="#263238"/>
<path d="M84.639 56.8465C84.8876 57.693 89.2609 63.074 93.1775 62.6911C94.4472 62.5702 94.0777 55.5701 94.0777 55.5701L94.165 55.0461L95.4213 47.7236L86.6544 42.6919L85.3914 42.0201C85.3914 42.0201 85.1832 44.0355 84.9413 46.5749C84.9413 46.6891 84.9413 46.8033 84.9078 46.9309C84.8742 47.0586 84.9077 47.2064 84.8607 47.3407C84.8204 47.7169 84.7801 48.1066 84.7532 48.4895C84.7264 48.8724 84.6995 49.0672 84.6861 49.3695C84.6726 49.6718 84.6457 49.9808 84.6189 50.2899C84.4798 52.4734 84.4866 54.6639 84.639 56.8465Z" fill="#EB9481"/>
<path d="M84.9413 46.5816C85.7723 48.5774 87.0278 50.3683 88.6206 51.8301C90.2134 53.2918 92.1053 54.3892 94.165 55.0461L95.4212 47.7236L86.6544 42.6919L85.3914 42.0201C85.3914 42.0201 85.1831 44.0557 84.9413 46.5816Z" fill="#263238"/>
<path d="M83.3088 41.8857C80.3395 41.7783 73.3865 45.1506 71.6264 49.4031C69.8663 53.6555 71.2031 59.7755 72.5736 60.1517C73.944 60.5279 79.2915 59.0634 82.6504 56.3225C86.0094 53.5816 84.7666 41.9395 83.3088 41.8857Z" fill="#263238"/>
<path d="M83.3156 41.8994C83.4097 41.8591 83.3895 41.7046 83.3156 41.718C80.8098 42.1144 78.2906 43.4445 76.0401 44.5664C74.2196 45.4666 72.3722 46.481 71.0622 48.0732C70.4287 48.8259 69.9657 49.7067 69.7047 50.6553C69.4438 51.6039 69.3913 52.5976 69.5507 53.5684C69.8731 55.7853 70.6793 58.3852 72.1102 60.1385C72.1572 60.1855 72.2647 60.1385 72.2244 60.0781C70.3165 56.1347 68.3817 51.244 71.996 47.6567C75.0257 44.6067 79.4596 43.505 83.3156 41.8994Z" fill="#263238"/>
<path d="M72.7882 58.9825C70.3563 59.7618 64.7267 65.7004 64.5319 70.6313C64.3371 75.5623 69.436 81.8704 70.7527 82.1525C72.0694 82.4347 76.7451 76.8857 77.9274 73.2177C78.7201 70.7724 77.2959 68.3473 76.2815 65.828C74.7767 62.1869 73.1711 58.8616 72.7882 58.9825Z" fill="#263238"/>
<path d="M79.3115 72.3512C79.1705 67.3867 75.563 63.1074 73.1176 59.0431C73.1176 59.0028 73.0169 59.0431 73.037 59.0834C74.7165 63.1141 77.9209 66.3992 78.7943 70.7658C79.3048 73.3522 78.8682 76.0662 77.0207 78.0547C75.4219 79.7745 73.205 80.8292 71.1963 81.9847C71.062 82.0653 71.1963 82.2534 71.324 82.1862C75.3547 79.9962 79.4593 77.477 79.3115 72.3512Z" fill="#263238"/>
<path d="M72.3316 59.5265C72.4458 59.4459 72.3316 59.2645 72.2107 59.3451C68.9727 61.6695 65.1569 64.9008 63.9141 68.8375C62.5705 73.1033 65.3786 76.7982 67.8508 79.9757C67.8508 80.0161 67.9448 79.9758 67.9112 79.9287C65.4592 76.6974 62.7452 72.6264 64.3911 68.4075C65.8018 64.7799 69.2951 61.7837 72.3316 59.5265Z" fill="#263238"/>
<path d="M71.0147 81.9715C72.7815 82.6836 75.5157 85.3304 76.389 88.6558C77.9072 94.3526 79.9763 93.009 86.4658 93.9428C91.9342 94.7288 93.6405 100.6 91.0743 103.825C91.0743 103.825 92.3709 99.9822 88.6021 98.5177C84.0944 96.771 74.6894 102.233 69.2008 96.6232C62.0866 89.3679 71.0147 81.9715 71.0147 81.9715Z" fill="#263238"/>
<path d="M73.5677 84.43C73.4938 84.3561 73.6147 84.2218 73.6953 84.2957C74.4906 84.9534 75.1598 85.7501 75.6704 86.6469C76.3422 87.8159 76.4832 89.1393 77.0543 90.3418C78.512 93.4119 82.3278 92.9349 85.1157 92.861C88.8643 92.7737 92.0755 94.7622 92.6801 98.6585C92.6766 98.6673 92.6706 98.6747 92.6628 98.68C92.655 98.6853 92.6458 98.6881 92.6364 98.6881C92.627 98.6881 92.6178 98.6853 92.6101 98.68C92.6023 98.6747 92.5962 98.6673 92.5928 98.6585C92.3949 97.4569 91.8722 96.3323 91.0812 95.4063C90.2903 94.4804 89.2611 93.7884 88.1052 93.4051C85.8413 92.7334 83.4027 93.4051 81.1186 93.0894C79.5332 92.861 77.9343 92.3504 77.0878 90.9128C76.6811 90.0868 76.3636 89.2197 76.1406 88.3264C75.6289 86.8296 74.7432 85.4884 73.5677 84.43Z" fill="#263238"/>
<path d="M70.1015 82.7709C70.1015 82.7373 70.1888 82.7709 70.1619 82.8179C68.2473 85.1087 66.2118 87.413 65.8961 90.5167C65.5602 93.8756 67.5621 96.9793 70.3299 98.7125C73.4268 100.654 76.4163 99.2969 79.5804 98.3564C81.8645 97.6847 84.2158 97.1808 86.5805 97.7585C86.6544 97.7585 86.6275 97.8929 86.5805 97.8862C82.8117 97.3823 79.5468 98.7998 75.9796 99.7336C73.0708 100.493 70.6456 99.6866 68.5228 97.5704C63.8202 92.9082 65.8356 86.8823 70.1015 82.7709Z" fill="#263238"/>
<path d="M80.6415 39.6755C79.6674 38.8157 78.3507 40.3473 79.3316 41.2072C80.3124 42.0671 81.6291 40.5354 80.6415 39.6755Z" fill="#213C90"/>
<path d="M81.7233 41.2138C80.7492 40.3539 79.4325 41.8855 80.3797 42.7454C81.327 43.6053 82.6974 42.0736 81.7233 41.2138Z" fill="#213C90"/>
<path d="M83.0601 42.5573C82.086 41.6974 80.7693 43.2291 81.7165 44.089C81.9196 44.2672 82.1852 44.3574 82.4548 44.3397C82.7244 44.3221 82.976 44.1981 83.1542 43.995C83.3323 43.7918 83.4225 43.5263 83.4049 43.2567C83.3872 42.987 83.2632 42.7355 83.0601 42.5573Z" fill="#213C90"/>
<path d="M84.5245 43.6791C83.5504 42.8192 82.2337 44.3509 83.1809 45.2108C84.1281 46.0707 85.5053 44.5457 84.5245 43.6791Z" fill="#213C90"/>
<path d="M86.1972 44.5527C85.2231 43.6929 83.9064 45.2245 84.8536 46.0911C85.8008 46.9578 87.178 45.4194 86.1972 44.5527Z" fill="#213C90"/>
<path d="M87.9302 45.1168C86.9562 44.2569 85.6394 45.7886 86.6202 46.6485C87.6011 47.5084 88.9111 45.9566 87.9302 45.1168Z" fill="#213C90"/>
<path d="M103.872 34.5226C107.016 47.1791 99.8007 50.491 97.08 51.1628C94.6078 51.7742 86.1029 53.5544 81.6691 41.2942C77.2353 29.0341 82.1192 23.5657 87.7152 21.8661C93.3112 20.1665 100.728 21.8728 103.872 34.5226Z" fill="#EB9481"/>
<path d="M83.3089 42.3624C85.9356 41.5629 84.2964 35.4967 84.2964 35.4967C84.2964 35.4967 88.5086 33.3671 89.4692 29.8066C89.4692 29.8066 88.999 32.7826 87.5681 34.3681C87.3262 34.6368 96.0998 31.0897 94.9577 23.9083C94.9577 23.9083 98.2764 30.3642 102.811 30.5657C103.026 30.5657 100.574 25.5743 98.404 23.9553C97.4663 23.197 96.4637 22.5226 95.4078 21.9399C92.0895 20.7084 88.4202 20.829 85.1899 22.2758C79.8694 24.7077 77.9346 31.6003 78.21 34.1195C78.7542 39.0706 82.0661 42.7453 83.3089 42.3624Z" fill="#263238"/>
<path d="M87.897 34.4353C92.7675 32.7827 95.7703 28.49 94.7156 23.3306C94.7156 23.203 94.8836 23.1493 94.9373 23.2635C97.0938 28.181 92.66 33.5418 87.8835 34.5361C87.7626 34.563 87.7828 34.4756 87.897 34.4353Z" fill="#263238"/>
<path d="M83.242 42.0804C85.5127 39.9307 85.1566 37.1226 84.5856 34.3347C84.5856 34.2541 84.7065 34.2071 84.7334 34.2944C85.553 36.9815 86.0165 40.3405 83.4301 42.2752C83.4043 42.3002 83.3696 42.3138 83.3337 42.3132C83.2978 42.3126 83.2636 42.2977 83.2387 42.2719C83.2137 42.2461 83.2001 42.2114 83.2007 42.1755C83.2013 42.1396 83.2162 42.1054 83.242 42.0804Z" fill="#263238"/>
<path d="M94.6821 22.8538C94.6821 22.8538 94.6821 22.8135 94.7292 22.8538C96.1534 25.5006 97.6649 30.2435 101.487 29.8941C101.504 29.8991 101.519 29.9093 101.529 29.9232C101.539 29.9371 101.545 29.954 101.545 29.9714C101.545 29.9888 101.539 30.0057 101.529 30.0196C101.519 30.0335 101.504 30.0437 101.487 30.0487C97.8664 30.6936 95.1457 25.8903 94.6821 22.8538Z" fill="#263238"/>
<path d="M100.117 33.0244C99.8076 33.0244 99.5255 33.0244 99.2231 33.0244C98.907 33.0706 98.5844 33.0141 98.3028 32.8631C98.2258 32.7967 98.1724 32.7071 98.1506 32.6078C98.1288 32.5085 98.1398 32.4048 98.1819 32.3123C98.2949 32.1432 98.4509 32.0073 98.634 31.9187C98.8171 31.8302 99.0204 31.7921 99.2231 31.8084C99.6405 31.7766 100.055 31.9011 100.385 32.1577C100.457 32.2211 100.509 32.304 100.535 32.3963C100.561 32.4886 100.56 32.5865 100.532 32.6781C100.503 32.7697 100.449 32.8511 100.375 32.9125C100.302 32.974 100.212 33.0128 100.117 33.0244Z" fill="#263238"/>
<path d="M91.4436 34.9727C91.7228 34.8633 91.9964 34.74 92.2632 34.6032C92.5655 34.51 92.8294 34.3215 93.0156 34.0658C93.06 33.9737 93.0722 33.8693 93.0503 33.7695C93.0284 33.6696 92.9736 33.58 92.8947 33.5149C92.72 33.4108 92.5204 33.3558 92.317 33.3558C92.1136 33.3558 91.914 33.4108 91.7392 33.5149C91.3485 33.6609 91.0271 33.9488 90.839 34.3211C90.8038 34.4075 90.7941 34.5022 90.8108 34.5941C90.8276 34.6859 90.8703 34.771 90.9338 34.8395C90.9973 34.9079 91.079 34.9568 91.1693 34.9804C91.2596 35.004 91.3548 35.0013 91.4436 34.9727Z" fill="#263238"/>
<path d="M94.1443 37.6263C94.1443 37.6263 94.0838 37.6868 94.0972 37.7204C94.3324 38.5668 94.4667 39.5813 93.7614 40.0582C93.7614 40.0582 93.7614 40.1187 93.7614 40.1052C94.6951 39.7425 94.507 38.3989 94.1443 37.6263Z" fill="#263238"/>
<path d="M93.1567 36.9211C91.7527 37.1629 92.3304 39.9509 93.6337 39.7292C94.937 39.5075 94.3324 36.7263 93.1567 36.9211Z" fill="#263238"/>
<path d="M92.6397 37.1834C92.4314 37.3916 92.2501 37.7208 91.9679 37.8081C91.6858 37.8955 91.2961 37.6738 91.0341 37.4386C91.0341 37.4386 90.9871 37.4386 90.9938 37.4857C91.1013 38.0164 91.417 38.5269 92.0082 38.4866C92.5994 38.4463 92.8211 37.9022 92.8412 37.3312C92.8412 37.2304 92.727 37.1028 92.6397 37.1834Z" fill="#263238"/>
<path d="M98.9008 36.4172C98.9008 36.4172 98.9747 36.4172 98.9815 36.4777C99.1225 37.351 99.4383 38.3251 100.278 38.4528C100.278 38.4528 100.312 38.5065 100.278 38.5065C99.2972 38.5602 98.8941 37.2637 98.9008 36.4172Z" fill="#263238"/>
<path d="M99.4926 35.3628C100.836 34.9799 101.508 37.7477 100.258 38.1037C99.0089 38.4597 98.3438 35.7121 99.4926 35.3628Z" fill="#263238"/>
<path d="M100.117 35.4031C100.365 35.4971 100.648 35.7121 100.916 35.6651C101.185 35.618 101.373 35.262 101.501 34.9261C101.501 34.9261 101.541 34.9261 101.548 34.9261C101.689 35.4568 101.649 36.048 101.165 36.2697C100.681 36.4914 100.271 36.1017 100.016 35.5979C99.9691 35.5307 100.009 35.3695 100.117 35.4031Z" fill="#263238"/>
<path d="M95.7836 44.6195C96.0254 44.7875 96.274 45.036 96.5964 45.0159C96.9181 44.9539 97.2242 44.8283 97.4966 44.6464C97.4966 44.6464 97.5571 44.6464 97.5437 44.6867C97.4497 44.8816 97.3043 45.0472 97.1232 45.1655C96.9421 45.2839 96.7321 45.3506 96.5158 45.3585C96.329 45.3397 96.152 45.2658 96.0073 45.1462C95.8625 45.0266 95.7566 44.8666 95.703 44.6867C95.6828 44.6263 95.7366 44.5927 95.7836 44.6195Z" fill="#263238"/>
<path d="M98.807 42.4833C98.5807 43.0577 98.2106 43.5643 97.7321 43.9545C97.4639 44.1562 97.1404 44.271 96.805 44.2837C96.0661 44.2837 95.8712 43.6723 95.8444 43.1013C95.8309 42.7971 95.8557 42.4924 95.9183 42.1944C96.8266 42.5929 97.8377 42.694 98.807 42.4833Z" fill="#263238"/>
<path d="M97.7522 43.9545C97.484 44.1562 97.1605 44.271 96.8252 44.2837C96.0862 44.2837 95.8914 43.6723 95.8645 43.1013C96.2293 43.0108 96.6139 43.0457 96.9563 43.2005C97.2988 43.3553 97.5792 43.6209 97.7522 43.9545Z" fill="#FF9CBD"/>
<path d="M98.7059 40.717C98.7059 40.717 99.1627 41.9665 99.2971 42.5711C99.2971 42.6249 99.1694 42.6853 98.9612 42.7458C98.4601 42.9548 97.9113 43.022 97.3746 42.9403C96.838 42.8586 96.3341 42.6309 95.918 42.2822C95.908 42.271 95.9021 42.2568 95.9011 42.2418C95.9002 42.2268 95.9043 42.2119 95.9128 42.1996C95.9213 42.1872 95.9337 42.178 95.9481 42.1735C95.9624 42.169 95.9778 42.1695 95.9919 42.1748C96.8817 42.5356 97.8643 42.5992 98.7932 42.3561C98.7932 42.1748 97.9333 40.24 98.0274 40.2131C98.5088 40.1463 98.9971 40.1463 99.4784 40.2131C98.5917 37.5864 97.2951 35.121 96.4554 32.4875C96.4504 32.468 96.4524 32.4473 96.461 32.429C96.4695 32.4107 96.4841 32.396 96.5024 32.3873C96.5206 32.3786 96.5412 32.3764 96.5608 32.3812C96.5805 32.3861 96.5978 32.3975 96.6099 32.4137C98.0791 35.0147 99.2854 37.7557 100.211 40.5961C100.318 40.9454 98.9679 40.764 98.7059 40.717Z" fill="#263238"/>
<path d="M84.1682 41.6771C84.1682 41.6771 80.722 38.1032 79.0626 39.3998C77.4033 40.6963 80.4062 46.1781 82.697 46.635C82.9834 46.7131 83.2827 46.7325 83.5768 46.6921C83.8709 46.6518 84.1538 46.5523 84.4086 46.3999C84.6633 46.2474 84.8846 46.045 85.0592 45.8049C85.2338 45.5648 85.358 45.2919 85.4245 45.0025L84.1682 41.6771Z" fill="#EB9481"/>
<path d="M79.9698 40.9517C79.9362 40.9517 79.9362 40.9988 79.9698 41.0055C81.5619 41.375 82.5696 42.6446 83.3287 44.0017C83.218 43.8653 83.0791 43.7546 82.9215 43.6771C82.7639 43.5996 82.5914 43.5572 82.4158 43.5527C82.2403 43.5483 82.0658 43.5819 81.9045 43.6512C81.7432 43.7206 81.5988 43.8241 81.4813 43.9546C81.441 43.9546 81.4813 44.0487 81.535 44.0285C81.7849 43.9017 82.0683 43.8561 82.3453 43.8983C82.6224 43.9405 82.8793 44.0682 83.0802 44.2637C83.4156 44.5914 83.7151 44.954 83.9736 45.3452C84.061 45.4662 84.2961 45.3452 84.2222 45.2109C83.9602 43.256 82.0523 40.8174 79.9698 40.9517Z" fill="#263238"/>
<path d="M38.8362 153.007H38.03V152.503H38.8294H40.7105V153.007H38.8362ZM34.6644 152.933C33.7507 152.899 32.8572 152.852 31.9772 152.798V152.294C32.8572 152.348 33.7507 152.395 34.6644 152.429V152.933ZM44.0694 152.892V152.388C44.9495 152.355 45.8429 152.308 46.7566 152.247L46.7902 152.751C45.8698 152.812 44.9696 152.859 44.0896 152.892H44.0694ZM28.6182 152.523C27.7046 152.436 26.8044 152.335 25.9311 152.221L25.9983 151.717C26.8582 151.831 27.7516 151.932 28.6854 152.026L28.6182 152.523ZM50.1155 152.523L50.0752 152.019C50.9553 151.945 51.8487 151.858 52.7624 151.764L52.8161 152.261C51.9092 152.341 51.0157 152.422 50.129 152.503L50.1155 152.523ZM56.1616 151.851L56.0945 151.347L58.7816 150.984L58.8555 151.482C57.9217 151.623 57.035 151.744 56.1549 151.858L56.1616 151.851ZM22.6192 151.703C21.719 151.549 20.8255 151.374 19.9723 151.193L20.0731 150.702C20.9263 150.884 21.813 151.052 22.6998 151.213L22.6192 151.703ZM62.1473 150.978L62.0667 150.481L64.7135 150.017L64.8008 150.514L62.1473 150.978ZM16.694 150.4C15.8005 150.158 14.9339 149.896 14.1076 149.621L14.2621 149.144C15.0817 149.419 15.9483 149.674 16.8216 149.916L16.694 150.4ZM68.106 149.883L68.0053 149.386C68.8719 149.211 69.7519 149.03 70.632 148.835L70.7395 149.332C69.846 149.52 68.9727 149.708 68.0993 149.916L68.106 149.883ZM74.0178 148.586L73.9036 148.096C74.7702 147.894 75.6368 147.679 76.5101 147.464L76.6311 147.955C75.751 148.17 74.9113 148.385 74.0111 148.573L74.0178 148.586ZM10.9435 148.445C10.0836 148.082 9.25726 147.699 8.49142 147.296L8.71983 146.853C9.47896 147.243 10.2918 147.619 11.1383 147.975L10.9435 148.445ZM79.8892 147.102L79.7616 146.611C80.6148 146.383 81.4814 146.148 82.348 145.899L82.4824 146.383C81.6292 146.638 80.7424 146.873 79.8825 147.108L79.8892 147.102ZM5.57586 145.556C4.82673 145.049 4.11708 144.485 3.453 143.87L3.79561 143.501C4.4443 144.103 5.13582 144.658 5.86473 145.16L5.57586 145.556ZM85.7069 145.449L85.5592 144.972C86.4123 144.717 87.2655 144.448 88.1254 144.179L88.2799 144.663L85.7069 145.449ZM91.4776 143.628L91.3164 143.151C92.1628 142.876 93.0093 142.587 93.8625 142.291L94.0237 142.768C93.1705 143.064 92.3241 143.353 91.4776 143.628ZM97.1945 141.653L97.0266 141.176L99.5458 140.249L99.7205 140.726C98.8807 141.042 98.0343 141.351 97.1945 141.653ZM1.26968 141.237C0.776331 140.459 0.406916 139.609 0.174667 138.718L0.658356 138.59C0.881148 139.431 1.22753 140.235 1.68619 140.975L1.26968 141.237ZM102.864 139.524L102.683 139.053L105.175 138.066L105.364 138.536L102.864 139.524ZM108.474 137.253L108.279 136.79L110.751 135.742L110.953 136.205L108.474 137.253ZM0.497128 135.359L0 135.291C0.125753 134.391 0.351064 133.508 0.67179 132.658L1.14205 132.833C0.834254 133.648 0.617957 134.495 0.497128 135.359ZM114.03 134.855L113.821 134.391L114.265 134.19C114.937 133.894 115.608 133.585 116.28 133.276L116.495 133.733L114.48 134.653L114.03 134.855ZM119.511 132.275L119.283 131.818C120.089 131.424 120.889 131.021 121.681 130.609L121.916 131.052C121.117 131.469 120.311 131.872 119.511 132.275ZM2.61998 129.863L2.19004 129.608C2.65366 128.832 3.15822 128.08 3.70156 127.358L4.10464 127.66C3.56799 128.368 3.06797 129.104 2.60655 129.863H2.61998ZM124.886 129.474L124.644 129.03C125.43 128.607 126.216 128.17 126.995 127.734L127.237 128.17C126.464 128.614 125.678 129.051 124.892 129.474H124.886ZM130.153 126.484L129.897 126.054C130.67 125.598 131.436 125.141 132.202 124.67L132.464 125.1C131.704 125.571 130.932 126.027 130.159 126.484H130.153ZM6.22077 125.06L5.84457 124.724C6.4156 124.086 7.04036 123.421 7.69871 122.763L8.06148 123.119C7.40312 123.79 6.78508 124.449 6.22077 125.06ZM135.319 123.307L135.05 122.883L137.307 121.432L137.583 121.849L135.319 123.307ZM10.4866 120.835L10.1507 120.458C10.8225 119.874 11.4943 119.276 12.1661 118.685L12.4886 119.068C11.8168 119.686 11.1316 120.25 10.4866 120.835ZM140.377 120.008L140.095 119.592C140.834 119.095 141.566 118.591 142.299 118.08L142.587 118.49C141.855 119.014 141.116 119.511 140.377 120.008ZM15.122 116.958L14.813 116.562C15.4848 116.011 16.2304 115.467 16.956 114.923L17.2583 115.326C16.5283 115.863 15.8162 116.407 15.122 116.958ZM145.342 116.549L145.046 116.139C145.772 115.615 146.497 115.091 147.216 114.56L147.518 114.963L145.342 116.549ZM19.9656 113.358L19.6767 112.948C20.4112 112.428 21.1502 111.918 21.8936 111.416L22.1758 111.833C21.4368 112.336 20.6978 112.84 19.9656 113.358ZM150.205 112.968L149.896 112.572C150.615 112.027 151.321 111.483 152.026 110.932L152.335 111.329C151.63 111.859 150.918 112.404 150.205 112.968ZM24.9771 109.999L24.7084 109.575C25.4608 109.085 26.22 108.601 26.9858 108.131L27.2545 108.554C26.4887 109.011 25.7363 109.488 24.9771 109.978V109.999ZM154.982 109.246L154.666 108.857L156.755 107.17L157.071 107.56L154.982 109.246ZM30.1163 106.801L29.8611 106.371C30.6359 105.923 31.4084 105.475 32.1787 105.027L32.434 105.464C31.6615 105.86 30.8889 106.317 30.1163 106.781V106.801ZM159.664 105.417L159.342 105.027C160.014 104.45 160.719 103.872 161.391 103.294L161.72 103.677L159.664 105.417ZM35.3832 103.771L35.1346 103.334C35.9273 102.891 36.72 102.461 37.4993 102.038L37.7344 102.481C36.935 102.891 36.149 103.314 35.3563 103.751L35.3832 103.771ZM164.259 101.453L163.923 101.077C164.595 100.486 165.267 99.8881 165.939 99.297L166.275 99.6732C165.603 100.264 164.931 100.876 164.259 101.453ZM40.65 100.876L40.4216 100.432L42.8199 99.2029L43.0483 99.653C42.2892 100.056 41.4897 100.459 40.65 100.876ZM46.0646 98.1885L45.8497 97.7384C46.6961 97.3353 47.509 96.9524 48.295 96.5964L48.5032 97.0532C47.7508 97.4025 46.9312 97.7854 46.0915 98.1885H46.0646ZM168.754 97.4294L168.411 97.0532C169.083 96.4486 169.755 95.8372 170.393 95.2326L170.735 95.6021L168.754 97.4294ZM51.6069 95.7029L51.4121 95.2326C52.1846 94.9102 52.9034 94.6213 53.5685 94.3727L53.7432 94.843C53.0915 95.0916 52.3727 95.3804 51.6069 95.7029ZM173.201 93.2912L172.852 92.9284L174.793 91.0675L175.142 91.4303L173.201 93.2912ZM177.547 89.079L177.191 88.723C177.863 88.0848 178.474 87.4533 179.099 86.8218L179.455 87.1779C178.844 87.8094 178.206 88.4408 177.561 89.079H177.547ZM181.82 84.7863L181.457 84.4303C182.095 83.7585 182.713 83.1404 183.325 82.5022L183.687 82.8515L181.82 84.7863ZM186.005 80.413L185.642 80.0636L187.476 78.102L187.846 78.4446L186.005 80.413ZM190.117 75.959L189.747 75.6231C190.365 74.9513 190.963 74.2795 191.541 73.6077L191.917 73.9436C191.353 74.6087 190.748 75.2738 190.13 75.959H190.117ZM194.147 71.4311L193.771 71.1019C194.382 70.3966 194.974 69.7181 195.531 69.0866L195.914 69.409C195.356 70.0472 194.772 70.7257 194.154 71.4311H194.147ZM198.091 66.8226L197.701 66.5002C198.326 65.7545 198.897 65.0626 199.421 64.4244L199.81 64.7401C199.293 65.3783 198.722 66.077 198.097 66.8226H198.091ZM201.927 62.1201L201.53 61.8044C202.619 60.4608 203.19 59.6748 203.19 59.6748L203.593 59.9771C203.593 59.9771 203.028 60.7362 201.933 62.1201H201.927Z" fill="#263238"/>
<path d="M204.795 45.3522L202.867 60.7899L211.815 49.786L250 25.1381L204.795 45.3522Z" fill="#213C90"/>
<path opacity="0.4" d="M204.795 45.3522L202.867 60.7899L211.815 49.786L250 25.1381L204.795 45.3522Z" fill="white"/>
<path d="M213.972 52.7888L202.867 60.7898L211.815 49.7859L213.972 52.7888Z" fill="#213C90"/>
<path opacity="0.3" d="M213.972 52.7888L202.867 60.7898L211.815 49.7859L213.972 52.7888Z" fill="white"/>
<path d="M211.815 49.786L249.999 25.1381L223.477 66.2986L211.815 49.786Z" fill="#213C90"/>
<path opacity="0.7" d="M211.815 49.786L249.999 25.1381L223.477 66.2986L211.815 49.786Z" fill="white"/>
<path d="M204.795 45.3522L184.924 38.1439L250 25.1381L204.795 45.3522Z" fill="#213C90"/>
<path opacity="0.7" d="M204.795 45.3522L184.924 38.1439L250 25.1381L204.795 45.3522Z" fill="white"/>
<path d="M38.574 18.5543C38.5733 21.9659 39.5208 25.3105 41.3106 28.2149C43.1005 31.1193 45.6623 33.4691 48.7101 35.002C51.7578 36.535 55.1717 37.1908 58.5705 36.8961C61.9694 36.6015 65.2195 35.3681 67.9581 33.3336L76.9802 35.6379L73.2249 27.2405C74.5451 24.7722 75.2851 22.0355 75.3888 19.2383C75.4926 16.441 74.9572 13.657 73.8234 11.0977C72.6897 8.53847 70.9874 6.27137 68.8459 4.46876C66.7045 2.66615 64.1803 1.37548 61.4651 0.694856C58.75 0.0142303 55.9154 -0.0384332 53.1769 0.540867C50.4383 1.12017 47.8679 2.31618 45.661 4.038C43.4541 5.75982 41.6687 7.96212 40.4407 10.4775C39.2126 12.9929 38.5742 15.7551 38.574 18.5543Z" fill="white"/>
<path d="M38.5737 18.5544C38.8626 33.9048 55.7178 42.0066 68.0183 33.1054L77.0539 35.3559L76.7112 35.759L72.9291 27.375L72.8686 27.2272C78.552 16.9959 72.7813 3.71458 61.4482 0.886346C50.0613 -2.21732 38.5401 6.77794 38.6073 18.5544H38.5737ZM38.5737 18.5544C38.6208 2.88156 56.9002 -5.69719 69.0058 4.27888C75.6901 9.69351 77.7391 19.8644 73.5135 27.3952V27.1063L77.242 35.5171L77.4905 36.0814L76.9061 35.9269L67.8974 33.5689C56.3627 42.3022 38.6678 34.0929 38.567 18.5544H38.5737Z" fill="#263238"/>
<path d="M54.0451 29.8471L45.7888 21.49L48.5633 18.7558L53.38 23.633L63.3964 7.93329L66.6815 10.0293L54.0451 29.8471Z" fill="#213C90"/>
</svg>
