<svg width="251" height="289" viewBox="0 0 251 289" fill="none" xmlns="http://www.w3.org/2000/svg">
<path d="M61.24 288.763L82.9187 286.083L75.1528 223.311L47.7236 226.703L61.24 288.763Z" fill="#008B42"/>
<path d="M47.7302 226.703L52.8761 250.377L61.2466 288.77L82.9253 286.089L75.1594 223.311L47.7302 226.703Z" fill="#008B42"/>
<path opacity="0.2" d="M47.7302 226.703L52.8761 250.377L61.2466 288.77L82.9253 286.089L75.1594 223.311L47.7302 226.703Z" fill="white"/>
<path opacity="0.1" d="M47.7302 226.703L51.1228 242.315L77.5241 242.43L75.1594 223.311L47.7302 226.703Z" fill="black"/>
<path d="M46.1958 236.625L80.3247 232.404L77.1181 206.475L42.9892 210.696L46.1958 236.625Z" fill="#008B42"/>
<path opacity="0.2" d="M46.1958 236.625L80.3247 232.404L77.1181 206.475L42.9892 210.696L46.1958 236.625Z" fill="black"/>
<path d="M18.9643 204.057L45.8023 203.425L40.6161 161.472L14.4297 167.397L18.9643 204.057Z" fill="#008B42"/>
<g opacity="0.2">
<path d="M18.9643 204.057L45.8023 203.425L40.6161 161.472L14.4297 167.397L18.9643 204.057Z" fill="white"/>
</g>
<path d="M53.2256 151.476L60.8773 213.388L106.022 213.22L214.16 238.473L195.766 89.792L97.0465 140.647L53.2256 151.476Z" fill="#008B42"/>
<path opacity="0.2" d="M53.2256 151.476L60.8773 213.388L106.022 213.22L214.16 238.473L195.766 89.792L97.0465 140.647L53.2256 151.476Z" fill="white"/>
<path opacity="0.1" d="M214.16 238.487L106.028 213.234L60.8839 213.409L58.9155 197.507C72.264 198.79 107.284 202.136 108.003 202.378L214.16 238.487Z" fill="black"/>
<path d="M216.614 238.55C229.877 236.909 236.492 202.13 231.389 160.868C226.286 119.606 211.398 87.486 198.135 89.1263C184.871 90.7665 178.256 125.546 183.359 166.808C188.462 208.07 203.351 240.19 216.614 238.55Z" fill="#008B42"/>
<path opacity="0.2" d="M188.793 164.865C193.327 201.497 205.802 230.102 216.659 228.759C227.515 227.415 232.647 196.634 228.119 160.001C223.591 123.368 211.103 94.7364 200.253 96.0733C189.404 97.4102 184.265 128.205 188.793 164.865Z" fill="black"/>
<path d="M191.997 164.441C192.602 169.318 193.341 174.048 194.221 178.582C196.616 180.083 199.387 180.874 202.213 180.863C205.039 180.853 207.804 180.04 210.187 178.521C212.57 177.002 214.474 174.838 215.676 172.28C216.879 169.722 217.331 166.876 216.981 164.072L216.114 157.058C215.777 154.26 214.654 151.615 212.876 149.428C211.099 147.242 208.739 145.603 206.069 144.7C203.399 143.798 200.528 143.67 197.789 144.33C195.049 144.991 192.552 146.413 190.586 148.432C190.848 153.585 191.319 158.953 191.997 164.441Z" fill="#008B42"/>
<path opacity="0.2" d="M191.997 164.441C192.602 169.318 193.341 174.048 194.221 178.582C196.616 180.083 199.387 180.874 202.213 180.863C205.039 180.853 207.804 180.04 210.187 178.521C212.57 177.002 214.474 174.838 215.676 172.28C216.879 169.722 217.331 166.876 216.981 164.072L216.114 157.058C215.777 154.26 214.654 151.615 212.876 149.428C211.099 147.242 208.739 145.603 206.069 144.7C203.399 143.798 200.528 143.67 197.789 144.33C195.049 144.991 192.552 146.413 190.586 148.432C190.848 153.585 191.319 158.953 191.997 164.441Z" fill="white"/>
<path d="M37.3108 219.79L89.2133 218.568L79.1768 137.436L28.5439 148.903L37.3108 219.79Z" fill="#008B42"/>
<g opacity="0.1">
<path d="M37.3108 219.79L89.2133 218.568L79.1768 137.436L28.5439 148.903L37.3108 219.79Z" fill="black"/>
</g>
<path opacity="0.2" d="M190.701 94.998C187.194 100.07 185.414 106.109 183.942 112.055C182.598 118.065 181.733 124.173 181.356 130.321C181.081 133.391 181.081 136.468 180.973 139.544C181.04 142.621 181.013 145.698 181.148 148.768C181.282 151.838 181.417 154.915 181.699 157.978C181.981 161.042 182.216 164.105 182.565 167.162C184.05 179.355 186.22 191.521 189.901 203.284C191.713 209.175 194.042 214.894 196.861 220.374C199.83 225.749 203.256 231.062 208.214 234.757C203.512 230.767 200.314 225.419 197.634 219.978C194.995 214.477 192.842 208.756 191.198 202.881C187.882 191.122 185.58 179.099 184.319 166.947C182.881 154.855 182.102 142.581 182.7 130.395C182.92 124.304 183.616 118.239 184.782 112.256C185.958 106.298 187.537 100.292 190.701 94.998Z" fill="black"/>
<path d="M128.567 93.2919C127.122 101.185 116.79 102.885 115.212 101.192C108.803 94.3466 101.998 81.0385 94.628 66.1785C88.864 54.5699 92.5723 54.2005 97.5839 57.2974C109.239 64.5057 129.346 89.0529 128.567 93.2919Z" fill="#008B42"/>
<path opacity="0.1" d="M128.567 93.2987C127.122 101.185 116.797 102.885 115.212 101.192C108.803 94.3466 102.004 81.0385 94.6279 66.1785C91.84 60.5556 91.1548 57.0354 92.2498 55.9941L128.419 91.7267C128.583 92.2335 128.633 92.7702 128.567 93.2987Z" fill="black"/>
<path d="M111.006 93.6884C109.582 88.6769 113.767 81.1327 123.474 62.9137C124.818 60.3878 145.146 67.1326 143.85 69.9003C142.217 73.3802 133.706 86.4465 132.04 88.2268C123.904 96.9332 111.98 97.081 111.006 93.6884Z" fill="#EB9481"/>
<path d="M136.293 76.7326C136.293 76.7326 143.508 73.9648 148.136 71.936C150.716 70.8007 154.975 68.4629 156.493 66.7632C158.764 64.2171 166.631 52.1316 163.735 50.1633C161.122 48.3763 155.674 59.6221 155.674 59.6221C155.674 59.6221 162.17 48.7592 158.623 47.194C155.076 45.6287 150.642 59.1451 150.642 59.1451C150.642 59.1451 157.064 47.8389 153.148 46.7976C150.185 46.0116 145.456 58.0501 145.456 58.0501C145.456 58.0501 150.904 48.2957 147.901 47.3552C144.582 46.3139 139.524 57.1365 139.524 57.1365C131.462 56.0347 125.268 59.8236 123.031 63.767C122.601 64.5194 136.293 76.7326 136.293 76.7326Z" fill="#EB9481"/>
<path d="M154.001 63.0013C159.375 55.363 159.697 49.9686 159.664 50.1096C158.784 53.4686 156.372 58.1711 155.673 59.5147C154.975 60.8583 154.646 61.651 153.954 62.9677C153.9 63.008 153.947 63.0282 154.001 63.0013Z" fill="#263238"/>
<path d="M148.882 61.0998C151.201 58.1078 152.971 54.7277 154.108 51.1169C154.108 50.9759 154.075 50.996 154.008 51.1169C153.168 52.8099 149.755 59.4136 148.841 61.0662C148.828 61.1065 148.862 61.1199 148.882 61.0998Z" fill="#263238"/>
<path d="M144.387 59.7564C146.139 57.4017 147.435 54.7406 148.21 51.9099C148.25 51.7755 148.143 51.8091 148.082 51.9099C146.866 54.5366 145.926 56.6124 144.307 59.6691C144.28 59.7497 144.354 59.8102 144.387 59.7564Z" fill="#263238"/>
<path d="M139.436 79.6818L117.838 69.3228C117.838 69.3228 107.647 90.0408 110.012 94.6157C111.073 96.631 114.782 101.972 118.947 102.113C128.52 102.442 139.436 79.6818 139.436 79.6818Z" fill="#008B42"/>
<path d="M116.589 74.7107C118.98 75.967 121.426 77.0956 123.878 78.2175C126.33 79.3393 128.788 80.4679 131.267 81.5294C132.671 82.1273 134.069 82.7386 135.493 83.2895C135.533 83.2895 135.56 83.2424 135.527 83.2223C133.142 81.966 130.69 80.824 128.251 79.6887C125.812 78.5533 123.34 77.4382 120.861 76.3297C119.464 75.7184 118.06 75.1272 116.636 74.5763C116.582 74.5629 116.522 74.6704 116.589 74.7107Z" fill="#263238"/>
<path d="M118.107 69.289C117.899 69.1412 117.597 68.9598 117.57 69.0136C116.898 70.3571 116.313 71.8552 115.756 73.2526C115.198 74.6499 114.688 76.0203 114.191 77.4177C113.922 78.1701 113.667 78.9292 113.438 79.6883C112.799 80.5489 112.327 81.522 112.048 82.5569C112.048 82.6106 112.121 82.6375 112.135 82.5569C112.421 81.6437 112.83 80.7736 113.351 79.9705C112.767 81.8294 112.468 83.7659 112.464 85.7143C112.464 82.8054 113.734 79.9906 114.701 77.3035C115.185 75.9599 115.702 74.6163 116.219 73.2727C116.737 71.9291 117.314 70.6259 117.818 69.289L118.1 69.4234C118.168 69.4704 118.147 69.3226 118.107 69.289Z" fill="#263238"/>
<path d="M94.2921 56.666C98.3228 59.1181 105.498 69.8868 108.944 82.671C109.813 86.2505 110.501 89.8716 111.006 93.5204C113.022 106.876 115.709 121.85 115.984 126.835C116.327 133.479 104.745 145.013 99.0483 143.576C93.3516 142.138 83.9734 144.603 93.9562 106.735C96.5762 96.7853 99.4985 74.9723 96.1865 63.001C95.6628 60.8586 95.0305 58.7442 94.2921 56.666Z" fill="#008B42"/>
<path d="M153.611 221.08C151.75 220.684 107.217 194.464 106.149 192.388C105.739 191.602 109.186 184.898 113.539 176.937C114.486 175.21 115.474 173.437 116.488 171.636C123.058 159.961 130.307 147.721 130.307 147.721L160.148 165.187L145.509 188.626L142.332 193.752C142.332 193.752 154.894 211.42 155.815 213.818C156.735 216.216 155.479 221.477 153.611 221.08Z" fill="#EB9481"/>
<path d="M153.611 221.08C151.75 220.684 107.217 194.464 106.149 192.388C105.793 191.716 108.426 186.402 112.061 179.678C113.794 182.325 139.651 204.695 148.223 206.832C151.723 207.705 146.295 199.388 146.067 199.032C149.842 204.44 155.21 212.239 155.801 213.778C156.735 216.19 155.478 221.477 153.611 221.08Z" fill="#263238"/>
<path d="M146.571 199.724C146.571 199.724 142.681 196.284 135.211 199.301Z" fill="#263238"/>
<path d="M179.885 128.205C177.084 142.111 148.035 188.538 148.035 188.538L116.186 169.278L137.589 135.931C137.589 135.931 93.9228 141.171 77.3161 134.177C59.554 126.714 62.1404 105.438 62.1404 105.438L105.37 100.299C105.37 100.299 106.519 104.363 111.376 103.994C128.117 102.69 150.951 103.322 159.745 104.276C171.085 105.512 182.458 115.448 179.885 128.205Z" fill="#37474F"/>
<path d="M147.471 124.282C146.464 125.275 145.519 126.329 144.643 127.439C143.675 128.548 142.694 129.643 141.72 130.751V130.785L142.265 129.791C142.936 128.662 143.44 127.493 144.179 126.432C144.219 126.364 144.125 126.29 144.078 126.358C143.319 127.412 142.459 128.373 141.794 129.529C141.485 130.059 141.183 130.597 140.908 131.141C140.753 131.436 140.592 131.739 140.451 132.041C140.39 132.182 140.31 132.33 140.263 132.478C139.826 132.995 139.396 133.512 138.973 134.043C138.046 135.212 137.206 136.461 136.286 137.624C136.232 137.684 136.333 137.751 136.386 137.691C137.334 136.602 138.402 135.602 139.342 134.527C140.283 133.452 141.25 132.296 142.177 131.168C143.104 130.039 143.957 128.924 144.864 127.809C145.844 126.718 146.755 125.567 147.592 124.362C147.558 124.302 147.511 124.248 147.471 124.282Z" fill="#263238"/>
<path d="M150.084 181.061C149.251 180.43 148.364 179.852 147.498 179.268C146.631 178.683 145.785 178.106 144.918 177.535C143.158 176.366 141.371 175.224 139.584 174.082C136.003 171.784 132.396 169.534 128.782 167.283C126.766 166.02 124.711 164.797 122.675 163.548C122.642 163.548 122.588 163.588 122.628 163.608C126.086 165.986 129.566 168.335 133.068 170.655C136.57 172.975 140.153 175.264 143.816 177.521C144.824 178.139 145.838 178.748 146.86 179.348C147.894 179.953 148.929 180.598 149.997 181.142C150.064 181.169 150.125 181.095 150.084 181.061Z" fill="#263238"/>
<path d="M68.0856 106.775C67.6535 112.435 69.4006 118.047 72.9695 122.461C74.7679 124.607 76.9648 126.384 79.4388 127.694C81.9337 128.965 84.6136 129.833 87.3794 130.267C92.9161 131.206 98.5185 131.702 104.134 131.752C109.755 131.851 115.371 131.683 120.982 131.248C126.588 130.875 132.164 130.146 137.676 129.065C139.02 128.776 140.417 128.46 141.761 128.084C142.433 127.889 143.104 127.688 143.776 127.466C144.443 127.192 145.136 126.989 145.845 126.861C146.23 126.799 146.623 126.818 147.001 126.915C147.213 126.975 147.407 127.088 147.562 127.245C147.717 127.402 147.83 127.596 147.888 127.809C147.94 128.003 147.962 128.205 147.955 128.407C147.944 128.61 147.896 128.811 147.814 128.998C147.679 129.347 147.525 129.67 147.364 129.985C146.692 131.242 145.986 132.457 145.268 133.667C139.41 143.293 133.135 152.645 126.847 161.983C129.915 157.262 132.956 152.526 135.97 147.774C138.986 143.025 142.016 138.268 144.864 133.432C145.57 132.216 146.275 131 146.88 129.757C147.034 129.441 147.189 129.132 147.31 128.816C147.368 128.682 147.402 128.539 147.411 128.393C147.42 128.244 147.404 128.094 147.364 127.95C147.236 127.385 146.531 127.278 145.886 127.379C145.211 127.507 144.551 127.705 143.917 127.97C143.245 128.198 142.574 128.407 141.902 128.601C140.558 128.984 139.161 129.273 137.784 129.602C132.239 130.709 126.629 131.46 120.989 131.853C115.368 132.26 109.734 132.408 104.087 132.296C98.4409 132.241 92.8095 131.713 87.2518 130.718C84.4974 130.14 81.6961 129.455 79.1903 128.03C76.6885 126.681 74.4748 124.855 72.6739 122.656C70.9265 120.432 69.6427 117.881 68.8985 115.152C68.1123 112.434 67.8367 109.594 68.0856 106.775Z" fill="#263238"/>
<path d="M112.35 224.197C110.61 223.425 72.5125 188.505 71.9012 186.254C71.6661 185.401 76.4223 179.537 82.3811 172.657C83.6642 171.166 85.0011 169.634 86.3715 168.089C95.2257 158.012 104.866 147.573 104.866 147.573L130.394 170.857L111.208 190.735L106.975 195.095C106.975 195.095 115.581 214.987 115.984 217.526C116.387 220.066 114.076 224.97 112.35 224.197Z" fill="#EB9481"/>
<path d="M112.35 224.197C110.616 223.424 72.5192 188.505 71.9078 186.254C71.6996 185.502 75.3743 180.88 80.3321 175.049C81.4741 177.998 102.105 205.279 110.039 209.135C113.29 210.721 109.709 201.457 109.555 201.074C112.121 207.12 115.749 215.9 116.004 217.526C116.38 220.065 114.076 224.976 112.35 224.197Z" fill="#263238"/>
<path d="M109.891 201.813C109.891 201.813 106.808 197.641 98.8669 199.038Z" fill="#263238"/>
<path d="M160.477 131.45C157.675 145.356 120.351 183.514 116.038 187.88L115.037 188.888L87.9235 164.966L88.2863 164.563L108.85 141.923C108.85 141.923 77.1816 152.672 63.6181 133.069C58.2438 125.283 62.12 105.438 62.12 105.438L96.8516 101.455C96.8516 101.455 97.4428 107.4 102.3 107.024C119.048 105.72 132.208 104.484 141.002 105.438C152.362 106.674 163.05 118.693 160.477 131.45Z" fill="#37474F"/>
<path d="M103.267 106.95C114.016 105.922 124.832 105.028 135.674 105.042C137.018 105.042 138.361 105.089 139.745 105.176C141.111 105.24 142.47 105.41 143.81 105.687C144.478 105.859 145.132 106.083 145.765 106.358C146.396 106.62 147.021 106.896 147.632 107.205C148.856 107.812 150.033 108.51 151.152 109.294C153.414 110.845 155.405 112.759 157.044 114.957C158.685 117.166 159.872 119.677 160.537 122.347C160.862 123.682 161.058 125.045 161.122 126.418C161.122 126.761 161.122 127.09 161.122 127.446C161.122 127.802 161.122 128.118 161.122 128.48C161.062 129.159 160.957 129.832 160.806 130.496C160.122 133.141 159.101 135.688 157.769 138.074C155.14 142.822 152.132 147.352 148.774 151.617C145.469 155.91 141.982 160.055 138.402 164.112C134.821 168.17 131.099 172.106 127.344 176.003C131.025 172.039 134.66 168.029 138.18 163.911C141.7 159.793 145.153 155.648 148.405 151.328C151.705 147.055 154.674 142.537 157.286 137.812C158.586 135.465 159.58 132.961 160.242 130.361C160.387 129.715 160.485 129.06 160.537 128.4C160.575 127.729 160.575 127.056 160.537 126.384C160.473 125.052 160.279 123.729 159.959 122.434C159.326 119.838 158.185 117.392 156.601 115.239C155.009 113.083 153.07 111.206 150.863 109.684C149.767 108.912 148.615 108.222 147.417 107.621C146.819 107.319 146.215 107.044 145.59 106.788C144.984 106.514 144.357 106.29 143.716 106.117C142.405 105.843 141.075 105.668 139.739 105.593C138.395 105.498 137.051 105.451 135.708 105.425C130.334 105.337 124.899 105.552 119.498 105.821C114.096 106.09 108.655 106.513 103.267 106.95Z" fill="#263238"/>
<path d="M120.048 128.528C119.042 129.517 118.099 130.569 117.227 131.679C116.253 132.787 115.272 133.882 114.305 134.99V135.024C114.486 134.695 114.661 134.352 114.849 134.03C115.487 132.908 116.018 131.739 116.757 130.671C116.766 130.658 116.771 130.641 116.768 130.624C116.766 130.608 116.757 130.593 116.743 130.584C116.73 130.574 116.713 130.57 116.697 130.572C116.68 130.575 116.666 130.584 116.656 130.597C115.904 131.658 115.037 132.653 114.372 133.775C114.063 134.299 113.767 134.836 113.485 135.38C113.331 135.682 113.176 135.978 113.035 136.28C112.962 136.424 112.897 136.572 112.84 136.724C112.403 137.234 111.974 137.758 111.557 138.282C110.623 139.451 109.784 140.701 108.87 141.863C108.823 141.923 108.924 141.991 108.971 141.93C109.918 140.848 110.986 139.848 111.927 138.766C112.867 137.684 113.841 136.536 114.761 135.407C115.682 134.278 116.548 133.17 117.449 132.048C118.425 130.953 119.333 129.8 120.169 128.595C120.143 128.548 120.089 128.488 120.048 128.528Z" fill="#263238"/>
<path d="M118.524 182.586C117.812 181.821 117.026 181.102 116.273 180.376C115.521 179.651 114.782 178.945 114.023 178.24C112.484 176.789 110.912 175.365 109.32 173.934C106.183 171.072 102.999 168.244 99.8143 165.415C98.034 163.83 96.2202 162.278 94.4399 160.713C94.4063 160.713 94.3459 160.713 94.3795 160.767C97.3891 163.691 100.426 166.591 103.489 169.466C106.552 172.342 109.705 175.203 112.948 178.052C113.835 178.831 114.735 179.597 115.635 180.363C116.535 181.129 117.462 181.941 118.423 182.66C118.49 182.687 118.557 182.627 118.524 182.586Z" fill="#263238"/>
<path d="M66.8495 107.353C66.2238 110.389 65.998 113.494 66.1777 116.59C66.3305 119.678 67.0596 122.711 68.3274 125.531C69.627 128.328 71.6903 130.701 74.2795 132.377C76.9037 133.979 79.8625 134.954 82.9254 135.225C86.0055 135.557 89.1108 135.584 92.1961 135.306C95.2775 135.051 98.343 134.632 101.379 134.049C107.462 132.911 113.457 131.351 119.323 129.381L119.545 129.307L119.645 129.501C120.015 130.246 120.242 131.052 120.317 131.88C120.396 132.693 120.346 133.514 120.169 134.311C119.992 135.107 119.709 135.875 119.33 136.596C118.927 137.284 118.479 137.944 117.986 138.571C116.011 141.05 113.888 143.394 111.765 145.732C109.643 148.07 107.466 150.367 105.283 152.638C103.099 154.909 100.896 157.186 98.6789 159.436C100.847 157.139 102.998 154.828 105.135 152.504C107.264 150.172 109.394 147.841 111.497 145.49C113.599 143.139 115.682 140.788 117.61 138.282C118.091 137.672 118.528 137.03 118.92 136.36C119.269 135.677 119.53 134.952 119.699 134.204C120.036 132.715 119.871 131.156 119.229 129.77L119.551 129.884C113.638 131.892 107.59 133.479 101.453 134.634C98.3919 135.211 95.3017 135.624 92.1961 135.87C89.0848 136.135 85.9549 136.095 82.8515 135.749C79.7251 135.457 76.712 134.431 74.0578 132.753C71.4134 131.012 69.317 128.557 68.0117 125.672C66.7601 122.808 66.0757 119.728 65.9963 116.603C65.8724 113.495 66.1593 110.385 66.8495 107.353Z" fill="#263238"/>
<path d="M81.7363 106.916C81.4205 108.549 81.004 110.168 80.5472 111.766C80.219 113.222 79.6122 114.6 78.7602 115.824C77.8451 116.898 76.6961 117.749 75.4013 118.31C74.6591 118.66 73.8964 118.965 73.1172 119.223C72.3153 119.448 71.5316 119.733 70.7726 120.076C70.7423 120.093 70.718 120.119 70.7033 120.15C70.6886 120.181 70.6844 120.216 70.6911 120.25C70.6979 120.284 70.7153 120.315 70.7409 120.338C70.7664 120.361 70.7988 120.375 70.8331 120.379C71.7136 120.366 72.589 120.244 73.4397 120.016C74.2691 119.83 75.0823 119.579 75.8715 119.264C77.3077 118.681 78.5706 117.739 79.5395 116.529C80.4568 115.207 81.0673 113.697 81.3265 112.109C81.7066 110.405 81.9203 108.668 81.9647 106.923C81.9656 106.893 81.9544 106.863 81.9336 106.841C81.9128 106.819 81.8841 106.806 81.8538 106.805C81.8235 106.804 81.7941 106.816 81.7721 106.836C81.75 106.857 81.7371 106.886 81.7363 106.916Z" fill="#263238"/>
<path d="M61.4885 106.688L107.244 105.075L103.885 87.9447C103.885 87.9447 107.674 82.9936 106.74 77.8007C105.712 72.1173 94.9101 57.9963 93.9763 57.2103C90.3822 54.0596 87.1442 52.8907 84.1346 55.1076C73.6748 62.8466 61.4885 106.688 61.4885 106.688Z" fill="#008B42"/>
<path d="M97.7518 86.2181C95.7094 86.4749 93.6886 86.8814 91.7057 87.434C90.7316 87.7229 89.7709 88.0588 88.8103 88.4148C88.3333 88.5895 87.8496 88.7507 87.3659 88.9052C86.8649 89.0849 86.3437 89.2022 85.8141 89.2546C85.7671 89.2546 85.7671 89.3285 85.8141 89.3285C86.317 89.3387 86.82 89.3117 87.3189 89.2479C87.8028 89.1739 88.2809 89.0662 88.7498 88.9254C89.744 88.6433 90.7316 88.3141 91.7258 88.0185C93.7412 87.4273 95.7566 86.8361 97.7719 86.386C97.8794 86.3659 97.8458 86.2046 97.7518 86.2181Z" fill="#263238"/>
<path d="M102.871 87.8571C101.178 87.7373 99.4805 87.7149 97.7855 87.7899C96.9391 87.8302 96.0993 87.9176 95.2596 88.0318C94.8565 88.0855 94.4534 88.146 94.0571 88.2132C93.6607 88.2803 93.1837 88.4147 92.7135 88.4819C92.6665 88.4819 92.6665 88.5625 92.7135 88.5558C93.13 88.502 93.5599 88.5558 93.9832 88.502L95.2461 88.4214L97.7788 88.2736C99.4717 88.1527 101.138 88.0519 102.851 87.9982C102.945 87.9915 102.945 87.8638 102.871 87.8571Z" fill="#263238"/>
<path d="M78.2363 61.2543C66.9166 75.4022 53.9981 103.9 57.6795 108.951C61.7842 114.574 77.5309 94.7565 77.3361 93.7286C77.1883 92.9493 81.5012 76.0538 84.84 63.7399C88.1788 51.426 81.0377 57.761 78.2363 61.2543Z" fill="#EB9481"/>
<path d="M77.4571 93.7289C77.793 91.9352 83.7518 69.6183 85.3775 62.5914C86.8353 56.29 85.3775 53.9388 80.675 58.292C71.9417 66.2997 55.6642 89.6578 53.5011 101.011C51.4252 111.955 60.5481 111.76 67.3399 106.056C72.8688 101.374 77.4571 93.7289 77.4571 93.7289Z" fill="#008B42"/>
<path d="M76.6978 96.6105C78.525 88.1728 80.677 79.8113 83.1537 71.5259C81.3353 79.968 79.1834 88.3296 76.6978 96.6105Z" fill="#263238"/>
<path d="M81.9917 76.4034C82.2201 75.2667 82.7517 74.2128 83.5301 73.3535C83.3769 74.5149 82.8346 75.59 81.9917 76.4034Z" fill="#263238"/>
<path d="M148.17 103.812H101.427V106.056H148.17V103.812Z" fill="#455A64"/>
<path d="M123.313 103.812H101.427V106.056H123.313V103.812Z" fill="#A6A6A6"/>
<path d="M122.38 106.056H171.152L178.044 72.9302H129.272L122.38 106.056Z" fill="#A6A6A6"/>
<path d="M124.59 106.056H173.362L180.254 72.9302H131.482L124.59 106.056Z" fill="#C7C7C7"/>
<path d="M149.171 90.2286C149.115 90.6396 149.149 91.0577 149.271 91.4541C149.393 91.8505 149.599 92.2159 149.875 92.5249C150.152 92.834 150.492 93.0794 150.873 93.2443C151.253 93.4092 151.665 93.4896 152.079 93.4801C152.97 93.4622 153.824 93.1234 154.484 92.526C155.144 91.9285 155.567 91.1127 155.673 90.2286C155.728 89.8179 155.693 89.4002 155.571 89.0043C155.448 88.6084 155.242 88.2435 154.966 87.9347C154.69 87.626 154.35 87.3805 153.97 87.2152C153.59 87.05 153.179 86.9687 152.765 86.9772C151.875 86.9964 151.022 87.3357 150.361 87.9329C149.701 88.5301 149.279 89.3451 149.171 90.2286Z" fill="#EBEBEB"/>
<path d="M57.6996 107.924C61.905 110.752 69.5634 108.642 89.3409 105.136C92.0751 104.652 93.8487 84.4177 90.8995 84.7872C87.1845 85.2508 72.8687 87.8506 71.8475 88.1462C63.2217 90.8938 54.8445 106.009 57.6996 107.924Z" fill="#EB9481"/>
<path d="M88.0175 86.1443C88.0175 86.1443 94.9033 82.3151 99.1423 81.4418C103.572 80.6221 108.136 80.8942 112.437 82.2345C117.086 83.6587 127.344 90.296 125.947 93.6079C124.67 96.5839 114.526 89.248 114.526 89.248C114.526 89.248 126.101 95.0254 123.931 98.3239C121.761 101.622 110.455 92.4457 110.455 92.4457C110.455 92.4457 122.218 98.6463 119.417 101.696C117.308 104 106.613 96.2547 106.613 96.2547C106.613 96.2547 116.689 101.629 114.614 104.115C112.33 106.842 102.011 100.306 102.011 100.306C95.6893 105.68 90.4829 105.68 86.7814 105.203C85.8745 105.075 88.0175 86.1443 88.0175 86.1443Z" fill="#EB9481"/>
<path d="M110.657 86.9707C112.041 87.5955 113.445 88.227 114.768 88.9861C116.092 89.7452 117.395 90.5312 118.638 91.4045C120.291 92.5103 121.813 93.8018 123.172 95.2539C120.572 92.8489 115.877 90.0945 114.553 89.3421C113.23 88.5897 111.947 87.7768 110.63 87.0312L110.657 86.9707Z" fill="#263238"/>
<path d="M107.862 91.6999C109.595 92.5799 111.349 93.3861 113.042 94.34C114.735 95.294 116.246 96.3554 117.858 97.4101C117.986 97.4907 117.899 97.531 117.771 97.4571C116.112 96.4562 114.506 95.6567 112.833 94.6759C111.161 93.6951 109.535 92.6606 107.835 91.7335C107.808 91.72 107.835 91.6865 107.862 91.6999Z" fill="#263238"/>
<path d="M104.732 95.3275C107.424 96.6116 109.977 98.1694 112.35 99.9763C112.471 100.064 112.35 100.104 112.229 100.023C109.723 98.4245 107.775 97.1615 104.698 95.4216C104.644 95.3947 104.678 95.3007 104.732 95.3275Z" fill="#263238"/>
<path d="M86.8822 83.2891L78.7603 111.592C78.7603 111.592 58.5193 111.948 55.2476 108.501C52.9098 106.036 62.0327 91.4715 71.4915 88.1528L86.8822 83.2891Z" fill="#008B42"/>
<path d="M61.7169 96.0263C62.6037 94.2595 66.0365 90.1347 71.478 88.1328C71.5251 88.1328 71.5654 88.1866 71.5183 88.2134C67.6085 90.0944 62.7851 94.4409 61.7841 96.0667C61.7572 96.1137 61.69 96.0667 61.7169 96.0263Z" fill="#263238"/>
<path d="M74.7295 107.608C75.3006 104.82 76.0194 102.066 76.7449 99.3117C77.4704 96.5573 78.1893 93.7963 78.982 91.0621C79.4321 89.517 79.8687 87.9651 80.3726 86.4334C80.3726 86.3931 80.4532 86.4334 80.4465 86.4334C79.8822 89.2214 79.1701 91.9824 78.4311 94.7368C77.6921 97.4911 76.9935 100.252 76.2276 103C75.7977 104.552 75.3409 106.097 74.837 107.622C74.8102 107.716 74.6825 107.689 74.7295 107.608Z" fill="#263238"/>
<path d="M86.8219 83.0538C85.7337 83.2579 84.6608 83.5362 83.6107 83.8868C82.5493 84.2048 81.4923 84.5385 80.4399 84.8878C78.3439 85.5596 73.8294 86.7957 70.2622 88.6498C70.2219 88.6498 70.5242 88.7573 70.5578 88.7372C72.2104 87.7698 85.6529 83.8936 86.6808 83.4502C86.6741 83.5351 86.6741 83.6205 86.6808 83.7055C86.6808 83.7659 86.7681 83.8062 86.8017 83.7458C86.8353 83.6853 86.9226 83.4435 86.9898 83.289C87.004 83.2625 87.0104 83.2325 87.0085 83.2025C87.0065 83.1726 86.9962 83.1437 86.9788 83.1193C86.9613 83.0948 86.9374 83.0757 86.9097 83.0642C86.8819 83.0526 86.8515 83.049 86.8219 83.0538Z" fill="#263238"/>
<path d="M80.2113 106.795C79.7948 108.461 79.3447 110.114 78.8677 111.759C77.242 111.759 75.6163 111.759 73.9973 111.706C69.2947 111.551 64.4914 111.343 59.8494 110.362C65.1834 110.994 73.2852 111.175 78.7401 111.43L78.5722 111.551C79.0961 109.957 79.6403 108.374 80.2046 106.802L80.2113 106.795Z" fill="#263238"/>
<path d="M85.1289 57.6872C85.3775 58.5337 89.7508 63.9147 93.6674 63.5318C94.937 63.4109 94.5676 56.4108 94.5676 56.4108L94.6549 55.8869L95.9111 48.5643L87.1443 43.5326L85.8813 42.8608C85.8813 42.8608 85.673 44.8762 85.4312 47.4156C85.4312 47.5298 85.4312 47.644 85.3976 47.7716C85.364 47.8993 85.3976 48.0471 85.3506 48.1814C85.3103 48.5576 85.27 48.9473 85.2431 49.3302C85.2162 49.7131 85.1894 49.9079 85.1759 50.2102C85.1625 50.5125 85.1356 50.8216 85.1087 51.1306C84.9697 53.3142 84.9764 55.5046 85.1289 57.6872Z" fill="#EB9481"/>
<path d="M85.4312 47.4223C86.2621 49.4181 87.5176 51.209 89.1104 52.6708C90.7033 54.1325 92.5952 55.2299 94.6548 55.8869L95.9111 48.5643L87.1442 43.5326L85.8813 42.8608C85.8813 42.8608 85.673 44.8964 85.4312 47.4223Z" fill="#263238"/>
<path d="M83.7988 42.7266C80.8295 42.6191 73.8764 45.9915 72.1164 50.244C70.3563 54.4964 71.6931 60.6164 73.0636 60.9926C74.434 61.3688 79.7815 59.9043 83.1404 57.1634C86.4994 54.4225 85.2566 42.7804 83.7988 42.7266Z" fill="#263238"/>
<path d="M83.8055 42.7398C83.8996 42.6995 83.8794 42.545 83.8055 42.5584C81.2997 42.9548 78.7805 44.2849 76.53 45.4068C74.7095 46.307 72.862 47.3214 71.5521 48.9136C70.9186 49.6663 70.4555 50.5471 70.1946 51.4957C69.9337 52.4443 69.8811 53.438 70.0405 54.4088C70.363 56.6257 71.1691 59.2256 72.6 60.9789C72.6471 61.026 72.7546 60.9789 72.7142 60.9185C70.8064 56.9751 68.8716 52.0844 72.4858 48.4971C75.5156 45.4471 79.9494 44.3454 83.8055 42.7398Z" fill="#263238"/>
<path d="M73.2786 59.8235C70.8467 60.6028 65.2171 66.5414 65.0223 71.4724C64.8275 76.4033 69.9263 82.7114 71.2431 82.9936C72.5598 83.2757 77.2354 77.7267 78.4178 74.0587C79.2105 71.6134 77.7863 69.1883 76.7719 66.6691C75.2671 63.028 73.6615 59.7026 73.2786 59.8235Z" fill="#263238"/>
<path d="M79.8017 73.192C79.6606 68.2275 76.0531 63.9482 73.6078 59.8839C73.6078 59.8436 73.507 59.8839 73.5271 59.9242C75.2066 63.9549 78.4111 67.24 79.2844 71.6066C79.7949 74.193 79.3583 76.907 77.5109 78.8955C75.912 80.6153 73.6951 81.67 71.6864 82.8255C71.5521 82.9061 71.6864 83.0942 71.8141 83.027C75.8448 80.837 79.9495 78.3178 79.8017 73.192Z" fill="#263238"/>
<path d="M72.8216 60.3676C72.9358 60.287 72.8216 60.1056 72.7007 60.1862C69.4627 62.5106 65.6469 65.7419 64.4041 69.6786C63.0605 73.9445 65.8686 77.6393 68.3408 80.8169C68.3408 80.8572 68.4348 80.8169 68.4012 80.7699C65.9492 77.5386 63.2352 73.4675 64.881 69.2487C66.2918 65.621 69.7851 62.6248 72.8216 60.3676Z" fill="#263238"/>
<path d="M71.5049 82.812C73.2717 83.5241 76.0059 86.171 76.8792 89.4963C78.3975 95.1931 80.4666 93.8495 86.9561 94.7833C92.4244 95.5693 94.1308 101.441 91.5646 104.665C91.5646 104.665 92.8611 100.823 89.0924 99.3582C84.5847 97.6116 75.1796 103.073 69.6911 97.4638C62.5768 90.2084 71.5049 82.812 71.5049 82.812Z" fill="#263238"/>
<path d="M74.0579 85.2711C73.984 85.1972 74.1049 85.0628 74.1855 85.1367C74.9808 85.7945 75.65 86.5912 76.1606 87.488C76.8324 88.6569 76.9735 89.9803 77.5445 91.1829C79.0023 94.2529 82.818 93.776 85.606 93.7021C89.3546 93.6147 92.5657 95.6032 93.1703 99.4996C93.1668 99.5083 93.1608 99.5158 93.153 99.5211C93.1453 99.5264 93.1361 99.5292 93.1267 99.5292C93.1173 99.5292 93.1081 99.5264 93.1003 99.5211C93.0925 99.5158 93.0865 99.5083 93.083 99.4996C92.8851 98.298 92.3624 97.1734 91.5715 96.2474C90.7805 95.3215 89.7514 94.6294 88.5954 94.2462C86.3315 93.5744 83.8929 94.2462 81.6088 93.9305C80.0234 93.7021 78.4245 93.1915 77.5781 91.7539C77.1714 90.9278 76.8538 90.0608 76.6309 89.1675C76.1191 87.6707 75.2335 86.3295 74.0579 85.2711Z" fill="#263238"/>
<path d="M70.5912 83.6117C70.5912 83.5782 70.6785 83.6117 70.6517 83.6588C68.7371 85.9496 66.7015 88.2538 66.3858 91.3575C66.0499 94.7164 68.0518 97.8201 70.8196 99.5533C73.9166 101.495 76.906 100.138 80.0702 99.1973C82.3542 98.5255 84.7055 98.0216 87.0702 98.5994C87.1441 98.5994 87.1172 98.7337 87.0702 98.727C83.3015 98.2232 80.0366 99.6407 76.4694 100.574C73.5605 101.334 71.1354 100.527 69.0125 98.4113C64.31 93.7491 66.3253 87.7231 70.5912 83.6117Z" fill="#263238"/>
<path d="M81.1317 40.5164C80.1576 39.6565 78.8409 41.1882 79.8217 42.0481C80.8025 42.908 82.1192 41.3763 81.1317 40.5164Z" fill="#008B42"/>
<path d="M82.2132 42.0545C81.2391 41.1946 79.9224 42.7263 80.8696 43.5862C81.8168 44.4461 83.1873 42.9144 82.2132 42.0545Z" fill="#008B42"/>
<path d="M83.5501 43.3983C82.576 42.5384 81.2593 44.0701 82.2065 44.9299C82.4096 45.1081 82.6752 45.1983 82.9448 45.1807C83.2144 45.163 83.466 45.039 83.6441 44.8359C83.8223 44.6328 83.9125 44.3672 83.8949 44.0976C83.8772 43.828 83.7532 43.5764 83.5501 43.3983Z" fill="#008B42"/>
<path d="M85.0147 44.5198C84.0406 43.66 82.7239 45.1916 83.6711 46.0515C84.6183 46.9114 85.9955 45.3865 85.0147 44.5198Z" fill="#008B42"/>
<path d="M86.6873 45.3938C85.7132 44.5339 84.3965 46.0656 85.3437 46.9322C86.2909 47.7988 87.6681 46.2604 86.6873 45.3938Z" fill="#008B42"/>
<path d="M88.4205 45.9578C87.4464 45.0979 86.1297 46.6296 87.1105 47.4895C88.0913 48.3494 89.4013 46.7976 88.4205 45.9578Z" fill="#008B42"/>
<path d="M104.362 35.3632C107.506 48.0198 100.291 51.3317 97.5705 52.0035C95.0983 52.6148 86.5934 54.3951 82.1596 42.1349C77.7258 29.8747 82.6097 24.4063 88.2057 22.7067C93.8017 21.0071 101.218 22.7134 104.362 35.3632Z" fill="#EB9481"/>
<path d="M83.7987 43.2032C86.4254 42.4038 84.7862 36.3375 84.7862 36.3375C84.7862 36.3375 88.9983 34.2079 89.959 30.6474C89.959 30.6474 89.4887 33.6235 88.0578 35.2089C87.816 35.4776 96.5895 31.9305 95.4475 24.7491C95.4475 24.7491 98.7662 31.205 103.301 31.4065C103.516 31.4065 101.064 26.4151 98.8938 24.7961C97.9561 24.0378 96.9535 23.3634 95.8976 22.7808C92.5792 21.5492 88.91 21.6698 85.6797 23.1167C80.3591 25.5485 78.4243 32.4411 78.6998 34.9603C79.2439 39.9114 82.5559 43.5861 83.7987 43.2032Z" fill="#263238"/>
<path d="M88.3868 35.276C93.2573 33.6234 96.2602 29.3306 95.2055 24.1713C95.2055 24.0436 95.3735 23.9899 95.4272 24.1041C97.5836 29.0216 93.1498 34.3825 88.3734 35.3767C88.2525 35.4036 88.2726 35.3163 88.3868 35.276Z" fill="#263238"/>
<path d="M83.7315 42.9213C86.0022 40.7716 85.6461 37.9635 85.0751 35.1756C85.0751 35.095 85.196 35.0479 85.2229 35.1353C86.0425 37.8224 86.506 41.1814 83.9196 43.1161C83.8938 43.1411 83.8591 43.1547 83.8232 43.1541C83.7873 43.1535 83.7531 43.1386 83.7282 43.1128C83.7032 43.0869 83.6896 43.0523 83.6902 43.0163C83.6908 42.9804 83.7057 42.9463 83.7315 42.9213Z" fill="#263238"/>
<path d="M95.1721 23.6947C95.1721 23.6947 95.1721 23.6544 95.2191 23.6947C96.6433 26.3415 98.1549 31.0844 101.977 30.735C101.994 30.74 102.009 30.7502 102.019 30.7641C102.029 30.778 102.035 30.7949 102.035 30.8123C102.035 30.8297 102.029 30.8465 102.019 30.8605C102.009 30.8744 101.994 30.8846 101.977 30.8895C98.3564 31.5345 95.6357 26.7312 95.1721 23.6947Z" fill="#263238"/>
<path d="M100.607 33.8654C100.298 33.8654 100.016 33.8654 99.7134 33.8654C99.3972 33.9116 99.0746 33.8551 98.793 33.7041C98.716 33.6377 98.6626 33.5481 98.6408 33.4488C98.619 33.3495 98.63 33.2458 98.6721 33.1533C98.7851 32.9842 98.9412 32.8483 99.1242 32.7598C99.3073 32.6712 99.5107 32.6331 99.7134 32.6494C100.131 32.6176 100.545 32.7421 100.876 32.9987C100.948 33.0621 101 33.145 101.026 33.2373C101.052 33.3296 101.05 33.4275 101.022 33.5191C100.993 33.6107 100.939 33.6921 100.866 33.7535C100.792 33.815 100.702 33.8538 100.607 33.8654Z" fill="#263238"/>
<path d="M91.934 35.8136C92.2132 35.7042 92.4867 35.5809 92.7536 35.4442C93.0558 35.351 93.3198 35.1624 93.506 34.9067C93.5504 34.8146 93.5626 34.7103 93.5407 34.6104C93.5188 34.5105 93.464 34.4209 93.3851 34.3559C93.2103 34.2517 93.0107 34.1968 92.8073 34.1968C92.6039 34.1968 92.4043 34.2517 92.2296 34.3559C91.8389 34.5019 91.5175 34.7897 91.3294 35.162C91.2942 35.2485 91.2844 35.3432 91.3012 35.435C91.318 35.5269 91.3606 35.612 91.4241 35.6804C91.4876 35.7489 91.5693 35.7977 91.6596 35.8213C91.75 35.8449 91.8451 35.8423 91.934 35.8136Z" fill="#263238"/>
<path d="M94.6349 38.4673C94.6349 38.4673 94.5744 38.5277 94.5878 38.5613C94.823 39.4078 94.9573 40.4222 94.252 40.8992C94.252 40.8992 94.252 40.9596 94.252 40.9462C95.1857 40.5834 94.9976 39.2398 94.6349 38.4673Z" fill="#263238"/>
<path d="M93.6472 37.7617C92.2432 38.0036 92.8209 40.7915 94.1242 40.5698C95.4274 40.3481 94.8228 37.5669 93.6472 37.7617Z" fill="#263238"/>
<path d="M93.1299 38.024C92.9217 38.2323 92.7403 38.5614 92.4581 38.6488C92.176 38.7361 91.7864 38.5144 91.5244 38.2793C91.5244 38.2793 91.4773 38.2793 91.4841 38.3263C91.5915 38.857 91.9073 39.3676 92.4985 39.3273C93.0896 39.287 93.3113 38.7428 93.3315 38.1718C93.3315 38.071 93.2173 37.9434 93.1299 38.024Z" fill="#263238"/>
<path d="M99.391 37.2583C99.391 37.2583 99.4648 37.2583 99.4716 37.3188C99.6126 38.1921 99.9284 39.1662 100.768 39.2938C100.768 39.2938 100.802 39.3476 100.768 39.3476C99.7873 39.4013 99.3842 38.1048 99.391 37.2583Z" fill="#263238"/>
<path d="M99.9822 36.2033C101.326 35.8203 101.998 38.5881 100.748 38.9442C99.4985 39.3002 98.8334 36.5526 99.9822 36.2033Z" fill="#263238"/>
<path d="M100.607 36.2436C100.856 36.3376 101.138 36.5526 101.406 36.5056C101.675 36.4585 101.863 36.1025 101.991 35.7666C101.991 35.7666 102.031 35.7666 102.038 35.7666C102.179 36.2973 102.139 36.8885 101.655 37.1102C101.171 37.3319 100.761 36.9422 100.506 36.4384C100.459 36.3712 100.5 36.21 100.607 36.2436Z" fill="#263238"/>
<path d="M96.2739 45.4605C96.5158 45.6285 96.7643 45.877 97.0868 45.8569C97.4085 45.7949 97.7145 45.6693 97.987 45.4874C97.987 45.4874 98.0475 45.4874 98.034 45.5277C97.94 45.7226 97.7947 45.8882 97.6135 46.0066C97.4324 46.1249 97.2224 46.1916 97.0062 46.1995C96.8194 46.1807 96.6424 46.1068 96.4976 45.9872C96.3529 45.8676 96.247 45.7076 96.1933 45.5277C96.1732 45.4673 96.2269 45.4337 96.2739 45.4605Z" fill="#263238"/>
<path d="M99.297 43.324C99.0707 43.8985 98.7006 44.4051 98.2221 44.7952C97.9539 44.9969 97.6304 45.1118 97.295 45.1244C96.556 45.1244 96.3612 44.5131 96.3344 43.9421C96.3209 43.6379 96.3457 43.3332 96.4083 43.0352C97.3166 43.4337 98.3277 43.5348 99.297 43.324Z" fill="#263238"/>
<path d="M98.2422 44.7955C97.974 44.9972 97.6505 45.112 97.3151 45.1247C96.5762 45.1247 96.3814 44.5133 96.3545 43.9423C96.7192 43.8518 97.1039 43.8867 97.4463 44.0415C97.7888 44.1963 98.0691 44.4619 98.2422 44.7955Z" fill="#FF9CBD"/>
<path d="M99.196 41.5575C99.196 41.5575 99.6528 42.807 99.7872 43.4116C99.7872 43.4654 99.6595 43.5258 99.4513 43.5863C98.9502 43.7953 98.4014 43.8626 97.8648 43.7808C97.3281 43.6991 96.8242 43.4714 96.4081 43.1228C96.3981 43.1115 96.3922 43.0973 96.3912 43.0823C96.3903 43.0673 96.3944 43.0525 96.4029 43.0401C96.4114 43.0277 96.4238 43.0186 96.4382 43.0141C96.4525 43.0096 96.4679 43.01 96.482 43.0153C97.3718 43.3761 98.3544 43.4397 99.2833 43.1967C99.2833 43.0153 98.4234 41.0805 98.5175 41.0537C98.9989 40.9868 99.4872 40.9868 99.9686 41.0537C99.0818 38.427 97.7852 35.9615 96.9455 33.3281C96.9405 33.3085 96.9425 33.2878 96.9511 33.2695C96.9596 33.2512 96.9743 33.2365 96.9925 33.2278C97.0107 33.2191 97.0313 33.2169 97.051 33.2218C97.0706 33.2266 97.0879 33.238 97.1 33.2542C98.5692 35.8552 99.7755 38.5962 100.701 41.4366C100.808 41.7859 99.458 41.6045 99.196 41.5575Z" fill="#263238"/>
<path d="M84.6587 42.5182C84.6587 42.5182 81.2124 38.9443 79.5531 40.2408C77.8938 41.5374 80.8967 47.0192 83.1875 47.476C83.4739 47.5542 83.7732 47.5736 84.0673 47.5332C84.3614 47.4928 84.6443 47.3934 84.8991 47.2409C85.1538 47.0885 85.3751 46.8861 85.5497 46.646C85.7243 46.4058 85.8485 46.1329 85.915 45.8436L84.6587 42.5182Z" fill="#EB9481"/>
<path d="M80.4598 41.7924C80.4262 41.7924 80.4262 41.8394 80.4598 41.8462C82.0519 42.2157 83.0596 43.4853 83.8187 44.8424C83.708 44.706 83.5691 44.5953 83.4115 44.5178C83.2539 44.4403 83.0814 44.3979 82.9058 44.3934C82.7303 44.389 82.5558 44.4226 82.3945 44.4919C82.2332 44.5613 82.0888 44.6648 81.9713 44.7953C81.931 44.7953 81.9713 44.8894 82.025 44.8692C82.2749 44.7424 82.5582 44.6968 82.8353 44.739C83.1124 44.7812 83.3693 44.9089 83.5702 45.1044C83.9056 45.4321 84.2051 45.7947 84.4636 46.1859C84.551 46.3069 84.7861 46.1859 84.7122 46.0516C84.4502 44.0967 82.5423 41.6581 80.4598 41.7924Z" fill="#263238"/>
<path d="M39.3262 153.847H38.52V153.344H39.3195H41.2005V153.847H39.3262ZM35.1544 153.774C34.2407 153.74 33.3472 153.693 32.4672 153.639V153.135C33.3472 153.189 34.2407 153.236 35.1544 153.27V153.774ZM44.5594 153.733V153.229C45.4395 153.196 46.3329 153.149 47.2466 153.088L47.2802 153.592C46.3598 153.653 45.4596 153.7 44.5796 153.733H44.5594ZM29.1082 153.364C28.1946 153.276 27.2944 153.176 26.4211 153.061L26.4883 152.558C27.3482 152.672 28.2416 152.773 29.1754 152.867L29.1082 153.364ZM50.6055 153.364L50.5652 152.86C51.4453 152.786 52.3388 152.699 53.2524 152.605L53.3061 153.102C52.3992 153.182 51.5057 153.263 50.619 153.344L50.6055 153.364ZM56.6516 152.692L56.5845 152.188L59.2716 151.825L59.3455 152.322C58.4117 152.464 57.525 152.584 56.6449 152.699L56.6516 152.692ZM23.1092 152.544C22.209 152.39 21.3155 152.215 20.4623 152.034L20.5631 151.543C21.4163 151.725 22.303 151.893 23.1898 152.054L23.1092 152.544ZM62.6373 151.819L62.5567 151.322L65.2035 150.858L65.2909 151.355L62.6373 151.819ZM17.184 151.241C16.2905 150.999 15.4239 150.737 14.5976 150.462L14.7521 149.985C15.5717 150.26 16.4383 150.515 17.3116 150.757L17.184 151.241ZM68.5961 150.724L68.4953 150.226C69.3619 150.052 70.242 149.87 71.122 149.676L71.2295 150.173C70.336 150.361 69.4627 150.549 68.5894 150.757L68.5961 150.724ZM74.5078 149.427L74.3936 148.937C75.2602 148.735 76.1268 148.52 77.0002 148.305L77.1211 148.796C76.241 149.011 75.4013 149.226 74.5011 149.414L74.5078 149.427ZM11.4335 149.286C10.5736 148.923 9.74726 148.54 8.98142 148.137L9.20983 147.694C9.96895 148.083 10.7818 148.46 11.6283 148.816L11.4335 149.286ZM80.3793 147.942L80.2516 147.452C81.1048 147.224 81.9714 146.988 82.838 146.74L82.9724 147.224C82.1192 147.479 81.2324 147.714 80.3726 147.949L80.3793 147.942ZM6.06585 146.397C5.31672 145.89 4.60708 145.326 3.94299 144.711L4.28561 144.342C4.9343 144.944 5.62582 145.499 6.35472 146.001L6.06585 146.397ZM86.197 146.29L86.0492 145.813C86.9024 145.558 87.7555 145.289 88.6154 145.02L88.7699 145.504L86.197 146.29ZM91.9677 144.469L91.8064 143.992C92.6529 143.717 93.4993 143.428 94.3525 143.132L94.5137 143.609C93.6606 143.905 92.8141 144.194 91.9677 144.469ZM97.6846 142.494L97.5166 142.017L100.036 141.09L100.211 141.567C99.3708 141.883 98.5243 142.192 97.6846 142.494ZM1.75967 142.078C1.26632 141.3 0.896906 140.45 0.664657 139.558L1.14835 139.431C1.37114 140.272 1.71752 141.076 2.17618 141.816L1.75967 142.078ZM103.354 140.365L103.173 139.894L105.665 138.907L105.854 139.377L103.354 140.365ZM108.964 138.094L108.769 137.63L111.241 136.582L111.443 137.046L108.964 138.094ZM0.987119 136.2L0.48999 136.132C0.615744 135.232 0.841054 134.349 1.16178 133.499L1.63204 133.674C1.32424 134.489 1.10795 135.336 0.987119 136.2ZM114.52 135.696L114.311 135.232L114.755 135.031C115.427 134.735 116.098 134.426 116.77 134.117L116.985 134.574L114.97 135.494L114.52 135.696ZM120.001 133.116L119.773 132.659C120.579 132.265 121.379 131.862 122.171 131.45L122.406 131.893C121.607 132.31 120.801 132.713 120.001 133.116ZM3.10997 130.704L2.68003 130.449C3.14365 129.673 3.64821 128.921 4.19156 128.198L4.59463 128.501C4.05798 129.209 3.55796 129.945 3.09654 130.704H3.10997ZM125.376 130.315L125.134 129.871C125.92 129.448 126.706 129.011 127.485 128.575L127.727 129.011C126.954 129.455 126.168 129.891 125.382 130.315H125.376ZM130.643 127.325L130.387 126.895C131.16 126.438 131.926 125.982 132.692 125.511L132.954 125.941C132.194 126.412 131.422 126.868 130.649 127.325H130.643ZM6.71077 125.901L6.33457 125.565C6.90559 124.927 7.53035 124.262 8.1887 123.603L8.55147 123.959C7.89312 124.631 7.27507 125.29 6.71077 125.901ZM135.809 124.148L135.54 123.724L137.797 122.273L138.073 122.69L135.809 124.148ZM10.9766 121.675L10.6407 121.299C11.3125 120.715 11.9843 120.117 12.6561 119.526L12.9786 119.909C12.3068 120.527 11.6216 121.091 10.9766 121.675ZM140.867 120.849L140.585 120.433C141.324 119.935 142.056 119.432 142.789 118.921L143.077 119.331C142.345 119.855 141.606 120.352 140.867 120.849ZM15.612 117.799L15.303 117.403C15.9748 116.852 16.7204 116.308 17.446 115.764L17.7483 116.167C17.0183 116.704 16.3062 117.248 15.612 117.799ZM145.832 117.389L145.536 116.98C146.262 116.456 146.987 115.932 147.706 115.401L148.008 115.804L145.832 117.389ZM20.4556 114.198L20.1667 113.789C20.9012 113.269 21.6402 112.759 22.3836 112.257L22.6658 112.673C21.9268 113.177 21.1878 113.681 20.4556 114.198ZM150.696 113.809L150.387 113.412C151.105 112.868 151.811 112.324 152.516 111.773L152.825 112.17C152.12 112.7 151.408 113.244 150.696 113.809ZM25.4671 110.839L25.1984 110.416C25.9508 109.926 26.71 109.442 27.4758 108.972L27.7445 109.395C26.9787 109.852 26.2263 110.329 25.4671 110.819V110.839ZM155.472 110.087L155.156 109.697L157.245 108.011L157.561 108.401L155.472 110.087ZM30.6063 107.642L30.3511 107.212C31.1259 106.764 31.8984 106.316 32.6687 105.868L32.924 106.305C32.1515 106.701 31.3789 107.158 30.6063 107.622V107.642ZM160.154 106.258L159.832 105.868C160.504 105.29 161.209 104.713 161.881 104.135L162.21 104.518L160.154 106.258ZM35.8732 104.612L35.6246 104.175C36.4173 103.732 37.21 103.302 37.9893 102.879L38.2244 103.322C37.425 103.732 36.639 104.155 35.8463 104.592L35.8732 104.612ZM164.749 102.294L164.414 101.918C165.085 101.327 165.757 100.729 166.429 100.138L166.765 100.514C166.093 101.105 165.421 101.717 164.749 102.294ZM41.14 101.717L40.9116 101.273L43.3099 100.044L43.5383 100.494C42.7792 100.897 41.9797 101.3 41.14 101.717ZM46.5546 99.0294L46.3397 98.5793C47.1861 98.1762 47.999 97.7933 48.785 97.4372L48.9932 97.894C48.2408 98.2434 47.4213 98.6263 46.5815 99.0294H46.5546ZM169.244 98.2702L168.901 97.894C169.573 97.2894 170.245 96.6781 170.883 96.0735L171.225 96.443L169.244 98.2702ZM52.0969 96.5437L51.9021 96.0735C52.6747 95.751 53.3935 95.4622 54.0585 95.2136L54.2332 95.6838C53.5816 95.9324 52.8627 96.2213 52.0969 96.5437ZM173.691 94.132L173.342 93.7692L175.283 91.9084L175.632 92.2711L173.691 94.132ZM178.037 89.9199L177.681 89.5638C178.353 88.9256 178.964 88.2942 179.589 87.6627L179.945 88.0187C179.334 88.6502 178.696 89.2817 178.051 89.9199H178.037ZM182.31 85.6271L181.947 85.2711C182.585 84.5993 183.203 83.9813 183.815 83.3431L184.178 83.6924L182.31 85.6271ZM186.495 81.2538L186.132 80.9045L187.966 78.9428L188.336 79.2854L186.495 81.2538ZM190.607 76.7998L190.237 76.4639C190.855 75.7921 191.453 75.1203 192.031 74.4486L192.407 74.7845C191.843 75.4495 191.238 76.1146 190.62 76.7998H190.607ZM194.637 72.272L194.261 71.9428C194.872 71.2374 195.464 70.5589 196.021 69.9274L196.404 70.2499C195.847 70.8881 195.262 71.5666 194.644 72.272H194.637ZM198.581 67.6635L198.191 67.341C198.816 66.5953 199.387 65.9034 199.911 65.2652L200.301 65.5809C199.783 66.2191 199.212 66.9178 198.587 67.6635H198.581ZM202.417 62.9609L202.02 62.6452C203.109 61.3016 203.68 60.5156 203.68 60.5156L204.083 60.8179C204.083 60.8179 203.518 61.5771 202.423 62.9609H202.417Z" fill="#263238"/>
<path d="M205.285 46.1927L203.357 61.6304L212.305 50.6265L250.49 25.9785L205.285 46.1927Z" fill="#008B42"/>
<path opacity="0.4" d="M205.285 46.1927L203.357 61.6304L212.305 50.6265L250.49 25.9785L205.285 46.1927Z" fill="white"/>
<path d="M214.462 53.6294L203.357 61.6304L212.305 50.6265L214.462 53.6294Z" fill="#008B42"/>
<path opacity="0.3" d="M214.462 53.6294L203.357 61.6304L212.305 50.6265L214.462 53.6294Z" fill="white"/>
<path d="M212.305 50.6265L250.49 25.9785L223.968 67.1391L212.305 50.6265Z" fill="#008B42"/>
<path opacity="0.7" d="M212.305 50.6265L250.49 25.9785L223.968 67.1391L212.305 50.6265Z" fill="white"/>
<path d="M205.285 46.1927L185.414 38.9844L250.49 25.9785L205.285 46.1927Z" fill="#008B42"/>
<path opacity="0.7" d="M205.285 46.1927L185.414 38.9844L250.49 25.9785L205.285 46.1927Z" fill="white"/>
<path d="M39.064 19.395C39.0633 22.8066 40.0108 26.1512 41.8006 29.0556C43.5905 31.96 46.1523 34.3098 49.2001 35.8427C52.2478 37.3757 55.6617 38.0315 59.0605 37.7369C62.4594 37.4423 65.7095 36.2089 68.4481 34.1744L77.4702 36.4786L73.7149 28.0812C75.0351 25.6129 75.7751 22.8762 75.8789 20.079C75.9826 17.2817 75.4472 14.4977 74.3135 11.9384C73.1797 9.37917 71.4774 7.11207 69.3359 5.30946C67.1945 3.50685 64.6703 2.21618 61.9551 1.53555C59.24 0.854928 56.4054 0.802265 53.6669 1.38157C50.9283 1.96087 48.3579 3.15688 46.151 4.8787C43.9441 6.60052 42.1587 8.80283 40.9307 11.3182C39.7026 13.8336 39.0642 16.5958 39.064 19.395Z" fill="white"/>
<path d="M39.0641 19.3952C39.353 34.7457 56.2082 42.8474 68.5087 33.9462L77.5442 36.1967L77.2016 36.5998L73.4194 28.2159L73.359 28.0681C79.0423 17.8367 73.2717 4.5554 61.9386 1.72717C50.5517 -1.3765 39.0305 7.61877 39.0977 19.3952H39.0641ZM39.0641 19.3952C39.1111 3.72238 57.3905 -4.85638 69.4962 5.11971C76.1805 10.5343 78.2295 20.7052 74.0039 28.236V27.9471L77.7323 36.358L77.9809 36.9223L77.3964 36.7677L68.3877 34.4098C56.8531 43.143 39.1581 34.9338 39.0574 19.3952H39.0641Z" fill="#263238"/>
<path d="M54.5354 30.6882L46.2791 22.3311L49.0535 19.597L53.8703 24.4741L63.8867 8.77441L67.1717 10.8704L54.5354 30.6882Z" fill="#008B42"/>
</svg>
