<svg width="24" height="24" viewBox="0 0 24 24" fill="none" xmlns="http://www.w3.org/2000/svg">
<path d="M3.5 21.25H20.5C20.91 21.25 21.25 21.59 21.25 22C21.25 22.41 20.91 22.75 20.5 22.75H3.5C3.09 22.75 2.75 22.41 2.75 22C2.75 21.59 3.09 21.25 3.5 21.25Z" fill="white"/>
<path d="M19 14.52C18.59 14.52 18.25 14.18 18.25 13.77V5.31L5.53 18.03C5.38 18.18 5.19 18.25 5 18.25C4.81 18.25 4.62 18.18 4.47 18.03C4.18 17.74 4.18 17.26 4.47 16.97L17.19 4.25H8.73C8.32 4.25 7.98 3.91 7.98 3.5C7.98 3.09 8.32 2.75 8.73 2.75H19C19.1 2.75 19.19 2.77 19.29 2.81C19.47 2.88 19.62 3.03 19.69 3.21C19.73 3.31 19.75 3.4 19.75 3.5V13.77C19.75 14.18 19.41 14.52 19 14.52Z" fill="white"/>
</svg>
