<svg width="250" height="263" viewBox="0 0 250 263" fill="none" xmlns="http://www.w3.org/2000/svg">
<path d="M237.319 226.769L43.8474 215.713L59.4259 0.242554L203.075 8.44946L249.853 53.3665L237.319 226.769Z" fill="white"/>
<path d="M237.319 226.769L43.6726 215.85C43.5817 215.85 59.2301 0.267548 59.1671 0.230216V0H59.4261C59.5101 0.00622206 203.195 8.21935 203.195 8.33134C203.195 8.44334 249.958 53.2733 250 53.3169C250.042 53.3604 237.263 226.713 237.298 226.769H237.319ZM237.319 226.769C237.319 226.8 249.65 52.9684 249.727 53.4724L202.929 8.56778C203.684 8.64867 59.2231 0.479099 59.4051 0.479099L59.678 0.261326L44.0156 215.725C42.9308 215.414 237.578 226.807 237.319 226.769Z" fill="#263238"/>
<path d="M203.075 8.44958L249.853 53.3667L200.031 50.5232L203.075 8.44958Z" fill="#EBEBEB"/>
<path d="M77.6332 18.9518L101.84 20.3359L102.009 18.0013L77.8021 16.6171L77.6332 18.9518Z" fill="#008B42"/>
<path d="M121.131 21.4338L145.338 22.818L145.507 20.4833L121.3 19.0991L121.131 21.4338Z" fill="#008B42"/>
<path d="M75.6526 46.3491L99.8591 47.7333L100.028 45.3986L75.8215 44.0144L75.6526 46.3491Z" fill="#008B42"/>
<path d="M119.151 48.8313L143.358 50.2155L143.527 47.8808L119.32 46.4966L119.151 48.8313Z" fill="#008B42"/>
<path d="M144.731 31.0312L145.324 22.8226L142.698 22.6725L142.105 30.8811L144.731 31.0312Z" fill="#008B42"/>
<path d="M143.518 47.884L144.112 39.6754L141.486 39.5253L140.892 47.7339L143.518 47.884Z" fill="#008B42"/>
<path d="M79.6631 27.3141L80.257 19.1055L77.631 18.9553L77.0372 27.1639L79.6631 27.3141Z" fill="#008B42"/>
<path d="M78.444 44.1603L79.0378 35.9517L76.4119 35.8015L75.818 44.0101L78.444 44.1603Z" fill="#008B42"/>
<path d="M83.9555 38.6016L84.9212 25.2491C84.9328 25.0855 84.9806 24.9256 85.0618 24.7786C85.1431 24.6315 85.2562 24.5001 85.3947 24.392C85.5332 24.2839 85.6944 24.2012 85.8689 24.1486C86.0435 24.096 86.228 24.0746 86.4119 24.0856H86.4889L94.74 24.5584C94.9238 24.5691 95.1035 24.6118 95.2687 24.6841C95.434 24.7565 95.5816 24.857 95.7031 24.9801C95.8246 25.1032 95.9177 25.2463 95.977 25.4014C96.0363 25.5564 96.0607 25.7203 96.0487 25.8837C96.0368 26.0472 95.9887 26.2069 95.9074 26.3538C95.826 26.5007 95.7128 26.6319 95.5744 26.74C95.436 26.848 95.275 26.9308 95.1006 26.9835C94.9262 27.0362 94.7419 27.0579 94.5581 27.0473L87.6576 26.6553L87.3567 30.7992L93.2913 31.1352C93.6588 31.1652 93.9993 31.3193 94.2428 31.5659C94.4863 31.8124 94.6141 32.1326 94.6 32.4605C94.5921 32.6261 94.5469 32.7887 94.4672 32.9387C94.3875 33.0886 94.275 33.2229 94.1361 33.3336C93.9972 33.4444 93.8348 33.5293 93.6585 33.5834C93.4822 33.6375 93.2955 33.6598 93.1094 33.6489L87.1747 33.3067L86.7828 38.7385C86.7787 38.908 86.7356 39.075 86.6562 39.2292C86.5769 39.3834 86.463 39.5215 86.3214 39.6351C86.1798 39.7487 86.0137 39.8354 85.8331 39.8899C85.6525 39.9443 85.4612 39.9654 85.2712 39.9518C85.0841 39.9424 84.901 39.8998 84.7328 39.8263C84.5646 39.7529 84.4147 39.6501 84.292 39.5242C84.1693 39.3983 84.0763 39.2517 84.0185 39.0933C83.9607 38.9348 83.9392 38.7676 83.9555 38.6016Z" fill="#008B42"/>
<path d="M100.507 26.1452C100.517 25.9811 100.565 25.8205 100.645 25.6727C100.726 25.5249 100.839 25.3928 100.978 25.2841C101.116 25.1753 101.278 25.0921 101.453 25.0391C101.628 24.9861 101.813 24.9645 101.997 24.9754C102.184 24.9825 102.367 25.0227 102.535 25.0935C102.704 25.1643 102.855 25.2644 102.98 25.3879C103.104 25.5114 103.2 25.6557 103.261 25.8125C103.321 25.9692 103.346 26.1352 103.334 26.3007L102.368 39.6533C102.357 39.8185 102.308 39.98 102.226 40.1284C102.143 40.2768 102.028 40.409 101.887 40.5174C101.747 40.6257 101.583 40.708 101.406 40.7594C101.229 40.8109 101.042 40.8304 100.857 40.8168C100.673 40.8073 100.493 40.7656 100.327 40.6941C100.161 40.6226 100.013 40.5227 99.8908 40.4001C99.7686 40.2776 99.6747 40.1348 99.6147 39.9799C99.5547 39.8251 99.5296 39.6612 99.541 39.4977L100.507 26.1452Z" fill="#008B42"/>
<path d="M109.933 40.0889C109.91 40.4146 109.744 40.7191 109.47 40.9368C109.196 41.1544 108.837 41.2678 108.471 41.2524C108.287 41.2421 108.107 41.1997 107.942 41.1274C107.776 41.0552 107.628 40.9546 107.507 40.8315C107.385 40.7083 107.292 40.565 107.233 40.4099C107.174 40.2547 107.15 40.0906 107.162 39.9271L108.114 26.7799C108.119 26.5775 108.18 26.3794 108.291 26.2027C108.402 26.026 108.56 25.876 108.751 25.7657C109.063 25.595 109.437 25.5397 109.795 25.6118C110.152 25.684 110.463 25.8777 110.661 26.1515L118.157 36.729L118.856 27.3959C118.888 27.0802 119.055 26.7872 119.321 26.5768C119.588 26.3663 119.935 26.2543 120.291 26.2635C120.657 26.2843 121 26.4323 121.245 26.6756C121.49 26.9188 121.617 27.2378 121.6 27.5639L120.655 40.7111C120.644 40.8752 120.597 41.0357 120.516 41.1835C120.435 41.3313 120.322 41.4634 120.184 41.5722C120.045 41.6809 119.884 41.7642 119.709 41.8172C119.534 41.8702 119.349 41.8918 119.164 41.8808C118.963 41.8649 118.769 41.8105 118.593 41.7214C118.418 41.6322 118.267 41.5104 118.15 41.3644C118.1 41.3243 118.059 41.2756 118.031 41.2213L110.612 30.7122L109.933 40.0889Z" fill="#008B42"/>
<path d="M125.113 40.9536L126.079 27.601C126.09 27.4375 126.138 27.2776 126.219 27.1305C126.301 26.9834 126.414 26.8521 126.552 26.744C126.691 26.6358 126.852 26.5531 127.027 26.5005C127.201 26.4479 127.386 26.4265 127.569 26.4375H127.646L135.898 26.9104C136.268 26.9312 136.614 27.0818 136.859 27.3291C137.104 27.5764 137.229 27.9003 137.206 28.2294C137.179 28.5606 137.009 28.8696 136.731 29.0912C136.453 29.3129 136.089 29.43 135.716 29.4179L128.815 29.0259L128.514 33.1698L134.449 33.5057C134.633 33.5164 134.812 33.5591 134.978 33.6314C135.143 33.7038 135.29 33.8044 135.412 33.9274C135.534 34.0505 135.627 34.1936 135.686 34.3487C135.745 34.5037 135.77 34.6676 135.758 34.831C135.746 34.9945 135.698 35.1542 135.616 35.3011C135.535 35.448 135.422 35.5792 135.283 35.6873C135.145 35.7953 134.984 35.8781 134.81 35.9308C134.635 35.9835 134.451 36.0052 134.267 35.9946L128.332 35.6524L128.031 39.8211L134.932 40.2131C135.303 40.2346 135.649 40.3863 135.895 40.6348C136.14 40.8834 136.265 41.2084 136.241 41.5384C136.216 41.8685 136.046 42.1765 135.766 42.3947C135.487 42.6129 135.121 42.7234 134.75 42.702L126.506 42.2291C126.45 42.2291 126.45 42.2291 126.45 42.2291C126.083 42.2145 125.738 42.0727 125.488 41.8342C125.238 41.5957 125.103 41.2795 125.113 40.9536Z" fill="#008B42"/>
<path d="M74.7782 58.5078L229.278 67.3424L229.447 65.0077L74.9471 56.1732L74.7782 58.5078Z" fill="#DBDBDB"/>
<path d="M73.6731 73.9164L117.162 76.4032L117.331 74.0685L73.842 71.5817L73.6731 73.9164Z" fill="#DBDBDB"/>
<path d="M164.49 86.8338L209.103 89.3849L209.272 87.0502L164.659 84.4991L164.49 86.8338Z" fill="#DBDBDB"/>
<path d="M162.323 71.2453L210.213 73.9836L210.381 71.649L162.492 68.9106L162.323 71.2453Z" fill="#DBDBDB"/>
<path d="M113.801 68.473L154.134 70.7793L154.302 68.4446L113.97 66.1383L113.801 68.473Z" fill="#DBDBDB"/>
<path d="M70.8879 112.418L118.777 115.156L118.946 112.822L71.0568 110.083L70.8879 112.418Z" fill="#DBDBDB"/>
<path d="M126.434 115.593L155.502 117.255L155.671 114.92L126.603 113.258L126.434 115.593Z" fill="#DBDBDB"/>
<path d="M190.638 119.26L225.391 121.247L225.56 118.912L190.807 116.925L190.638 119.26Z" fill="#DBDBDB"/>
<path d="M162.734 117.666L182.932 118.821L183.101 116.486L162.903 115.331L162.734 117.666Z" fill="#DBDBDB"/>
<path d="M123.872 77.2689L144.112 78.3485L144.269 76.009L124.03 74.9294L123.872 77.2689Z" fill="#DBDBDB"/>
<path d="M74.2279 66.2126L106.655 68.0668L106.823 65.7321L74.3968 63.8779L74.2279 66.2126Z" fill="#DBDBDB"/>
<path d="M73.1167 81.6136L94.8578 82.8568L95.0267 80.5221L73.2855 79.2789L73.1167 81.6136Z" fill="#DBDBDB"/>
<path d="M101.2 83.2195L129.694 84.8489L129.863 82.5142L101.369 80.8848L101.2 83.2195Z" fill="#DBDBDB"/>
<path d="M137.231 85.2773L156.506 86.3795L156.675 84.0448L137.399 82.9426L137.231 85.2773Z" fill="#DBDBDB"/>
<path d="M72.0033 97.0199L111.33 99.2687L111.499 96.934L72.1722 94.6852L72.0033 97.0199Z" fill="#DBDBDB"/>
<path d="M69.3011 120.388L121.824 123.19L121.982 120.85L69.459 118.049L69.3011 120.388Z" fill="#DBDBDB"/>
<path d="M130.061 123.527L166.231 125.595L166.4 123.26L130.23 121.192L130.061 123.527Z" fill="#DBDBDB"/>
<path d="M172.859 125.973L194.663 127.22L194.832 124.885L173.028 123.638L172.859 125.973Z" fill="#DBDBDB"/>
<path d="M69.7759 127.824L94.7996 129.255L94.9685 126.92L69.9448 125.49L69.7759 127.824Z" fill="#DBDBDB"/>
<path d="M100.621 129.586L144.564 132.099L144.733 129.764L100.79 127.251L100.621 129.586Z" fill="#DBDBDB"/>
<path d="M150.675 132.443L175.95 133.888L176.119 131.553L150.844 130.108L150.675 132.443Z" fill="#DBDBDB"/>
<path d="M182.714 134.272L212.557 135.978L212.725 133.643L182.883 131.937L182.714 134.272Z" fill="#DBDBDB"/>
<path d="M69.2277 135.524L108.555 137.773L108.723 135.438L69.3966 133.189L69.2277 135.524Z" fill="#DBDBDB"/>
<path d="M114.958 138.138L161.06 140.774L161.228 138.44L115.127 135.804L114.958 138.138Z" fill="#DBDBDB"/>
<path d="M167.67 141.146L197.331 142.843L197.5 140.508L167.839 138.812L167.67 141.146Z" fill="#DBDBDB"/>
<path d="M68.1024 150.924L98.2942 152.65L98.4631 150.316L68.2713 148.589L68.1024 150.924Z" fill="#DBDBDB"/>
<path d="M67.5569 158.606L97.7487 160.333L97.9176 157.998L67.7258 156.272L67.5569 158.606Z" fill="#DBDBDB"/>
<path d="M67.0019 166.279L169.527 172.142L169.696 169.807L67.1708 163.945L67.0019 166.279Z" fill="#DBDBDB"/>
<path d="M104.802 153.025L144.429 155.291L144.598 152.956L104.971 150.69L104.802 153.025Z" fill="#DBDBDB"/>
<path d="M150.817 155.648L170.63 156.781L170.799 154.446L150.986 153.313L150.817 155.648Z" fill="#DBDBDB"/>
<path d="M177.231 157.159L222.606 159.753L222.775 157.419L177.4 154.824L177.231 157.159Z" fill="#DBDBDB"/>
<path d="M115.185 161.347L159.401 163.875L159.57 161.541L115.354 159.012L115.185 161.347Z" fill="#DBDBDB"/>
<path d="M117.33 99.6085L144.246 101.148L144.415 98.8129L117.499 97.2738L117.33 99.6085Z" fill="#DBDBDB"/>
<path d="M170.251 102.63L197.167 104.169L197.336 101.835L170.42 100.295L170.251 102.63Z" fill="#DBDBDB"/>
<path d="M150.388 101.493L164.391 102.293L164.56 99.9587L150.557 99.1579L150.388 101.493Z" fill="#DBDBDB"/>
<path d="M211.941 112.737L225.943 113.538L226.112 111.203L212.109 110.402L211.941 112.737Z" fill="#DBDBDB"/>
<path d="M71.4449 104.722L103.872 106.576L104.04 104.242L71.6138 102.388L71.4449 104.722Z" fill="#DBDBDB"/>
<path d="M110.776 106.966L158.847 109.715L159.016 107.38L110.945 104.631L110.776 106.966Z" fill="#DBDBDB"/>
<path d="M167.348 110.193L204.363 112.31L204.532 109.975L167.516 107.858L167.348 110.193Z" fill="#DBDBDB"/>
<path d="M153.526 78.4683L185.952 80.3225L186.121 77.9878L153.695 76.1336L153.526 78.4683Z" fill="#DBDBDB"/>
<path d="M154.266 23.2425L195.814 25.6183L195.983 23.2836L154.435 20.9078L154.266 23.2425Z" fill="#DBDBDB"/>
<path d="M153.158 38.6377L194.705 41.0134L194.874 38.6788L153.326 36.303L153.158 38.6377Z" fill="#DBDBDB"/>
<path d="M153.714 30.9366L184.695 32.7081L184.864 30.3735L153.883 28.6019L153.714 30.9366Z" fill="#DBDBDB"/>
<path d="M152.598 46.3419L173.375 47.53L173.544 45.1954L152.767 44.0073L152.598 46.3419Z" fill="#DBDBDB"/>
<path d="M98.1482 262.702C96.3076 263.218 42.3919 262.185 40.4183 261.016C39.6625 260.58 44.2814 215.178 44.2814 215.178L78.4757 215.763L74.5916 246.132C74.5916 246.132 94.481 254.507 96.4966 255.994C98.5121 257.482 99.9958 262.204 98.1482 262.702Z" fill="#F7A9A0"/>
<path d="M98.1552 262.702C96.3076 263.212 42.3918 262.173 40.4253 261.003C40.1873 260.873 40.1104 256.262 40.9712 250.258C50.7689 251.72 85.642 256.48 88.3644 255.061C90.254 254.072 88.5814 252.523 87.0277 251.477C91.4787 253.456 95.6358 255.354 96.4966 255.995C98.4981 257.488 99.9958 262.204 98.1552 262.702Z" fill="#263238"/>
<path d="M75.5504 238.859L41.958 238.436C41.958 238.436 48.6065 166.957 48.3265 165.582C47.9766 163.821 24.161 80.7938 24.161 80.7938H56.2277C56.2277 80.7938 81.492 158.171 82.3948 165.638C83.8645 177.678 75.5504 238.859 75.5504 238.859Z" fill="#263238"/>
<path d="M45.0302 231.698C47.0108 231.573 49.0193 231.592 51.0068 231.567C52.9944 231.542 54.9889 231.567 56.9765 231.567C60.9586 231.604 64.9407 231.66 68.9158 231.76C70.0075 231.76 71.0993 231.816 72.184 231.859C73.2688 231.903 74.5075 232.083 75.6833 232.121C75.7018 232.121 75.7196 232.127 75.7327 232.139C75.7459 232.151 75.7532 232.166 75.7532 232.183C75.7532 232.199 75.7459 232.215 75.7327 232.227C75.7196 232.239 75.7018 232.245 75.6833 232.245C74.7035 232.245 73.7237 232.388 72.7439 232.413C71.7641 232.438 70.7144 232.444 69.6996 232.444H63.73C59.7549 232.413 55.7658 232.363 51.7907 232.22C49.5442 232.133 47.2767 232.108 45.0372 231.909C45.0056 231.91 44.975 231.9 44.952 231.88C44.9291 231.861 44.9157 231.834 44.9147 231.806C44.9138 231.778 44.9254 231.751 44.9471 231.731C44.9688 231.71 44.9986 231.698 45.0302 231.698Z" fill="#37474F"/>
<path d="M31.2364 87.5013C34.0988 96.5232 36.7232 105.632 39.2916 114.723C41.86 123.813 44.4144 132.929 46.9898 142.038L50.79 155.683C52.0287 160.113 53.4704 164.568 53.7783 169.153C54.0862 173.739 53.4214 178.486 52.9805 183.141C52.5396 187.795 52.0987 192.474 51.6368 197.115C50.72 206.448 49.8382 215.782 48.6974 225.071C48.5575 226.237 48.4198 227.4 48.2845 228.562C48.2845 228.661 48.1026 228.661 48.1096 228.562C48.8094 219.229 49.5093 209.895 50.3631 200.593C50.783 195.931 51.2099 191.271 51.6438 186.612C52.0777 181.958 52.6865 177.279 52.8475 172.625C53.0085 167.971 52.0497 163.41 50.748 158.862C49.4929 154.407 48.2379 149.952 46.9828 145.497C44.4214 136.396 41.8553 127.291 39.2846 118.182C36.4432 107.991 33.6019 97.7739 31.0894 87.5075C31.0885 87.4901 31.0954 87.4732 31.1085 87.4604C31.1216 87.4475 31.1399 87.4399 31.1594 87.439C31.1789 87.4382 31.198 87.4443 31.2124 87.456C31.2268 87.4676 31.2355 87.4839 31.2364 87.5013Z" fill="#37474F"/>
<path d="M24.189 80.7938C24.189 80.7938 34.4066 116.415 41.552 141.49L55.1849 80.7938H24.189Z" fill="#37474F"/>
<path d="M57.8863 262.82C56.0457 263.337 2.12995 262.297 0.156399 261.134C-0.59943 260.698 2.22093 215.271 2.22093 215.271L35.9323 215.85L34.3017 246.245C34.3017 246.245 54.2191 254.613 56.2277 256.113C58.2362 257.612 59.7269 262.316 57.8863 262.82Z" fill="#F7A9A0"/>
<path d="M57.8863 262.82C56.0457 263.33 2.12994 262.297 0.163385 261.128C-0.0815596 260.997 -0.0255723 256.505 0.163385 250.376C9.96117 251.832 45.3801 256.598 48.0955 255.186C49.9921 254.19 48.3195 252.647 46.7658 251.602C51.2168 253.58 55.3739 255.478 56.2347 256.119C58.2362 257.594 59.7269 262.316 57.8863 262.82Z" fill="#263238"/>
<path d="M55.192 80.7812C55.192 80.7812 53.3794 100.922 49.6423 105.981C46.411 107.099 43.3004 108.476 40.3484 110.093C40.3484 110.093 38.0459 163.97 38.0879 167.206C38.2349 179.308 34.7566 238.255 34.7566 238.255L0.940308 237.969C0.940308 237.969 4.43952 171.306 4.43952 166.882C4.43952 162.595 6.74199 135.542 8.78553 112.091C8.78553 112.091 5.77621 104.624 6.10514 100.816C6.91695 91.645 11.5429 80.7999 11.5429 80.7999L55.192 80.7812Z" fill="#263238"/>
<path d="M43.2806 99.9327C43.4066 99.1798 43.5326 98.4269 43.6656 97.6741C43.9035 96.2928 44.2184 94.9239 44.4914 93.5488C45.1072 90.4378 45.7441 87.3268 46.5279 84.2158C46.5279 84.1411 46.6889 84.1598 46.6819 84.2158C46.5419 85.4602 46.3809 86.7046 46.185 87.949C45.989 89.1934 45.8491 90.4378 45.6461 91.6822C45.2542 94.1711 44.8693 96.6163 44.4004 99.0678C44.2184 100.014 43.5536 101.712 45.1002 102.005C46.311 102.235 47.1998 101.177 47.5567 100.287C47.9319 99.1742 48.2057 98.0361 48.3755 96.8839C48.6181 95.6395 48.8397 94.395 49.0403 93.1506C49.4742 90.4254 49.9501 87.7125 50.44 84.9935C50.44 84.9126 50.594 84.9375 50.594 84.9935C50.5185 87.7855 50.285 90.5724 49.8941 93.3435C49.6912 94.675 49.4742 95.9941 49.1943 97.3132C49.0488 98.5935 48.705 99.8498 48.1725 101.046C47.9545 101.512 47.6081 101.921 47.1654 102.237C46.7227 102.552 46.1978 102.763 45.6391 102.851H45.5691C45.5818 102.86 45.5921 102.871 45.5993 102.884C45.6066 102.897 45.6106 102.911 45.6111 102.925C45.6111 103.367 45.6111 103.815 45.5551 104.257C45.4991 104.699 45.4012 105.128 45.3102 105.557C45.2197 105.996 45.0934 106.429 44.9323 106.852C44.8537 107.063 44.7626 107.271 44.6593 107.474C44.541 107.663 44.4102 107.846 44.2674 108.021C44.2114 108.102 44.1065 108.021 44.0995 107.978C44.0995 107.903 44.0995 107.835 44.0995 107.76V107.723C44.089 107.594 44.089 107.465 44.0995 107.337C44.0995 107.125 44.1904 106.914 44.2394 106.715C44.3444 106.298 44.4704 105.875 44.6033 105.47C44.7363 105.066 44.8273 104.637 44.9463 104.226C45.0652 103.815 45.2332 103.373 45.3452 102.944C45.3452 102.944 45.3452 102.944 45.3452 102.901C44.9013 102.914 44.4634 102.807 44.0887 102.595C43.7141 102.383 43.4202 102.075 43.2456 101.712C43.0789 101.127 43.091 100.512 43.2806 99.9327Z" fill="#37474F"/>
<path d="M37.6119 110.753C38.6234 110.066 39.6874 109.442 40.7961 108.886C41.9639 108.259 43.1773 107.702 44.4283 107.219C46.8778 106.273 49.3972 105.626 51.9306 104.886C52.0006 104.886 52.0496 104.973 51.9796 104.998C49.5302 105.862 47.1857 107.014 44.8202 108.04C43.6585 108.55 42.4758 109.03 41.321 109.496C40.1663 109.963 38.9556 110.504 37.7308 110.902C37.6119 110.933 37.5419 110.809 37.6119 110.753Z" fill="#37474F"/>
<path d="M18.5062 93.941C20.2278 93.941 26.2045 93.5553 27.9471 91.7944C28.9281 90.7518 29.6763 89.5523 30.1516 88.2603C30.7022 86.8588 31.1488 85.4268 31.4883 83.9733C31.4883 83.8986 31.6212 83.9235 31.6282 83.9733C31.6688 85.6191 31.4329 87.2612 30.9284 88.8451C30.5155 90.1891 29.9556 91.6886 28.7379 92.6282C27.5202 93.5677 25.7006 93.9721 24.056 94.1526C22.2082 94.3445 20.3403 94.3215 18.4992 94.0841C18.4849 94.0767 18.4731 94.0659 18.4651 94.053C18.4572 94.0401 18.4533 94.0254 18.4541 94.0107C18.4548 93.9959 18.46 93.9817 18.4692 93.9694C18.4784 93.9571 18.4912 93.9473 18.5062 93.941Z" fill="#37474F"/>
<path d="M59.237 94.3516C58.3771 94.102 57.5954 93.6757 56.9555 93.1072C55.6608 91.365 55.3389 85.8211 55.2269 84.3652C55.2269 84.2967 55.1849 84.3154 55.1849 84.3652C55.1849 86.0016 55.2549 87.6629 55.4019 89.237C55.4759 90.5193 55.7106 91.7903 56.1017 93.0263C56.5006 94.0156 58.6911 94.7 59.258 94.476C59.272 94.5009 59.272 94.3516 59.237 94.3516Z" fill="#37474F"/>
<path d="M2.40278 232.139C4.39033 232.015 6.39188 232.034 8.37943 232.009C10.367 231.984 12.3615 232.009 14.3561 232.009C18.3312 232.046 22.3133 232.102 26.2954 232.202C27.3801 232.202 28.4719 232.258 29.5566 232.301C30.6414 232.345 31.8801 232.525 33.0558 232.562C33.0744 232.562 33.0922 232.569 33.1053 232.581C33.1185 232.592 33.1258 232.608 33.1258 232.625C33.1258 232.641 33.1185 232.657 33.1053 232.669C33.0922 232.68 33.0744 232.687 33.0558 232.687C32.0761 232.687 31.1033 232.83 30.1235 232.855C29.1437 232.88 28.094 232.886 27.0792 232.886C25.0846 232.886 23.0971 232.886 21.1025 232.886C17.1274 232.886 13.1454 232.811 9.16325 232.668C6.91676 232.581 4.64928 232.556 2.41678 232.357C2.4007 232.358 2.38459 232.356 2.36938 232.351C2.35417 232.346 2.34015 232.339 2.32813 232.33C2.31611 232.32 2.30631 232.308 2.29931 232.296C2.29231 232.283 2.28823 232.269 2.28731 232.254C2.28639 232.24 2.28865 232.226 2.29395 232.212C2.29926 232.199 2.30751 232.186 2.31823 232.176C2.32895 232.165 2.34194 232.156 2.35645 232.15C2.37096 232.144 2.3867 232.14 2.40278 232.139Z" fill="#37474F"/>
<path d="M6.53908 228.219C6.48483 228.217 6.43165 228.205 6.38257 228.184C6.3335 228.164 6.2895 228.135 6.25309 228.099C6.21669 228.063 6.18859 228.021 6.17042 227.976C6.15224 227.93 6.14434 227.882 6.14717 227.834L13.7614 111.182C13.6635 110.672 11.515 104.158 11.319 100.829C11.116 97.3071 15.2101 83.5937 15.3851 83.015C15.413 82.921 15.4818 82.8407 15.5762 82.7917C15.6707 82.7427 15.7832 82.729 15.889 82.7537C15.9937 82.7799 16.0829 82.8413 16.1377 82.9249C16.1925 83.0085 16.2087 83.1077 16.1829 83.2017C16.1409 83.3448 11.9489 97.388 12.1448 100.791C12.3408 104.195 14.5733 111.045 14.5873 111.101C14.6013 111.157 6.94499 227.858 6.94499 227.858C6.94499 227.954 6.90222 228.046 6.8261 228.114C6.74998 228.181 6.64673 228.219 6.53908 228.219Z" fill="#37474F"/>
<path d="M42.9306 12.6747C42.9306 12.6747 40.7121 9.86229 37.7378 10.0925C34.7634 10.3227 34.3715 12.0089 32.5659 12.2702C30.7604 12.5316 26.9252 12.04 25.0007 13.6391C23.0761 15.2381 23.7689 18.5047 22.9011 19.4816C22.0333 20.4585 19.101 20.5953 18.4222 23.0282C17.6383 25.8468 19.6049 27.5392 19.5139 28.9951C19.3529 31.428 17.4144 33.3879 18.947 36.2314C20.5637 39.2864 23.566 39.2242 25.5255 40.2135C27.4851 41.2028 27.786 44.401 32.0201 44.6125C36.2541 44.8241 37.3669 42.4472 39.8513 41.5948C42.3357 40.7424 45.8979 42.217 48.5503 40.6179C51.2027 39.0189 50.3699 36.7292 51.1047 35.5283C51.8396 34.3274 53.9811 34.2839 54.8069 32.1622C55.6327 30.0404 53.5332 28.1365 53.3652 27.3089C53.0853 25.8841 54.184 25.1126 53.7991 23.0904C53.4142 21.0682 50.6498 19.6558 50.104 19.0336C48.7953 17.5528 50.104 14.4479 48.0044 13.0978C47.2986 12.5925 46.4413 12.283 45.5391 12.2078C44.6369 12.1326 43.7298 12.2949 42.9306 12.6747Z" fill="#263238"/>
<path d="M23.8811 15.3625C23.6851 16.831 23.6502 18.6167 22.0125 19.4504C19.5771 20.4833 17.2256 22.1633 17.7715 24.8076C17.9395 26.2823 19.3111 27.4894 19.3741 29.0511C19.0942 30.5008 18.2404 31.795 18.2054 33.4065C18.1269 34.3885 18.37 35.3696 18.9052 36.2313C17.4636 34.5887 17.7435 32.2928 18.3734 30.4137C18.4503 30.1711 18.6393 29.5862 18.7023 29.3497C18.7827 28.7909 18.639 28.2247 18.2964 27.7507C16.2668 24.7952 16.4838 21.4415 20.2629 19.7678C21.2217 19.3011 22.3624 19.046 22.9083 18.1687C23.3497 17.2702 23.6692 16.3282 23.8601 15.3625H23.8811Z" fill="#263238"/>
<path d="M46.283 41.3334C50.482 40.5929 50.678 39.6347 51.3008 36.1193C51.4539 35.6972 51.7684 35.3362 52.1896 35.0988C53.5893 34.2589 54.87 33.3753 54.989 31.8198C55.3039 30.3763 54.2891 29.0386 53.5123 27.7133C54.0386 28.3065 54.5202 28.9301 54.954 29.5799C55.3997 30.2786 55.6036 31.0788 55.5401 31.8801C55.4766 32.6815 55.1486 33.4483 54.5971 34.0846C53.8552 34.9246 52.7705 35.3291 52.0497 36.0695C51.8846 36.4865 51.7719 36.9184 51.7137 37.3575C51.3428 40.288 49.4392 41.2711 46.283 41.3271V41.3334Z" fill="#263238"/>
<path d="M47.5425 43.8223C58.2151 54.5864 68.9647 66.7754 68.6147 70.7016C67.7749 80.0347 61.1334 79.4747 60.1047 79.2694C53.1063 77.8507 43.0635 58.1143 40.1102 47.8479C37.4788 38.7077 41.5799 37.7993 47.5425 43.8223Z" fill="#FFC727"/>
<path d="M58.0892 54.997L44.9042 59.9311C43.9524 57.965 43.0916 56.0112 42.3358 54.1508L53.4913 49.9758C55.0869 51.6682 56.6336 53.3544 58.0892 54.997Z" fill="#FFC727"/>
<path opacity="0.5" d="M58.0892 54.997L44.9042 59.9311C43.9524 57.965 43.0916 56.0112 42.3358 54.1508L53.4913 49.9758C55.0869 51.6682 56.6336 53.3544 58.0892 54.997Z" fill="white"/>
<path d="M61.0285 58.4004L46.8287 63.7203C46.5138 63.1354 46.2058 62.5381 45.9049 61.947L59.6638 56.7952C60.1327 57.3365 60.5876 57.8778 61.0285 58.4004Z" fill="#FFC727"/>
<path opacity="0.5" d="M61.0285 58.4004L46.8287 63.7203C46.5138 63.1354 46.2058 62.5381 45.9049 61.947L59.6638 56.7952C60.1327 57.3365 60.5876 57.8778 61.0285 58.4004Z" fill="white"/>
<path opacity="0.1" d="M68.6149 70.7015C67.7751 80.0346 61.1336 79.4746 60.1048 79.2693C53.1064 77.8507 43.0637 58.1143 40.1104 47.8479C38.3328 41.6694 39.6205 39.2552 42.4828 40.1823L65.8785 64.6661C67.6911 67.3292 68.7269 69.4384 68.6149 70.7015Z" fill="black"/>
<path d="M56.5915 81.1733L53.3233 66.9995C53.3233 66.9995 56.2976 63.4529 55.0379 59.533C54.1211 56.6895 46.6398 42.9574 41.447 39.6535C37.2059 36.9407 30.9494 38.714 28.248 42.049C23.811 47.4933 14.5451 60.2236 11.2418 80.9556L56.5915 81.1733Z" fill="#FFC727"/>
<path d="M46.9199 64.5107C44.7106 64.713 42.5211 65.0603 40.3694 65.5498C39.2986 65.8049 38.2699 66.1035 37.2131 66.4271C36.6882 66.5826 36.1703 66.7257 35.6385 66.8688C35.0918 67.0293 34.5256 67.1317 33.9518 67.1737C33.9444 67.1766 33.938 67.1814 33.9335 67.1875C33.929 67.1936 33.9266 67.2007 33.9266 67.2079C33.9266 67.2152 33.929 67.2223 33.9335 67.2284C33.938 67.2345 33.9444 67.2393 33.9518 67.2422C34.4959 67.2588 35.0405 67.2443 35.5825 67.1986C36.1069 67.1365 36.6259 67.0429 37.1361 66.9186C38.2209 66.6697 39.2916 66.3711 40.3694 66.1098C42.5529 65.5871 44.7294 65.0582 46.9479 64.6725C47.0529 64.6538 47.0249 64.5045 46.9199 64.5107Z" fill="#263238"/>
<path d="M52.4136 66.1907C50.5898 66.0414 48.7578 65.9853 46.9268 66.0227C46.01 66.0227 45.1002 66.1098 44.1834 66.1969L42.8817 66.3462C42.4058 66.4022 41.937 66.5205 41.4821 66.5765C41.4331 66.5765 41.4331 66.6511 41.4821 66.6449C41.937 66.6076 42.3988 66.6449 42.8817 66.6449L44.2814 66.5951C45.1982 66.564 46.108 66.5453 47.0248 66.508C48.8514 66.4271 50.671 66.3711 52.5046 66.3462C52.5186 66.3214 52.5116 66.1969 52.4136 66.1907Z" fill="#263238"/>
<path d="M26.3095 42.4409C14.4122 51.8611 0.70228 71.1993 3.00476 75.648C5.57318 80.6257 22.1804 67.3914 22.1804 66.5638C22.1804 65.9416 26.6664 54.4121 31.5093 45.2906C36.3522 36.1691 29.2558 40.0765 26.3095 42.4409Z" fill="#F7A9A0"/>
<path d="M22.2852 66.5513C22.8591 65.2073 29.6266 49.6957 32.153 44.4505C34.4205 39.7466 33.5527 37.712 28.8357 40.431C20.1367 45.446 5.90893 60.9638 2.24176 69.513C-1.30644 77.7323 4.97814 78.2239 11.6756 74.7208C17.1414 71.8587 22.2852 66.5513 22.2852 66.5513Z" fill="#FFC727"/>
<path d="M28.6189 52.1661C27.7651 54.0763 26.8763 56.0798 26.0435 57.965L12.9285 54.4434C14.5241 52.6638 16.1967 50.9217 17.8763 49.2791L28.6189 52.1661Z" fill="#FFC727"/>
<path opacity="0.5" d="M28.6189 52.1661C27.7651 54.0763 26.8763 56.0798 26.0435 57.965L12.9285 54.4434C14.5241 52.6638 16.1967 50.9217 17.8763 49.2791L28.6189 52.1661Z" fill="white"/>
<path d="M25.1336 60.0245L24.3358 61.8476L9.89807 57.9961C10.353 57.4424 10.8219 56.8886 11.2978 56.3348L25.1336 60.0245Z" fill="#FFC727"/>
<path opacity="0.5" d="M25.1336 60.0245L24.3358 61.8476L9.89807 57.9961C10.353 57.4424 10.8219 56.8886 11.2978 56.3348L25.1336 60.0245Z" fill="white"/>
<path d="M21.1097 68.8723C23.6665 62.4511 26.5288 56.1295 29.6968 49.9075C27.14 56.3494 24.2777 62.6814 21.1097 68.9034V68.8723Z" fill="#263238"/>
<path d="M28.108 53.5784C28.5591 52.7721 29.126 52.0212 29.7947 51.3447C29.4023 52.1802 28.8292 52.9392 28.108 53.5784Z" fill="#263238"/>
<path d="M34.1688 40.5744C34.3437 41.2899 38.7877 45.1102 42.4619 45.0045C43.6656 44.9671 43.0498 40.0268 43.0498 40.0268L43.1687 39.5975L44.7854 33.5994L36.9122 28.9266L35.7714 28.3044C35.7714 28.3044 35.4495 29.972 35.0716 32.0377C35.0716 32.1372 35.0716 32.2306 35.0226 32.3363C34.9736 32.4421 34.9736 32.5603 34.9526 32.6723C34.8896 32.9834 34.8336 33.2945 34.7776 33.6181C34.7217 33.9416 34.6937 34.091 34.6657 34.3461C34.6377 34.6012 34.5887 34.8501 34.5467 35.0989C34.2801 36.9143 34.1539 38.7437 34.1688 40.5744Z" fill="#F7A9A0"/>
<path d="M35.0715 32.0563C35.7276 33.7554 36.7917 35.3072 38.1899 36.6041C39.5882 37.9009 41.2871 38.9117 43.1687 39.5664L44.7853 33.5683L36.9121 28.9266L35.7714 28.3044C35.7714 28.3044 35.4494 29.9968 35.0715 32.0563Z" fill="#263238"/>
<path d="M52.3926 22.2442C55.6889 32.6662 49.0334 35.603 46.507 36.2314C44.2115 36.8039 36.3103 38.4963 31.8103 28.4352C27.3103 18.3741 31.7333 13.7138 36.9122 12.1583C42.091 10.6028 49.0964 11.8285 52.3926 22.2442Z" fill="#F7A9A0"/>
<path d="M32.7971 29.6047C33.4701 29.1305 33.993 28.5091 34.3144 27.8011C34.6359 27.0932 34.7449 26.3232 34.6307 25.5666C36.4744 24.357 37.9235 22.7337 38.8298 20.8627C38.8298 21.0929 38.6268 22.7604 38.5078 23.6066C45.6462 20.8938 46.689 15.3686 46.689 15.3686C48.4055 16.2482 49.8748 17.4631 50.986 18.9214C50.986 18.9214 50.0202 14.8459 46.9899 12.5936C45.9917 11.7979 44.7732 11.2529 43.4596 11.0145C42.146 10.7762 40.7847 10.853 39.5156 11.2371C37.5754 11.2055 35.6614 11.6396 33.9754 12.4937C32.2893 13.3478 30.8934 14.5903 29.9348 16.0904C26.2886 21.7338 32.7971 29.6047 32.7971 29.6047Z" fill="#263238"/>
<path d="M43.9174 21.3855C42.8703 22.2069 41.6908 22.8843 40.4182 23.3953C42.3894 22.4759 44.0309 21.0833 45.1561 19.3758C45.6316 18.646 46.0031 17.8664 46.2619 17.055C46.5856 16.1792 46.707 15.2544 46.6188 14.3359C46.6231 14.325 46.6311 14.3154 46.6418 14.3087C46.6525 14.302 46.6652 14.2983 46.6783 14.2983C46.6914 14.2983 46.7041 14.302 46.7148 14.3087C46.7254 14.3154 46.7335 14.325 46.7378 14.3359C46.9335 15.2345 46.9548 16.1562 46.8008 17.0612C46.6068 17.944 46.232 18.7876 45.695 19.55C45.2135 20.2441 44.6218 20.8728 43.9384 21.4166" fill="#263238"/>
<path d="M33.9376 28.7524C33.9376 28.7524 30.6203 25.8716 29.1017 26.9854C27.583 28.0991 30.5713 32.5852 32.7059 32.9026C32.9757 32.9587 33.2553 32.9668 33.5286 32.9264C33.8019 32.886 34.0636 32.7979 34.2984 32.6672C34.5333 32.5365 34.7367 32.3657 34.897 32.1648C35.0573 31.9638 35.1712 31.7367 35.2323 31.4964L33.9376 28.7524Z" fill="#F7A9A0"/>
<path d="M29.9906 28.2734C29.9906 28.2734 29.9906 28.317 29.9906 28.3232C31.4953 28.5845 32.475 29.6112 33.2449 30.7187C33.1384 30.6072 33.006 30.5177 32.8568 30.4563C32.7075 30.3949 32.545 30.363 32.3806 30.363C32.2161 30.363 32.0536 30.3949 31.9044 30.4563C31.7551 30.5177 31.6227 30.6072 31.5163 30.7187C31.5163 30.7187 31.5163 30.7934 31.5652 30.7809C31.7963 30.6703 32.0602 30.626 32.3208 30.6538C32.5813 30.6816 32.8259 30.7804 33.0209 30.9365C33.3427 31.1999 33.6335 31.4917 33.8887 31.8075C33.9727 31.9071 34.1896 31.8075 34.1127 31.6893C33.7907 30.084 31.9362 28.1303 29.9906 28.2734Z" fill="#263238"/>
<path d="M49.817 20.3401C49.5429 20.2789 49.2648 20.2332 48.9842 20.2032C48.7009 20.116 48.3928 20.116 48.1094 20.2032C48.0253 20.2449 47.9595 20.3105 47.9226 20.3896C47.8858 20.4687 47.8801 20.5565 47.9064 20.6388C47.9843 20.7951 48.1078 20.93 48.2641 21.0295C48.4204 21.1291 48.6038 21.1897 48.7952 21.205C49.1775 21.2893 49.5813 21.245 49.929 21.0806C50.0039 21.0386 50.0637 20.9784 50.1012 20.9071C50.1387 20.8358 50.1524 20.7564 50.1406 20.6784C50.1288 20.6003 50.092 20.527 50.0347 20.467C49.9773 20.407 49.9017 20.363 49.817 20.3401Z" fill="#263238"/>
<path d="M41.433 23.7747C41.636 23.5881 41.8529 23.445 42.0699 23.277C42.2672 23.0755 42.5322 22.9359 42.8257 22.8788C42.9217 22.8769 43.0157 22.9033 43.0929 22.954C43.1702 23.0047 43.2263 23.0767 43.2526 23.1588C43.2772 23.329 43.2499 23.5019 43.1735 23.6595C43.0972 23.8171 42.9747 23.9536 42.8187 24.0547C42.5391 24.301 42.1688 24.4491 41.776 24.4716C41.6856 24.4708 41.5973 24.4469 41.5219 24.4025C41.4465 24.3582 41.3871 24.2955 41.3508 24.2218C41.3146 24.1482 41.3031 24.0668 41.3177 23.9875C41.3323 23.9082 41.3723 23.8343 41.433 23.7747Z" fill="#263238"/>
<path d="M44.0714 31.8634C44.2953 32.0127 44.5263 32.2305 44.8342 32.2181C45.1399 32.1751 45.4326 32.0777 45.695 31.9318C45.695 31.9318 45.751 31.9318 45.737 31.963C45.6386 32.1208 45.4947 32.2524 45.32 32.3443C45.1453 32.4362 44.9462 32.485 44.7432 32.4856C44.5691 32.4651 44.4057 32.3992 44.2737 32.2962C44.1417 32.1932 44.0469 32.0578 44.0014 31.907C43.9804 31.8634 44.0434 31.8634 44.0714 31.8634Z" fill="#263238"/>
<path d="M45.4431 30.0778C46.3841 29.644 47.4157 29.3877 48.4734 29.3249C48.5574 29.2876 48.7463 29.1818 48.7393 29.1009L48.2144 27.6138C48.4664 27.6574 49.7401 27.8254 49.6141 27.5516C48.7791 25.14 47.6675 22.8111 46.2969 20.6016C46.2876 20.5865 46.2722 20.575 46.2538 20.5696C46.2355 20.5641 46.2154 20.565 46.1978 20.5721C46.1801 20.5791 46.1661 20.5919 46.1585 20.6077C46.151 20.6236 46.1504 20.6414 46.1569 20.6576C46.9197 22.8851 48.1165 25.013 48.9563 27.2156C48.4922 27.1547 48.0206 27.1547 47.5566 27.2156C47.4726 27.2592 48.2004 28.7587 48.2564 29.0076C47.1719 29.0248 46.1278 29.3767 45.3031 30.0031C44.9812 30.2084 44.9672 30.308 45.4431 30.0778Z" fill="#263238"/>
<path d="M47.1928 30.7185C47.5497 30.5443 47.8926 29.107 47.2348 29.1132C46.7075 29.1646 46.2029 29.332 45.7667 29.6003C45.3304 29.8686 44.9763 30.2294 44.7363 30.65C44.3934 31.4713 46.199 30.65 46.5279 30.7122C46.8569 30.7745 46.9338 30.8429 47.1928 30.7185Z" fill="#263238"/>
<path d="M46.535 30.7125L46.689 30.7498C46.6621 30.6128 46.6035 30.4822 46.5171 30.3663C46.4306 30.2504 46.3182 30.1516 46.1867 30.0762C46.0552 30.0008 45.9076 29.9504 45.7532 29.9282C45.5987 29.906 45.4408 29.9125 45.2893 29.9472C45.0546 30.1404 44.8727 30.3787 44.7574 30.644C44.3935 31.4716 46.1991 30.6191 46.535 30.7125Z" fill="#FF9ABB"/>
<path d="M44.0225 25.3303C44.0225 25.3303 43.9665 25.3739 43.9805 25.405C44.2044 26.133 44.3234 27.0041 43.6376 27.4023C43.6376 27.4023 43.6376 27.452 43.6376 27.4458C44.5404 27.1347 44.3654 25.9836 44.0225 25.3303Z" fill="#263238"/>
<path d="M43.0776 24.7204C41.7269 24.9133 42.2657 27.3026 43.5185 27.1221C44.7712 26.9417 44.2113 24.5586 43.0776 24.7204Z" fill="#263238"/>
<path d="M42.5809 24.9382C42.3779 25.1125 42.2029 25.3925 41.923 25.4671C41.6431 25.5418 41.3001 25.3489 41.0272 25.1498C41.0272 25.1498 40.9852 25.1498 41.0272 25.1809C41.1182 25.6413 41.4261 26.0769 41.993 26.0458C42.5599 26.0147 42.7768 25.548 42.8048 25.0689C42.7768 24.9756 42.6648 24.8698 42.5809 24.9382Z" fill="#263238"/>
<path d="M48.8163 24.1417C48.8163 24.1417 48.8932 24.1417 48.8932 24.1977C49.0262 24.9382 49.3201 25.7719 50.132 25.8901V25.9337C49.1872 25.9772 48.8093 24.8635 48.8163 24.1417Z" fill="#263238"/>
<path d="M49.3972 23.2397C50.7199 22.9224 51.3357 25.293 50.097 25.5917C48.8583 25.8903 48.2914 23.5073 49.3972 23.2397Z" fill="#263238"/>
<path d="M49.992 23.2833C50.237 23.3642 50.5029 23.5509 50.7619 23.5136C51.0208 23.4762 51.2098 23.1651 51.3287 22.8914C51.3287 22.8914 51.3707 22.8914 51.3777 22.8914C51.5107 23.3456 51.4617 23.8496 50.9998 24.0424C50.5379 24.2353 50.139 23.8931 49.901 23.4638C49.8591 23.3891 49.929 23.246 49.992 23.2833Z" fill="#263238"/>
<path d="M59.2161 76.6C57.3195 72.649 56.8576 62.4883 58.5722 48.134C58.8522 45.7883 75.0815 44.8799 75.0815 47.3998C75.0815 50.5793 72.807 68.0571 72.618 68.9531C71.0574 76.5067 60.4828 79.2319 59.2161 76.6Z" fill="#F7A9A0"/>
<path d="M74.7945 48.8187C74.7945 48.8187 77.8528 43.5859 78.5037 40.394C79.0868 37.0531 78.7457 33.6361 77.5099 30.4387C76.1942 26.9917 70.3435 19.463 67.6071 20.583C65.1367 21.5972 71.5542 29.0263 71.5542 29.0263C71.5542 29.0263 66.4104 20.4896 63.688 22.182C60.9656 23.8744 68.9718 32.1373 68.9718 32.1373C68.9718 32.1373 63.4641 23.4762 60.9656 25.6291C59.0761 27.2592 65.8645 35.0928 65.8645 35.0928C65.8645 35.0928 61.0706 27.6761 59.0481 29.2814C56.8156 31.0485 62.5473 38.6145 62.5473 38.6145C58.1803 43.4615 58.3482 47.3254 58.8031 50.1129C58.9291 50.8409 74.7945 48.8187 74.7945 48.8187Z" fill="#F7A9A0"/>
<path d="M73.5489 31.9007C72.989 30.8803 72.4221 29.8412 71.7573 28.8643C71.0924 27.8875 70.3926 26.9417 69.6577 26.0271C68.6886 24.8136 67.5662 23.703 66.3125 22.7169C68.2565 24.6761 69.9903 26.7925 71.4913 29.0385C72.1562 30.0092 72.891 30.9549 73.5349 31.9256L73.5489 31.9007Z" fill="#263238"/>
<path d="M69.6365 34.0972C68.8527 32.8155 68.1318 31.5213 67.285 30.2769C66.4382 29.0325 65.5214 27.9249 64.5836 26.7365C64.5137 26.6494 64.4787 26.7365 64.5486 26.805C65.4304 28.0494 66.1373 29.2129 67.0051 30.4386C67.8729 31.6644 68.7897 32.8653 69.6015 34.1159C69.6155 34.1346 69.6505 34.1159 69.6365 34.0972Z" fill="#263238"/>
<path d="M66.6622 36.5174C65.5156 34.5303 64.1413 32.6537 62.5612 30.9175C62.4842 30.8304 62.4562 30.9175 62.5262 31.0108C63.9259 32.8775 65.0456 34.2774 66.5853 36.5423C66.6063 36.5858 66.6832 36.5547 66.6622 36.5174Z" fill="#263238"/>
<path d="M62.5263 38.6704C60.9435 36.7169 59.6652 34.582 58.7262 32.3239C58.3623 31.3221 57.9144 29.4119 59.426 29.0386C59.7894 29.0324 60.1462 29.1258 60.4478 29.3062C61.2709 29.8374 62.037 30.4352 62.7363 31.0919L62.5683 31.2225C61.6095 29.8288 60.6087 28.3542 60.4268 26.6991C60.395 26.4805 60.4253 26.2583 60.515 26.0528C60.6047 25.8472 60.7509 25.665 60.9402 25.5227C61.1295 25.3803 61.356 25.2825 61.5988 25.238C61.8417 25.1935 62.0932 25.2038 62.3304 25.268C63.2299 25.5716 64.0222 26.0828 64.6258 26.7489L64.4859 26.8484C63.6321 25.6662 61.7635 22.2006 64.4859 21.9766C65.2107 22.0555 65.8853 22.3467 66.4034 22.8041C65.6616 22.2379 64.3739 21.6219 63.5481 22.3872C62.4843 23.5072 63.898 25.7036 64.6188 26.7427L65.0527 27.3649L64.4859 26.8858C63.9128 26.2648 63.1776 25.7778 62.3444 25.4671C62.1389 25.4192 61.9245 25.41 61.7148 25.44C61.5051 25.47 61.3048 25.5386 61.1266 25.6414C60.9685 25.7691 60.8486 25.9298 60.7777 26.1091C60.7068 26.2883 60.6873 26.4804 60.7207 26.668C60.9027 28.2733 61.9105 29.723 62.8202 31.0857L63.2472 31.6768L62.6523 31.2225C61.9697 30.5808 61.225 29.9937 60.4268 29.4679C60.1648 29.3093 59.855 29.2248 59.538 29.2253C58.1873 29.5799 58.6422 31.3719 58.9431 32.2803C59.8455 34.5393 61.0685 36.6866 62.5823 38.6704H62.5263Z" fill="#263238"/>
<path d="M76.46 52.6017L55.4647 54.0825C55.4647 54.0825 55.0308 73.8314 57.7672 77.4775C60.9305 81.7085 71.6871 78.6846 73.4297 68.6422L76.46 52.6017Z" fill="#FFC727"/>
<path d="M74.7596 57.1996C66.0046 58.6245 58.1594 58.7116 56.5147 58.8734C56.4378 58.8734 56.4308 58.7676 56.5147 58.7614C58.1384 58.6805 67.2853 57.517 74.7596 57.0814C74.8436 57.0752 74.8436 57.1872 74.7596 57.1996Z" fill="#263238"/>
<path d="M56.3676 72.7859C56.1926 70.3468 56.0037 67.914 55.8637 65.4749C55.7237 63.0359 55.6538 60.5968 55.6258 58.1578C55.6258 56.8076 55.6957 55.557 55.7237 54.2068C56.5006 54.0637 56.9695 54.0699 57.9212 53.9081C58.0402 53.9081 57.9982 53.6343 57.8792 53.653C56.8365 53.7837 55.2548 53.7588 55.2478 53.821C55.1359 56.2663 55.2059 58.8795 55.2478 61.3248C55.2898 63.7701 55.4648 66.2402 55.7167 68.6855C55.8567 70.0606 56.0597 71.4294 56.2976 72.7921C56.3326 72.817 56.3676 72.8107 56.3676 72.7859Z" fill="#263238"/>
<path d="M3.43173 76.2764C6.88195 78.6968 14.5242 77.3839 31.8803 75.8533C34.2807 75.6417 36.2963 60.2981 33.7209 60.4288C30.4736 60.5657 17.9045 61.7168 16.9947 61.9097C9.33839 63.4901 1.08726 74.6276 3.43173 76.2764Z" fill="#F7A9A0"/>
<path d="M39.0815 58.7678C44.4213 58.6744 45.814 59.3899 50.279 57.1749C53.2043 55.7252 55.4998 56.7642 53.5963 59.3588C50.475 63.5961 43.6165 65.0023 41.0761 64.8778L39.0815 58.7678Z" fill="#F7A9A0"/>
<path d="M24.525 61.7792C28.3802 60.4157 32.3975 59.4471 36.4993 58.8921C40.4254 58.4815 49.0965 58.4255 56.2418 66.7755C57.9425 68.7541 58.7823 72.6491 54.6882 70.3096C51.7769 68.6483 50.4891 66.8128 48.6136 66.1159C48.6136 66.1159 49.0195 71.1807 46.717 72.618C44.7101 73.8717 42.6053 74.9966 40.4184 75.9841C40.1263 75.6688 39.8552 75.3384 39.6066 74.9948C39.6066 74.9948 35.1206 76.9672 30.4597 75.9841L24.525 61.7792Z" fill="#F7A9A0"/>
<path d="M40.3202 59.0289C42.0348 60.068 45.618 62.3266 47.8295 65.083C50.286 68.1442 54.0861 74.6276 51.5317 76.2143C49.6491 77.3778 47.9555 75.0196 47.9555 75.0196C47.9555 75.0196 48.8933 77.9938 46.9407 78.7155C45.1561 79.3751 43.9664 77.4711 43.9664 77.4711C43.9664 77.4711 44.1833 79.3377 42.3358 79.7048C40.1033 80.1093 40.0123 76.0836 37.3529 74.7645C36.758 74.4721 40.3202 59.0289 40.3202 59.0289Z" fill="#F7A9A0"/>
<path d="M43.7635 66.85C46.0536 69.1052 47.5181 71.9262 47.9626 74.9387C47.9626 75.0134 47.9136 75.0569 47.8856 74.9885C46.8636 72.1378 45.4534 69.4089 43.6865 66.8625C43.6865 66.8625 43.7425 66.8376 43.7635 66.85Z" fill="#263238"/>
<path d="M40.3553 69.1461C42.4032 71.5693 43.6774 74.4391 44.0434 77.4526C44.0434 77.5273 43.9804 77.5708 43.9595 77.5024C43.1046 74.6108 41.8862 71.8139 40.3273 69.1648C40.3273 69.1648 40.3413 69.1337 40.3553 69.1461Z" fill="#263238"/>
<path d="M30.7115 59.0601L20.9627 80.0782C20.9627 80.0782 4.74737 78.9333 2.24894 76.0401C0.464344 73.9495 8.45654 63.2413 16.9456 61.5053L30.7115 59.0601Z" fill="#FFC727"/>
<path d="M7.76352 66.707C8.70131 65.4253 12.0606 62.5569 16.9454 61.4867C16.9874 61.4867 17.0154 61.5365 16.9454 61.5489C13.3903 62.6627 8.80629 65.587 7.78452 66.7506C7.78452 66.7443 7.73553 66.707 7.76352 66.707Z" fill="#263238"/>
<path d="M17.8484 76.6622C18.6113 74.5716 19.4931 72.5183 20.3819 70.4402C21.2707 68.362 22.1665 66.3336 23.1112 64.299C23.6501 63.1541 24.175 62.0031 24.7559 60.8706C24.7559 60.8395 24.8328 60.8706 24.8189 60.8706C24.063 62.955 23.1882 65.0145 22.3134 67.0927C21.4386 69.1709 20.5358 71.1993 19.612 73.2401C19.0941 74.3974 18.5459 75.5423 17.9674 76.6747C17.9394 76.768 17.8274 76.7369 17.8484 76.6622Z" fill="#263238"/>
<path d="M30.6555 58.8735C29.6978 58.9349 28.746 59.0555 27.8071 59.2344C26.8553 59.39 25.9106 59.558 25.0078 59.7322C23.1322 60.0806 19.1151 60.6344 15.8608 61.7481C15.8608 61.7481 16.0708 61.8539 16.1058 61.8415C17.6314 61.2193 29.5987 59.4149 30.5365 59.166C30.5365 59.2282 29.9417 60.5784 29.9417 60.6468C29.9417 60.7153 30.0116 60.7277 30.0466 60.6842C30.0816 60.6406 30.7465 59.1784 30.8165 59.0664C30.8355 59.045 30.846 59.0185 30.8464 58.9912C30.8469 58.9639 30.8372 58.9372 30.8189 58.9153C30.8006 58.8933 30.7747 58.8774 30.7451 58.8698C30.7156 58.8623 30.6841 58.8636 30.6555 58.8735Z" fill="#263238"/>
<path d="M22.5163 76.7244C22.0544 77.9003 21.5645 79.0639 21.0676 80.2336C18.9121 80.1092 16.7706 79.9038 14.6291 79.6114C11.4712 79.2625 8.36615 78.6052 5.3702 77.6514C5.04827 77.527 4.72635 77.3901 4.40442 77.2595C7.08124 78.0202 9.82824 78.5699 12.6136 78.9021C15.4129 79.2941 18.2123 79.6238 20.9697 79.91L20.8087 80.0034C21.3639 78.8958 21.9331 77.7945 22.5163 76.6995V76.7244Z" fill="#263238"/>
</svg>
