<svg width="500" height="500" viewBox="0 0 500 500" fill="none" xmlns="http://www.w3.org/2000/svg">
<path d="M250 472.91C349.654 472.91 430.44 462.384 430.44 449.4C430.44 436.416 349.654 425.89 250 425.89C150.346 425.89 69.5601 436.416 69.5601 449.4C69.5601 462.384 150.346 472.91 250 472.91Z" fill="#EBEBEB"/>
<path d="M335.63 378.5C335.63 378.5 335.63 421.57 335.63 421.6C335.63 429.83 335.56 437.05 335.15 440.78C335.155 440.789 335.158 440.799 335.158 440.81C335.158 440.821 335.155 440.831 335.15 440.84C335.15 441.725 334.945 442.598 334.55 443.39L334.5 443.44C332.06 445.11 266.26 447.37 263.94 446.67C261.62 445.97 263.41 439.31 265.94 437.18C268.47 435.05 293.24 422.93 293.24 422.93L293.65 379.88L335.63 378.5Z" fill="#AD6359"/>
<path d="M335.62 412.75V421.6C335.62 429.83 335.55 437.05 335.14 440.78C335.146 440.789 335.148 440.799 335.148 440.81C335.148 440.821 335.146 440.831 335.14 440.84C335.037 441.71 334.835 442.565 334.54 443.39L334.49 443.44C332.05 445.11 266.25 447.37 263.93 446.67C261.61 445.97 263.4 439.31 265.93 437.18C268.46 435.05 293.23 422.93 293.23 422.93L293.11 413.93L335.62 412.75Z" fill="#C7C7C7"/>
<path d="M263.93 446.67C266.25 447.37 332.05 445.12 334.5 443.44C335.44 442.82 335.67 433.21 335.62 421.6V421.23L293.15 422.23L293.2 422.95C293.2 422.95 268.4 435.08 265.9 437.21C263.4 439.34 261.6 446 263.93 446.67Z" fill="#263238"/>
<path d="M264.58 444.1C275.67 443.44 320.43 441.86 331.43 442.1C331.52 442.1 331.52 442.16 331.43 442.17C320.43 443.05 275.69 444.28 264.59 444.32C264.36 444.28 264.35 444.11 264.58 444.1Z" fill="#455A64"/>
<path d="M289.62 423.18C293.96 422.18 299.32 422.7 302.76 425.7C302.9 425.82 302.76 426 302.59 425.96C298.372 424.759 294.037 424.011 289.66 423.73C289.595 423.723 289.534 423.694 289.488 423.646C289.442 423.599 289.414 423.537 289.409 423.472C289.405 423.406 289.423 423.341 289.462 423.288C289.5 423.234 289.556 423.196 289.62 423.18Z" fill="#455A64"/>
<path d="M286.54 425.19C290.87 424.19 296.24 424.71 299.68 427.71C299.81 427.82 299.68 428.01 299.5 427.97C295.282 426.767 290.948 426.02 286.57 425.74C286.505 425.732 286.445 425.701 286.401 425.653C286.356 425.605 286.33 425.543 286.326 425.478C286.323 425.412 286.342 425.348 286.381 425.295C286.42 425.243 286.477 425.206 286.54 425.19Z" fill="#455A64"/>
<path d="M283.45 427.19C287.79 426.19 293.15 426.72 296.59 429.71C296.73 429.83 296.59 430.02 296.42 429.98C292.202 428.775 287.868 428.024 283.49 427.74C283.425 427.733 283.364 427.704 283.318 427.656C283.272 427.609 283.244 427.547 283.24 427.482C283.235 427.416 283.253 427.351 283.292 427.297C283.33 427.244 283.386 427.206 283.45 427.19Z" fill="#455A64"/>
<path d="M339.4 218.83L339.36 221.68L337.75 347.54L337.74 348.02L336.79 423.41L290.73 422.49L299.62 218.98L299.74 216.26L300.19 192.65H339.09L339.4 218.83Z" fill="#455A64"/>
<path d="M292.66 414.81C299.85 414.74 297.78 414.66 304.97 414.68C308.49 414.68 331.62 414.77 334.9 415.35C334.97 415.35 334.97 415.49 334.9 415.5C331.6 416 308.48 415.5 304.96 415.44C297.77 415.29 299.84 415.25 292.65 415.02C292.628 415.012 292.609 414.997 292.596 414.977C292.583 414.958 292.577 414.935 292.578 414.911C292.579 414.888 292.588 414.865 292.602 414.847C292.617 414.829 292.638 414.816 292.66 414.81Z" fill="#263238"/>
<path d="M313.29 232.07C313.29 232.049 313.282 232.029 313.267 232.014C313.252 231.999 313.231 231.99 313.21 231.99C313.189 231.99 313.169 231.999 313.154 232.014C313.139 232.029 313.13 232.049 313.13 232.07C313.13 244.12 312.64 250.87 312.35 262.91C312.06 274.95 311.71 286.99 311.35 299.02C310.7 323.09 309.73 347.14 308.84 371.2C308.34 384.694 307.717 398.18 306.97 411.66C306.97 411.679 306.978 411.697 306.991 411.71C307.004 411.723 307.022 411.73 307.04 411.73C307.059 411.73 307.077 411.723 307.09 411.71C307.103 411.697 307.11 411.679 307.11 411.66C308.86 387.66 310.53 363.58 311.49 339.51C312.45 315.44 313.13 291.38 313.24 267.31C313.34 253.8 313.26 245.58 313.29 232.07Z" fill="#263238"/>
<path d="M339.39 218.83L337.75 347.54L306.88 192.65H339.08L339.39 218.83Z" fill="#263238"/>
<path d="M387.29 376.17C387.29 376.17 393.09 418.84 393.09 418.87C394.25 427.03 395.09 434.2 395.21 437.95C395.21 437.95 395.21 437.95 395.21 438.01C395.327 438.884 395.245 439.772 394.97 440.61C394.969 440.63 394.969 440.65 394.97 440.67C392.77 442.67 327.87 453.77 325.48 453.39C323.09 453.01 323.97 446.17 326.14 443.72C328.31 441.27 351.27 425.92 351.27 425.92L345.87 383.21L387.29 376.17Z" fill="#AD6359"/>
<path d="M391.9 410.11C391.9 410.11 393.09 418.84 393.09 418.87C394.25 427.03 395.09 434.2 395.21 437.95C395.21 437.95 395.21 437.95 395.21 438.01C395.229 438.883 395.149 439.755 394.97 440.61C394.969 440.63 394.969 440.65 394.97 440.67C392.77 442.67 327.87 453.77 325.48 453.39C323.09 453.01 323.97 446.17 326.14 443.72C328.31 441.27 351.27 425.92 351.27 425.92L349.9 417L391.9 410.11Z" fill="#C7C7C7"/>
<path d="M325.44 453.39C327.84 453.77 392.73 442.66 394.93 440.67C395.78 439.92 394.71 430.38 393.09 418.87L393.03 418.51L351.09 425.21L351.23 425.92C351.23 425.92 328.29 441.28 326.1 443.73C323.91 446.18 323 453 325.44 453.39Z" fill="#263238"/>
<path d="M325.74 450.75C336.64 448.61 380.74 441 391.74 439.75C391.83 439.75 391.84 439.8 391.74 439.82C380.99 442.18 336.8 449.43 325.8 450.97C325.54 451 325.51 450.8 325.74 450.75Z" fill="#455A64"/>
<path d="M347.73 426.65C351.9 425.11 357.28 424.87 361.09 427.37C361.24 427.47 361.09 427.68 360.95 427.66C356.61 427.034 352.215 426.876 347.84 427.19C347.775 427.192 347.711 427.17 347.66 427.129C347.608 427.088 347.573 427.03 347.56 426.966C347.547 426.902 347.557 426.835 347.588 426.777C347.619 426.719 347.669 426.674 347.73 426.65Z" fill="#455A64"/>
<path d="M344.94 429.05C349.11 427.51 354.49 427.27 358.3 429.78C358.45 429.87 358.3 430.08 358.16 430.06C353.82 429.438 349.425 429.281 345.05 429.59C344.985 429.591 344.921 429.57 344.869 429.529C344.818 429.488 344.783 429.43 344.77 429.366C344.757 429.302 344.767 429.235 344.798 429.177C344.829 429.119 344.879 429.074 344.94 429.05Z" fill="#455A64"/>
<path d="M342.16 431.46C346.33 429.92 351.7 429.68 355.52 432.18C355.67 432.28 355.52 432.49 355.38 432.47C351.04 431.839 346.644 431.681 342.27 432C342.205 432.002 342.14 431.98 342.089 431.939C342.038 431.898 342.003 431.84 341.99 431.776C341.976 431.712 341.986 431.645 342.018 431.587C342.049 431.529 342.099 431.485 342.16 431.46Z" fill="#455A64"/>
<path d="M304.15 192.61C304.32 193.41 307.04 206.03 309.86 216.87C311.91 224.79 314.02 231.75 315.23 232.47C316.6 233.28 323.28 236.24 325.52 237.17L335.75 335L349.58 425.58L394.8 418.58L362.62 220.34L357.38 192.61H304.15Z" fill="#455A64"/>
<path d="M349.85 416.49C356.95 415.35 354.85 415.57 362.01 414.49C365.49 413.97 388.37 410.58 391.7 410.67C391.77 410.67 391.79 410.79 391.7 410.81C388.52 411.81 365.58 414.81 362.09 415.25C354.96 416.17 357 415.83 349.86 416.68C349.843 416.671 349.828 416.658 349.818 416.642C349.808 416.626 349.801 416.607 349.8 416.588C349.799 416.569 349.804 416.55 349.812 416.532C349.821 416.515 349.834 416.501 349.85 416.49Z" fill="#263238"/>
<path d="M376 389.44C374.87 383.16 373.75 376.88 372.59 370.6C370.277 358.04 367.944 345.483 365.59 332.93C360.87 307.803 356.204 282.657 351.59 257.49C349.01 243.29 349.07 244.62 346.82 230.35C346.82 230.26 346.64 230.27 346.66 230.35C348.82 243.03 347.8 240.25 349.84 252.95C351.88 265.65 354.02 278.08 356.27 290.61C360.79 315.8 365.53 340.95 370.32 366.09C371.654 373.143 373.017 380.187 374.41 387.22C375.81 394.4 377.41 401.54 378.89 408.7C378.89 408.86 379.18 408.85 379.15 408.7C378.11 402.29 377.17 395.85 376 389.44Z" fill="#263238"/>
<path d="M363.57 231.29C362.37 230.98 361.08 230.88 359.86 230.69C358.86 230.53 357.86 230.35 356.86 230.14C354.978 229.803 353.195 229.052 351.64 227.94C349.94 226.62 349.07 224.61 348.25 222.68C347.757 221.54 347.257 220.4 346.75 219.26L346 217.61C345.651 216.962 345.34 216.294 345.07 215.61C345.07 215.51 344.88 215.61 344.92 215.61C345.09 216.077 345.231 216.555 345.34 217.04C345.51 217.59 345.66 218.14 345.83 218.69C346.14 219.69 346.44 220.69 346.76 221.69C347.247 223.494 347.948 225.233 348.85 226.87C350.67 229.75 353.91 230.92 357.15 231.33C358.08 231.44 359.02 231.51 359.96 231.56C361.138 231.665 362.322 231.665 363.5 231.56C363.528 231.553 363.553 231.538 363.573 231.518C363.593 231.498 363.607 231.473 363.614 231.445C363.621 231.418 363.621 231.389 363.613 231.362C363.605 231.334 363.591 231.31 363.57 231.29Z" fill="#263238"/>
<path d="M311.68 230.74C316.45 232.472 321.058 234.621 325.451 237.16C325.488 237.177 325.516 237.208 325.53 237.247C325.545 237.285 325.543 237.328 325.525 237.365C325.508 237.402 325.477 237.431 325.439 237.445C325.4 237.459 325.358 237.457 325.321 237.44C320.681 235.44 315.95 233.54 311.43 231.3C311.368 231.26 311.322 231.199 311.3 231.128C311.279 231.057 311.284 230.98 311.314 230.912C311.344 230.844 311.398 230.79 311.465 230.758C311.533 230.726 311.609 230.72 311.68 230.74Z" fill="#263238"/>
<path d="M310.28 199C310.28 198.84 310.58 198.8 310.58 199C310.577 204.177 310.837 209.35 311.36 214.5C311.57 216.89 313.49 230.09 317.64 229.13C318.33 228.97 318.64 228.28 318.79 227.24C318.775 225.873 318.59 224.512 318.24 223.19C317.78 220.42 317.41 217.65 317.18 214.86C316.692 209.662 316.749 204.427 317.35 199.24C317.35 199.206 317.364 199.173 317.388 199.148C317.413 199.124 317.446 199.11 317.48 199.11C317.515 199.11 317.548 199.124 317.572 199.148C317.596 199.173 317.61 199.206 317.61 199.24C317.494 206.451 317.916 213.661 318.87 220.81C319.39 224.24 321.12 229.41 317.53 229.94C313.94 230.47 311.53 221.82 311.06 219.45C309.915 212.696 309.652 205.822 310.28 199Z" fill="#263238"/>
<path d="M317.53 229.43C317.895 230.323 318.206 231.238 318.46 232.17C318.727 232.889 318.86 233.652 318.85 234.42C318.844 234.451 318.829 234.48 318.807 234.502C318.785 234.525 318.756 234.541 318.725 234.547C318.694 234.553 318.662 234.551 318.632 234.539C318.603 234.527 318.578 234.506 318.56 234.48C318.114 233.807 317.776 233.068 317.56 232.29C317.24 231.45 316.91 230.6 316.62 229.75C316.578 229.629 316.585 229.496 316.64 229.381C316.696 229.266 316.794 229.177 316.915 229.135C317.036 229.092 317.168 229.1 317.284 229.155C317.399 229.21 317.488 229.309 317.53 229.43Z" fill="#263238"/>
<path d="M363.09 223.25C357.61 222.89 299.74 216.25 299.74 216.25L300.19 192.64H304.19H357.42L362.66 220.37L363.09 223.25Z" fill="#263238"/>
<path d="M322.56 138.42C315.94 159.14 304.73 180.53 301.49 184.74C292.8 196.06 266.69 207.21 258.72 208.65C255.27 209.27 247 187.02 249.14 183.96C251.28 180.9 283.73 168.5 285.32 166.85C286.42 165.7 300.11 148.06 309.32 137.42C320.83 124.19 324.3 133 322.56 138.42Z" fill="#AD6359"/>
<path d="M256.07 179.64L268.89 205.64C268.89 205.64 296.14 193.83 302.63 185.4C309.12 176.97 320.88 148.4 322.63 139.3C324.38 130.2 321.36 123.7 309.17 137C296.98 150.3 286.88 163.55 284.7 165.77C282.52 167.99 256.07 179.64 256.07 179.64Z" fill="#EBEBEB"/>
<path d="M257.15 178.32L272.51 205.26C272.51 205.26 296.51 193.79 302.63 186.26C308.75 178.73 318.84 155.61 322 143.13C325.16 130.65 323.31 121.8 309.18 137.07C295.05 152.34 287.06 163.43 284.18 165.92C282.81 167 257.15 178.32 257.15 178.32Z" fill="#37474F"/>
<path d="M263.62 180.81C264.399 180.81 265.03 180.179 265.03 179.4C265.03 178.622 264.399 177.99 263.62 177.99C262.842 177.99 262.21 178.622 262.21 179.4C262.21 180.179 262.842 180.81 263.62 180.81Z" fill="#263238"/>
<path d="M270.27 177.75C271.049 177.75 271.68 177.119 271.68 176.34C271.68 175.561 271.049 174.93 270.27 174.93C269.492 174.93 268.86 175.561 268.86 176.34C268.86 177.119 269.492 177.75 270.27 177.75Z" fill="#263238"/>
<path d="M322 143.09C318.84 155.57 308.76 178.65 302.63 186.22C300.01 189.45 294.15 193.39 288.28 196.85L319.21 129.11C324 127.81 324.15 134.61 322 143.09Z" fill="#263238"/>
<path d="M366.11 213.34C365.95 213.52 296.77 213.73 296.11 213.02C295.22 212.02 310.85 137.02 317.95 127.81C319.46 125.81 324.47 125.28 328.73 125.81C329.841 125.935 330.939 126.16 332.01 126.48H332.13C332.994 126.735 333.809 127.134 334.54 127.66C346.38 137.12 356.36 170.19 358.69 180.12C362.59 196.51 366.68 212.69 366.11 213.34Z" fill="#EBEBEB"/>
<path d="M334.34 126.78C334.34 126.78 328.71 157.48 327.73 165.46C326.75 173.44 328.19 215.59 328.19 215.59L371.63 218.8C371.63 218.8 362.24 190.9 362.13 189.13C362.13 189.13 354.33 155.71 347.02 141.75C343.827 135.969 339.517 130.88 334.34 126.78Z" fill="#37474F"/>
<path d="M371.63 218.8L351.93 217.34L337.87 129.87V129.93L346.69 141.23C346.79 141.41 346.89 141.59 346.98 141.77C354.29 155.77 362.09 189.15 362.09 189.15C362.24 190.9 371.63 218.8 371.63 218.8Z" fill="#263238"/>
<path d="M317.53 127.45C317.53 127.45 312.92 158.54 312.42 161.11C311.92 163.68 304.94 214.38 304.94 214.38L294.07 214.72L299.74 191.54C299.74 191.54 312.35 134.07 317.53 127.45Z" fill="#37474F"/>
<path d="M323.88 144.51L320.8 138.51L316.82 142.85L317.8 147.17L321.72 147.68L323.88 144.51Z" fill="#263238"/>
<path d="M321.72 147.68L323.6 191.82L315.33 206.42L311.03 189.99L317.8 147.17L321.72 147.68Z" fill="#263238"/>
<path d="M319.987 269.675L319.933 321.515L405.493 321.605L405.547 269.765L319.987 269.675Z" fill="#FFCC00"/>
<path opacity="0.1" d="M319.983 269.681L319.957 294.091L405.517 294.18L405.543 269.77L319.983 269.681Z" fill="black"/>
<path d="M317.945 286.233L407.555 286.327L407.58 262.137L317.97 262.043L317.945 286.233Z" fill="#FFCC00"/>
<path d="M343.92 248.28L343.9 262.07L350.39 262.08L350.4 254.23L375.15 254.26L375.14 262.11H381.63L381.64 248.31L343.92 248.28Z" fill="#263238"/>
<path d="M389.404 292.076L395.244 292.083L395.256 280.523L389.416 280.516L389.404 292.076Z" fill="#263238"/>
<path d="M330.234 292.028L336.074 292.034L336.086 280.474L330.246 280.468L330.234 292.028Z" fill="#263238"/>
<path d="M343.9 136C363.2 153.51 375.45 178.52 376.28 183.57C378.28 195.78 380.81 217.18 380.38 226.57C380.22 230.05 353.85 225.83 353.9 222.11C354.07 210.47 352.52 184.87 352.45 184.42C351.98 181.29 346.24 167.22 340.45 151.96C334.66 136.7 335.78 128.65 343.9 136Z" fill="#AD6359"/>
<path d="M351.12 258.59C351.889 258.94 352.747 259.046 353.578 258.894C354.41 258.742 355.174 258.339 355.77 257.74C356.523 258.962 357.68 259.882 359.04 260.34C361.47 261.04 363.63 257.53 363.63 257.53C364.678 258.636 366.033 259.402 367.52 259.73C369.91 260.16 372.6 256.93 372.6 256.93C374.121 257.409 375.762 257.331 377.23 256.71C379.72 255.54 381.83 248.4 382.35 244.29C382.87 240.18 380.48 228.03 380.26 225.67L353.9 222.13C353.9 222.13 346.34 239.91 346.42 244.83C346.49 249 348.22 257.15 351.12 258.59Z" fill="#AD6359"/>
<path d="M355.37 257.5C354.24 253.11 354.47 248.62 354.45 244.14C354.45 244.119 354.459 244.098 354.474 244.083C354.489 244.068 354.509 244.06 354.53 244.06C354.551 244.06 354.572 244.068 354.587 244.083C354.602 244.098 354.61 244.119 354.61 244.14C354.61 248.6 355.43 253.01 355.61 257.47C355.614 257.502 355.605 257.534 355.586 257.559C355.566 257.585 355.537 257.601 355.505 257.605C355.473 257.609 355.441 257.6 355.416 257.581C355.391 257.561 355.374 257.532 355.37 257.5Z" fill="#263238"/>
<path d="M363.3 257.4C363.138 256.378 363.112 255.339 363.22 254.31C363.22 253.22 363.34 252.12 363.43 251.03C363.603 248.843 363.827 246.663 364.1 244.49C364.1 244.39 364.26 244.39 364.25 244.49C364.09 246.67 363.96 248.85 363.88 251.03C363.88 252.13 363.82 253.22 363.8 254.31C363.844 255.344 363.777 256.38 363.6 257.4C363.589 257.431 363.568 257.457 363.541 257.476C363.515 257.494 363.483 257.504 363.45 257.504C363.417 257.504 363.386 257.494 363.359 257.476C363.332 257.457 363.311 257.431 363.3 257.4Z" fill="#263238"/>
<path d="M372.6 256.84C372.472 255.912 372.499 254.969 372.68 254.05C372.78 253.05 372.87 252.05 372.96 251.05C373.14 249.05 373.31 247.05 373.41 245.05C373.41 244.95 373.57 244.95 373.57 245.05C373.47 247.05 373.4 249.11 373.29 251.14L373.11 254.14C373.132 255.054 372.993 255.964 372.7 256.83C372.696 256.839 372.689 256.847 372.681 256.852C372.673 256.858 372.663 256.861 372.653 256.862C372.643 256.863 372.633 256.862 372.624 256.858C372.615 256.854 372.607 256.848 372.6 256.84Z" fill="#263238"/>
<path d="M352.61 222.25L381.84 223.83C381.84 223.83 379.68 191.83 377.36 182.94C375.04 174.05 355.24 144.42 343.55 133.68C332.55 123.57 332.55 131.98 336.72 143.83C340.89 155.68 351.21 184.32 351.56 186.41C351.91 188.5 352.61 222.25 352.61 222.25Z" fill="#37474F"/>
<path d="M353.92 216.35C355.04 216.25 356.17 216.35 357.29 216.35C358.41 216.35 359.53 216.4 360.65 216.45C362.81 216.54 364.97 216.67 367.13 216.81L373.6 217.24C375.83 217.39 378.11 217.43 380.32 217.76C380.335 217.766 380.349 217.776 380.358 217.789C380.367 217.803 380.372 217.819 380.372 217.835C380.372 217.851 380.367 217.867 380.358 217.881C380.349 217.894 380.335 217.904 380.32 217.91C378.09 218 375.82 217.8 373.59 217.72L366.99 217.45C364.79 217.35 362.59 217.24 360.39 217.1C359.31 217.04 358.23 216.96 357.16 216.84C356.09 216.72 354.97 216.71 353.91 216.5C353.81 216.48 353.84 216.36 353.92 216.35Z" fill="#263238"/>
<path d="M321.84 137.71C322.98 137.66 330.55 131.71 332.84 127.13C333 126.81 332.41 123.55 331.89 119.56C331.58 117.14 331.29 114.43 331.21 111.94C331.21 111.43 329.49 112.43 329.49 112.43L326.29 113.31L315.73 116.25C316.725 119.333 317.336 122.527 317.55 125.76C317.562 126.095 317.539 126.43 317.48 126.76C317.485 126.816 317.485 126.873 317.48 126.93C317.25 128.9 320 137.78 321.84 137.71Z" fill="#AD6359"/>
<path d="M317.52 126.78C317.524 126.837 317.524 126.894 317.52 126.95C318.055 127.001 318.595 127.001 319.13 126.95C329.63 126.37 330.5 112.95 330.5 112.95L326.35 113.27L315.79 116.21C316.785 119.293 317.396 122.488 317.61 125.72C317.619 126.076 317.589 126.431 317.52 126.78Z" fill="#263238"/>
<path d="M330.82 90.8399C333.34 96.0499 332.92 112.31 329.57 116.44C324.73 122.44 315.57 124.35 310.17 118.24C304.94 112.33 305.87 91.1499 309.72 87.2399C315.39 81.5599 327.1 83.1399 330.82 90.8399Z" fill="#AD6359"/>
<path d="M316.88 102.7C316.88 102.7 316.96 102.7 316.96 102.8C316.9 103.89 317.02 105.16 317.96 105.54C317.96 105.54 317.96 105.61 317.96 105.6C316.79 105.41 316.65 103.73 316.88 102.7Z" fill="#263238"/>
<path d="M317.88 101.58C319.64 101.48 319.71 105.02 318.07 105.11C316.43 105.2 316.4 101.66 317.88 101.58Z" fill="#263238"/>
<path d="M310.54 103C310.54 103 310.46 103.05 310.46 103.1C310.51 104.19 310.39 105.46 309.4 105.84V105.9C310.62 105.7 310.77 104 310.54 103Z" fill="#263238"/>
<path d="M309.54 101.86C307.78 101.76 307.7 105.3 309.34 105.39C310.98 105.48 311 102 309.54 101.86Z" fill="#263238"/>
<path d="M319.25 99.94C318.76 99.82 318.33 99.64 317.87 99.48C317.36 99.3892 316.894 99.1284 316.55 98.74C316.465 98.5995 316.429 98.4342 316.449 98.2708C316.469 98.1074 316.543 97.9556 316.66 97.84C316.922 97.6395 317.232 97.5124 317.559 97.472C317.886 97.4316 318.218 97.4792 318.52 97.61C319.175 97.783 319.741 98.1928 320.11 98.76C320.187 98.8939 320.223 99.0472 320.215 99.2013C320.206 99.3554 320.153 99.5038 320.063 99.6285C319.972 99.7532 319.847 99.849 319.703 99.9042C319.558 99.9595 319.401 99.9719 319.25 99.94Z" fill="#263238"/>
<path d="M308.14 100.11C308.614 100.006 309.081 99.8755 309.54 99.7199C310.051 99.6487 310.525 99.4135 310.89 99.0499C310.983 98.9133 311.028 98.7494 311.017 98.5845C311.006 98.4196 310.94 98.263 310.83 98.1399C310.579 97.9254 310.275 97.7824 309.949 97.7261C309.624 97.6698 309.289 97.7022 308.98 97.8199C308.319 97.9596 307.734 98.3412 307.34 98.8899C307.257 99.0198 307.214 99.1709 307.215 99.325C307.216 99.4791 307.261 99.6296 307.346 99.7584C307.43 99.8873 307.55 99.989 307.691 100.051C307.832 100.114 307.988 100.134 308.14 100.11Z" fill="#263238"/>
<path d="M316.86 109.59C316.59 110.028 316.232 110.406 315.809 110.698C315.385 110.991 314.906 111.192 314.4 111.29C313.961 111.385 313.509 111.416 313.06 111.38C312.974 111.39 312.887 111.39 312.8 111.38H312.56C312.503 111.369 312.45 111.34 312.41 111.297C312.37 111.254 312.346 111.199 312.34 111.14C312.335 111.104 312.335 111.067 312.34 111.03V110.93C312.34 110.09 312.34 108.81 312.34 108.81C312.03 108.97 310.47 109.7 310.49 109.26C310.523 105.457 310.942 101.668 311.74 97.9501C311.74 97.9236 311.751 97.8981 311.77 97.8794C311.788 97.8606 311.814 97.8501 311.84 97.8501C311.867 97.8501 311.892 97.8606 311.911 97.8794C311.93 97.8981 311.94 97.9236 311.94 97.9501C311.94 101.47 311.3 104.95 311.24 108.49C311.794 108.219 312.383 108.027 312.99 107.92C313.11 107.92 312.83 110.4 312.88 110.78C313.571 110.837 314.267 110.754 314.925 110.536C315.583 110.318 316.19 109.969 316.71 109.51C316.84 109.43 316.92 109.5 316.86 109.59Z" fill="#263238"/>
<path d="M313.55 110.94C314.02 111.535 314.637 111.997 315.34 112.28C315.728 112.425 316.15 112.446 316.55 112.34C317.43 112.09 317.43 111.34 317.26 110.6C317.162 110.252 317.025 109.917 316.85 109.6C315.921 110.386 314.765 110.855 313.55 110.94Z" fill="#263238"/>
<path d="M315.34 112.28C315.728 112.425 316.15 112.446 316.55 112.34C317.43 112.09 317.43 111.34 317.26 110.6C316.799 110.627 316.36 110.807 316.013 111.111C315.665 111.415 315.428 111.827 315.34 112.28Z" fill="#FF9ABB"/>
<path d="M307.48 92.68C308.05 91.28 308.72 89.87 309.55 89.57C310.38 89.27 310.97 91.31 312.88 91.4C315.45 91.53 316.65 89.15 320.24 88.83C325.39 88.37 327.74 92.64 328.01 99.96C328.24 106.49 332.21 107.03 332.21 107.03C332.21 107.03 334.33 92.57 330.21 87.87C326.09 83.17 316.69 81.24 310.51 85.87C308.22 87.62 307.48 92.68 307.48 92.68Z" fill="#263238"/>
<path d="M328.86 104.52C328.86 104.52 331.75 98.9098 334.25 99.8698C336.75 100.83 335.06 108.63 332.46 110.02C332.139 110.22 331.781 110.353 331.408 110.411C331.034 110.469 330.653 110.45 330.286 110.357C329.92 110.263 329.577 110.097 329.276 109.867C328.976 109.637 328.726 109.349 328.54 109.02L328.86 104.52Z" fill="#AD6359"/>
<path d="M333.71 102.1C333.71 102.1 333.77 102.15 333.71 102.17C331.9 103.17 331.13 105.11 330.71 107.05C330.795 106.842 330.923 106.655 331.088 106.502C331.252 106.349 331.447 106.234 331.661 106.164C331.874 106.094 332.1 106.072 332.323 106.099C332.546 106.126 332.76 106.202 332.951 106.32C333.001 106.32 332.951 106.43 332.951 106.43C332.599 106.368 332.238 106.416 331.915 106.568C331.593 106.721 331.325 106.969 331.15 107.28C330.858 107.8 330.623 108.35 330.451 108.92C330.391 109.11 330.061 109.06 330.101 108.85C329.681 106.37 331.12 102.7 333.71 102.1Z" fill="#263238"/>
<path d="M317.47 127.16L321.24 136.42L332.68 124.72L335.94 128.46C335.94 128.46 324.76 147 324.69 146.19L320.87 138.25L315.4 143.79L315.81 129.9L317.47 127.16Z" fill="#EBEBEB"/>
<path d="M315.21 136.92C315.36 134.63 315.44 132.31 315.69 130.03C315.69 129.95 315.83 129.92 315.85 130.03C316.31 132.24 315.71 141.03 315.72 143.1C315.95 142.86 320.79 138.23 320.84 138.3C321.67 139.56 324.47 145.3 324.66 145.87C326.43 142.92 333.2 132.2 335.3 129.41C335.313 129.399 335.329 129.392 335.346 129.391C335.363 129.39 335.38 129.394 335.394 129.402C335.409 129.411 335.42 129.425 335.427 129.441C335.433 129.456 335.434 129.474 335.43 129.49C333.9 132.55 324.94 147 324.8 147C323.325 144.27 321.99 141.466 320.8 138.6C319.98 139.6 315.09 144.85 315.07 144.51C314.985 141.979 315.032 139.446 315.21 136.92Z" fill="#263238"/>
<path d="M188.3 136.7C200.88 161.53 213.66 221.26 214.85 229.25C215.66 234.68 187.11 239.59 187.11 235.83C187.11 231.01 181.35 174.63 181.9 152.35C182.2 140.06 185.7 131.57 188.3 136.7Z" fill="#EB9481"/>
<path d="M187 233.45C186.54 236.72 187.63 248.05 189.77 256.45C190.77 260.55 195.05 272 198.26 271.45C201.47 270.9 200.52 267.45 200.52 267.45C200.52 267.45 203.04 272.01 206.21 271.16C209.38 270.31 207.75 264.97 207.75 264.97C207.75 264.97 210.67 269.48 213.75 268.4C216.83 267.32 214.3 262.23 214.3 262.23C214.3 262.23 216.79 266.48 218.97 264.51C221.6 262.14 216.14 254.84 215.22 250.25C215.01 249.25 212.46 228.83 212.46 228.83L187 233.45Z" fill="#EB9481"/>
<path d="M214.34 262.16C210.34 256.78 209.52 253.73 209.02 247.16C209.013 247.138 208.999 247.118 208.98 247.104C208.961 247.09 208.938 247.083 208.915 247.083C208.892 247.083 208.869 247.09 208.85 247.104C208.831 247.118 208.817 247.138 208.81 247.16C208.72 253.65 209.2 257.62 214.09 262.39C214.33 262.6 214.53 262.41 214.34 262.16Z" fill="#263238"/>
<path d="M207.83 265.26C204.16 259.31 203.24 256.01 202.2 249.16C202.2 249.06 202.02 249.07 202.03 249.16C202.48 255.97 203.03 259.92 207.5 265.39C207.7 265.65 208 265.53 207.83 265.26Z" fill="#263238"/>
<path d="M200.23 267C197.1 261 195.94 257.41 195.79 250.63C195.782 250.603 195.766 250.579 195.743 250.562C195.721 250.545 195.693 250.536 195.665 250.536C195.637 250.536 195.609 250.545 195.587 250.562C195.564 250.579 195.548 250.603 195.54 250.63C195.02 257.56 196.44 262.03 200.04 267.09C200.29 267.38 200.43 267.34 200.23 267Z" fill="#263238"/>
<path d="M214.67 227.83C214.67 227.83 219.27 234.83 220.61 238.4C221.95 241.97 222.1 256.94 218.86 257.16C214.68 257.44 212.86 248.79 212.56 244.44C212.56 244.44 202.88 245.09 200.26 239.16C197.64 233.23 214.67 227.83 214.67 227.83Z" fill="#EB9481"/>
<path d="M217.69 256.85C213.69 254.36 213.63 248.62 213 244.42C212.994 244.357 212.972 244.297 212.938 244.245C212.903 244.193 212.856 244.149 212.801 244.119C212.746 244.088 212.685 244.072 212.622 244.07C212.559 244.069 212.497 244.082 212.44 244.11C208.37 244.11 202.62 242.93 200.16 239.41C200.155 239.396 200.147 239.384 200.137 239.374C200.126 239.364 200.114 239.356 200.1 239.351C200.086 239.347 200.072 239.345 200.057 239.346C200.043 239.348 200.029 239.352 200.016 239.36C200.004 239.367 199.993 239.377 199.985 239.389C199.976 239.401 199.971 239.414 199.968 239.429C199.966 239.443 199.966 239.458 199.97 239.472C199.974 239.486 199.981 239.499 199.99 239.51C202.11 243.65 207.67 245.27 212.13 244.98C212.71 249.29 213.02 255.05 217.66 256.89C217.69 256.9 217.71 256.87 217.69 256.85Z" fill="#263238"/>
<path d="M217.59 226.15L185.16 231.15C185.16 231.15 179.99 170.94 179.8 150.73C179.61 130.52 186.87 125.57 194.66 146.24C202.45 166.91 217.59 226.15 217.59 226.15Z" fill="#FFCC00"/>
<path d="M185 226.08C198.27 223.08 212.66 221.97 215.16 221.6C215.28 221.6 215.29 221.77 215.16 221.78C212.7 222.02 196.38 225.09 185 226.28C184.91 226.29 184.9 226.1 185 226.08Z" fill="#263238"/>
<path d="M256.88 446.62C254.63 447.35 188.68 446.36 186.26 444.77C185.97 444.59 185.93 438.63 186.01 430.46L182.8 381.93L224.53 382.05L227.83 424.05C227.83 424.05 237.19 428.37 244.91 432.15C248.288 433.685 251.571 435.422 254.74 437.35C257.23 439.43 259.13 445.9 256.88 446.62Z" fill="#EB9481"/>
<path d="M256.88 446.62C254.63 447.35 188.68 446.36 186.26 444.77C185.97 444.59 185.93 438.63 186.01 430.46C202.3 434.09 245.74 439.97 247.01 436.56C247.52 435.19 246.48 433.64 244.93 432.21C248.308 433.745 251.591 435.481 254.76 437.41C257.23 439.43 259.13 445.9 256.88 446.62Z" fill="#263238"/>
<path d="M165.18 205.3C165.18 205.3 177 330.72 177.26 332.24C177.26 332.44 177.39 334.76 177.5 338.53C178.16 359.22 179.78 423.74 179.78 423.74H229.36C229.36 423.74 226.13 347.32 224.27 329.5C221.9 306.75 207.33 205.3 207.33 205.3H165.18Z" fill="#37474F"/>
<path d="M183.17 336.48C181.644 310.44 179.347 284.44 176.28 258.48C174.54 243.88 172.44 229.33 170.36 214.77C170.36 214.64 170.14 214.65 170.16 214.77C174 240.68 176.71 266.77 179.05 292.88C181.39 318.99 183.05 345.04 184.05 371.18C184.66 385.98 185.12 400.8 185.59 415.61C185.603 415.674 185.637 415.732 185.687 415.773C185.737 415.815 185.8 415.837 185.865 415.837C185.931 415.837 185.994 415.815 186.044 415.773C186.094 415.732 186.128 415.674 186.14 415.61C185.48 389.25 184.72 362.85 183.17 336.48Z" fill="#263238"/>
<path d="M226.23 415.75C224.93 415.58 223.52 415.63 222.23 415.59C220.75 415.59 219.23 415.52 217.77 415.47C214.9 415.36 212.02 415.28 209.15 415.24C203.36 415.14 197.56 415.18 191.78 415.36L187 415.53C185.3 415.59 183.6 415.75 181.9 415.74C181.78 415.74 181.78 415.89 181.9 415.89C184.81 415.89 187.76 416.14 190.68 416.25C193.6 416.36 196.42 416.4 199.29 416.44C205.08 416.52 210.89 416.44 216.67 416.26C218.26 416.2 219.85 416.18 221.44 416.13L224 416C224.76 416 225.51 416 226.27 415.93C226.37 415.93 226.36 415.77 226.23 415.75Z" fill="#263238"/>
<path d="M201 205.3L178.35 368.66C178.03 356.48 177.71 345.22 177.5 338.53C177.39 334.76 177.3 332.44 177.26 332.24C176.98 330.72 165.18 205.3 165.18 205.3H201Z" fill="#263238"/>
<path d="M173.82 455.32C171.46 455.13 110.96 428.85 109.34 426.45C109.14 426.18 111.34 420.66 114.61 413.15L127.95 366.15L166.55 381.64L155.66 423.37C155.66 423.37 162.66 430.96 168.32 437.37C170.848 440.091 173.212 442.959 175.4 445.96C176.91 448.81 176.17 455.52 173.82 455.32Z" fill="#EB9481"/>
<path d="M173.82 455.32C171.46 455.13 110.96 428.85 109.34 426.45C109.14 426.18 111.34 420.66 114.61 413.15C128.26 422.77 166.09 444.89 168.61 442.23C169.61 441.17 169.24 439.33 168.36 437.41C170.888 440.131 173.252 442.999 175.44 446C176.91 448.81 176.17 455.52 173.82 455.32Z" fill="#263238"/>
<path d="M110.27 408.31L158.64 423.31C158.64 423.31 182.26 340.46 184.07 321C185.86 301.71 187.59 262.3 188.36 233.71C188.36 233.71 196.44 228.93 198.49 226.32C200.54 223.71 202.38 214.32 206.42 205.32H147.24C133.1 232.79 143.74 245.01 143.74 251C143.74 279.92 139.37 318.31 137.98 324C135.08 335.86 110.27 408.31 110.27 408.31Z" fill="#37474F"/>
<path d="M158.53 412.73C157.32 412.23 155.95 411.92 154.69 411.53C153.26 411.1 151.82 410.7 150.4 410.26C147.66 409.41 144.9 408.6 142.14 407.82C136.574 406.233 130.967 404.773 125.32 403.44L120.66 402.37C119.01 401.99 117.32 401.7 115.66 401.26C115.53 401.26 115.5 401.37 115.66 401.41C118.48 402.15 121.26 403.16 124.05 404.02C126.84 404.88 129.56 405.65 132.32 406.44C137.89 408.01 143.51 409.44 149.15 410.75C150.71 411.1 152.25 411.49 153.8 411.86L156.29 412.41C157.03 412.58 157.75 412.82 158.5 412.93C158.527 412.934 158.554 412.927 158.575 412.911C158.597 412.895 158.611 412.871 158.615 412.845C158.619 412.818 158.613 412.791 158.597 412.77C158.581 412.748 158.557 412.734 158.53 412.73Z" fill="#263238"/>
<path d="M199.87 225.67C197.046 226.968 194.365 228.556 191.87 230.41C189.22 232.23 186.78 234.32 184.23 236.27C184.13 236.35 184.23 236.51 184.33 236.44C187.02 234.72 189.84 233.21 192.5 231.44C195.171 229.819 197.688 227.958 200.02 225.88C200.09 225.8 200 225.62 199.87 225.67Z" fill="#263238"/>
<path d="M200.24 209C199.9 210.84 199.45 212.67 199.05 214.5C198.65 216.33 198.4 217.97 197.95 219.67C197.578 221.314 196.742 222.817 195.54 224C194.87 224.63 194.12 225.18 193.4 225.76C193.02 226.07 192.6 226.36 192.2 226.68C192.25 226.43 192.29 226.19 192.33 225.93C192.46 225.24 192.58 224.54 192.69 223.84C192.95 222.29 193.2 220.73 193.44 219.18C193.91 216.12 194.34 213.03 194.98 210C194.987 209.973 194.983 209.945 194.969 209.922C194.955 209.898 194.932 209.882 194.905 209.875C194.879 209.868 194.851 209.872 194.827 209.887C194.804 209.901 194.787 209.923 194.78 209.95C194.02 212.95 193.18 215.95 192.52 218.95C192.19 220.43 191.03 227.75 190.98 228.27C190.93 228.79 190.88 229.34 190.86 229.88C190.795 230.428 190.795 230.982 190.86 231.53C190.86 231.66 191.06 231.64 191.11 231.53C191.334 231.022 191.492 230.488 191.58 229.94C191.71 229.42 191.83 228.89 191.92 228.36C191.92 228.17 191.98 227.97 192.01 227.77C192.73 227.33 193.4 226.77 194.08 226.27C194.76 225.77 195.54 225.27 196.23 224.65C197.502 223.577 198.419 222.144 198.86 220.54C199.305 218.812 199.596 217.049 199.73 215.27C199.96 213.19 200.13 211.1 200.42 209.03C200.45 209 200.26 208.9 200.24 209Z" fill="#263238"/>
<path d="M199 129.26C198.05 141.01 196.87 153.09 194.13 164.57C191.99 173.51 187.13 180.46 177.43 181.39C168.43 182.25 155.98 180.39 149.38 173.58C146.3 170.41 145.63 166.43 146.44 162.19C147.57 156.3 156.74 124.42 159.53 114.46C161.23 108.4 162.91 102.25 165.67 96.55C171.45 84.55 177.67 85.55 178.53 85.4C179.34 85.02 184.38 83.56 190.86 86.64C192.565 87.4359 194.083 88.5832 195.313 90.0067C196.544 91.4302 197.459 93.0978 198 94.9C201.44 105.62 199.92 118.26 199 129.26Z" fill="#263238"/>
<path d="M176.39 86.87C168.46 89.33 165.56 97.23 162.76 104.27C158.86 114.08 155.12 123.96 151.86 134.01C150.3 138.84 148.86 143.71 147.53 148.61C146.28 153.31 144.65 158.28 144.31 163.15C143.75 171.15 150.55 175.83 157.47 177.94C157.539 177.963 157.614 177.957 157.679 177.924C157.744 177.891 157.793 177.834 157.815 177.765C157.838 177.696 157.832 177.621 157.799 177.556C157.766 177.492 157.709 177.442 157.64 177.42C153.72 176.07 149.77 174.42 147.18 170.99C143.85 166.63 144.99 161.69 146.12 156.77C148.06 148.39 150.47 140.14 153.12 131.98C155.77 123.82 158.83 115.74 161.95 107.73C164.95 100.1 167.72 89.9 176.37 87C176.5 87 176.47 86.84 176.39 86.87Z" fill="#263238"/>
<path d="M200.21 103.89C199.63 97.5998 197.27 91.2198 191.1 88.5698C199.04 92.3498 199.82 101.7 199.88 109.42C199.947 117.56 199.717 125.686 199.19 133.8C198.69 141.61 198.01 149.46 196.8 157.19C195.49 165.53 192.9 173.19 187.02 179.38C187.007 179.392 186.996 179.406 186.989 179.422C186.981 179.438 186.977 179.455 186.976 179.473C186.975 179.49 186.977 179.508 186.983 179.525C186.989 179.541 186.998 179.557 187.01 179.57C187.022 179.583 187.036 179.594 187.052 179.601C187.068 179.609 187.085 179.613 187.103 179.614C187.121 179.615 187.138 179.613 187.155 179.607C187.172 179.601 187.187 179.592 187.2 179.58C192.83 174.67 195.5 167.21 196.87 160.07C198.523 150.591 199.549 141.014 199.94 131.4C200.46 122.35 201.05 113 200.21 103.89Z" fill="#263238"/>
<path d="M175.92 130.86C176.3 131.86 182.13 137.96 186.85 137.13C188.38 136.85 187.25 128.4 187.25 128.4L187.31 127.76L188.13 118.76L177 113.5L175.41 112.82C175.41 112.82 175.34 115.3 175.3 118.38C175.3 118.53 175.3 118.67 175.3 118.82C175.29 118.99 175.29 119.16 175.3 119.33C175.3 119.79 175.3 120.26 175.3 120.73C175.3 121.2 175.3 121.43 175.3 121.8C175.3 122.17 175.3 122.55 175.3 122.92C175.327 125.577 175.534 128.23 175.92 130.86Z" fill="#EB9481"/>
<path d="M175.3 118.38C176.5 120.72 178.195 122.771 180.268 124.391C182.34 126.011 184.739 127.16 187.3 127.76L188.12 118.76L177 113.5L175.41 112.82C175.41 112.82 175.34 115.3 175.3 118.38Z" fill="#263238"/>
<path d="M199.57 105.51C200.83 121.31 191.51 123.85 188.1 124.12C185 124.36 174.43 124.8 171.55 109.2C168.67 93.5998 175.62 87.9998 182.67 87.0998C189.72 86.1998 198.32 89.6998 199.57 105.51Z" fill="#EB9481"/>
<path d="M196.91 102.15C196.55 102.097 196.193 102.023 195.84 101.93C195.449 101.906 195.077 101.755 194.78 101.5C194.705 101.401 194.664 101.279 194.664 101.155C194.664 101.03 194.705 100.909 194.78 100.81C194.959 100.638 195.179 100.516 195.42 100.456C195.66 100.396 195.912 100.401 196.15 100.47C196.66 100.534 197.126 100.792 197.45 101.19C197.521 101.283 197.563 101.395 197.571 101.512C197.579 101.629 197.553 101.745 197.496 101.847C197.438 101.949 197.352 102.032 197.248 102.086C197.144 102.14 197.027 102.162 196.91 102.15Z" fill="#263238"/>
<path d="M186.39 102.37C186.76 102.32 187.09 102.22 187.46 102.14C187.833 102.098 188.182 101.941 188.46 101.69C188.537 101.591 188.579 101.47 188.579 101.345C188.579 101.22 188.537 101.098 188.46 101C188.28 100.829 188.056 100.709 187.814 100.652C187.571 100.596 187.318 100.606 187.08 100.68C186.577 100.761 186.121 101.024 185.8 101.42C185.728 101.516 185.686 101.633 185.681 101.754C185.675 101.874 185.707 101.994 185.77 102.097C185.834 102.199 185.928 102.28 186.038 102.329C186.149 102.378 186.272 102.392 186.39 102.37Z" fill="#263238"/>
<path d="M188.86 106.36C188.86 106.36 188.78 106.36 188.78 106.45C188.85 107.53 188.78 108.78 187.78 109.17C187.78 109.17 187.78 109.24 187.78 109.23C189 109 189.1 107.37 188.86 106.36Z" fill="#263238"/>
<path d="M187.86 105.26C186.12 105.19 186.1 108.67 187.71 108.74C189.32 108.81 189.32 105.32 187.86 105.26Z" fill="#263238"/>
<path d="M187.18 105.44C186.87 105.64 186.57 105.98 186.18 106.02C185.79 106.06 185.44 105.69 185.18 105.34H185.12C185.12 106 185.35 106.69 186.12 106.79C186.89 106.89 187.25 106.3 187.42 105.63C187.41 105.55 187.3 105.36 187.18 105.44Z" fill="#263238"/>
<path d="M194.86 106.12C194.86 106.12 194.94 106.12 194.94 106.21C194.89 107.29 195.01 108.54 195.99 108.91C195.99 108.91 195.99 108.98 195.99 108.97C194.79 108.79 194.64 107.13 194.86 106.12Z" fill="#263238"/>
<path d="M195.84 105C197.57 104.9 197.66 108.38 196.05 108.48C194.44 108.58 194.38 105.09 195.84 105Z" fill="#263238"/>
<path d="M196.57 105.22C196.85 105.39 197.13 105.72 197.46 105.74C197.79 105.76 198.11 105.37 198.35 105H198.4C198.4 105.66 198.23 106.36 197.6 106.5C196.97 106.64 196.6 106.07 196.4 105.42C196.37 105.33 196.46 105.14 196.57 105.22Z" fill="#263238"/>
<path d="M193.28 111C193.28 111 193.51 112.61 193.51 113.37C193.51 113.45 193.33 113.48 193.07 113.5C192.418 113.623 191.744 113.564 191.123 113.33C190.502 113.095 189.958 112.694 189.55 112.17C189.536 112.154 189.528 112.133 189.529 112.111C189.53 112.09 189.539 112.069 189.555 112.055C189.571 112.04 189.592 112.033 189.614 112.033C189.635 112.034 189.656 112.044 189.67 112.06C190.64 112.72 191.798 113.046 192.97 112.99C193.02 112.78 192.48 110.24 192.6 110.23C193.191 110.277 193.774 110.405 194.33 110.61C193.95 107.24 193.03 103.96 192.69 100.61C192.69 100.583 192.701 100.558 192.719 100.539C192.738 100.52 192.764 100.51 192.79 100.51C192.817 100.51 192.842 100.52 192.861 100.539C192.88 100.558 192.89 100.583 192.89 100.61C193.987 104.097 194.734 107.685 195.12 111.32C195.15 111.66 193.58 111.1 193.28 111Z" fill="#263238"/>
<path d="M194.5 107.17C194.26 104.59 195.45 102.37 197.15 102.17C198.85 101.97 200.44 103.97 200.68 106.55C200.92 109.13 199.68 111.35 198.03 111.55C196.38 111.75 194.74 109.75 194.5 107.17ZM195.13 107.11C195.34 109.34 196.61 111.05 197.97 110.93C199.33 110.81 200.27 108.88 200.06 106.65C199.85 104.42 198.57 102.71 197.21 102.83C195.85 102.95 194.92 104.88 195.13 107.11Z" fill="#263238"/>
<path d="M182.75 108.28C182.729 107.425 182.958 106.583 183.408 105.856C183.859 105.13 184.512 104.551 185.287 104.19C186.062 103.829 186.926 103.703 187.772 103.826C188.618 103.949 189.41 104.317 190.05 104.884C190.69 105.451 191.15 106.192 191.375 107.017C191.599 107.842 191.578 108.715 191.314 109.528C191.05 110.341 190.554 111.059 189.887 111.594C189.22 112.129 188.411 112.458 187.56 112.54C186.359 112.608 185.179 112.199 184.278 111.401C183.377 110.603 182.828 109.481 182.75 108.28ZM183.38 108.22C183.508 108.939 183.842 109.605 184.341 110.138C184.841 110.67 185.485 111.046 186.195 111.218C186.904 111.39 187.649 111.353 188.337 111.109C189.025 110.865 189.628 110.427 190.071 109.846C190.514 109.266 190.779 108.569 190.833 107.841C190.886 107.113 190.727 106.385 190.374 105.746C190.02 105.106 189.489 104.584 188.844 104.242C188.198 103.9 187.468 103.754 186.74 103.82C185.712 103.959 184.781 104.501 184.151 105.325C183.521 106.15 183.244 107.191 183.38 108.22Z" fill="#263238"/>
<path d="M191.23 107.05C193.49 106.05 194.62 106.68 194.63 106.69L194.97 106.16C194.92 106.16 193.58 105.28 190.97 106.48L191.23 107.05Z" fill="#263238"/>
<path d="M183 107.84L183.06 107.21C182.64 107.21 172.94 106.31 171.9 106.35C170.86 106.39 168.39 108.06 168.12 108.25L168.48 108.77C169.507 107.993 170.656 107.392 171.88 106.99H172C172.76 107 179.55 107.53 183 107.84Z" fill="#263238"/>
<path d="M172 108.07C173.71 107.97 178.17 103.24 178.31 94.96C178.31 94.96 177.67 102.39 177.12 103.48C176.57 104.57 179.61 100.82 179.81 94.15C181.917 95.6528 184.227 96.8481 186.67 97.7C189.82 98.58 191.75 98.55 191.98 98.32C192.21 98.09 187.56 96.63 186.3 95.19C186.3 95.19 194.7 99.08 198.56 99.38C199.01 99.38 199.56 90.21 193.56 86.31C187.56 82.41 178.11 86.63 175.56 89.09C175.56 89.09 172.56 89.51 169.33 93.94C166.1 98.37 170.16 108.18 172 108.07Z" fill="#263238"/>
<path d="M174.16 110.22C174.16 110.22 170.73 105.22 168.48 106.46C166.23 107.7 168.77 114.87 171.4 115.87C171.729 116.021 172.085 116.105 172.446 116.116C172.808 116.127 173.168 116.064 173.505 115.933C173.842 115.801 174.149 115.603 174.408 115.35C174.666 115.097 174.871 114.794 175.01 114.46L174.16 110.22Z" fill="#EB9481"/>
<path d="M169.26 108.5V108.57C171.1 109.34 172.06 111.06 172.73 112.84C172.625 112.653 172.481 112.491 172.307 112.366C172.133 112.241 171.934 112.156 171.723 112.116C171.512 112.076 171.296 112.082 171.088 112.135C170.88 112.187 170.686 112.285 170.52 112.42C170.52 112.42 170.52 112.53 170.57 112.52C170.896 112.418 171.245 112.42 171.57 112.525C171.894 112.631 172.177 112.836 172.38 113.11C172.718 113.568 173.007 114.061 173.24 114.58C173.32 114.75 173.62 114.66 173.56 114.47C173.6 112.07 171.79 108.76 169.26 108.5Z" fill="#263238"/>
<path d="M173.61 115.51C173.612 115.74 173.546 115.965 173.42 116.157C173.294 116.349 173.113 116.499 172.901 116.589C172.69 116.678 172.456 116.702 172.23 116.659C172.005 116.615 171.797 116.505 171.634 116.344C171.471 116.182 171.359 115.975 171.314 115.75C171.268 115.525 171.29 115.291 171.378 115.078C171.465 114.866 171.614 114.684 171.805 114.556C171.996 114.428 172.221 114.36 172.45 114.36C172.756 114.36 173.05 114.481 173.267 114.696C173.484 114.911 173.608 115.204 173.61 115.51Z" fill="white"/>
<path d="M209 210.65C209 210.65 155.74 211.44 142.52 210.51C142.52 210.51 153.3 149.41 167.52 133.97C168.05 133.39 168.611 132.839 169.2 132.32C170.07 131.59 169.95 125.76 170.36 125.32C170.77 124.88 188.05 127.15 188.27 127.57C188.49 127.99 189.38 133.49 189.38 133.49C193.3 138.49 205.91 155.77 207.38 162.9C208.85 170.03 204.22 177.9 204.22 177.9L209 210.65Z" fill="#FFCC00"/>
<path d="M163.45 144.87C160.3 160.05 162.17 192.87 169.45 198.87C181.45 208.69 210.29 211.56 218.34 212.51C221.81 212.92 228.72 190.21 226.34 187.28C223.96 184.35 188.51 179.79 186.82 178.28C185.65 177.2 180.14 157.37 175.39 146.19C169 131.06 164.6 139.27 163.45 144.87Z" fill="#EB9481"/>
<path d="M220.34 185.45C220.34 185.45 230.98 185.34 237.94 185.6C241.83 185.74 248.46 186.6 251.27 188C255.46 190.11 271.66 201.61 268.95 205.6C266.5 209.21 261.68 204.46 261.68 204.46C261.68 204.46 267.44 209.15 263.91 211.99C260.38 214.83 254.67 208.05 254.67 208.05C254.67 208.05 261.13 212.61 257.07 215.27C253.55 217.59 246.16 210.47 246.16 210.47C246.16 210.47 253.47 214.47 250.09 217.24C246.36 220.24 233.94 210.96 233.94 210.96C225.04 212.96 219.43 212.96 212.89 211.89C211.69 211.69 220.34 185.45 220.34 185.45Z" fill="#EB9481"/>
<path d="M256.45 209.63L255 208.1C254.103 207.086 253.148 206.125 252.14 205.22C251.14 204.36 250.14 203.54 249.04 202.76C247.94 201.98 246.7 201.2 245.6 200.35C245.51 200.28 245.41 200.41 245.51 200.47C246.603 201.312 247.651 202.21 248.65 203.16C249.65 204.06 250.65 204.98 251.65 205.89C252.65 206.8 253.65 207.61 254.65 208.48C255.14 208.91 255.65 209.36 256.1 209.81C256.527 210.272 256.992 210.697 257.49 211.08C257.54 211.08 257.6 211.08 257.57 211C257.247 210.505 256.872 210.046 256.45 209.63Z" fill="#263238"/>
<path d="M262.86 205.46C261.256 203.521 259.518 201.697 257.66 200C255.779 198.314 253.732 196.823 251.55 195.55C251.47 195.55 251.39 195.61 251.45 195.67C253.33 197.36 255.24 199.02 257.15 200.67C258.08 201.48 262.2 205.3 262.68 205.67C262.79 205.73 262.93 205.57 262.86 205.46Z" fill="#263238"/>
<path d="M250.52 213.71C248.964 211.921 247.294 210.234 245.52 208.66C243.569 207.222 241.513 205.932 239.37 204.8C239.29 204.8 239.21 204.88 239.28 204.93C241.22 206.37 243.18 207.76 245.05 209.29C245.97 210.04 249.43 213.22 250.37 213.85C250.47 213.91 250.58 213.79 250.52 213.71Z" fill="#263238"/>
<path d="M210.36 213.45L223.05 183.86C223.05 183.86 188.29 178.11 187.22 177.41C186.15 176.71 179.81 153.63 175.74 144.57C171.67 135.51 164.68 130.19 161.98 149.64C159.28 169.09 163.19 192.84 167.1 197.78C171.84 203.76 190.61 211.33 210.36 213.45Z" fill="#FFCC00"/>
<path d="M192.5 209.71C187.3 208.3 182.23 205.84 177.26 203.71C172.99 201.92 168.63 199.71 166.26 195.52C165.155 193.387 164.383 191.097 163.97 188.73C163.42 186.09 162.97 183.42 162.59 180.73C162.13 177.663 161.717 174.59 161.35 171.51C161.17 169.93 160.99 168.35 160.83 166.77C160.67 165.19 160.38 163.61 160.32 162.02C160.32 161.999 160.312 161.978 160.297 161.963C160.282 161.948 160.261 161.94 160.24 161.94C160.219 161.94 160.198 161.948 160.183 161.963C160.168 161.978 160.16 161.999 160.16 162.02C160.27 163.48 160.16 164.95 160.28 166.42C160.28 167.42 160.4 168.34 160.47 169.3L160.19 168.69C159.882 167.989 159.647 167.259 159.49 166.51C159.49 166.42 159.32 166.46 159.34 166.51C159.52 167.26 159.7 168.02 159.91 168.76C160.01 169.12 160.13 169.48 160.27 169.84C160.354 170.082 160.451 170.319 160.56 170.55C160.8 173.423 161.11 176.283 161.49 179.13C161.86 181.89 162.29 184.63 162.78 187.37C163.143 189.793 163.787 192.166 164.7 194.44C165.608 196.584 166.997 198.489 168.76 200.01C170.587 201.51 172.604 202.761 174.76 203.73C179.634 205.982 184.672 207.86 189.83 209.35C196 211.29 197.88 211.16 192.5 209.71Z" fill="#263238"/>
<path d="M205.55 180.78C204.27 180.61 189.14 177.43 188.55 177.26C188.255 177.17 187.988 177.005 187.776 176.78C187.563 176.556 187.413 176.28 187.34 175.98C186.87 174.76 186.46 173.51 186.02 172.28C185.26 170.16 184.487 168.05 183.7 165.95C183.7 165.48 183.61 164.95 183.56 164.54C183.51 164.13 183.41 163.42 183.32 162.86C183.12 161.65 182.76 160.46 182.61 159.25C182.61 159.13 182.42 159.17 182.45 159.25C182.755 160.442 182.936 161.662 182.99 162.89C183.04 163.37 183.07 163.89 183.1 164.34C182.64 163.11 182.17 161.88 181.68 160.66C181.11 159.24 180.46 157.81 180 156.35C180 156.25 179.82 156.3 179.85 156.35C180.37 157.66 180.74 159.05 181.15 160.35C181.56 161.65 182 163.05 182.44 164.4C183.3 167.05 184.21 169.68 185.13 172.32C185.57 173.59 186 174.88 186.47 176.14C186.599 176.612 186.853 177.04 187.205 177.38C187.557 177.72 187.994 177.958 188.47 178.07C191.1 178.78 203.96 180.91 205.52 180.97C205.68 181.07 205.72 180.8 205.55 180.78Z" fill="#263238"/>
<path d="M216.62 184.32C214.62 188.57 212.62 192.79 210.81 197.13C208.979 201.399 207.374 205.762 206 210.2C205.992 210.22 205.993 210.242 206.001 210.262C206.01 210.281 206.026 210.297 206.045 210.305C206.065 210.313 206.088 210.313 206.107 210.304C206.127 210.296 206.142 210.28 206.15 210.26C208.15 206.09 209.9 201.76 211.67 197.47C213.44 193.18 215.05 188.77 216.84 184.47C216.93 184.29 216.7 184.15 216.62 184.32Z" fill="#263238"/>
<path d="M254 180.94C252.47 181.8 243.71 179.38 240.16 182.04C237.81 183.8 235.51 188.04 235.01 193.57C234.5 199.28 239.01 198.99 240.68 196.57C242.715 193.384 244.491 190.04 245.99 186.57C247.596 186.89 249.179 187.314 250.73 187.84L254 180.94Z" fill="#AD6359"/>
<path d="M243.26 200.87C240.55 198.03 227.01 208.44 231.26 213.17C235.51 217.9 246.32 204.09 243.26 200.87Z" fill="#AD6359"/>
<path d="M247.78 204.94C245.07 202.1 231.53 212.51 235.78 217.24C240.03 221.97 250.84 208.16 247.78 204.94Z" fill="#AD6359"/>
<path d="M251.34 206.38C248.49 204.17 237.63 215.52 242.18 219.22C246.73 222.92 254.57 208.88 251.34 206.38Z" fill="#AD6359"/>
<path d="M255.21 207C251.94 205.75 245.05 219.35 250.32 221.5C255.59 223.65 258.92 208.37 255.21 207Z" fill="#AD6359"/>
<path d="M242.86 205.55C242.108 206.054 241.399 206.619 240.74 207.24C240.01 207.88 239.29 208.53 238.63 209.24C237.987 209.911 237.382 210.619 236.82 211.36C236.23 212.16 235.74 213.03 235.14 213.81C235.129 213.817 235.12 213.826 235.114 213.838C235.108 213.849 235.104 213.861 235.104 213.874C235.103 213.887 235.106 213.9 235.111 213.912C235.117 213.923 235.125 213.933 235.136 213.941C235.146 213.949 235.158 213.954 235.171 213.956C235.183 213.958 235.196 213.957 235.209 213.953C235.221 213.949 235.232 213.942 235.241 213.933C235.25 213.923 235.257 213.912 235.26 213.9C235.853 213.146 236.498 212.434 237.19 211.77C237.84 211.09 238.45 210.38 239.1 209.69C239.75 209 240.33 208.33 240.97 207.69C241.61 207.05 242.33 206.39 242.97 205.69C243 205.6 242.93 205.51 242.86 205.55Z" fill="#263238"/>
<path d="M248.24 206.82C247.66 207.71 245.63 211.16 245.01 212.03C244.39 212.9 243.74 213.77 243.08 214.62C242.42 215.47 241.78 216.4 241.03 217.2C240.97 217.27 241.08 217.38 241.15 217.31C241.9 216.51 242.72 215.78 243.43 214.94C244.14 214.1 244.79 213.25 245.43 212.36C246.541 210.596 247.543 208.766 248.43 206.88C248.43 206.79 248.29 206.74 248.24 206.82Z" fill="#263238"/>
<path d="M252 208.76C251.4 210.08 250.88 211.45 250.27 212.76C249.97 213.41 249.66 214.06 249.36 214.76L248.94 215.71C248.808 216.088 248.641 216.453 248.44 216.8C248.38 216.88 248.54 216.97 248.58 216.86C248.781 216.464 249.015 216.086 249.28 215.73C249.45 215.43 249.63 215.13 249.79 214.83C250.13 214.163 250.44 213.513 250.72 212.88C251.304 211.584 251.792 210.247 252.18 208.88C252.196 208.856 252.202 208.827 252.196 208.799C252.19 208.771 252.174 208.746 252.15 208.73C252.126 208.714 252.097 208.708 252.069 208.714C252.041 208.72 252.016 208.736 252 208.76Z" fill="#263238"/>
</svg>
