<svg width="16" height="16" viewBox="0 0 16 16" fill="none" xmlns="http://www.w3.org/2000/svg">
<path d="M8.00016 1.33333C4.32683 1.33333 1.3335 4.32666 1.3335 8C1.3335 11.6733 4.32683 14.6667 8.00016 14.6667C11.6735 14.6667 14.6668 11.6733 14.6668 8C14.6668 4.32666 11.6735 1.33333 8.00016 1.33333ZM10.9002 10.38C10.8068 10.54 10.6402 10.6267 10.4668 10.6267C10.3802 10.6267 10.2935 10.6067 10.2135 10.5533L8.14683 9.31999C7.6335 9.01333 7.2535 8.34 7.2535 7.74666V5.01333C7.2535 4.74 7.48016 4.51333 7.7535 4.51333C8.02683 4.51333 8.2535 4.74 8.2535 5.01333V7.74666C8.2535 7.98666 8.4535 8.33999 8.66016 8.45999L10.7268 9.69333C10.9668 9.83333 11.0468 10.14 10.9002 10.38Z" fill="#C12127"/>
</svg>
