<svg width="500" height="500" viewBox="0 0 500 500" fill="none" xmlns="http://www.w3.org/2000/svg">
<path d="M214.74 88.8398H41.1499V244.14H214.74V88.8398Z" fill="#FAFAFA"/>
<path d="M214.74 244.14C214.74 244.14 214.74 243.14 214.74 241.26C214.74 239.38 214.74 236.57 214.74 232.94C214.74 225.65 214.68 214.99 214.64 201.42C214.59 174.28 214.52 135.51 214.44 88.8397L214.83 89.2298L41.1698 89.2998L41.6298 88.8397C41.6298 145.34 41.6298 198.51 41.6298 244.14L41.2198 243.74L166.77 243.94L202.19 244.05H211.56H213.98H214.81C214.81 244.05 214.55 244.05 214.02 244.05H211.65L202.36 244.1L167.04 244.21L41.2198 244.41H40.8098V244C40.8098 198.37 40.8098 145.2 40.7598 88.6997V88.2397H41.2398L214.81 88.3097H215.21V88.6997C215.13 135.47 215.06 174.33 215.01 201.52C215.01 215.06 214.93 225.69 214.91 232.96C214.91 236.56 214.91 239.32 214.91 241.21C214.91 243.1 214.74 244.14 214.74 244.14Z" fill="#E0E0E0"/>
<path d="M107.71 116.43C107.71 116.69 98.5699 116.9 87.3099 116.9C76.0499 116.9 66.8999 116.69 66.8999 116.43C66.8999 116.17 75.9999 116 87.3099 116C98.6199 116 107.71 116.18 107.71 116.43Z" fill="#E0E0E0"/>
<path d="M181.26 128.1C181.26 128.35 156.16 128.56 125.26 128.56C94.3599 128.56 69.1899 128.35 69.1899 128.1C69.1899 127.85 94.2899 127.63 125.26 127.63C156.23 127.63 181.26 127.84 181.26 128.1Z" fill="#E0E0E0"/>
<path d="M74.5097 147.85H67.1997V155.16H74.5097V147.85Z" fill="#E0E0E0"/>
<path d="M92.5097 147.85H85.1997V155.16H92.5097V147.85Z" fill="#E0E0E0"/>
<path d="M110.84 147.52H103.53V154.83H110.84V147.52Z" fill="#E0E0E0"/>
<path d="M128.51 147.85H121.2V155.16H128.51V147.85Z" fill="#E0E0E0"/>
<path d="M146.52 147.85H139.21V155.16H146.52V147.85Z" fill="#E0E0E0"/>
<path d="M164.52 147.85H157.21V155.16H164.52V147.85Z" fill="#E0E0E0"/>
<path d="M182.52 147.85H175.21V155.16H182.52V147.85Z" fill="#EBEBEB"/>
<path d="M74.5097 163.4H67.1997V170.71H74.5097V163.4Z" fill="#EBEBEB"/>
<path d="M92.5097 163.4H85.1997V170.71H92.5097V163.4Z" fill="#E0E0E0"/>
<path d="M110.51 163.4H103.2V170.71H110.51V163.4Z" fill="#EBEBEB"/>
<path d="M128.51 163.4H121.2V170.71H128.51V163.4Z" fill="#E0E0E0"/>
<path d="M146.52 163.4H139.21V170.71H146.52V163.4Z" fill="#E0E0E0"/>
<path d="M164.85 163.06H157.54V170.37H164.85V163.06Z" fill="#E0E0E0"/>
<path d="M182.52 163.4H175.21V170.71H182.52V163.4Z" fill="#E0E0E0"/>
<path d="M74.5097 178.94H67.1997V186.25H74.5097V178.94Z" fill="#E0E0E0"/>
<path d="M92.8398 178.61H85.5298V185.92H92.8398V178.61Z" fill="#E0E0E0"/>
<path d="M110.51 178.94H103.2V186.25H110.51V178.94Z" fill="#E0E0E0"/>
<path d="M128.51 178.94H121.2V186.25H128.51V178.94Z" fill="#EBEBEB"/>
<path d="M146.52 178.94H139.21V186.25H146.52V178.94Z" fill="#E0E0E0"/>
<path d="M164.52 178.94H157.21V186.25H164.52V178.94Z" fill="#E0E0E0"/>
<path d="M182.52 178.94H175.21V186.25H182.52V178.94Z" fill="#E0E0E0"/>
<path d="M74.5097 194.49H67.1997V201.8H74.5097V194.49Z" fill="#E0E0E0"/>
<path d="M92.5097 194.49H85.1997V201.8H92.5097V194.49Z" fill="#E0E0E0"/>
<path d="M110.51 194.49H103.2V201.8H110.51V194.49Z" fill="#E0E0E0"/>
<path d="M128.85 194.16H121.54V201.47H128.85V194.16Z" fill="#E0E0E0"/>
<path d="M146.52 194.49H139.21V201.8H146.52V194.49Z" fill="#E0E0E0"/>
<path d="M164.52 194.49H157.21V201.8H164.52V194.49Z" fill="#EBEBEB"/>
<path d="M182.52 194.49H175.21V201.8H182.52V194.49Z" fill="#E0E0E0"/>
<path d="M74.5097 210.04H67.1997V217.35H74.5097V210.04Z" fill="#E0E0E0"/>
<path d="M92.5097 210.04H85.1997V217.35H92.5097V210.04Z" fill="#EBEBEB"/>
<path d="M110.51 210.04H103.2V217.35H110.51V210.04Z" fill="#E0E0E0"/>
<path d="M128.51 210.04H121.2V217.35H128.51V210.04Z" fill="#E0E0E0"/>
<path d="M146.52 210.04H139.21V217.35H146.52V210.04Z" fill="#E0E0E0"/>
<path d="M164.85 209.71H157.54V217.02H164.85V209.71Z" fill="#E0E0E0"/>
<path d="M182.52 210.04H175.21V217.35H182.52V210.04Z" fill="#E0E0E0"/>
<path d="M410.765 51.8659L399.605 51.9263L399.905 107.435L411.065 107.375L410.765 51.8659Z" fill="#E0E0E0"/>
<path d="M331.847 52.0131L302.957 52.1694L303.123 82.809L332.012 82.6527L331.847 52.0131Z" fill="#EBEBEB"/>
<path d="M360.605 51.8476L331.716 52.0039L331.882 82.6435L360.771 82.4871L360.605 51.8476Z" fill="#F5F5F5"/>
<path d="M303 60.6499C322.2 60.8099 341.413 60.7199 360.64 60.3799C360.711 60.367 360.776 60.3293 360.822 60.2736C360.869 60.2178 360.894 60.1475 360.894 60.0749C360.894 60.0023 360.869 59.9321 360.822 59.8763C360.776 59.8206 360.711 59.7829 360.64 59.7699C341.45 59.6599 322.2 59.7699 303.01 60.1199C302.948 60.1319 302.893 60.1649 302.853 60.2133C302.813 60.2616 302.792 60.3223 302.792 60.3849C302.792 60.4476 302.813 60.5083 302.853 60.5566C302.893 60.605 302.948 60.638 303.01 60.6499H303Z" fill="#E0E0E0"/>
<path d="M337.45 82.1428L284.961 82.4268L285.096 107.396L337.585 107.112L337.45 82.1428Z" fill="#EBEBEB"/>
<path d="M389.688 81.86L337.199 82.144L337.334 107.114L389.823 106.83L389.688 81.86Z" fill="#F5F5F5"/>
<path d="M285 89.3897C319.87 89.7897 354.86 89.3897 389.72 88.8697C389.791 88.8567 389.856 88.8191 389.902 88.7633C389.949 88.7076 389.974 88.6373 389.974 88.5647C389.974 88.4921 389.949 88.4218 389.902 88.3661C389.856 88.3103 389.791 88.2727 389.72 88.2597C354.85 88.0797 319.86 88.0997 285 88.8597C284.938 88.8717 284.883 88.9047 284.843 88.953C284.803 89.0014 284.781 89.0621 284.781 89.1247C284.781 89.1873 284.803 89.248 284.843 89.2964C284.883 89.3447 284.938 89.3777 285 89.3897Z" fill="#E0E0E0"/>
<path d="M468.71 107.42H265.36V116.37H468.71V107.42Z" fill="#E0E0E0"/>
<path d="M306.9 111.72H298.65V142.25H306.9V111.72Z" fill="#E0E0E0"/>
<path d="M430.14 111.72H421.88V142.25H430.14V111.72Z" fill="#E0E0E0"/>
<path d="M421.652 31.1672L410.493 31.2275L410.906 107.566L422.066 107.506L421.652 31.1672Z" fill="#EBEBEB"/>
<path d="M439.294 43.3575L421.964 43.5308L422.583 105.401L439.913 105.227L439.294 43.3575Z" fill="#F5F5F5"/>
<path d="M439 57.32C436.12 57.616 433.223 57.7162 430.33 57.62C427.44 57.7161 424.546 57.6159 421.67 57.32C421.67 57.15 425.55 57.02 430.33 57.02C435.11 57.02 439 57.15 439 57.32Z" fill="#E0E0E0"/>
<path d="M439 54.7199C436.12 55.0159 433.223 55.1161 430.33 55.0199C427.44 55.1161 424.546 55.0158 421.67 54.7199C421.67 54.5499 425.55 54.4199 430.33 54.4199C435.11 54.4199 439 54.5499 439 54.7199Z" fill="#E0E0E0"/>
<path d="M439 97.9997C433.23 98.3997 427.44 98.3997 421.67 97.9997C421.67 97.8297 425.55 97.6997 430.33 97.6997C435.11 97.6997 439 97.7897 439 97.9997Z" fill="#E0E0E0"/>
<path d="M439 95.3601C433.23 95.7601 427.44 95.7601 421.67 95.3601C421.67 95.1901 425.55 95.0601 430.33 95.0601C435.11 95.0601 439 95.1901 439 95.3601Z" fill="#E0E0E0"/>
<path d="M430.57 89.6901C430.41 89.6901 430.27 83.4501 430.27 75.7501C430.27 68.0501 430.41 61.8101 430.57 61.8101C430.73 61.8101 430.87 68.0501 430.87 75.7501C430.87 83.4501 430.74 89.6901 430.57 89.6901Z" fill="#E0E0E0"/>
<path d="M458.02 60.5898H439.15V107.29H458.02V60.5898Z" fill="#EBEBEB"/>
<path d="M419.11 44.2198C419.11 44.8551 418.921 45.4761 418.568 46.0042C418.215 46.5323 417.713 46.9437 417.126 47.1864C416.539 47.429 415.893 47.492 415.27 47.3674C414.647 47.2427 414.075 46.936 413.627 46.486C413.178 46.0361 412.873 45.4632 412.75 44.8399C412.628 44.2165 412.693 43.5708 412.937 42.9844C413.182 42.3981 413.595 41.8974 414.124 41.5459C414.653 41.1944 415.275 41.0078 415.91 41.0098C416.76 41.0124 417.573 41.3518 418.173 41.9535C418.773 42.5552 419.11 43.3702 419.11 44.2198Z" fill="#E0E0E0"/>
<path d="M416.89 53.04H414.91V98.46H416.89V53.04Z" fill="#E0E0E0"/>
<path d="M74.2597 342.83C79.4997 340.13 85.6597 339.78 91.4697 340.74C94.5897 341.26 97.8397 342.19 99.9697 344.54C102.1 346.89 102.49 351.01 100.05 353.02C98.5997 354.22 96.5797 354.4 94.6997 354.38C90.1497 354.33 85.0997 353.53 81.4697 356.26C79.3897 357.83 78.0097 360.42 75.5397 361.19C73.0697 361.96 70.3697 360.51 69.0897 358.32C67.9068 356.042 67.6455 353.396 68.3597 350.93C68.6525 349.217 69.3374 347.594 70.3608 346.189C71.3843 344.784 72.7186 343.634 74.2597 342.83Z" fill="#213C90"/>
<path d="M62.27 319.69C65.47 324.26 71.69 322.74 74.58 319.96C77.47 317.18 78.68 313.12 79.79 309.27C82.32 300.46 84.88 291.27 82.99 282.27C82.5393 279.552 81.3452 277.012 79.54 274.93C78.6277 273.902 77.461 273.131 76.1569 272.696C74.8528 272.261 73.4572 272.176 72.11 272.45C68.97 273.28 67.03 276.35 65.62 279.28C61.4666 287.905 59.2904 297.348 59.25 306.92C59.25 311.37 59.76 316.04 62.25 319.72" fill="#213C90"/>
<path d="M53.4799 326.25C56.9599 322.12 57.6199 316.11 56.0699 310.94C54.5199 305.77 51.0699 301.38 47.0099 297.79C42.2728 293.577 36.7601 290.326 30.7799 288.22C28.4654 287.282 25.9744 286.859 23.4799 286.98C22.234 287.051 21.0243 287.425 19.956 288.07C18.8876 288.715 17.993 289.611 17.3499 290.68C15.6399 293.94 17.2799 297.89 19.0499 301.12C22.1723 306.801 25.7366 312.228 29.7099 317.35C32.9099 321.47 36.5699 325.53 41.4399 327.35C46.3099 329.17 51.3699 329 53.9999 325.66" fill="#213C90"/>
<path d="M62.0597 388.63C62.226 387.952 62.3231 387.258 62.3497 386.56C62.4897 385.04 62.6797 383.15 62.8997 380.89C63.1789 378.097 63.6028 375.32 64.1697 372.57C64.9101 369.226 65.9133 365.946 67.1697 362.76C68.4109 359.58 70.0941 356.59 72.1697 353.88C73.8641 351.676 76.0304 349.878 78.5097 348.62C80.199 347.799 82.0083 347.252 83.8697 347C84.5682 346.972 85.2619 346.871 85.9397 346.7C85.2419 346.622 84.5376 346.622 83.8397 346.7C81.9124 346.846 80.0264 347.334 78.2697 348.14C75.6644 349.373 73.3784 351.19 71.5897 353.45C69.4234 356.198 67.6745 359.251 66.3997 362.51C65.1111 365.75 64.1073 369.096 63.3997 372.51C62.8616 375.292 62.4909 378.104 62.2897 380.93C62.1097 383.34 62.0497 385.29 62.0097 386.64C61.9546 387.303 61.9714 387.971 62.0597 388.63Z" fill="#263238"/>
<path d="M62.4497 384.27C62.4873 383.938 62.4873 383.602 62.4497 383.27V380.51C62.4497 378.12 62.4497 374.66 62.5697 370.39C62.7797 361.84 63.5697 352.64 64.9397 339.67C66.2797 327.48 68.0897 313.28 69.9997 304.06C70.3997 301.96 70.8197 300.06 71.1997 298.42C71.5797 296.78 71.8897 295.33 72.1997 294.17C72.5097 293.01 72.6797 292.17 72.8497 291.5C72.9486 291.175 73.0057 290.839 73.0197 290.5C72.8664 290.783 72.752 291.086 72.6797 291.4C72.4697 292.09 72.2097 292.97 71.8797 294.04C71.5497 295.11 71.1597 296.6 70.7497 298.26C70.3397 299.92 69.8597 301.79 69.4097 303.88C67.055 314.778 65.2791 325.794 64.0897 336.88C62.6697 349.88 62.0297 361.71 61.9697 370.27C61.9697 374.56 61.9697 378.03 62.1197 380.42C62.1897 381.54 62.2497 382.42 62.2897 383.17C62.2929 383.542 62.3467 383.912 62.4497 384.27Z" fill="#263238"/>
<path d="M62.5001 361.45C62.5764 360.492 62.5764 359.529 62.5001 358.57C62.3372 355.957 62.0435 353.354 61.6201 350.77C60.9931 346.939 60.1484 343.146 59.0901 339.41C57.8422 334.825 56.2441 330.341 54.3101 326C50.9996 317.968 46.2557 310.605 40.3101 304.27C39.2799 303.188 38.1845 302.169 37.0301 301.22C36.5201 300.8 36.0801 300.37 35.6201 300.04L34.3501 299.16C33.6098 298.569 32.824 298.038 32.0001 297.57C31.8601 297.75 35.4301 299.86 39.9401 304.65C45.6666 311.043 50.2623 318.364 53.5301 326.3C55.4153 330.63 57.0121 335.08 58.3101 339.62C59.5501 343.8 60.3801 347.62 61.0001 350.87C61.6201 354.12 61.9401 356.76 62.1501 358.6C62.1997 359.557 62.3167 360.51 62.5001 361.45Z" fill="#263238"/>
<path d="M40.4497 401.71L42.7297 433.04H82.9797L85.2697 401.71H40.4497Z" fill="#263238"/>
<path d="M90.0701 389.36H36.5601V401.71H90.0701V389.36Z" fill="#263238"/>
<path d="M36.5601 431.84V435.26H39.0701H89.1901V431.84H36.5601Z" fill="#455A64"/>
<path d="M41.5398 441.29L39.0698 435.26H87.2698L84.3898 441.29H41.5398Z" fill="#455A64"/>
<path d="M84.5199 412C84.4699 412.102 84.4059 412.196 84.3299 412.28C84.1699 412.5 83.9799 412.76 83.7299 413.08L81.3899 416.08L81.2799 416.22L81.1799 416.08L75.4199 408.08H75.7499L70.0799 416.08L69.8999 416.33L69.6999 416.1L62.9799 408.1H63.3699C63.2499 408.24 63.1199 408.4 62.9999 408.56L56.9999 416.1L56.7999 416.35L56.6199 416.09L50.9399 408.09H51.2699C48.4799 411.28 46.0999 413.98 44.2699 416.09L44.1499 416.23L44.0599 416.07C43.1299 414.53 42.3999 413.29 41.8699 412.4C41.6399 412 41.4499 411.68 41.3099 411.4C41.2338 411.292 41.1732 411.175 41.1299 411.05C41.1299 411.05 41.2199 411.15 41.3699 411.36L41.9899 412.3L44.2899 415.91H44.0699L50.9399 407.85L51.1199 407.65L51.2699 407.87L56.9999 415.87H56.5999L62.5999 408.32L62.9699 407.86L63.1699 407.62L63.3599 407.85C65.7199 410.66 67.9799 413.37 70.0699 415.85H69.6899L75.4199 407.85L75.5899 407.62L75.7499 407.85L81.3899 415.91H81.1899L83.6299 413L84.2799 412.24C84.4332 412.033 84.5132 411.953 84.5199 412Z" fill="#E0E0E0"/>
<path d="M85.8298 401.5C85.8298 401.64 75.7398 401.75 63.3098 401.75C50.8798 401.75 40.7798 401.64 40.7798 401.5C40.7798 401.36 50.8598 401.25 63.3098 401.25C75.7598 401.25 85.8298 401.36 85.8298 401.5Z" fill="#455A64"/>
<path d="M87.8599 435.6C87.8599 435.74 76.8599 435.85 63.3799 435.85C49.8999 435.85 38.8999 435.74 38.8999 435.6C38.8999 435.46 49.8999 435.35 63.3799 435.35C76.8599 435.35 87.8599 435.46 87.8599 435.6Z" fill="#263238"/>
<path d="M363.1 309.11H456.63C460.643 309.11 464.491 310.704 467.329 313.541C470.166 316.379 471.76 320.227 471.76 324.24V441.86H348V324.24C348 320.232 349.59 316.389 352.421 313.552C355.252 310.715 359.092 309.118 363.1 309.11Z" fill="#455A64"/>
<path d="M461.34 309.79C461.49 309.79 461.6 339.34 461.6 375.79C461.6 412.24 461.49 441.79 461.34 441.79C461.19 441.79 461.08 412.24 461.08 375.79C461.08 339.34 461.2 309.79 461.34 309.79Z" fill="#263238"/>
<path d="M400.36 165C411.742 181.295 418.268 200.484 419.18 220.34C419.76 233.64 417.97 247.81 424.28 259.53C433.34 276.35 452.93 275.78 458.93 293.91C461.54 301.8 456.73 319.15 455.43 327.36C453.96 336.68 459.66 344.51 458.19 353.84C456.84 362.39 450.44 368.49 442.76 372.47C435.92 376.01 429.6 376.11 422.49 373.16C408.93 367.55 397.65 361.63 388 350.59C374.44 335.09 370.34 313.59 368 293.16C362.894 247.978 363.926 202.314 371.07 157.41" fill="#263238"/>
<path d="M429.35 375.07C429.491 375.024 429.635 374.988 429.78 374.96C430.07 374.89 430.51 374.82 431.07 374.65C435.288 373.503 439.069 371.125 441.93 367.82C443.007 366.56 443.829 365.103 444.35 363.53C444.849 361.74 445.135 359.897 445.2 358.04C445.273 353.757 444.837 349.48 443.9 345.3C443.03 340.76 441.9 335.92 441.56 330.67C441.395 327.99 441.587 325.299 442.13 322.67C442.757 319.938 443.607 317.263 444.67 314.67C445.759 312.009 446.714 309.296 447.53 306.54C448.378 303.722 448.617 300.757 448.23 297.84C447.764 294.937 446.654 292.176 444.98 289.76C443.345 287.408 441.442 285.254 439.31 283.34C435.18 279.48 430.71 276.34 426.89 272.72C420.076 266.414 414.577 258.821 410.71 250.38C409.212 247.148 407.968 243.805 406.99 240.38C406.51 238.89 406.23 237.45 405.89 236.15C405.55 234.85 405.4 233.63 405.18 232.55C404.87 230.36 404.63 228.67 404.57 227.55C404.57 226.99 404.49 226.55 404.47 226.23C404.45 225.91 404.47 225.78 404.47 225.78C404.47 225.78 404.47 225.93 404.54 226.23C404.61 226.53 404.63 226.98 404.7 227.54C404.79 228.69 405.06 230.38 405.4 232.54C405.63 233.62 405.88 234.82 406.15 236.13C406.42 237.44 406.79 238.84 407.29 240.33C408.294 243.721 409.554 247.03 411.06 250.23C414.954 258.594 420.447 266.116 427.23 272.37C431.03 275.91 435.51 279.08 439.68 282.96C441.84 284.902 443.77 287.086 445.43 289.47C447.148 291.952 448.286 294.789 448.76 297.77C449.16 300.756 448.917 303.794 448.05 306.68C447.27 309.52 446.18 312.21 445.17 314.85C444.115 317.411 443.266 320.053 442.63 322.75C442.09 325.343 441.898 327.996 442.06 330.64C442.33 335.82 443.49 340.64 444.35 345.21C445.271 349.426 445.687 353.736 445.59 358.05C445.506 359.938 445.204 361.811 444.69 363.63C444.135 365.231 443.283 366.713 442.18 368C440.416 370.046 438.27 371.728 435.86 372.95C434.359 373.747 432.763 374.352 431.11 374.75C430.533 374.901 429.944 375.008 429.35 375.07Z" fill="#455A64"/>
<path d="M243.16 410.8L291.16 388.01C291.16 388.01 309.85 297.26 313.39 290.45C316.93 283.64 331.69 277.75 331.69 277.75L329.22 400.63L324.82 429L257.14 435.41L243.16 410.8Z" fill="#213C90"/>
<path d="M202.21 432.3C201.94 432.3 200.61 433.12 201.72 435.23C202.83 437.34 210.97 444.31 213.36 441.88C215.75 439.45 212.1 436.49 212.1 436.49L202.21 432.3Z" fill="#FFBE9D"/>
<path d="M212.44 436.58C212.44 436.58 222.26 437.82 226.03 439.26C230.14 440.82 235.14 439.75 238.5 437.48C240.41 436.208 242.191 434.755 243.82 433.14L256.34 432.94C258.14 430.832 259.321 428.267 259.752 425.529C260.182 422.792 259.846 419.988 258.78 417.43C258.11 415.65 257.143 413.996 255.92 412.54C254.43 410.93 252.08 409.63 248.02 408.93L233.15 412.14C233.15 412.14 210.15 410.49 206.01 412.43C206.01 412.43 200.86 415.48 199.27 416.76C198.67 417.25 196.84 423.11 200.59 426.16C200.59 426.16 197.33 428.75 199.1 431.08L199.94 432.08C199.94 432.08 197.75 434.92 198.88 436.16C200.01 437.4 209.88 443.16 213.39 441.8C216.9 440.44 214 437.15 212.44 436.55" fill="#FFBE9D"/>
<path d="M203.06 421.09C203.475 421.212 203.883 421.359 204.28 421.53C205.05 421.82 206.18 422.24 207.6 422.69C208.3 422.92 209.08 423.15 209.93 423.37C210.78 423.59 211.69 423.78 212.64 424.09C213.674 424.373 214.608 424.937 215.34 425.72C215.743 426.154 216.023 426.688 216.15 427.266C216.276 427.845 216.245 428.447 216.06 429.01C215.825 429.576 215.396 430.041 214.85 430.32C214.336 430.572 213.78 430.728 213.21 430.78C212.164 430.842 211.114 430.785 210.08 430.61C208.349 430.33 206.648 429.888 205 429.29C203.59 428.79 202.48 428.29 201.71 427.99C201.302 427.842 200.91 427.655 200.54 427.43C200.958 427.541 201.369 427.678 201.77 427.84C202.55 428.12 203.68 428.55 205.09 429.01C206.718 429.562 208.391 429.974 210.09 430.24C211.082 430.395 212.088 430.442 213.09 430.38C213.608 430.334 214.114 430.191 214.58 429.96C215.033 429.723 215.387 429.333 215.58 428.86C215.742 428.374 215.773 427.854 215.671 427.353C215.57 426.851 215.338 426.384 215 426C214.319 425.27 213.451 424.741 212.49 424.47C211.57 424.16 210.65 423.96 209.81 423.72C208.97 423.48 208.18 423.23 207.48 422.99C206.06 422.5 204.95 421.99 204.19 421.7C203.795 421.532 203.417 421.328 203.06 421.09Z" fill="#EB996E"/>
<path d="M203.94 414C204.354 414.116 204.758 414.263 205.15 414.44C205.93 414.74 207.05 415.17 208.45 415.63C209.85 416.09 211.54 416.63 213.45 417.06C214.498 417.224 215.494 417.628 216.36 418.24C216.819 418.622 217.122 419.159 217.21 419.75C217.298 420.345 217.211 420.953 216.96 421.5C216.706 422.021 216.346 422.485 215.904 422.86C215.461 423.235 214.946 423.514 214.39 423.68C213.381 424.008 212.308 424.094 211.26 423.93C209.554 423.589 207.881 423.1 206.26 422.47L202.95 421.31C202.54 421.181 202.139 421.024 201.75 420.84C202.175 420.911 202.593 421.018 203 421.16L206.35 422.16C207.98 422.74 209.651 423.195 211.35 423.52C212.34 423.662 213.35 423.573 214.3 423.26C214.805 423.105 215.273 422.848 215.674 422.504C216.075 422.16 216.401 421.736 216.63 421.26C216.866 420.806 216.946 420.286 216.858 419.782C216.769 419.278 216.517 418.817 216.14 418.47C215.322 417.899 214.385 417.52 213.4 417.36C211.49 416.88 209.8 416.36 208.4 415.84C207 415.32 205.9 414.84 205.14 414.52C204.727 414.379 204.325 414.206 203.94 414Z" fill="#EB996E"/>
<path d="M208.67 416C208.465 415.347 208.315 414.678 208.22 414C207.994 413.35 207.83 412.681 207.73 412C208.207 412.52 208.517 413.172 208.62 413.87C208.87 414.555 208.888 415.304 208.67 416Z" fill="#EB996E"/>
<path d="M243.3 416.32L234.55 413C234.55 413 210.26 401.66 209.85 402.28C209.44 402.9 208.12 402.82 208.41 405.78C208.7 408.74 222.85 414.72 223.3 415.78C223.75 416.84 223 422 228.23 425.71C233.46 429.42 237.23 429.51 237.23 429.51" fill="#FFBE9D"/>
<path d="M237.23 429.42H237L236.4 429.36C235.63 429.238 234.871 429.054 234.13 428.81C231.403 427.881 228.883 426.431 226.71 424.54C225.238 423.162 224.197 421.387 223.71 419.43C223.459 418.354 223.285 417.261 223.19 416.16C223.173 416.034 223.143 415.91 223.1 415.79C223.043 415.693 222.964 415.611 222.87 415.55C222.642 415.384 222.405 415.231 222.16 415.09C221.67 414.8 221.16 414.52 220.62 414.24C218.52 413.11 216.27 411.98 214.01 410.68C212.852 410.027 211.727 409.316 210.64 408.55C210.077 408.155 209.549 407.714 209.06 407.23C208.8 406.982 208.575 406.699 208.39 406.39C208.291 406.22 208.223 406.034 208.19 405.84C208.17 405.661 208.17 405.48 208.19 405.3C208.11 404.576 208.239 403.844 208.56 403.19C208.759 402.881 209.021 402.619 209.33 402.42C209.456 402.339 209.57 402.241 209.67 402.13C209.67 402.13 209.67 402.13 209.75 402.04C209.799 402.003 209.859 401.985 209.92 401.99C209.977 401.984 210.034 401.984 210.09 401.99L210.36 402.06C211.67 402.46 212.88 402.99 214.09 403.49C216.49 404.49 218.78 405.49 220.96 406.49C225.33 408.49 229.23 410.27 232.51 411.81C233.33 412.18 234.1 412.57 234.84 412.89L236.98 413.73L240.41 415.09L242.57 415.96L243.12 416.2C243.25 416.2 243.31 416.28 243.31 416.29C243.31 416.3 243.24 416.29 243.11 416.23L242.54 416.04L240.35 415.23L236.89 414L234.73 413.19C233.97 412.88 233.2 412.5 232.38 412.13L220.8 406.9C218.61 405.9 216.32 404.9 213.92 403.9C212.72 403.41 211.5 402.9 210.24 402.49L210.02 402.44H209.94C209.94 402.44 209.94 402.38 209.94 402.34C210.22 402.52 210.01 402.4 210.07 402.44C209.951 402.588 209.809 402.716 209.65 402.82C209.383 402.984 209.158 403.206 208.99 403.47C208.709 404.058 208.598 404.713 208.67 405.36C208.664 405.673 208.736 405.982 208.88 406.26C209.047 406.538 209.249 406.793 209.48 407.02C209.953 407.486 210.465 407.911 211.01 408.29C212.09 409.07 213.22 409.75 214.34 410.4C216.59 411.7 218.82 412.84 220.93 413.97C221.46 414.26 221.93 414.54 222.48 414.85C222.738 414.997 222.988 415.157 223.23 415.33C223.376 415.428 223.493 415.563 223.57 415.72C223.621 415.866 223.654 416.017 223.67 416.17C223.765 417.259 223.929 418.342 224.16 419.41C224.617 421.315 225.61 423.05 227.02 424.41C229.151 426.296 231.617 427.764 234.29 428.74C235.018 428.997 235.763 429.201 236.52 429.35C236.78 429.41 236.98 429.43 237.12 429.45L237.23 429.42Z" fill="#EB996E"/>
<path d="M210.44 430.56C210.763 430.599 211.077 430.69 211.37 430.83C212.192 431.16 212.963 431.605 213.66 432.15C214.146 432.53 214.589 432.963 214.98 433.44C215.226 433.709 215.415 434.025 215.537 434.368C215.659 434.712 215.711 435.076 215.69 435.44C215.61 435.854 215.416 436.237 215.13 436.546C214.843 436.855 214.476 437.078 214.07 437.19C213.234 437.419 212.349 437.391 211.53 437.11C208.749 436.287 206.05 435.206 203.47 433.88C202.693 433.475 201.938 433.027 201.21 432.54C200.93 432.38 200.671 432.185 200.44 431.96C200.737 432.078 201.022 432.225 201.29 432.4C201.83 432.71 202.61 433.14 203.6 433.62C206.184 434.855 208.859 435.891 211.6 436.72C212.347 436.979 213.155 437.01 213.92 436.81C214.256 436.722 214.562 436.542 214.804 436.292C215.045 436.041 215.213 435.73 215.29 435.39C215.312 435.068 215.27 434.746 215.167 434.44C215.064 434.135 214.902 433.853 214.69 433.61C214.323 433.144 213.907 432.718 213.45 432.34C212.526 431.622 211.514 431.024 210.44 430.56Z" fill="#EB996E"/>
<g opacity="0.3">
<path d="M324.48 429C316.62 402.49 309.69 368.35 301.83 341.84C298.95 366.31 302.55 398.62 307.05 422.84C307.58 425.68 307.82 428.46 310.05 430.33L324.48 429Z" fill="black"/>
</g>
<path d="M311.61 410.8C311.5 410.8 311.17 409.07 310.1 406.42C309.471 404.875 308.718 403.384 307.85 401.96C306.766 400.232 305.527 398.605 304.15 397.1C302.752 395.611 301.219 394.255 299.57 393.05C298.218 392.072 296.786 391.209 295.29 390.47C292.73 389.21 291.01 388.75 291.04 388.65C291.457 388.699 291.866 388.796 292.26 388.94C292.734 389.06 293.198 389.213 293.65 389.4C294.263 389.614 294.864 389.861 295.45 390.14C296.99 390.845 298.463 391.689 299.85 392.66C301.542 393.864 303.113 395.231 304.54 396.74C305.938 398.283 307.184 399.957 308.26 401.74C309.124 403.195 309.857 404.725 310.45 406.31C310.72 406.98 310.88 407.61 311.05 408.16C311.204 408.627 311.324 409.105 311.41 409.59C311.515 409.986 311.582 410.391 311.61 410.8Z" fill="#263238"/>
<path d="M326.59 276.51C326.59 276.51 301.46 332.66 301.46 343C301.46 353.34 320.29 424.93 320.29 424.93C320.11 427.78 319.38 442.05 319.38 442.05L424.97 442.42L426.58 419.72L418.34 398.09L426.57 336.94C426.57 336.94 432.11 301.44 432.57 291.51C433.19 279.09 391.11 264.69 392.26 262.97L385 253.21L343.39 287L335.16 263.24L325.3 272.55L326.59 276.51Z" fill="#213C90"/>
<path d="M395.74 291.45C384.31 310.78 363.4 346 363.4 346L325.92 388.74C325.92 388.74 323.47 410.45 328.37 417.11C333.27 423.77 341.68 428.32 341.68 428.32C341.68 428.32 351.57 428.32 364.14 417.81C376.71 407.3 411.38 363.87 411.38 363.87L423.29 349.5C423.29 349.5 437.49 314.62 434.84 296.87C433.84 290.02 430.9 287.18 427.02 284.04C417.25 276.17 402.13 280.64 395.74 291.45Z" fill="#213C90"/>
<path d="M427.7 337.4C427.65 337.537 427.59 337.671 427.52 337.8C427.39 338.08 427.2 338.45 426.97 338.94C426.47 339.94 425.71 341.39 424.67 343.23C422.6 346.92 419.38 352.13 415.18 358.42C413.07 361.56 410.72 364.97 408.13 368.59C405.54 372.21 402.6 375.94 400.18 380.3C397.76 384.66 395.56 389.42 392.91 394.18C390.188 399.112 386.996 403.77 383.38 408.09C379.763 412.428 375.508 416.191 370.76 419.25C366.311 422.089 361.341 424.013 356.14 424.91C351.433 425.745 346.6 425.54 341.98 424.31C339.89 423.745 337.875 422.929 335.98 421.88C334.217 420.95 332.561 419.83 331.04 418.54C329.646 417.385 328.397 416.065 327.32 414.61C326.351 413.317 325.526 411.922 324.86 410.45C323.832 408.081 323.158 405.575 322.86 403.01C322.688 401.393 322.632 399.765 322.69 398.14C322.69 397.6 322.75 397.14 322.77 396.87C322.76 396.727 322.76 396.583 322.77 396.44C322.781 396.583 322.781 396.727 322.77 396.87C322.77 397.18 322.77 397.6 322.77 398.14C322.751 399.757 322.838 401.374 323.03 402.98C323.366 405.517 324.067 407.993 325.11 410.33C325.783 411.774 326.607 413.141 327.57 414.41C328.642 415.839 329.885 417.132 331.27 418.26C332.777 419.524 334.416 420.621 336.16 421.53C338.029 422.552 340.013 423.348 342.07 423.9C346.642 425.094 351.42 425.278 356.07 424.44C361.202 423.54 366.103 421.63 370.49 418.82C375.195 415.783 379.413 412.05 383 407.75C386.595 403.459 389.767 398.831 392.47 393.93C395.12 389.2 397.26 384.4 399.77 380.06C402.221 376.007 404.892 372.091 407.77 368.33C410.37 364.73 412.77 361.33 414.86 358.21C419.1 351.96 422.36 346.78 424.48 343.13C425.55 341.3 426.34 339.87 426.86 338.89L427.47 337.77C427.533 337.638 427.61 337.514 427.7 337.4Z" fill="#263238"/>
<path d="M324 386.83C324 386.9 323.47 387.23 322.78 388C321.861 388.975 321.295 390.229 321.172 391.563C321.049 392.897 321.376 394.233 322.1 395.36C322.63 396.24 323.1 396.67 323.1 396.73C323.1 396.79 322.47 396.45 321.81 395.57C320.948 394.403 320.546 392.96 320.68 391.516C320.815 390.071 321.477 388.727 322.54 387.74C322.927 387.301 323.435 386.984 324 386.83Z" fill="#263238"/>
<path d="M330.93 398.17C331.131 398.196 331.329 398.243 331.52 398.31L332.22 398.5L333.22 398.68C335.298 398.954 337.41 398.755 339.4 398.1C342.361 397.108 345.085 395.515 347.4 393.42C350.152 390.779 352.646 387.882 354.85 384.77C357.089 381.632 359.668 378.751 362.54 376.18C363.9 375.04 365.23 374.03 366.34 372.94C367.397 371.97 368.248 370.796 368.84 369.49C369.237 368.535 369.393 367.498 369.294 366.468C369.194 365.439 368.843 364.451 368.27 363.59C367.787 362.998 367.165 362.534 366.46 362.24C366.659 362.277 366.853 362.334 367.04 362.41C367.579 362.651 368.055 363.014 368.43 363.47C369.064 364.35 369.466 365.376 369.598 366.453C369.731 367.529 369.591 368.622 369.19 369.63C368.594 370.994 367.731 372.225 366.65 373.25C365.52 374.37 364.18 375.41 362.85 376.55C360.026 379.117 357.484 381.98 355.27 385.09C353.04 388.229 350.508 391.143 347.71 393.79C345.346 395.897 342.566 397.484 339.55 398.45C337.504 399.091 335.335 399.238 333.22 398.88L332.22 398.65C331.94 398.57 331.71 398.47 331.53 398.41C331.321 398.354 331.12 398.273 330.93 398.17Z" fill="#263238"/>
<path d="M400.83 285.51C400.704 285.719 400.564 285.919 400.41 286.11C400.08 286.53 399.66 287.11 399.13 287.78C397.99 289.2 396.42 291.32 394.5 293.96C389.607 300.896 385.155 308.134 381.17 315.63C376.45 324.39 372.55 332.52 369.56 338.32C368.08 341.23 366.86 343.57 365.97 345.17L365 347C364.891 347.219 364.761 347.427 364.61 347.62C364.686 347.388 364.783 347.163 364.9 346.95L365.84 345.06L369.27 338.15C372.17 332.3 376.03 324.15 380.75 315.37C384.739 307.85 389.25 300.619 394.25 293.73C396.25 291.12 397.82 289.02 399.01 287.64L400.37 286.03C400.504 285.84 400.659 285.666 400.83 285.51Z" fill="#263238"/>
<g opacity="0.3">
<path d="M322.8 396.44C327.67 399.08 333.03 398.8 338.47 397.74C343.963 396.642 348.908 393.682 352.47 389.36C351.647 394.173 349.393 398.627 346 402.14C342.54 405.53 337.52 407.49 332.76 406.62C328 405.75 323.18 401.27 322.76 396.44" fill="black"/>
</g>
<g opacity="0.3">
<path d="M368.9 367.58C371.991 372.345 373.07 378.141 371.9 383.7C376.03 377.38 377 369.38 375.9 361.91C374.8 354.44 371.75 347.39 368.37 340.64C368.37 340.64 364.65 346.94 364.61 347.64C364.43 351.28 365.77 358.12 366.47 361.69C367.404 362.586 368.1 363.701 368.497 364.933C368.893 366.165 368.977 367.477 368.74 368.75" fill="black"/>
</g>
<g opacity="0.3">
<path d="M339.32 422.6C349.26 430.35 364.01 430.71 374.88 424.35C385.35 418.22 391.8 407.18 397.78 396.63C407.05 380.29 418.35 360.08 424.97 342.5C424.97 342.5 406.42 367.81 400.83 378.72C397.104 386.095 392.874 393.206 388.17 400C382.848 407.656 375.653 413.82 367.271 417.904C358.888 421.989 349.6 423.857 340.29 423.33" fill="black"/>
</g>
<path d="M319.38 442C319.364 441.897 319.364 441.792 319.38 441.69C319.38 441.45 319.38 441.15 319.38 440.78C319.38 439.93 319.45 438.78 319.51 437.31C319.65 434.31 319.84 430.01 320.08 424.88V425C318.29 419 316.19 411.72 314.01 403.86C311.13 393.44 308.7 383.96 307.06 377.07C306.25 373.63 305.61 370.83 305.21 368.89C305.02 367.96 304.87 367.21 304.76 366.66C304.701 366.399 304.658 366.135 304.63 365.87C304.732 366.115 304.809 366.369 304.86 366.63L305.41 368.85C305.9 370.85 306.58 373.59 307.41 376.98C309.14 383.85 311.63 393.31 314.51 403.72C316.68 411.58 318.75 418.86 320.51 424.87V424.94C320.2 430.07 319.94 434.34 319.75 437.38C319.65 438.83 319.57 439.99 319.51 440.84C319.51 441.2 319.45 441.5 319.43 441.74C319.425 441.828 319.408 441.915 319.38 442Z" fill="#263238"/>
<path d="M425 283.46C425 283.54 423.92 283.16 422.19 282.73C419.934 282.161 417.625 281.826 415.3 281.73C412.974 281.666 410.648 281.847 408.36 282.27C406.6 282.6 405.53 282.9 405.51 282.82C405.732 282.677 405.975 282.569 406.23 282.5C406.903 282.268 407.587 282.071 408.28 281.91C410.573 281.375 412.926 281.139 415.28 281.21C417.652 281.281 420.005 281.658 422.28 282.33C422.961 282.528 423.629 282.768 424.28 283.05C424.78 283.3 425 283.42 425 283.46Z" fill="#263238"/>
<path d="M391.57 265C391.498 265.182 391.407 265.356 391.3 265.52L390.45 266.95C389.7 268.19 388.59 269.95 387.18 272.14C384.35 276.47 380.3 282.38 375.51 288.66C371.66 293.73 367.93 298.28 364.88 301.84L364.66 302.09L364.53 301.79C363.07 298.61 361.87 295.97 361 294.06C360.61 293.18 360.3 292.46 360.05 291.91C359.927 291.664 359.83 291.406 359.76 291.14C359.921 291.366 360.058 291.607 360.17 291.86C360.44 292.4 360.78 293.1 361.22 293.96C362.13 295.85 363.39 298.46 364.9 301.62L364.56 301.57C367.56 297.97 371.25 293.41 375.1 288.35C379.88 282.07 383.96 276.21 386.87 271.93L390.28 266.84L391.21 265.46C391.309 265.291 391.43 265.137 391.57 265Z" fill="#263238"/>
<path d="M415.88 426.27C415.73 426.27 416.19 421.06 416.88 414.67C417.57 408.28 418.28 403.12 418.42 403.14C418.56 403.16 418.1 408.34 417.42 414.73C416.74 421.12 416 426.28 415.88 426.27Z" fill="#263238"/>
<path d="M343.5 424.9C344.068 427.781 344.466 430.692 344.69 433.62C345.095 436.527 345.319 439.456 345.36 442.39C344.798 439.508 344.4 436.597 344.17 433.67C343.777 430.762 343.553 427.834 343.5 424.9Z" fill="#263238"/>
<path d="M396.91 310.69C396.862 310.492 396.766 310.308 396.632 310.153C396.498 309.999 396.329 309.88 396.139 309.804C395.949 309.729 395.744 309.7 395.54 309.72C395.337 309.74 395.142 309.809 394.97 309.92L394.9 309.98C394.743 310.12 394.626 310.298 394.559 310.497C394.492 310.696 394.478 310.91 394.518 311.116C394.559 311.322 394.652 311.514 394.789 311.673C394.927 311.832 395.103 311.953 395.301 312.023C395.499 312.094 395.712 312.111 395.919 312.074C396.125 312.037 396.319 311.947 396.48 311.812C396.642 311.678 396.765 311.504 396.839 311.307C396.913 311.11 396.934 310.897 396.9 310.69H396.91Z" fill="white"/>
<path d="M386.48 285.27C386.432 285.072 386.336 284.888 386.202 284.733C386.068 284.579 385.899 284.46 385.709 284.384C385.519 284.309 385.314 284.28 385.111 284.3C384.907 284.32 384.712 284.389 384.54 284.5L384.48 284.56C384.323 284.7 384.206 284.878 384.139 285.077C384.072 285.277 384.058 285.49 384.098 285.696C384.139 285.902 384.232 286.094 384.369 286.253C384.507 286.412 384.683 286.533 384.881 286.603C385.079 286.674 385.292 286.691 385.499 286.654C385.705 286.617 385.899 286.527 386.06 286.392C386.222 286.258 386.345 286.084 386.419 285.887C386.493 285.69 386.514 285.477 386.48 285.27Z" fill="white"/>
<path d="M362.55 305.74C362.501 305.541 362.406 305.357 362.272 305.203C362.138 305.049 361.969 304.929 361.779 304.854C361.589 304.779 361.384 304.75 361.18 304.77C360.977 304.79 360.781 304.859 360.61 304.97H360.55C360.393 305.109 360.275 305.287 360.208 305.486C360.141 305.684 360.126 305.897 360.166 306.103C360.206 306.309 360.298 306.501 360.435 306.661C360.571 306.82 360.747 306.941 360.944 307.012C361.142 307.084 361.354 307.102 361.561 307.066C361.768 307.03 361.961 306.941 362.123 306.808C362.285 306.675 362.41 306.501 362.485 306.305C362.559 306.109 362.582 305.897 362.55 305.69V305.74Z" fill="white"/>
<path d="M336.68 295.46C336.633 295.262 336.539 295.078 336.406 294.924C336.272 294.769 336.104 294.649 335.915 294.574C335.726 294.498 335.521 294.469 335.318 294.49C335.115 294.51 334.921 294.579 334.75 294.69L334.68 294.75C334.523 294.89 334.405 295.068 334.338 295.267C334.272 295.466 334.258 295.68 334.298 295.886C334.338 296.092 334.432 296.284 334.569 296.443C334.706 296.602 334.883 296.723 335.081 296.793C335.279 296.864 335.491 296.881 335.698 296.844C335.905 296.807 336.099 296.717 336.26 296.582C336.422 296.448 336.545 296.274 336.619 296.077C336.692 295.88 336.713 295.667 336.68 295.46Z" fill="white"/>
<path d="M332.11 285.33C332.062 285.131 331.966 284.947 331.832 284.793C331.698 284.639 331.529 284.519 331.339 284.444C331.149 284.368 330.944 284.34 330.74 284.36C330.537 284.38 330.342 284.448 330.17 284.56L330.1 284.62C329.939 284.759 329.817 284.939 329.747 285.14C329.676 285.342 329.66 285.558 329.7 285.768C329.739 285.978 329.833 286.173 329.972 286.335C330.111 286.497 330.29 286.62 330.491 286.692C330.692 286.763 330.908 286.78 331.118 286.742C331.328 286.704 331.524 286.611 331.687 286.473C331.85 286.335 331.974 286.157 332.046 285.957C332.119 285.756 332.137 285.54 332.1 285.33H332.11Z" fill="white"/>
<path d="M334.1 273.63C334.051 273.431 333.956 273.247 333.822 273.093C333.688 272.939 333.519 272.819 333.329 272.744C333.139 272.669 332.934 272.64 332.73 272.66C332.527 272.68 332.331 272.749 332.16 272.86L332.09 272.91C331.933 273.049 331.815 273.227 331.748 273.426C331.681 273.625 331.666 273.837 331.706 274.043C331.746 274.249 331.838 274.442 331.975 274.601C332.111 274.76 332.287 274.882 332.484 274.953C332.682 275.024 332.894 275.042 333.101 275.006C333.308 274.97 333.501 274.881 333.663 274.748C333.825 274.615 333.95 274.441 334.025 274.245C334.099 274.049 334.122 273.837 334.09 273.63H334.1Z" fill="white"/>
<path d="M319.77 289.73C319.722 289.532 319.627 289.348 319.492 289.193C319.358 289.039 319.189 288.92 318.999 288.844C318.809 288.769 318.604 288.74 318.401 288.76C318.197 288.78 318.002 288.849 317.83 288.96L317.76 289.01C317.604 289.149 317.486 289.327 317.418 289.526C317.351 289.725 317.337 289.938 317.376 290.144C317.416 290.35 317.509 290.542 317.645 290.701C317.782 290.86 317.957 290.982 318.155 291.053C318.352 291.124 318.565 291.142 318.771 291.106C318.978 291.071 319.172 290.982 319.334 290.848C319.496 290.715 319.62 290.542 319.695 290.346C319.77 290.15 319.792 289.937 319.76 289.73H319.77Z" fill="white"/>
<path d="M353 294.37C352.953 294.171 352.859 293.987 352.726 293.833C352.593 293.679 352.424 293.559 352.235 293.483C352.046 293.408 351.841 293.379 351.639 293.399C351.436 293.42 351.241 293.488 351.07 293.6L351 293.66C350.843 293.8 350.726 293.978 350.659 294.177C350.592 294.376 350.578 294.589 350.618 294.795C350.659 295.002 350.752 295.194 350.889 295.353C351.027 295.512 351.203 295.633 351.401 295.703C351.599 295.773 351.812 295.791 352.019 295.754C352.225 295.717 352.419 295.627 352.58 295.492C352.742 295.358 352.865 295.183 352.939 294.986C353.013 294.79 353.034 294.577 353 294.37Z" fill="white"/>
<path d="M324.86 315.24C324.812 315.041 324.716 314.857 324.582 314.703C324.448 314.549 324.279 314.429 324.089 314.354C323.899 314.279 323.694 314.25 323.491 314.27C323.287 314.29 323.092 314.359 322.92 314.47H322.85C322.693 314.609 322.576 314.787 322.508 314.986C322.441 315.184 322.427 315.397 322.466 315.603C322.506 315.809 322.599 316.001 322.735 316.161C322.872 316.32 323.047 316.441 323.244 316.512C323.442 316.584 323.654 316.602 323.861 316.566C324.068 316.53 324.262 316.441 324.424 316.308C324.586 316.175 324.71 316.001 324.785 315.805C324.86 315.609 324.882 315.397 324.85 315.19L324.86 315.24Z" fill="white"/>
<path d="M299.14 375.26C299.092 375.061 298.996 374.877 298.862 374.723C298.728 374.569 298.559 374.449 298.369 374.374C298.179 374.299 297.974 374.27 297.771 374.29C297.567 374.31 297.372 374.379 297.2 374.49L297.14 374.54C296.984 374.679 296.866 374.857 296.798 375.056C296.731 375.254 296.717 375.467 296.756 375.673C296.796 375.879 296.889 376.071 297.025 376.231C297.162 376.39 297.337 376.511 297.535 376.582C297.732 376.654 297.944 376.672 298.151 376.636C298.358 376.6 298.552 376.511 298.714 376.378C298.876 376.245 299 376.071 299.075 375.875C299.15 375.679 299.172 375.467 299.14 375.26Z" fill="white"/>
<path d="M308.32 340.64C308.272 340.441 308.176 340.257 308.042 340.103C307.908 339.949 307.739 339.829 307.549 339.754C307.359 339.678 307.154 339.65 306.951 339.67C306.747 339.69 306.552 339.759 306.38 339.87L306.31 339.93C306.153 340.07 306.036 340.248 305.969 340.447C305.902 340.646 305.888 340.859 305.928 341.066C305.969 341.272 306.062 341.464 306.199 341.623C306.337 341.782 306.513 341.903 306.711 341.973C306.909 342.043 307.122 342.061 307.329 342.024C307.536 341.987 307.729 341.897 307.891 341.762C308.052 341.628 308.175 341.453 308.249 341.256C308.323 341.06 308.344 340.847 308.31 340.64H308.32Z" fill="white"/>
<path d="M376 279.86C375.952 279.661 375.857 279.477 375.722 279.323C375.588 279.169 375.419 279.049 375.229 278.974C375.039 278.899 374.834 278.87 374.631 278.89C374.427 278.91 374.232 278.979 374.06 279.09L373.99 279.14C373.834 279.279 373.716 279.457 373.648 279.656C373.581 279.855 373.567 280.067 373.606 280.273C373.646 280.479 373.739 280.672 373.875 280.831C374.012 280.99 374.187 281.112 374.385 281.183C374.582 281.254 374.795 281.272 375.001 281.236C375.208 281.2 375.402 281.111 375.564 280.978C375.726 280.845 375.85 280.671 375.925 280.475C376 280.279 376.022 280.067 375.99 279.86H376Z" fill="white"/>
<path d="M408.24 348.78C408.191 348.581 408.096 348.397 407.962 348.243C407.828 348.089 407.659 347.969 407.469 347.894C407.279 347.819 407.074 347.79 406.87 347.81C406.667 347.83 406.471 347.899 406.3 348.01L406.23 348.07C406.069 348.21 405.947 348.389 405.877 348.591C405.806 348.792 405.79 349.008 405.83 349.218C405.869 349.428 405.963 349.623 406.102 349.786C406.241 349.948 406.419 350.07 406.62 350.142C406.822 350.213 407.038 350.231 407.248 350.192C407.458 350.154 407.654 350.061 407.817 349.923C407.98 349.786 408.103 349.607 408.176 349.407C408.248 349.206 408.267 348.99 408.23 348.78H408.24Z" fill="white"/>
<path d="M420.81 289.47C420.763 289.272 420.669 289.087 420.536 288.933C420.403 288.779 420.234 288.659 420.045 288.584C419.856 288.508 419.651 288.479 419.448 288.499C419.246 288.52 419.051 288.588 418.88 288.7L418.81 288.75C418.653 288.889 418.536 289.067 418.468 289.266C418.401 289.464 418.386 289.677 418.426 289.883C418.466 290.089 418.559 290.281 418.695 290.441C418.831 290.6 419.007 290.721 419.204 290.792C419.402 290.863 419.614 290.882 419.821 290.846C420.028 290.81 420.222 290.721 420.384 290.588C420.546 290.455 420.67 290.281 420.745 290.085C420.82 289.889 420.842 289.677 420.81 289.47Z" fill="white"/>
<path d="M415.88 328.31C415.832 328.111 415.736 327.927 415.602 327.773C415.468 327.619 415.299 327.499 415.109 327.424C414.919 327.348 414.714 327.32 414.51 327.34C414.307 327.36 414.112 327.428 413.94 327.54L413.87 327.6C413.709 327.739 413.587 327.919 413.517 328.12C413.446 328.322 413.43 328.538 413.47 328.748C413.509 328.958 413.603 329.153 413.742 329.315C413.881 329.477 414.06 329.6 414.261 329.672C414.462 329.743 414.678 329.76 414.888 329.722C415.098 329.684 415.294 329.591 415.457 329.453C415.62 329.315 415.744 329.137 415.816 328.937C415.889 328.736 415.907 328.52 415.87 328.31H415.88Z" fill="white"/>
<path d="M387.67 356.36C387.622 356.161 387.527 355.977 387.392 355.823C387.258 355.669 387.089 355.549 386.899 355.474C386.709 355.399 386.504 355.37 386.301 355.39C386.097 355.41 385.902 355.479 385.73 355.59L385.66 355.65C385.504 355.79 385.386 355.968 385.319 356.167C385.252 356.366 385.238 356.58 385.278 356.786C385.319 356.992 385.412 357.184 385.55 357.343C385.687 357.502 385.863 357.623 386.061 357.693C386.259 357.763 386.472 357.781 386.679 357.744C386.886 357.707 387.079 357.617 387.241 357.482C387.402 357.348 387.526 357.173 387.599 356.977C387.673 356.78 387.694 356.567 387.66 356.36H387.67Z" fill="white"/>
<path d="M388.86 333C388.812 332.802 388.716 332.618 388.582 332.463C388.448 332.309 388.279 332.19 388.089 332.114C387.899 332.039 387.694 332.01 387.49 332.03C387.287 332.05 387.092 332.119 386.92 332.23L386.85 332.29C386.689 332.43 386.567 332.609 386.497 332.811C386.426 333.012 386.41 333.229 386.45 333.438C386.489 333.648 386.583 333.844 386.722 334.006C386.861 334.168 387.04 334.291 387.241 334.362C387.442 334.433 387.658 334.451 387.868 334.413C388.078 334.374 388.274 334.281 388.437 334.144C388.6 334.006 388.724 333.828 388.796 333.627C388.869 333.426 388.887 333.21 388.85 333H388.86Z" fill="white"/>
<path d="M405.87 289.67C405.823 289.472 405.729 289.288 405.596 289.133C405.463 288.979 405.295 288.859 405.105 288.784C404.916 288.708 404.711 288.679 404.509 288.7C404.306 288.72 404.111 288.789 403.94 288.9L403.87 288.96C403.714 289.1 403.596 289.278 403.529 289.477C403.462 289.676 403.448 289.89 403.488 290.096C403.529 290.302 403.622 290.494 403.76 290.653C403.897 290.812 404.073 290.933 404.271 291.003C404.469 291.073 404.682 291.091 404.889 291.054C405.096 291.017 405.289 290.927 405.451 290.792C405.612 290.658 405.736 290.484 405.809 290.287C405.883 290.09 405.904 289.877 405.87 289.67Z" fill="white"/>
<path d="M383 267.05C382.953 266.852 382.859 266.668 382.726 266.513C382.593 266.359 382.424 266.239 382.235 266.164C382.046 266.088 381.841 266.059 381.638 266.08C381.436 266.1 381.241 266.168 381.07 266.28L381 266.33C380.843 266.469 380.726 266.647 380.658 266.846C380.591 267.045 380.576 267.257 380.616 267.463C380.656 267.669 380.749 267.861 380.885 268.021C381.021 268.18 381.197 268.301 381.394 268.373C381.592 268.444 381.804 268.462 382.011 268.426C382.218 268.39 382.412 268.301 382.574 268.168C382.735 268.035 382.86 267.861 382.935 267.665C383.01 267.469 383.032 267.257 383 267.05Z" fill="white"/>
<path d="M382.13 303.52C382.084 303.32 381.989 303.135 381.856 302.979C381.722 302.824 381.552 302.703 381.362 302.627C381.171 302.552 380.965 302.523 380.761 302.545C380.557 302.566 380.361 302.636 380.19 302.75L380.13 302.8C379.973 302.939 379.855 303.117 379.788 303.316C379.721 303.515 379.706 303.727 379.746 303.933C379.786 304.139 379.878 304.332 380.015 304.491C380.151 304.65 380.327 304.772 380.524 304.843C380.722 304.914 380.934 304.932 381.141 304.896C381.348 304.86 381.541 304.771 381.703 304.638C381.865 304.505 381.99 304.331 382.065 304.135C382.139 303.939 382.162 303.727 382.13 303.52Z" fill="white"/>
<path d="M352.89 414.77C352.841 414.578 352.747 414.4 352.617 414.25C352.487 414.101 352.323 413.984 352.139 413.909C351.955 413.834 351.757 413.803 351.559 413.819C351.361 413.835 351.17 413.897 351 414L350.93 414.05C350.774 414.189 350.656 414.367 350.588 414.566C350.521 414.764 350.507 414.977 350.546 415.183C350.586 415.389 350.679 415.581 350.815 415.741C350.952 415.9 351.127 416.021 351.325 416.092C351.522 416.163 351.734 416.182 351.941 416.146C352.148 416.11 352.342 416.021 352.504 415.888C352.666 415.754 352.79 415.581 352.865 415.385C352.94 415.189 352.962 414.977 352.93 414.77H352.89Z" fill="white"/>
<path d="M319.34 396.47C319.292 396.271 319.196 396.087 319.062 395.933C318.928 395.779 318.759 395.659 318.569 395.584C318.379 395.509 318.174 395.48 317.971 395.5C317.767 395.52 317.572 395.589 317.4 395.7L317.33 395.76C317.174 395.9 317.056 396.078 316.989 396.277C316.922 396.476 316.908 396.689 316.948 396.896C316.989 397.102 317.082 397.294 317.219 397.453C317.357 397.612 317.533 397.733 317.731 397.803C317.929 397.873 318.142 397.891 318.349 397.854C318.556 397.817 318.749 397.727 318.911 397.592C319.072 397.458 319.196 397.283 319.269 397.087C319.343 396.89 319.364 396.677 319.33 396.47H319.34Z" fill="white"/>
<path d="M292.21 405.44C292.162 405.242 292.066 405.058 291.932 404.903C291.798 404.749 291.629 404.63 291.439 404.554C291.249 404.479 291.044 404.45 290.84 404.47C290.637 404.49 290.442 404.559 290.27 404.67L290.21 404.72C290.053 404.859 289.935 405.037 289.868 405.236C289.801 405.435 289.786 405.647 289.826 405.854C289.866 406.06 289.959 406.252 290.095 406.411C290.231 406.57 290.407 406.692 290.604 406.763C290.802 406.834 291.014 406.852 291.221 406.816C291.428 406.781 291.622 406.692 291.783 406.558C291.945 406.425 292.07 406.252 292.145 406.056C292.22 405.86 292.242 405.647 292.21 405.44Z" fill="white"/>
<path d="M289.31 420.89C289.261 420.691 289.166 420.507 289.032 420.353C288.898 420.199 288.729 420.079 288.539 420.004C288.349 419.928 288.144 419.9 287.94 419.92C287.737 419.94 287.541 420.009 287.37 420.12L287.3 420.17C287.143 420.309 287.025 420.487 286.958 420.686C286.891 420.884 286.876 421.097 286.916 421.303C286.956 421.509 287.048 421.701 287.185 421.861C287.321 422.02 287.497 422.141 287.694 422.212C287.892 422.283 288.104 422.302 288.311 422.266C288.518 422.23 288.711 422.141 288.873 422.008C289.035 421.874 289.16 421.701 289.235 421.505C289.309 421.309 289.332 421.097 289.3 420.89H289.31Z" fill="white"/>
<path d="M314.74 426.06C314.691 425.861 314.596 425.677 314.462 425.523C314.328 425.369 314.159 425.249 313.969 425.174C313.779 425.098 313.574 425.07 313.37 425.09C313.167 425.11 312.971 425.178 312.8 425.29L312.74 425.35C312.583 425.49 312.466 425.668 312.399 425.867C312.332 426.066 312.318 426.279 312.358 426.485C312.398 426.692 312.492 426.884 312.629 427.043C312.766 427.202 312.943 427.323 313.141 427.393C313.339 427.463 313.552 427.481 313.758 427.444C313.965 427.407 314.159 427.317 314.32 427.182C314.482 427.047 314.605 426.873 314.679 426.676C314.752 426.48 314.773 426.267 314.74 426.06Z" fill="white"/>
<path d="M306.24 391.46C306.191 391.262 306.096 391.078 305.962 390.923C305.828 390.769 305.659 390.65 305.469 390.574C305.279 390.499 305.074 390.47 304.87 390.49C304.667 390.51 304.471 390.579 304.3 390.69L304.23 390.75C304.069 390.89 303.947 391.069 303.877 391.271C303.806 391.472 303.79 391.689 303.83 391.898C303.869 392.108 303.963 392.304 304.102 392.466C304.241 392.628 304.419 392.751 304.62 392.822C304.822 392.893 305.038 392.911 305.248 392.872C305.458 392.834 305.654 392.741 305.817 392.604C305.98 392.466 306.103 392.288 306.176 392.087C306.248 391.886 306.267 391.67 306.23 391.46H306.24Z" fill="white"/>
<path d="M337.44 400.26C337.394 400.06 337.299 399.874 337.166 399.719C337.032 399.563 336.862 399.443 336.672 399.367C336.481 399.291 336.275 399.263 336.071 399.284C335.867 399.306 335.671 399.376 335.5 399.49L335.44 399.54C335.283 399.679 335.165 399.857 335.098 400.056C335.031 400.254 335.016 400.467 335.056 400.673C335.096 400.879 335.188 401.071 335.325 401.231C335.461 401.39 335.637 401.511 335.834 401.582C336.032 401.653 336.244 401.672 336.451 401.636C336.658 401.6 336.852 401.511 337.013 401.378C337.175 401.244 337.3 401.071 337.375 400.875C337.449 400.679 337.472 400.467 337.44 400.26Z" fill="white"/>
<path d="M411.61 391.41C411.565 391.21 411.472 391.024 411.339 390.869C411.207 390.713 411.038 390.592 410.848 390.516C410.658 390.441 410.452 390.412 410.249 390.434C410.045 390.455 409.85 390.526 409.68 390.64L409.61 390.69C409.453 390.829 409.335 391.007 409.268 391.206C409.201 391.404 409.186 391.617 409.226 391.823C409.266 392.029 409.358 392.221 409.495 392.381C409.631 392.54 409.807 392.661 410.004 392.732C410.202 392.803 410.414 392.822 410.621 392.786C410.828 392.75 411.021 392.661 411.183 392.528C411.345 392.394 411.47 392.221 411.545 392.025C411.619 391.829 411.642 391.617 411.61 391.41Z" fill="white"/>
<path d="M365.72 435.38C365.672 435.181 365.576 434.997 365.442 434.843C365.308 434.689 365.139 434.569 364.949 434.494C364.759 434.419 364.554 434.39 364.35 434.41C364.147 434.43 363.952 434.499 363.78 434.61L363.71 434.67C363.553 434.81 363.436 434.988 363.369 435.187C363.302 435.386 363.288 435.6 363.328 435.806C363.369 436.012 363.462 436.204 363.599 436.363C363.737 436.522 363.913 436.643 364.111 436.713C364.309 436.783 364.522 436.801 364.729 436.764C364.935 436.727 365.129 436.637 365.29 436.502C365.452 436.368 365.575 436.194 365.649 435.997C365.723 435.8 365.744 435.587 365.71 435.38H365.72Z" fill="white"/>
<path d="M385.29 410.9C385.243 410.702 385.149 410.518 385.016 410.363C384.883 410.209 384.714 410.089 384.525 410.014C384.336 409.938 384.131 409.909 383.929 409.93C383.726 409.95 383.531 410.019 383.36 410.13L383.29 410.19C383.133 410.33 383.016 410.508 382.949 410.707C382.882 410.906 382.868 411.12 382.908 411.326C382.949 411.532 383.042 411.724 383.179 411.883C383.317 412.042 383.493 412.163 383.691 412.233C383.889 412.303 384.102 412.321 384.309 412.284C384.515 412.247 384.709 412.157 384.871 412.022C385.032 411.888 385.155 411.714 385.229 411.517C385.303 411.32 385.324 411.107 385.29 410.9Z" fill="white"/>
<path d="M396.92 430.81C396.876 430.611 396.784 430.426 396.653 430.269C396.523 430.113 396.357 429.99 396.169 429.911C395.981 429.831 395.777 429.798 395.574 429.814C395.37 429.829 395.174 429.893 395 430L394.94 430.06C394.783 430.2 394.666 430.378 394.599 430.577C394.532 430.776 394.518 430.99 394.558 431.196C394.599 431.402 394.692 431.594 394.829 431.753C394.967 431.912 395.143 432.033 395.341 432.103C395.539 432.174 395.752 432.191 395.959 432.154C396.165 432.117 396.359 432.027 396.52 431.892C396.682 431.758 396.805 431.584 396.879 431.387C396.953 431.19 396.974 430.977 396.94 430.77L396.92 430.81Z" fill="white"/>
<path d="M364.57 326.55C364.522 326.351 364.426 326.167 364.292 326.013C364.158 325.859 363.989 325.739 363.799 325.664C363.609 325.589 363.404 325.56 363.201 325.58C362.997 325.6 362.802 325.669 362.63 325.78L362.56 325.84C362.403 325.98 362.286 326.158 362.219 326.357C362.152 326.556 362.138 326.769 362.178 326.976C362.219 327.182 362.312 327.374 362.449 327.533C362.587 327.692 362.763 327.813 362.961 327.883C363.159 327.953 363.372 327.971 363.579 327.934C363.786 327.897 363.979 327.807 364.141 327.672C364.302 327.538 364.425 327.363 364.499 327.167C364.573 326.97 364.594 326.757 364.56 326.55H364.57Z" fill="white"/>
<path d="M390.9 377.38C390.852 377.181 390.756 376.997 390.622 376.843C390.488 376.689 390.319 376.569 390.129 376.494C389.939 376.419 389.734 376.39 389.531 376.41C389.327 376.43 389.132 376.499 388.96 376.61L388.89 376.66C388.734 376.799 388.616 376.977 388.548 377.176C388.481 377.375 388.467 377.587 388.506 377.793C388.546 377.999 388.639 378.192 388.775 378.351C388.912 378.51 389.087 378.632 389.285 378.703C389.482 378.774 389.694 378.792 389.901 378.756C390.108 378.72 390.302 378.631 390.464 378.498C390.626 378.365 390.75 378.191 390.825 377.995C390.9 377.799 390.922 377.587 390.89 377.38H390.9Z" fill="white"/>
<path d="M382.36 396.63C382.312 396.431 382.216 396.247 382.082 396.093C381.948 395.939 381.779 395.819 381.589 395.744C381.399 395.669 381.194 395.64 380.991 395.66C380.787 395.68 380.592 395.749 380.42 395.86L380.35 395.91C380.193 396.049 380.076 396.227 380.008 396.426C379.941 396.625 379.927 396.837 379.966 397.043C380.006 397.249 380.099 397.442 380.235 397.601C380.372 397.76 380.547 397.882 380.744 397.953C380.942 398.024 381.154 398.042 381.361 398.006C381.568 397.97 381.762 397.881 381.924 397.748C382.086 397.615 382.21 397.441 382.285 397.245C382.36 397.049 382.382 396.837 382.35 396.63H382.36Z" fill="white"/>
<path d="M410.43 412.09C410.382 411.891 410.286 411.707 410.152 411.553C410.018 411.399 409.849 411.279 409.659 411.204C409.469 411.129 409.264 411.1 409.06 411.12C408.857 411.14 408.662 411.209 408.49 411.32L408.42 411.38C408.263 411.52 408.146 411.698 408.079 411.897C408.012 412.096 407.998 412.31 408.038 412.516C408.079 412.722 408.172 412.914 408.309 413.073C408.447 413.232 408.623 413.353 408.821 413.423C409.019 413.493 409.232 413.511 409.439 413.474C409.645 413.437 409.839 413.347 410 413.212C410.162 413.078 410.285 412.904 410.359 412.707C410.433 412.51 410.454 412.297 410.42 412.09H410.43Z" fill="white"/>
<path d="M333.62 434.42C333.574 434.22 333.479 434.034 333.346 433.879C333.212 433.724 333.042 433.603 332.852 433.527C332.661 433.451 332.455 433.423 332.251 433.444C332.047 433.466 331.851 433.536 331.68 433.65L331.61 433.7C331.453 433.839 331.335 434.017 331.268 434.216C331.201 434.414 331.186 434.627 331.226 434.833C331.266 435.039 331.358 435.231 331.495 435.391C331.631 435.55 331.807 435.671 332.004 435.742C332.202 435.814 332.414 435.832 332.621 435.796C332.828 435.76 333.021 435.671 333.183 435.538C333.345 435.405 333.47 435.231 333.545 435.035C333.619 434.839 333.642 434.627 333.61 434.42H333.62Z" fill="white"/>
<path d="M269.62 428.57C269.572 428.371 269.477 428.187 269.342 428.033C269.208 427.879 269.039 427.759 268.849 427.684C268.659 427.609 268.454 427.58 268.251 427.6C268.047 427.62 267.852 427.689 267.68 427.8L267.61 427.86C267.449 428 267.327 428.179 267.257 428.381C267.187 428.582 267.171 428.798 267.21 429.008C267.25 429.218 267.343 429.413 267.482 429.576C267.621 429.738 267.8 429.861 268.001 429.932C268.202 430.003 268.418 430.021 268.628 429.982C268.838 429.944 269.034 429.851 269.197 429.713C269.36 429.576 269.484 429.398 269.556 429.197C269.629 428.996 269.647 428.78 269.61 428.57H269.62Z" fill="white"/>
<path d="M326 418.06C325.952 417.861 325.856 417.677 325.722 417.523C325.588 417.369 325.419 417.249 325.229 417.174C325.039 417.098 324.834 417.07 324.631 417.09C324.427 417.11 324.232 417.178 324.06 417.29L323.99 417.35C323.829 417.489 323.707 417.669 323.637 417.87C323.567 418.072 323.55 418.288 323.59 418.498C323.629 418.708 323.723 418.903 323.862 419.065C324.001 419.227 324.18 419.35 324.381 419.422C324.582 419.493 324.798 419.51 325.008 419.472C325.218 419.434 325.414 419.341 325.577 419.203C325.74 419.065 325.864 418.887 325.936 418.687C326.009 418.486 326.027 418.27 325.99 418.06H326Z" fill="white"/>
<path d="M272 406.63C271.954 406.43 271.859 406.244 271.726 406.089C271.592 405.933 271.422 405.813 271.232 405.737C271.041 405.661 270.835 405.633 270.631 405.654C270.427 405.676 270.231 405.746 270.06 405.86L270 405.91C269.843 406.049 269.726 406.227 269.658 406.426C269.591 406.624 269.576 406.837 269.616 407.043C269.656 407.249 269.749 407.441 269.885 407.601C270.021 407.76 270.197 407.881 270.394 407.952C270.592 408.023 270.804 408.042 271.011 408.006C271.218 407.97 271.412 407.881 271.574 407.748C271.735 407.615 271.86 407.441 271.935 407.245C272.01 407.049 272.032 406.837 272 406.63Z" fill="white"/>
<path d="M362.2 370.33C362.152 370.131 362.056 369.947 361.922 369.793C361.788 369.639 361.619 369.519 361.429 369.444C361.239 369.368 361.034 369.34 360.83 369.36C360.627 369.38 360.432 369.448 360.26 369.56L360.19 369.61C360.033 369.749 359.915 369.927 359.848 370.126C359.781 370.324 359.766 370.537 359.806 370.743C359.846 370.949 359.938 371.141 360.075 371.301C360.211 371.46 360.387 371.581 360.584 371.652C360.782 371.723 360.994 371.742 361.201 371.706C361.408 371.67 361.602 371.581 361.763 371.448C361.925 371.314 362.05 371.141 362.125 370.945C362.199 370.749 362.222 370.537 362.19 370.33H362.2Z" fill="white"/>
<path d="M343.32 315.24C343.272 315.041 343.176 314.857 343.042 314.703C342.908 314.549 342.739 314.429 342.549 314.354C342.359 314.279 342.154 314.25 341.951 314.27C341.747 314.29 341.552 314.359 341.38 314.47H341.31C341.153 314.609 341.036 314.787 340.968 314.986C340.901 315.184 340.886 315.397 340.926 315.603C340.966 315.809 341.059 316.001 341.195 316.161C341.331 316.32 341.507 316.441 341.704 316.512C341.902 316.584 342.114 316.602 342.321 316.566C342.528 316.53 342.722 316.441 342.884 316.308C343.046 316.175 343.17 316.001 343.245 315.805C343.32 315.609 343.342 315.397 343.31 315.19L343.32 315.24Z" fill="white"/>
<path d="M338.6 363C338.552 362.802 338.456 362.618 338.322 362.463C338.188 362.309 338.019 362.19 337.829 362.114C337.639 362.039 337.434 362.01 337.231 362.03C337.027 362.05 336.832 362.119 336.66 362.23L336.6 362.29C336.444 362.43 336.326 362.608 336.259 362.807C336.192 363.007 336.178 363.22 336.218 363.426C336.259 363.632 336.352 363.824 336.489 363.983C336.627 364.142 336.803 364.263 337.001 364.333C337.199 364.404 337.412 364.421 337.619 364.384C337.826 364.347 338.019 364.257 338.181 364.122C338.342 363.988 338.466 363.814 338.539 363.617C338.613 363.42 338.634 363.207 338.6 363Z" fill="white"/>
<path d="M330.92 347.43C330.872 347.231 330.776 347.047 330.642 346.893C330.508 346.739 330.339 346.619 330.149 346.544C329.959 346.469 329.754 346.44 329.55 346.46C329.347 346.48 329.152 346.549 328.98 346.66H328.92C328.763 346.799 328.645 346.977 328.578 347.176C328.511 347.374 328.496 347.587 328.536 347.793C328.576 347.999 328.669 348.191 328.805 348.351C328.941 348.51 329.117 348.631 329.314 348.702C329.512 348.773 329.724 348.792 329.931 348.756C330.138 348.72 330.332 348.631 330.493 348.498C330.655 348.365 330.78 348.191 330.855 347.995C330.929 347.799 330.952 347.587 330.92 347.38V347.43Z" fill="white"/>
<path d="M364.89 396.41C364.842 396.211 364.747 396.027 364.612 395.873C364.478 395.719 364.309 395.599 364.119 395.524C363.929 395.449 363.724 395.42 363.521 395.44C363.317 395.46 363.122 395.529 362.95 395.64L362.88 395.7C362.719 395.839 362.597 396.019 362.527 396.22C362.457 396.422 362.441 396.638 362.48 396.848C362.52 397.058 362.613 397.253 362.752 397.415C362.891 397.577 363.07 397.7 363.271 397.772C363.472 397.843 363.688 397.861 363.898 397.822C364.108 397.784 364.304 397.691 364.467 397.553C364.63 397.416 364.754 397.237 364.826 397.037C364.899 396.836 364.918 396.62 364.88 396.41H364.89Z" fill="white"/>
<path d="M340.94 386.8C340.897 386.598 340.806 386.409 340.674 386.25C340.542 386.091 340.372 385.966 340.181 385.887C339.99 385.809 339.783 385.778 339.577 385.797C339.371 385.817 339.173 385.886 339 386L338.93 386.06C338.773 386.2 338.655 386.378 338.588 386.577C338.522 386.776 338.508 386.99 338.548 387.196C338.588 387.402 338.682 387.594 338.819 387.753C338.956 387.912 339.133 388.033 339.331 388.103C339.529 388.173 339.741 388.191 339.948 388.154C340.155 388.117 340.349 388.027 340.51 387.892C340.672 387.758 340.795 387.584 340.869 387.387C340.942 387.19 340.963 386.977 340.93 386.77L340.94 386.8Z" fill="white"/>
<path d="M351.19 334.05C351.143 333.852 351.049 333.668 350.916 333.513C350.783 333.359 350.614 333.239 350.425 333.164C350.236 333.088 350.031 333.059 349.828 333.08C349.626 333.1 349.431 333.168 349.26 333.28L349.19 333.33C349.033 333.469 348.915 333.647 348.848 333.846C348.781 334.045 348.766 334.257 348.806 334.463C348.846 334.669 348.938 334.861 349.075 335.021C349.211 335.18 349.387 335.301 349.584 335.373C349.782 335.444 349.994 335.462 350.201 335.426C350.408 335.39 350.602 335.301 350.763 335.168C350.925 335.035 351.05 334.861 351.125 334.665C351.199 334.469 351.222 334.257 351.19 334.05Z" fill="white"/>
<path d="M314.74 371.4C314.691 371.201 314.596 371.018 314.462 370.863C314.328 370.709 314.159 370.589 313.969 370.514C313.779 370.439 313.574 370.41 313.37 370.43C313.167 370.45 312.971 370.519 312.8 370.63L312.74 370.69C312.583 370.83 312.466 371.008 312.399 371.207C312.332 371.406 312.318 371.62 312.358 371.826C312.398 372.032 312.492 372.224 312.629 372.383C312.766 372.542 312.943 372.663 313.141 372.733C313.339 372.803 313.552 372.821 313.758 372.784C313.965 372.747 314.159 372.657 314.32 372.522C314.482 372.388 314.605 372.214 314.679 372.017C314.752 371.82 314.773 371.607 314.74 371.4Z" fill="white"/>
<path d="M371 354.26C370.952 354.061 370.857 353.877 370.722 353.723C370.588 353.569 370.419 353.449 370.229 353.374C370.039 353.299 369.834 353.27 369.631 353.29C369.427 353.31 369.232 353.379 369.06 353.49L368.99 353.54C368.834 353.679 368.716 353.857 368.648 354.056C368.581 354.254 368.567 354.467 368.606 354.673C368.646 354.879 368.739 355.071 368.875 355.231C369.012 355.39 369.187 355.511 369.385 355.582C369.582 355.654 369.795 355.672 370.001 355.636C370.208 355.6 370.402 355.511 370.564 355.378C370.726 355.245 370.85 355.071 370.925 354.875C371 354.679 371.022 354.467 370.99 354.26H371Z" fill="white"/>
<path d="M423.19 309.5C423.141 309.302 423.046 309.118 422.912 308.963C422.778 308.809 422.609 308.69 422.419 308.614C422.229 308.539 422.024 308.51 421.82 308.53C421.617 308.55 421.421 308.619 421.25 308.73L421.18 308.79C421.023 308.93 420.905 309.108 420.838 309.307C420.772 309.507 420.758 309.72 420.798 309.926C420.838 310.132 420.932 310.324 421.069 310.483C421.206 310.642 421.383 310.763 421.581 310.833C421.779 310.904 421.991 310.921 422.198 310.884C422.405 310.847 422.599 310.757 422.76 310.622C422.922 310.488 423.045 310.314 423.119 310.117C423.192 309.92 423.213 309.707 423.18 309.5H423.19Z" fill="white"/>
<path d="M402 275.61C401.951 275.411 401.856 275.227 401.722 275.073C401.588 274.919 401.419 274.799 401.229 274.724C401.039 274.649 400.834 274.62 400.63 274.64C400.427 274.66 400.231 274.729 400.06 274.84L399.99 274.9C399.833 275.04 399.716 275.218 399.649 275.417C399.582 275.616 399.568 275.83 399.608 276.036C399.648 276.242 399.742 276.434 399.879 276.593C400.016 276.752 400.193 276.873 400.391 276.943C400.589 277.013 400.802 277.031 401.008 276.994C401.215 276.957 401.409 276.867 401.57 276.732C401.732 276.598 401.855 276.423 401.929 276.227C402.002 276.03 402.023 275.817 401.99 275.61H402Z" fill="white"/>
<path d="M360.94 279.86C360.892 279.661 360.796 279.477 360.662 279.323C360.528 279.169 360.359 279.049 360.169 278.974C359.979 278.899 359.774 278.87 359.571 278.89C359.367 278.91 359.172 278.979 359 279.09L358.93 279.14C358.774 279.279 358.656 279.457 358.588 279.656C358.521 279.855 358.507 280.067 358.546 280.273C358.586 280.479 358.679 280.672 358.815 280.831C358.952 280.99 359.127 281.112 359.325 281.183C359.522 281.254 359.734 281.272 359.941 281.236C360.148 281.2 360.342 281.111 360.504 280.978C360.666 280.845 360.79 280.671 360.865 280.475C360.94 280.279 360.962 280.067 360.93 279.86H360.94Z" fill="white"/>
<path d="M319.05 158.21C311.18 163.21 308.05 173.72 309.53 179.93C310.29 183.06 311.71 186.21 311.09 189.36C310.56 192.09 308.59 194.28 307.09 196.64C304.619 200.613 303.483 205.272 303.85 209.936C304.217 214.601 306.066 219.025 309.128 222.563C312.19 226.101 316.303 228.566 320.867 229.598C325.43 230.631 330.204 230.176 334.49 228.3" fill="#263238"/>
<path d="M314.39 199.2C295.23 157.06 340.81 135.89 365.67 142.91C389.04 149.51 399.01 161.14 402.86 176.77C406.71 192.4 406.52 209.35 400.39 224.24C397.39 231.58 391.93 239.04 384.04 239.96" fill="#263238"/>
<path d="M336.84 302.11C336.51 281.97 336.27 254.32 336.27 254.43C336.27 254.54 319 251.56 315.37 229C313.59 217.77 314.16 199.36 315.1 184.31C315.96 170.76 324.93 154.14 338.43 155.57L380.58 166.22C382.559 166.427 384.387 167.372 385.702 168.865C387.018 170.358 387.723 172.291 387.68 174.28L384.94 261.45" fill="#FFBE9D"/>
<path d="M322.64 198.08C322.624 198.829 322.901 199.556 323.413 200.103C323.925 200.651 324.631 200.976 325.38 201.01C325.746 201.044 326.116 201.005 326.466 200.894C326.817 200.783 327.141 200.602 327.421 200.364C327.701 200.125 327.93 199.833 328.095 199.504C328.259 199.175 328.357 198.817 328.38 198.45C328.394 197.7 328.116 196.974 327.605 196.426C327.094 195.877 326.389 195.549 325.64 195.51C325.274 195.477 324.904 195.518 324.554 195.63C324.203 195.742 323.878 195.924 323.599 196.163C323.319 196.402 323.091 196.695 322.926 197.025C322.761 197.354 322.664 197.713 322.64 198.08Z" fill="#263238"/>
<path d="M352.56 198.08C352.546 198.828 352.825 199.551 353.337 200.097C353.848 200.642 354.553 200.966 355.3 201C355.666 201.034 356.035 200.995 356.386 200.884C356.736 200.773 357.061 200.592 357.341 200.354C357.621 200.115 357.85 199.823 358.014 199.494C358.179 199.165 358.276 198.807 358.3 198.44C358.316 197.69 358.039 196.964 357.527 196.417C357.015 195.869 356.309 195.544 355.56 195.51C355.193 195.476 354.823 195.516 354.472 195.627C354.121 195.739 353.796 195.92 353.516 196.16C353.236 196.399 353.007 196.693 352.843 197.023C352.679 197.353 352.583 197.712 352.56 198.08Z" fill="#263238"/>
<path d="M319.52 192.82C319.87 193.21 322.12 191.66 325.23 191.82C328.34 191.98 330.57 193.56 330.93 193.19C331.1 193.03 330.75 192.34 329.78 191.58C328.467 190.598 326.88 190.049 325.24 190.01C323.62 189.953 322.023 190.411 320.68 191.32C319.7 192 319.35 192.64 319.52 192.82Z" fill="#263238"/>
<path d="M349.1 193.56C349.46 193.94 351.65 192.3 354.76 192.3C357.87 192.3 360.17 193.84 360.5 193.46C360.67 193.29 360.3 192.61 359.3 191.89C357.949 190.957 356.342 190.467 354.7 190.49C353.08 190.49 351.503 191.009 350.2 191.97C349.24 192.71 348.92 193.39 349.1 193.56Z" fill="#263238"/>
<path d="M338.42 217.56C338.42 217.38 336.5 217.05 333.36 216.64C332.56 216.56 331.81 216.4 331.68 215.86C331.609 215.037 331.794 214.213 332.21 213.5C332.95 211.58 333.74 209.56 334.56 207.44C337.83 198.82 340.19 191.72 339.84 191.59C339.49 191.46 336.56 198.35 333.3 206.98L331.04 213.08C330.539 214.039 330.394 215.144 330.63 216.2C330.746 216.48 330.924 216.73 331.151 216.931C331.378 217.132 331.648 217.278 331.94 217.36C332.379 217.483 332.833 217.547 333.29 217.55C336.45 217.72 338.41 217.73 338.42 217.56Z" fill="#263238"/>
<path d="M336.27 254.43C346.902 254.592 357.37 251.802 366.51 246.37C366.51 246.37 358.87 262.07 336.27 259.96V254.43Z" fill="#EB996E"/>
<path d="M348.33 189.13C348.63 189.98 351.75 189.57 355.4 190.02C359.05 190.47 362.01 191.45 362.5 190.69C362.72 190.33 362.2 189.53 361.01 188.69C359.418 187.685 357.618 187.056 355.747 186.85C353.876 186.644 351.983 186.866 350.21 187.5C348.87 188.06 348.19 188.73 348.33 189.13Z" fill="#263238"/>
<path d="M320.24 185C320.79 185.71 322.94 185 325.52 184.94C328.1 184.88 330.29 185.42 330.79 184.68C331.01 184.32 330.67 183.61 329.71 182.94C328.436 182.117 326.936 181.711 325.42 181.78C323.905 181.81 322.435 182.305 321.21 183.2C320.3 183.91 320 184.64 320.24 185Z" fill="#263238"/>
<path d="M383.81 204C384.14 203.84 395.9 198.64 396.04 212.16C396.18 225.68 382.57 223.03 382.54 222.64C382.51 222.25 383.81 204 383.81 204Z" fill="#FFBE9D"/>
<path d="M386.62 217.46C386.68 217.46 386.86 217.62 387.26 217.8C387.825 218.025 388.455 218.025 389.02 217.8C390.44 217.26 391.62 214.98 391.66 212.54C391.69 211.382 391.454 210.232 390.97 209.18C390.841 208.758 390.61 208.374 390.298 208.062C389.986 207.75 389.602 207.519 389.18 207.39C388.909 207.32 388.622 207.348 388.37 207.469C388.118 207.589 387.916 207.795 387.8 208.05C387.62 208.43 387.71 208.7 387.64 208.72C387.57 208.74 387.34 208.5 387.45 207.94C387.521 207.605 387.704 207.305 387.97 207.09C388.153 206.947 388.361 206.842 388.584 206.78C388.807 206.718 389.04 206.701 389.27 206.73C389.826 206.834 390.346 207.079 390.78 207.442C391.214 207.804 391.548 208.271 391.75 208.8C392.339 209.964 392.634 211.255 392.61 212.56C392.55 215.28 391.18 217.85 389.23 218.43C388.868 218.539 388.487 218.566 388.113 218.509C387.739 218.452 387.383 218.312 387.07 218.1C386.65 217.79 386.58 217.48 386.62 217.46Z" fill="#EB996E"/>
<path d="M333.93 148.88C326.41 152.77 323.31 168.15 326.42 176.03C329.53 183.91 337.92 187.75 346.19 189.56C354.46 191.37 362.57 191.56 370.73 189.32C371.29 194.8 374.58 200.43 379.9 201.88C386.95 203.79 394.05 197.34 395.62 190.21C397.19 183.08 394.83 175.74 392.51 168.81" fill="#263238"/>
<path d="M393.58 197.93C393.58 197.93 393.24 198.33 392.53 198.93C391.537 199.77 390.499 200.554 389.42 201.28C387.807 202.393 386.033 203.253 384.16 203.83C381.821 204.568 379.306 204.529 376.99 203.72C374.71 202.801 372.8 201.152 371.56 199.03C370.555 197.335 369.893 195.46 369.61 193.51C369.412 192.213 369.342 190.9 369.4 189.59C369.378 189.11 369.436 188.631 369.57 188.17C369.72 188.17 369.57 190.22 370.15 193.41C370.493 195.264 371.171 197.039 372.15 198.65C373.338 200.605 375.122 202.126 377.24 202.99C379.407 203.738 381.754 203.787 383.95 203.13C385.766 202.604 387.5 201.827 389.1 200.82C391.88 199.08 393.5 197.82 393.58 197.93Z" fill="#263238"/>
<path d="M339.34 226.24C339.738 227.412 340.304 228.52 341.02 229.53C341.38 230.035 341.843 230.459 342.38 230.771C342.916 231.083 343.513 231.277 344.13 231.34C344.79 231.335 345.438 231.168 346.017 230.852C346.597 230.536 347.089 230.082 347.45 229.53C348.147 228.398 348.469 227.075 348.37 225.75C348.32 224.56 347.77 223.14 346.59 223C346.094 222.982 345.601 223.093 345.16 223.32L338.94 225.84" fill="#EB996E"/>
<path d="M341.82 231.35C341.82 231.16 343.22 231.71 345.14 230.94C346.229 230.519 347.123 229.711 347.65 228.67C347.948 228.035 348.109 227.344 348.123 226.643C348.137 225.942 348.003 225.246 347.73 224.6C347.586 224.27 347.405 223.958 347.19 223.67C346.94 223.41 346.98 223.42 346.72 223.46C346.46 223.5 346.05 223.72 345.72 223.85L344.72 224.27C343.39 224.81 342.18 225.27 341.17 225.66C339.17 226.42 337.84 226.82 337.78 226.66C337.72 226.5 338.9 225.86 340.86 224.92C341.86 224.45 343.01 223.92 344.32 223.31L345.32 222.86C345.69 222.71 345.96 222.55 346.46 222.39C346.759 222.291 347.081 222.291 347.38 222.39C347.653 222.506 347.891 222.693 348.07 222.93C348.738 223.797 349.141 224.839 349.231 225.93C349.322 227.02 349.096 228.114 348.58 229.08C348.248 229.693 347.798 230.234 347.255 230.671C346.713 231.109 346.089 231.435 345.42 231.63C344.551 231.915 343.62 231.953 342.73 231.74C342.09 231.63 341.8 231.42 341.82 231.35Z" fill="#263238"/>
<path d="M399 194.73C397.62 194.63 386.45 196.08 387.33 216.83C388.15 236.22 401.75 231.95 406.09 224.65C410.17 217.74 412.55 195.68 399 194.73Z" fill="#455A64"/>
<path d="M405.87 197.18C405.839 197.002 405.822 196.821 405.82 196.64C405.82 196.23 405.82 195.71 405.76 195.05C405.76 193.62 405.66 191.62 405.59 189.14C405.49 184.05 405.35 176.96 405.18 168.79L405.43 169.03H399.68L399.94 168.77C399.94 170.31 400.02 171.94 400.07 173.6C400.26 181.38 400.44 188.6 400.59 194.71V194.89H400.42C398.059 195.434 395.962 196.785 394.49 198.71C393.375 200.202 392.57 201.902 392.12 203.71C391.82 204.875 391.616 206.062 391.51 207.26C391.51 207.67 391.46 207.99 391.45 208.2C391.44 208.41 391.45 208.53 391.45 208.53C391.437 208.42 391.437 208.31 391.45 208.2C391.45 207.99 391.45 207.67 391.45 207.25C391.499 206.037 391.666 204.831 391.95 203.65C392.367 201.789 393.16 200.033 394.28 198.49C395.789 196.486 397.95 195.072 400.39 194.49L400.22 194.71C400.05 188.64 399.84 181.39 399.62 173.6C399.57 171.95 399.53 170.32 399.49 168.77V168.5H405.76V168.75C405.85 176.93 405.93 184.01 405.99 189.11C405.99 191.59 405.99 193.59 405.99 195.02C405.99 195.68 405.99 196.2 405.99 196.6C405.977 196.798 405.937 196.993 405.87 197.18Z" fill="#455A64"/>
<path d="M399 168.78C399 168.78 393.16 155.12 379.25 148.37C373.93 145.72 368.342 143.648 362.58 142.19C362.58 142.19 370.7 140.27 383.83 146.11C389.83 148.77 395.83 152.22 399.83 157.41C402.35 160.7 405.51 167.13 405.5 168.78H399Z" fill="#455A64"/>
<path d="M363 334.25C363 334.25 363.08 334.15 363.25 333.98C363.42 333.81 363.68 333.55 364 333.2C364.96 332.185 365.861 331.117 366.7 330C368.035 328.213 369.254 326.343 370.35 324.4C371.65 322.13 373.01 319.45 374.48 316.46C377.43 310.46 380.84 303.24 384.38 294.94C386.14 290.79 387.94 286.38 389.74 281.73L391.08 278.21C391.502 276.978 392.041 275.789 392.69 274.66C393.382 273.489 394.386 272.533 395.59 271.9C396.203 271.563 396.891 271.387 397.59 271.39C397.972 271.416 398.339 271.548 398.65 271.77C398.945 272.009 399.176 272.319 399.32 272.67V272.74V272.82C399.235 273.296 399.051 273.749 398.78 274.15C398.478 274.567 398.033 274.859 397.53 274.97C396.569 275.103 395.591 274.924 394.74 274.46C393.846 274.043 393.118 273.339 392.67 272.46C392.222 271.581 392.082 270.578 392.27 269.61C392.474 268.615 393.059 267.739 393.9 267.17C394.73 266.591 395.73 266.306 396.74 266.36C397.263 266.363 397.777 266.498 398.235 266.751C398.692 267.005 399.079 267.368 399.36 267.81C399.501 268.063 399.567 268.351 399.549 268.64C399.532 268.929 399.431 269.206 399.26 269.44C398.93 269.858 398.49 270.177 397.99 270.36C397.151 270.679 396.233 270.718 395.37 270.473C394.507 270.228 393.746 269.712 393.2 269C392.668 268.274 392.436 267.372 392.55 266.48C392.638 265.61 392.986 264.788 393.55 264.12C394.123 263.445 394.924 263.004 395.8 262.88C396.242 262.822 396.692 262.868 397.114 263.014C397.536 263.159 397.918 263.401 398.23 263.72C398.55 264.064 398.722 264.52 398.71 264.99C398.704 265.224 398.65 265.454 398.55 265.666C398.45 265.878 398.307 266.067 398.13 266.22C397.804 266.514 397.413 266.726 396.989 266.841C396.565 266.956 396.12 266.969 395.69 266.88C395.274 266.771 394.885 266.576 394.549 266.307C394.213 266.038 393.938 265.702 393.74 265.32C393.352 264.603 393.105 263.819 393.01 263.01C392.728 261.438 392.912 259.818 393.54 258.35C393.89 257.601 394.497 257.001 395.25 256.66C396.02 256.375 396.871 256.403 397.62 256.74C398.012 256.882 398.358 257.13 398.617 257.456C398.877 257.783 399.041 258.176 399.09 258.59C399.11 259.013 398.999 259.433 398.771 259.791C398.544 260.149 398.212 260.428 397.82 260.59C397.464 260.772 397.07 260.868 396.67 260.868C396.27 260.868 395.876 260.772 395.52 260.59C394.843 260.199 394.334 259.572 394.09 258.83C393.864 258.126 393.819 257.376 393.96 256.65C394.038 255.942 394.192 255.245 394.42 254.57C394.646 253.876 395.066 253.262 395.63 252.8C396.184 252.355 396.829 252.038 397.52 251.87C397.879 251.767 398.261 251.767 398.62 251.87C398.965 251.989 399.276 252.188 399.53 252.45C399.785 252.7 399.985 252.999 400.12 253.33C400.265 253.686 400.265 254.084 400.12 254.44C399.959 254.769 399.701 255.041 399.381 255.22C399.061 255.398 398.695 255.475 398.33 255.44C397.653 255.43 396.996 255.21 396.45 254.81C395.414 254.046 394.7 252.923 394.45 251.66C394.188 250.413 394.384 249.114 395 248C395.271 247.465 395.657 246.997 396.13 246.63C396.597 246.276 397.142 246.039 397.72 245.94C398.297 245.823 398.898 245.907 399.42 246.18C399.678 246.32 399.898 246.522 400.058 246.768C400.219 247.015 400.316 247.297 400.34 247.59C400.337 248.142 400.151 248.677 399.81 249.111C399.47 249.546 398.995 249.855 398.46 249.99C397.958 250.097 397.437 250.059 396.956 249.882C396.474 249.705 396.053 249.396 395.74 248.99C395.139 248.267 394.789 247.369 394.74 246.43C394.827 244.795 395.164 243.183 395.74 241.65C396.15 240.21 396.52 238.89 396.86 237.71C397.53 235.36 398.05 233.53 398.42 232.27C398.59 231.66 398.73 231.19 398.83 230.86C398.93 230.53 398.99 230.38 398.99 230.38C398.99 230.38 398.99 230.55 398.88 230.87C398.77 231.19 398.67 231.69 398.52 232.3C398.18 233.57 397.68 235.41 397.05 237.76L395.98 241.71C395.64 243.16 394.98 244.71 395.05 246.41C395.123 247.289 395.473 248.123 396.05 248.79C396.326 249.149 396.698 249.423 397.122 249.582C397.546 249.741 398.006 249.778 398.45 249.69C398.899 249.574 399.299 249.318 399.59 248.958C399.882 248.597 400.05 248.153 400.07 247.69C400.049 247.455 399.971 247.229 399.842 247.032C399.713 246.835 399.537 246.673 399.33 246.56C398.878 246.336 398.364 246.269 397.87 246.37C397.346 246.46 396.852 246.676 396.43 247C396.011 247.34 395.67 247.766 395.43 248.25C394.934 249.276 394.804 250.44 395.06 251.55C395.3 252.71 395.963 253.74 396.92 254.44C397.399 254.784 397.97 254.976 398.56 254.99C398.837 255.023 399.118 254.971 399.364 254.841C399.611 254.71 399.812 254.508 399.94 254.26C400.002 253.982 399.985 253.693 399.891 253.425C399.797 253.156 399.631 252.919 399.41 252.74C399.204 252.532 398.955 252.371 398.68 252.27C398.395 252.195 398.095 252.195 397.81 252.27C397.18 252.407 396.595 252.702 396.111 253.127C395.626 253.552 395.258 254.093 395.04 254.7C394.822 255.348 394.678 256.019 394.61 256.7C394.475 257.366 394.516 258.055 394.73 258.7C394.929 259.33 395.357 259.861 395.93 260.19C396.22 260.335 396.54 260.411 396.865 260.411C397.19 260.411 397.51 260.335 397.8 260.19C398.099 260.073 398.355 259.868 398.534 259.602C398.713 259.335 398.806 259.021 398.8 258.7C398.756 258.377 398.623 258.072 398.416 257.82C398.21 257.568 397.938 257.377 397.63 257.27C396.996 256.993 396.281 256.968 395.63 257.2C394.991 257.498 394.478 258.011 394.18 258.65C393.606 260.031 393.443 261.548 393.71 263.02C393.798 263.766 394.025 264.488 394.38 265.15C394.543 265.468 394.77 265.748 395.047 265.974C395.325 266.199 395.646 266.365 395.99 266.46C396.342 266.535 396.706 266.527 397.054 266.435C397.401 266.343 397.722 266.17 397.99 265.93C398.115 265.819 398.217 265.684 398.289 265.533C398.36 265.381 398.401 265.217 398.407 265.05C398.414 264.883 398.386 264.716 398.327 264.559C398.267 264.403 398.176 264.26 398.06 264.14C397.8 263.883 397.485 263.688 397.138 263.572C396.791 263.456 396.422 263.421 396.06 263.47C395.308 263.58 394.624 263.965 394.14 264.55C393.615 265.113 393.295 265.836 393.23 266.603C393.164 267.37 393.358 268.136 393.78 268.78C394.26 269.396 394.925 269.842 395.677 270.055C396.428 270.267 397.228 270.234 397.96 269.96C398.352 269.799 398.696 269.541 398.96 269.21C399.073 269.055 399.138 268.87 399.149 268.679C399.159 268.487 399.115 268.297 399.02 268.13C398.78 267.77 398.454 267.474 398.072 267.27C397.69 267.066 397.263 266.959 396.83 266.96C395.946 266.891 395.066 267.137 394.347 267.655C393.627 268.173 393.115 268.93 392.9 269.79C392.737 270.625 392.855 271.49 393.234 272.252C393.614 273.013 394.235 273.628 395 274C395.743 274.422 396.603 274.59 397.45 274.48C397.831 274.361 398.169 274.131 398.418 273.819C398.668 273.507 398.818 273.128 398.85 272.73V272.88C398.753 272.604 398.577 272.362 398.345 272.184C398.112 272.006 397.832 271.9 397.54 271.88C396.92 271.877 396.31 272.035 395.77 272.34C394.643 272.93 393.704 273.823 393.06 274.92C392.426 276.016 391.9 277.172 391.49 278.37L390.13 281.9C388.33 286.54 386.51 290.9 384.73 295.1C381.17 303.4 377.73 310.64 374.73 316.6C373.24 319.6 371.86 322.25 370.53 324.52C369.409 326.456 368.163 328.317 366.8 330.09C365.686 331.609 364.412 333.003 363 334.25Z" fill="white"/>
<path d="M411.09 185C410.968 183.729 410.662 182.482 410.18 181.3C408.727 178.119 406.179 175.567 403 174.11C400.817 173.124 398.471 172.551 396.08 172.42C393.328 172.278 390.569 172.487 387.87 173.04C382.14 174.1 376.12 176.57 369.38 177.59C366.094 178.025 362.766 178.025 359.48 177.59C356.43 177.131 353.443 176.318 350.58 175.17C345.719 173.212 341.299 170.302 337.58 166.61C335.077 164.141 332.96 161.309 331.3 158.21C331.02 157.738 330.772 157.246 330.56 156.74L330.08 155.63C329.96 155.36 329.87 155.13 329.79 154.95C329.752 154.874 329.725 154.793 329.71 154.71C329.763 154.777 329.806 154.851 329.84 154.93L330.17 155.59L330.7 156.67C330.928 157.17 331.188 157.654 331.48 158.12C333.195 161.154 335.337 163.925 337.84 166.35C343.744 172.132 351.332 175.89 359.51 177.08C362.749 177.51 366.031 177.51 369.27 177.08C375.92 176.08 381.95 173.62 387.75 172.58C390.487 172.033 393.283 171.838 396.07 172C398.512 172.148 400.903 172.755 403.12 173.79C406.353 175.304 408.918 177.951 410.33 181.23C410.681 182.122 410.913 183.057 411.02 184.01V184.75C411.056 184.829 411.079 184.914 411.09 185Z" fill="#455A64"/>
<path d="M396 163.45C395.764 163.508 395.523 163.548 395.28 163.57C394.81 163.64 394.11 163.74 393.22 163.9C391.44 164.19 388.89 164.76 385.75 165.54C382.077 166.53 378.338 167.255 374.56 167.71C369.919 168.185 365.236 168.081 360.62 167.4C356.003 166.73 351.481 165.515 347.15 163.78C343.6 162.374 340.199 160.615 337 158.53C335.66 157.62 334.46 156.78 333.44 155.98C332.42 155.18 331.56 154.49 330.9 153.87L329.38 152.44C329.04 152.11 328.86 151.93 328.88 151.91C329.084 152.042 329.275 152.192 329.45 152.36L331.03 153.71C331.71 154.31 332.62 154.95 333.62 155.71C334.62 156.47 335.86 157.3 337.2 158.18C344.329 162.677 352.321 165.63 360.66 166.85C365.24 167.52 369.884 167.634 374.49 167.19C378.246 166.781 381.968 166.113 385.63 165.19C388.78 164.46 391.36 163.94 393.16 163.7C394.06 163.58 394.76 163.51 395.24 163.48C395.492 163.443 395.747 163.433 396 163.45Z" fill="#455A64"/>
<path d="M397.48 230.45C397.346 230.424 397.216 230.384 397.09 230.33C396.742 230.183 396.407 230.006 396.09 229.8C394.881 229.005 393.877 227.936 393.16 226.68C392.134 224.801 391.521 222.725 391.36 220.59C391.13 218.008 391.13 215.411 391.36 212.83C391.577 210.249 392.005 207.691 392.64 205.18C393.095 203.106 393.846 201.109 394.87 199.25C395.608 197.989 396.637 196.923 397.87 196.14C398.185 195.933 398.52 195.758 398.87 195.62C399.12 195.53 399.26 195.49 399.26 195.51C399.26 195.53 398.75 195.74 397.94 196.31C396.81 197.137 395.875 198.202 395.2 199.43C394.238 201.281 393.538 203.256 393.12 205.3C392.513 207.791 392.099 210.325 391.88 212.88C391.671 215.429 391.671 217.991 391.88 220.54C392.008 222.632 392.566 224.674 393.52 226.54C394.18 227.777 395.11 228.85 396.24 229.68C397 230.21 397.51 230.4 397.48 230.45Z" fill="#263238"/>
<path d="M352.503 227.36L342.239 229.374C340.694 229.677 339.688 231.175 339.991 232.72L340.066 233.102C340.369 234.647 341.867 235.653 343.412 235.35L353.676 233.336C355.22 233.033 356.227 231.536 355.924 229.991L355.849 229.608C355.546 228.064 354.048 227.057 352.503 227.36Z" fill="#455A64"/>
<path d="M354.47 228.88L401.92 214C402.484 213.824 403.094 213.877 403.619 214.149C404.143 214.42 404.539 214.888 404.72 215.45C404.812 215.739 404.844 216.043 404.815 216.345C404.786 216.646 404.697 216.939 404.552 217.205C404.407 217.471 404.21 217.705 403.973 217.893C403.735 218.082 403.462 218.22 403.17 218.3L354.65 231.4L354.47 228.88Z" fill="#455A64"/>
<path d="M389.54 222.34C390.048 222.116 390.573 221.932 391.11 221.79L395.45 220.47C397.27 219.91 399.51 219.31 401.87 218.54C402.453 218.322 402.982 217.981 403.42 217.54C403.852 217.1 404.093 216.507 404.09 215.89C404.088 215.587 403.99 215.292 403.81 215.048C403.631 214.804 403.379 214.622 403.09 214.53C402.431 214.362 401.738 214.383 401.09 214.59L386.86 219.17L382.53 220.51C382.034 220.714 381.522 220.878 381 221C381.5 220.756 382.018 220.553 382.55 220.39L386.83 218.89C390.46 217.66 395.44 215.95 401.04 214.16C401.785 213.944 402.575 213.944 403.32 214.16C403.7 214.297 404.03 214.546 404.266 214.875C404.501 215.203 404.632 215.596 404.64 216C404.641 216.748 404.346 217.467 403.82 218C403.294 218.462 402.672 218.803 402 219C399.55 219.77 397.36 220.31 395.51 220.83L391.17 222C390.639 222.164 390.093 222.278 389.54 222.34Z" fill="#263238"/>
<path d="M312 186C313.62 191.7 307.83 196.59 305.79 202.16C303.79 207.54 305.49 213.57 307.92 218.77C310.35 223.97 313.55 228.89 314.79 234.48C317.86 248.28 305.38 263.15 307.79 277.08C308.65 282.16 310.7 287.46 312.47 292.29C314.18 296.845 314.18 301.865 312.47 306.42C309.77 314.42 305.19 318.17 301.97 325.95C300.32 329.95 300.45 334.39 300.53 338.69C300.61 342.99 300.59 347.49 298.67 351.35C296.75 355.21 292.37 358.19 288.21 357.07C290.455 359.585 293.466 361.29 296.778 361.921C300.09 362.552 303.518 362.074 306.53 360.56C312 357.64 315.06 351.72 317.68 346.1C330.36 318.89 337.07 316.59 336.68 286.57C336.68 284.64 336.3 254.57 336.3 254.57C333.672 253.865 331.152 252.805 328.81 251.42C314.65 241.64 314.13 224.22 314.24 210.71" fill="#263238"/>
<path d="M340.3 277.08V288.41C340.3 288.41 331.59 332.86 328.97 357.55C326.35 382.24 325.92 388.76 325.92 388.76C325.92 388.76 332.17 398.51 345.24 381.95C358.31 365.39 360.64 362.78 365.87 362.49C365.87 362.49 359.48 293.06 359.77 290.49C360.094 288.668 360.894 286.963 362.09 285.55L340.3 277.08Z" fill="#FFBE9D"/>
<path d="M357.44 251.52C357.44 251.52 343.21 270.4 342.05 273C340.89 275.6 340.3 277.06 340.3 277.06L362.09 285.49L383.3 262.25L391.14 241.62L388.81 217.22C388.81 217.22 384.17 216.93 383.3 221C382.767 223.577 382.569 226.212 382.71 228.84L376.21 223.61L365.72 220.42C365.72 220.42 363.25 224.48 367.32 226.52C371.39 228.56 372.55 228.52 372.55 228.52L376.21 234.91L374.61 242.07L367.19 235.07C366.472 234.391 365.538 233.986 364.552 233.924C363.565 233.861 362.588 234.147 361.79 234.73L356.99 238.21L352.5 236.21L343.79 244L340.3 247.19C340.3 247.19 342.63 251.55 347.3 249.52L351.95 247.52L357.44 251.52Z" fill="#FFBE9D"/>
<path d="M340.3 280.91C340.287 280.707 340.287 280.503 340.3 280.3C340.3 279.9 340.35 279.3 340.44 278.53C340.557 277.568 340.741 276.616 340.99 275.68C341.301 274.388 341.814 273.152 342.51 272.02C345.77 267.02 350.9 260.02 357.3 251.41V251.67L351.78 247.61H351.97L349.1 248.88C348.115 249.36 347.091 249.758 346.04 250.07C344.896 250.344 343.692 250.206 342.64 249.68C341.57 249.129 340.681 248.282 340.08 247.24L340 247.1L340.13 246.98C343.87 243.46 348.04 239.91 352.32 236.11L352.45 236L352.59 236.08L356.46 238.37H356.21L360.73 235.37C361.52 234.86 362.23 234.37 363.08 233.85C363.543 233.62 364.06 233.522 364.575 233.566C365.09 233.61 365.583 233.795 366 234.1L374.81 241.55L374.4 241.69C374.88 239.54 375.4 237.21 375.92 234.86V235.04L372.26 228.65L372.49 228.78C371.868 228.695 371.26 228.53 370.68 228.29C370.11 228.08 369.54 227.84 368.97 227.59C368.4 227.34 367.84 227.06 367.28 226.79C366.99 226.65 366.71 226.46 366.43 226.3C366.156 226.105 365.902 225.884 365.67 225.64C365.334 225.284 365.073 224.864 364.901 224.406C364.729 223.947 364.651 223.459 364.67 222.97C364.702 222.014 364.966 221.081 365.44 220.25L365.54 220.08L365.74 220.14L376.22 223.34H376.27L382.77 228.57L382.36 228.79C382.22 226.2 382.405 223.603 382.91 221.06C383.016 220.404 383.26 219.778 383.625 219.223C383.991 218.668 384.469 218.197 385.03 217.84C386.148 217.18 387.433 216.857 388.73 216.91H389V217.13C389.82 225.8 390.59 233.98 391.3 241.53V241.58C388.4 249.18 385.76 256.08 383.42 262.19L367 280.31L362.54 285.14C362.03 285.67 361.64 286.09 361.37 286.38L360.96 286.79C360.96 286.79 361.08 286.63 361.33 286.34L362.46 285.07L366.86 280.18L383.2 262.18V262.23L391 241.59V241.69C390.27 234.14 389.49 225.97 388.65 217.29L388.88 217.52C387.687 217.471 386.506 217.77 385.48 218.38C384.976 218.7 384.547 219.125 384.221 219.625C383.895 220.125 383.68 220.69 383.59 221.28C383.089 223.777 382.907 226.327 383.05 228.87V229.45L382.6 229.09L376 223.83H376.09L365.61 220.64L365.9 220.52C365.478 221.274 365.242 222.117 365.21 222.98C365.192 223.403 365.259 223.825 365.406 224.222C365.554 224.619 365.78 224.982 366.07 225.29C366.277 225.501 366.501 225.695 366.74 225.87C367.01 226.02 367.25 226.18 367.53 226.32C368.09 226.59 368.64 226.87 369.2 227.11C370.254 227.624 371.365 228.01 372.51 228.26H372.67L372.73 228.36L376.39 234.75L376.44 234.84V234.94C375.91 237.29 375.44 239.62 374.91 241.77L374.82 242.19L374.49 241.91L365.71 234.48C365.369 234.226 364.964 234.071 364.541 234.032C364.117 233.993 363.692 234.072 363.31 234.26C362.57 234.7 361.77 235.26 361.01 235.75L356.48 238.75L356.36 238.83L356.23 238.76L352.36 236.46H352.64C348.36 240.24 344.18 243.79 340.43 247.29L340.48 247.03C341.032 247.995 341.852 248.78 342.84 249.29C343.803 249.78 344.91 249.908 345.96 249.65C346.989 249.348 347.993 248.964 348.96 248.5L351.83 247.24H351.94L352.03 247.3L357.54 251.38L357.69 251.49L357.58 251.64C351.15 260.25 345.97 267.19 342.67 272.14C341.975 273.252 341.453 274.462 341.12 275.73C340.865 276.657 340.668 277.599 340.53 278.55C340.42 279.32 340.37 279.92 340.34 280.31C340.31 280.7 340.3 280.91 340.3 280.91Z" fill="#EB996E"/>
<path d="M367.26 255.89C367.16 255.89 367.54 254.35 367.7 251.89C367.806 250.456 367.573 249.017 367.02 247.69C366.186 246.135 364.997 244.799 363.55 243.79C360.966 241.809 358.272 239.976 355.48 238.3L352.93 236.8C352.603 236.638 352.294 236.44 352.01 236.21C352.362 236.296 352.699 236.434 353.01 236.62C353.65 236.91 354.56 237.37 355.66 237.98C358.522 239.577 361.263 241.381 363.86 243.38C365.373 244.435 366.603 245.847 367.44 247.49C368.015 248.888 368.228 250.408 368.06 251.91C367.975 252.901 367.811 253.884 367.57 254.85C367.516 255.209 367.412 255.559 367.26 255.89Z" fill="#EB996E"/>
<path d="M382.51 246.83C382.574 245.949 382.698 245.074 382.88 244.21C383.192 242.125 383.343 240.018 383.33 237.91C383.303 235.796 383.116 233.686 382.77 231.6C382.578 230.743 382.441 229.875 382.36 229C382.728 229.806 382.987 230.656 383.13 231.53C384.053 235.726 384.091 240.069 383.24 244.28C383.111 245.159 382.866 246.016 382.51 246.83Z" fill="#EB996E"/>
<path d="M285.4 172.73L275 154.36C281.441 143.899 283.736 131.407 281.434 119.34C279.132 107.273 272.4 96.5029 262.561 89.1472C252.721 81.7915 240.487 78.3819 228.261 79.5887C216.036 80.7955 204.704 86.5313 196.493 95.6687C188.282 104.806 183.785 116.684 183.887 128.969C183.989 141.253 188.682 153.055 197.043 162.055C205.405 171.055 216.83 176.602 229.074 177.606C241.318 178.61 253.494 174.998 263.21 167.48L285.4 172.73Z" fill="white"/>
<path d="M285.4 172.73L263.14 167.63H262.95L263.07 167.47L263.25 167.65C260.131 170.071 256.738 172.115 253.14 173.74C248.856 175.657 244.32 176.95 239.67 177.58C237.093 177.939 234.49 178.07 231.89 177.97C230.56 177.9 229.19 177.86 227.82 177.75L223.67 177.12C211.301 174.672 200.332 167.598 193 157.34C188.907 151.673 186.076 145.194 184.7 138.34C183.279 131.103 183.477 123.642 185.28 116.49C187.133 109.015 190.743 102.09 195.81 96.2901L197.81 94.0801C198.47 93.3401 199.26 92.7301 199.97 92.0801C200.679 91.3759 201.423 90.7084 202.2 90.0801L204.56 88.3201C205.336 87.7446 206.152 87.2233 207 86.7601L209.49 85.2501L212.1 84.0001C212.949 83.5512 213.828 83.1603 214.73 82.8301C221.718 80.0696 229.235 78.9112 236.73 79.4401C243.821 79.9371 250.717 81.9854 256.93 85.4401C268.098 91.6551 276.448 101.928 280.25 114.13C281.777 119.323 282.499 124.719 282.39 130.13C282.259 134.818 281.451 139.463 279.99 143.92C278.769 147.629 277.114 151.18 275.06 154.5V154.37L285.37 172.8C284.93 172.03 281.59 166.24 274.84 154.49V154.43V154.37C276.861 151.057 278.489 147.52 279.69 143.83C281.115 139.394 281.9 134.778 282.02 130.12C282.107 124.757 281.375 119.412 279.85 114.27C276.053 102.189 267.762 92.0265 256.69 85.8801C250.533 82.4796 243.707 80.4692 236.69 79.9901C229.266 79.4671 221.819 80.6188 214.9 83.3601C214.008 83.687 213.139 84.0745 212.3 84.5201L209.72 85.7701L207.25 87.2701C206.406 87.739 205.6 88.274 204.84 88.8701L202.5 90.6101C201.71 91.1701 201.04 91.9001 200.3 92.5301C199.56 93.1601 198.82 93.8101 198.16 94.5301L196.16 96.7101C191.148 102.455 187.576 109.311 185.74 116.71C183.955 123.789 183.754 131.174 185.15 138.34C186.513 145.116 189.309 151.522 193.35 157.13C200.63 167.273 211.487 174.274 223.73 176.72L227.84 177.35C229.2 177.47 230.56 177.5 231.84 177.58C234.419 177.684 237.002 177.564 239.56 177.22C248.109 176.088 256.206 172.714 263.03 167.44L263.81 166.84L263.21 167.63L263.13 167.42L285.4 172.73Z" fill="#263238"/>
<path d="M222.47 128.63C222.47 129.421 222.235 130.194 221.796 130.852C221.356 131.51 220.731 132.023 220 132.325C219.27 132.628 218.465 132.707 217.689 132.553C216.913 132.399 216.201 132.018 215.641 131.458C215.082 130.899 214.701 130.186 214.547 129.41C214.392 128.634 214.471 127.83 214.774 127.099C215.077 126.368 215.59 125.744 216.247 125.304C216.905 124.864 217.679 124.63 218.47 124.63C219.531 124.63 220.548 125.051 221.298 125.801C222.048 126.552 222.47 127.569 222.47 128.63Z" fill="#263238"/>
<path d="M238.43 128.63C238.43 129.421 238.195 130.194 237.756 130.852C237.316 131.51 236.691 132.023 235.96 132.325C235.23 132.628 234.425 132.707 233.649 132.553C232.873 132.399 232.161 132.018 231.601 131.458C231.042 130.899 230.661 130.186 230.507 129.41C230.352 128.634 230.431 127.83 230.734 127.099C231.037 126.368 231.55 125.744 232.207 125.304C232.865 124.864 233.639 124.63 234.43 124.63C235.491 124.63 236.508 125.051 237.258 125.801C238.008 126.552 238.43 127.569 238.43 128.63Z" fill="#263238"/>
<path d="M254.36 126.63C254.757 127.315 254.943 128.102 254.893 128.893C254.843 129.683 254.559 130.441 254.078 131.07C253.596 131.699 252.939 132.171 252.189 132.426C251.439 132.681 250.631 132.708 249.866 132.503C249.101 132.298 248.414 131.871 247.892 131.275C247.37 130.679 247.037 129.942 246.934 129.156C246.832 128.371 246.965 127.573 247.317 126.863C247.668 126.154 248.223 125.564 248.91 125.17C249.827 124.644 250.915 124.502 251.936 124.775C252.957 125.049 253.829 125.716 254.36 126.63Z" fill="#263238"/>
<path d="M482 442.14C482 442.29 380.34 442.4 255 442.4C129.66 442.4 28 442.29 28 442.14C28 441.99 129.63 441.88 255.05 441.88C380.47 441.88 482 442 482 442.14Z" fill="#263238"/>
<path d="M353.55 442.39C355.896 438.819 359.061 435.86 362.782 433.759C366.502 431.658 370.67 430.476 374.94 430.31C389.55 429.81 396.85 442.39 396.85 442.39H353.55Z" fill="#455A64"/>
<path d="M381.55 442C381.357 441.284 381.213 440.556 381.12 439.82C380.335 436.351 378.266 433.307 375.33 431.3C374.683 430.938 374.059 430.537 373.46 430.1C374.215 430.216 374.935 430.496 375.57 430.92C377.164 431.851 378.53 433.125 379.568 434.651C380.606 436.177 381.29 437.916 381.57 439.74C381.727 440.486 381.72 441.257 381.55 442Z" fill="#263238"/>
<path d="M344.51 441.86V441.76C344.486 440.289 343.884 438.886 342.834 437.855C341.785 436.824 340.371 436.247 338.9 436.25H214.56C213.072 436.25 211.645 436.841 210.593 437.893C209.541 438.945 208.95 440.372 208.95 441.86H344.51Z" fill="#455A64"/>
<path d="M106.47 224C106.47 226.62 108.47 382.78 108.47 382.78L224.47 410.69H234L227.9 192.69H219.18L106.47 224Z" fill="#263238"/>
<path d="M131 376.29L95.0498 442.17H127.91C122.03 441.59 179.91 442.17 179.91 442.17L127.91 428.38L144.18 391.43L142.79 376.29H131Z" fill="#263238"/>
<path d="M131.8 388.45L127.91 265.65L163.23 262.27L167.58 393.38L154.97 394.02L131.8 388.45Z" fill="#263238"/>
<path d="M172.52 398.24C172.52 398.24 172.52 398.05 172.52 397.67C172.52 397.29 172.52 396.72 172.52 395.99C172.52 394.49 172.52 392.3 172.52 389.47C172.52 383.76 172.47 375.47 172.44 365.04C172.44 344.17 172.39 314.8 172.35 280.74L172.6 280.99H130.85L131.11 280.73V286.39C131.11 319.61 131.11 350.52 131.06 376.28V376.33C120.24 396.16 111.27 412.62 104.99 424.12C101.85 429.86 99.3798 434.36 97.6898 437.44C96.8498 438.96 96.1998 440.12 95.7598 440.93C95.3198 441.74 95.0698 442.11 95.0698 442.11C95.0698 442.11 95.2798 441.69 95.6998 440.9C96.1198 440.11 96.7598 438.9 97.5698 437.37C99.2398 434.28 101.67 429.76 104.77 424L130.67 376.12V376.23C130.67 350.47 130.67 319.56 130.67 286.34V280.42H172.85V280.67C172.85 314.73 172.78 344.1 172.76 364.97C172.76 375.39 172.7 383.69 172.68 389.4C172.68 392.23 172.68 394.4 172.68 395.92C172.68 396.65 172.68 397.21 172.68 397.6C172.68 397.99 172.52 398.24 172.52 398.24Z" fill="#455A64"/>
<path d="M144.18 391.43C144.31 391.48 139.31 403.05 133.01 417.25C126.71 431.45 121.49 442.93 121.36 442.87C121.23 442.81 126.23 431.25 132.53 417.04C138.83 402.83 144.05 391.37 144.18 391.43Z" fill="#455A64"/>
<path d="M224.42 410.73C224.42 410.73 224.42 410.54 224.42 410.17C224.42 409.8 224.42 409.23 224.42 408.52C224.42 407.05 224.37 404.92 224.34 402.18C224.34 396.68 224.17 388.72 223.98 378.88C223.61 359.2 222.72 332.03 221.63 302.02C220.54 272.01 219.71 244.81 219.43 225.13C219.28 215.29 219.21 207.32 219.24 201.82C219.24 199.08 219.24 196.95 219.24 195.48C219.24 194.77 219.24 194.23 219.24 193.83C219.24 193.43 219.24 193.27 219.24 193.27C219.24 193.27 219.24 193.46 219.24 193.83C219.24 194.2 219.24 194.77 219.24 195.48C219.24 196.95 219.24 199.08 219.32 201.82C219.32 207.32 219.48 215.28 219.68 225.12C220.11 244.8 221 272 222.09 302C223.18 332 224.01 359.19 224.29 378.87C224.44 388.71 224.5 396.68 224.48 402.18C224.48 404.92 224.48 407.05 224.48 408.52C224.48 409.23 224.48 409.78 224.48 410.17C224.48 410.56 224.42 410.73 224.42 410.73Z" fill="#455A64"/>
<path d="M166.19 279.83C166.34 279.83 166.45 305.95 166.45 338.16C166.45 370.37 166.34 396.49 166.19 396.49C166.04 396.49 165.93 370.38 165.93 338.16C165.93 305.94 166.05 279.83 166.19 279.83Z" fill="#455A64"/>
<path d="M103.7 431.89C103.51 431.673 103.343 431.439 103.2 431.19C103.03 430.95 102.84 430.66 102.62 430.33C102.355 429.938 102.115 429.531 101.9 429.11C100.433 426.464 99.3653 423.617 98.7297 420.66C97.8072 416.265 97.5979 411.751 98.1097 407.29C98.7355 401.828 100.199 396.495 102.45 391.48C103.64 388.89 105.163 386.466 106.98 384.27C107.393 383.725 107.837 383.204 108.31 382.71C108.77 382.21 109.21 381.71 109.67 381.23C110.67 380.32 111.54 379.39 112.53 378.6C114.354 377.048 116.297 375.64 118.34 374.39C119.34 373.85 120.25 373.28 121.19 372.83C122.13 372.38 123.02 371.9 123.92 371.58C126.699 370.389 129.636 369.608 132.64 369.26C133.451 369.149 134.27 369.099 135.09 369.11C135.376 369.086 135.664 369.086 135.95 369.11C135.669 369.158 135.385 369.188 135.1 369.2C134.286 369.237 133.474 369.321 132.67 369.45C129.701 369.872 126.804 370.7 124.06 371.91C123.17 372.24 122.31 372.74 121.37 373.17C120.43 373.6 119.53 374.17 118.56 374.75C116.548 376.004 114.635 377.412 112.84 378.96C111.84 379.74 110.97 380.67 110.02 381.57C109.57 382.04 109.13 382.57 108.68 383.03C108.22 383.523 107.786 384.041 107.38 384.58C105.592 386.747 104.093 389.137 102.92 391.69C100.691 396.653 99.231 401.927 98.5897 407.33C98.0588 411.742 98.2276 416.21 99.0897 420.57C99.694 423.505 100.704 426.342 102.09 429C102.289 429.428 102.516 429.842 102.77 430.24L103.3 431.13C103.45 431.374 103.583 431.628 103.7 431.89Z" fill="#455A64"/>
</svg>
