<svg width="24" height="24" viewBox="0 0 24 24" fill="none" xmlns="http://www.w3.org/2000/svg">
<path d="M20.9455 0H3.05455C2.24443 0 1.46749 0.321817 0.894656 0.894656C0.321817 1.46749 0 2.24443 0 3.05455V20.9455C0 21.7556 0.321817 22.5325 0.894656 23.1053C1.46749 23.6782 2.24443 24 3.05455 24H11.8184V14.014H9.82118V10.0197H11.8018V8.21455C11.8018 6.5808 12.5801 4.0284 16.0051 4.0284L19.0904 4.04078V7.46302H16.8498C16.4855 7.46302 15.9671 7.64444 15.9671 8.42258V10.0199H19.1414L18.777 14.0143H15.8127V24H20.9455C21.7556 24 22.5325 23.6782 23.1053 23.1053C23.6782 22.5325 24 21.7556 24 20.9455V3.05455C24 2.24443 23.6782 1.46749 23.1053 0.894656C22.5325 0.321817 21.7556 0 20.9455 0Z" fill="white"/>
</svg>
