<svg width="24" height="24" viewBox="0 0 24 24" fill="none" xmlns="http://www.w3.org/2000/svg">
<g clip-path="url(#clip0_84_2339)">
<path d="M18 0H6C2.70029 0 0 2.69912 0 6V18C0 21.2997 2.70029 24 6 24H18C21.2997 24 24 21.2997 24 18V6C24 2.69912 21.2997 0 18 0ZM12 16.9998C9.23818 16.9998 6.9999 14.7606 6.9999 12C6.9999 9.23818 9.23818 6.9999 12 6.9999C14.7606 6.9999 17.0001 9.23818 17.0001 12C17.0001 14.7606 14.7606 16.9998 12 16.9998ZM18.5001 6.9999C17.6709 6.9999 17.0001 6.32818 17.0001 5.4999C17.0001 4.67162 17.6709 3.9999 18.5001 3.9999C19.3293 3.9999 20.0001 4.67162 20.0001 5.4999C20.0001 6.32818 19.3293 6.9999 18.5001 6.9999Z" fill="white"/>
</g>
<defs>
<clipPath id="clip0_84_2339">
<rect width="24" height="24" fill="white"/>
</clipPath>
</defs>
</svg>
