<svg width="32" height="32" viewBox="0 0 32 32" fill="none" xmlns="http://www.w3.org/2000/svg">
<g clip-path="url(#clip0_809_351)">
<path d="M16 0C7.15606 0 0 7.15669 0 16C0 24.8439 7.15669 32 16 32C24.8439 32 32 24.8433 32 16C32 7.15606 24.8433 0 16 0ZM16 29.5C8.53794 29.5 2.5 23.4616 2.5 16C2.5 8.53794 8.53844 2.5 16 2.5C23.4621 2.5 29.5 8.53844 29.5 16C29.5 23.4621 23.4615 29.5 16 29.5Z" fill="#FFC727"/>
<path d="M16 13.3955C15.3096 13.3955 14.75 13.9551 14.75 14.6455V22.6951C14.75 23.3854 15.3096 23.9451 16 23.9451C16.6904 23.9451 17.25 23.3854 17.25 22.695V14.6455C17.25 13.9551 16.6904 13.3955 16 13.3955Z" fill="#FFC727"/>
<path d="M16 11.8652C16.932 11.8652 17.6875 11.1097 17.6875 10.1777C17.6875 9.24575 16.932 8.49023 16 8.49023C15.068 8.49023 14.3125 9.24575 14.3125 10.1777C14.3125 11.1097 15.068 11.8652 16 11.8652Z" fill="#FFC727"/>
</g>
<defs>
<clipPath id="clip0_809_351">
<rect width="32" height="32" fill="white"/>
</clipPath>
</defs>
</svg>
