<svg width="457" height="372" viewBox="0 0 457 372" fill="none" xmlns="http://www.w3.org/2000/svg">
<path d="M172.257 6.79745C172.257 6.79745 144.152 -8.49736 119.243 6.79745C94.3331 22.0923 82.4257 59.782 86.7005 91.4219C90.9754 123.062 64.8085 143.933 61.9833 167.437C59.158 190.942 74.8079 201.814 80.059 214.135C86.0793 228.262 61.9833 278.406 123.296 290.033C199.992 304.588 229.324 258.097 221.499 219.668C217.668 200.837 206.929 187.451 207.121 172.23C207.314 157.009 218.245 144.85 212.55 125.547C206.855 106.243 199.237 108.847 196.19 78.5233C193.143 48.2 199.415 11.9598 172.257 6.79745Z" fill="#263238"/>
<path d="M124.536 6.07299C108.337 16.3791 95.6838 31.4015 88.2815 49.1174C84.6069 57.865 82.4124 67.1628 81.7879 76.6303C80.9891 88.9964 82.9121 100.564 78.2526 112.56C70.7679 131.789 55.8281 147.794 56.5381 169.183C56.9021 179.154 60.0985 188.816 65.7535 197.036C72.395 206.695 81.8323 214.328 87.3792 224.682C87.6011 225.111 88.2815 224.682 88.0596 224.313C83.4446 215.112 75.9451 208.042 69.7029 199.847C62.1905 190.26 58.1914 178.388 58.3723 166.21C58.964 145.871 73.6967 130.236 80.5602 111.702C83.6812 103.3 83.8735 95.1794 83.5925 86.3782C83.1616 76.0292 84.5075 65.6829 87.5715 55.7885C93.8433 36.0562 107.215 19.0011 124.729 6.29488C124.906 6.22092 124.773 5.96945 124.536 6.07299Z" fill="#263238"/>
<path d="M221.232 214.225C219.295 205.128 214.472 196.874 212.549 187.821C210.227 176.905 213.023 166.047 215.138 155.279C218.096 139.984 217.815 125.562 210.967 111.169C206.529 101.865 201.145 93.153 197.861 83.3607C194.277 72.7671 192.284 61.7009 191.944 50.5227C191.944 50.286 191.545 50.286 191.545 50.5227C191.241 66.7322 194.758 82.7856 201.811 97.3834C205.982 105.978 211.189 114.039 213.644 123.314C216.602 134.467 215.419 145.235 213.437 156.418C212.121 163.814 210.479 171.417 210.597 179.005C210.597 186.904 213.186 193.901 216.011 201.193C223.353 219.744 223.232 240.418 215.671 258.881C215.537 259.207 216.129 259.443 216.277 259.118C222.606 245.046 224.339 229.338 221.232 214.225Z" fill="#263238"/>
<path d="M59.9108 164.717C60.5912 147.972 72.4395 136.612 79.6284 122.072C85.057 111.096 88.755 99.3808 87.0243 87.2958C87.0243 87.0888 86.6397 87.1479 86.6545 87.2958C87.5716 104.795 80.1165 120.666 70.2947 135.31C63.7567 145.058 58.3429 154.421 58.2837 166.151C58.2837 177.63 62.884 187.319 69.5255 196.815C74.2589 203.59 78.9184 209.906 80.9153 217.923C82.9122 225.94 82.3945 234.194 82.0691 242.344C82.0691 242.759 82.7495 242.759 82.7791 242.344C83.9032 229.801 84.0955 217.627 77.6906 206.164C69.7474 192.126 59.2304 181.742 59.9108 164.717Z" fill="#263238"/>
<path d="M224.177 202.332C221.421 196.621 218.148 191.175 214.399 186.061C207.905 176.638 206.811 169.006 208.985 157.808C208.992 157.754 208.979 157.699 208.948 157.654C208.917 157.608 208.871 157.576 208.817 157.563C208.764 157.551 208.708 157.558 208.66 157.584C208.612 157.61 208.575 157.653 208.556 157.705C205.435 166.92 204.696 174.567 210.243 183.058C217.964 194.891 225.537 205.69 227.135 219.816C229.96 244.962 215.582 268.304 192.27 281.01C191.945 281.187 192.27 281.631 192.581 281.468C212.136 271.972 225.848 254.843 228.703 234.549C230.234 223.598 228.666 212.437 224.177 202.332Z" fill="#263238"/>
<path d="M148.871 171.254C152.628 216.517 181.871 315.135 202.314 331.953C215.493 342.796 271.984 354.807 301.582 354.851C313.726 354.851 322.749 271.647 304.541 270.463C273.108 268.422 250.876 265.553 242.503 261.219C235.98 257.846 219.62 226.472 175.289 166.669C158.796 144.422 146.755 145.768 148.871 171.254Z" fill="#EB9481"/>
<path d="M291.241 353.18C292.72 353.727 313.769 361.508 326.49 363.697C335.986 365.324 363.469 369.274 366.265 359.008C368.203 351.997 352.331 347.781 341.119 344.542C335.202 342.826 327.673 337.737 328.916 333.936C331.105 327.309 346.266 332.013 356.384 336.465C375.954 345.074 402.594 361.538 412.771 350.947C416.617 346.953 410.966 341.08 403.053 335.607C415.567 341.613 428.717 346.228 433.154 341.953C435.713 339.512 435.521 336.584 433.583 333.433C437.325 334.202 440.491 333.61 442.458 331.007C445.801 326.57 443.287 320.949 438.45 315.387C439.157 315.233 439.817 314.913 440.376 314.452C440.934 313.992 441.374 313.404 441.659 312.739C448.316 299.56 404.058 268.852 389.755 267.136C347.672 262.003 304.465 270.464 304.465 270.464C289.865 285.152 291.196 353.151 291.241 353.18Z" fill="#EB9481"/>
<path d="M347.259 308.656C357.187 309.07 366.914 311.591 375.793 316.052C386.961 321.747 394.756 328.995 404.386 336.095C404.637 336.287 404.386 336.687 404.105 336.494C399.519 333.122 380.674 320.608 375.852 317.827C367.128 312.674 357.344 309.578 347.244 308.774C347.141 308.819 347.156 308.656 347.259 308.656Z" fill="#263238"/>
<path d="M352.939 290.403C364.047 292.134 375.422 293.864 385.999 297.799C397.566 302.133 407.151 310.269 416.559 318.064C422.209 322.748 427.751 327.555 433.185 332.486C433.421 332.693 433.185 333.092 432.904 332.885C423.348 324.809 413.546 317.023 403.497 309.529C394.23 302.533 383.674 297.431 372.434 294.515C366 292.858 359.462 291.705 352.924 290.551C352.806 290.58 352.82 290.373 352.939 290.403Z" fill="#263238"/>
<path d="M362.747 273.954C373.456 274.916 382.79 275.729 392.686 280.3C405.791 286.335 419.06 297.518 423.749 301.482C428.896 305.92 433.881 310.357 438.807 315.046C439.014 315.239 438.689 315.594 438.482 315.401C427.266 305.278 415.408 295.89 402.981 287.297C397.127 283.131 390.666 279.893 383.826 277.697C376.914 275.849 369.857 274.597 362.732 273.954C362.732 273.954 362.688 273.954 362.747 273.954Z" fill="#263238"/>
<path d="M164.713 276.099L221.469 220.511C221.469 220.511 187.67 172.526 164.875 151.566C152.095 139.821 142.806 149.599 142.88 165.293C143.161 220.215 164.713 276.099 164.713 276.099Z" fill="#FFCC00"/>
<path d="M164.713 276.099L221.469 220.511C221.469 220.511 187.67 172.526 164.875 151.566C152.095 139.821 142.806 149.599 142.88 165.293C143.161 220.215 164.713 276.099 164.713 276.099Z" fill="#FFCC00"/>
<path opacity="0.1" d="M216.039 225.822L164.726 276.114C164.726 276.114 143.16 220.23 142.893 165.308C142.66 160.298 143.888 155.329 146.429 151.004L216.039 225.822Z" fill="black"/>
<path d="M210.76 213.514C201.322 221.339 176.339 243.32 161.946 259.724C161.858 259.828 162.198 260.198 162.301 260.109C176.309 248.275 202.52 222.685 211.248 214.062C211.425 213.899 210.937 213.307 210.76 213.514Z" fill="#263238"/>
<path d="M13.4065 360.546L208.659 360.043L196.826 286.542C196.826 286.542 213.703 266.011 210.508 243.749C207.018 219.358 163.086 157.557 159.388 154.066C144.596 140.103 128.902 136.316 114.731 143.712C66.0361 168.932 13.4065 360.546 13.4065 360.546Z" fill="#FFCC00"/>
<path d="M163.04 280.907C154.303 281.693 145.636 283.122 137.11 285.182C132.879 286.262 128.738 287.534 124.596 288.895C122.54 289.575 120.469 290.197 118.383 290.788C116.216 291.485 113.97 291.908 111.697 292.046C111.654 292.046 111.613 292.063 111.582 292.093C111.552 292.124 111.535 292.165 111.535 292.208C111.535 292.251 111.552 292.293 111.582 292.323C111.613 292.354 111.654 292.371 111.697 292.371C113.842 292.472 115.992 292.433 118.132 292.253C120.202 292.005 122.254 291.614 124.27 291.084C128.56 290.034 132.805 288.777 137.095 287.667C145.734 285.448 154.372 283.23 163.144 281.632C163.558 281.558 163.454 280.863 163.04 280.907Z" fill="#263238"/>
<path d="M184.622 288.658C177.428 287.906 170.198 287.561 162.966 287.622C159.342 287.622 155.748 287.918 152.153 288.258C150.423 288.421 148.707 288.628 146.991 288.85C145.275 289.072 143.249 289.575 141.37 289.797C141.163 289.797 141.163 290.122 141.37 290.107C143.16 289.959 144.979 290.107 146.769 290.107L152.168 289.959C155.777 289.871 159.387 289.826 162.996 289.708C170.214 289.456 177.403 289.294 184.636 289.294C185.021 289.249 184.991 288.746 184.622 288.658Z" fill="#263238"/>
<path d="M91.0488 164.643C42.3687 226.621 -12.8938 341.998 2.68205 364.334C20.0477 389.199 89.1259 311.246 86.3154 307.607C83.9191 304.515 104.583 229.905 119.153 175.722C133.723 121.54 103.075 149.304 91.0488 164.643Z" fill="#EB9481"/>
<path d="M31.2607 239.164L110.338 245.688C110.338 245.688 124.45 188.665 125.352 157.676C125.855 140.295 115.722 140.562 103.919 150.901C62.6491 187.097 31.2607 239.164 31.2607 239.164Z" fill="#FFCC00"/>
<path d="M108.607 232.982C96.5218 230.97 63.5803 226.459 41.8066 226.34C41.6735 226.34 41.6143 226.828 41.8066 226.858C59.9267 229.698 96.3739 232.775 108.592 233.721C108.74 233.751 108.829 233.026 108.607 232.982Z" fill="#263238"/>
<path d="M100.693 244.888C103.932 244.888 107.157 244.888 110.382 245.08L109.76 245.554C111.239 236.841 113.015 228.203 114.982 219.609C116.949 211.015 119.094 202.45 121.653 193.96C120.44 202.731 118.798 211.399 117.008 220.038C115.219 228.676 113.192 237.285 110.914 245.805L110.781 246.338H110.293C107.024 245.85 103.888 245.421 100.693 244.888Z" fill="#263238"/>
<path d="M118.119 211.237C118.648 209.44 119.377 207.708 120.294 206.074C121.2 204.425 122.239 202.852 123.4 201.37C123.299 202.317 123.075 203.247 122.734 204.136C122.406 205.019 122.011 205.874 121.551 206.695C120.659 208.384 119.5 209.917 118.119 211.237Z" fill="#263238"/>
<path d="M119.094 151.787C119.523 155.544 134.093 181.253 150.823 182.436C156.281 182.821 159.698 153.118 159.698 153.118L160.452 150.988L170.94 121.094L137.643 93.6994L132.791 90.0162C132.791 90.0162 130.469 98.3884 127.659 108.832C127.526 109.32 127.392 109.808 127.259 110.311C127.126 110.814 126.919 111.45 126.786 111.997C126.342 113.55 125.898 115.148 125.499 116.745C125.188 117.958 124.878 119.127 124.582 120.414C124.286 121.7 123.99 122.943 123.665 124.23C120.81 136.936 118.946 150.204 119.094 151.787Z" fill="#EB9481"/>
<path d="M127.733 108.832C129.813 117.813 133.82 126.235 139.478 133.514C145.135 140.793 152.307 146.756 160.497 150.988L170.985 121.094L137.644 93.6994L132.792 90.0162C132.792 90.0162 130.47 98.3884 127.733 108.832Z" fill="#263238"/>
<path d="M216.485 81.2451C210.642 136.537 176.902 139.303 164.994 138.046C154.181 136.892 117.512 131.611 117.66 76.0235C117.808 20.4356 145.291 5.65849 170.157 6.97496C195.022 8.29144 222.402 25.9678 216.485 81.2451Z" fill="#EB9481"/>
<path d="M207.609 113.61C209.089 109.557 210.568 105.564 211.707 101.451C212.88 97.3538 213.833 93.1962 214.562 88.9967C215.301 84.8106 215.878 80.5801 216.277 76.3348C216.677 72.0896 216.928 67.7999 217.239 63.5103C217.387 65.6551 217.49 67.7999 217.535 69.9595C217.579 72.1191 217.535 74.264 217.416 76.4088C217.213 80.7219 216.718 85.0163 215.937 89.263C215.198 93.5184 214.119 97.7079 212.713 101.792C211.988 103.833 211.233 105.845 210.361 107.827C209.488 109.809 208.63 111.702 207.609 113.61Z" fill="#263238"/>
<path d="M122.66 82.6944C134.331 83.3157 136.624 56.6163 136.624 56.6163C136.624 56.6163 156.593 54.22 165.645 41.3363C165.645 41.3363 159.418 52.5929 151.371 56.8678C150.025 57.5926 190.348 56.1578 196.161 25.6865C196.161 25.6865 200.051 56.3944 217.92 63.7904C218.778 64.1454 217.062 36.0112 211.604 29.133C205.355 21.3695 197.406 15.1448 188.371 10.9389C179.336 6.73294 169.456 4.65807 159.492 4.87426C134.641 6.85638 116.832 31.6772 114.258 42.1794C109.214 62.8141 117.113 82.3986 122.66 82.6944Z" fill="#263238"/>
<path d="M152.612 57.6079C174.518 58.0813 192.831 45.2567 196.115 23.0393C196.142 22.9302 196.204 22.8334 196.293 22.7642C196.381 22.695 196.49 22.6574 196.603 22.6574C196.715 22.6574 196.824 22.695 196.913 22.7642C197.001 22.8334 197.064 22.9302 197.091 23.0393C198.57 45.8927 172.965 60.9065 152.375 57.9334C151.887 57.9925 152.094 57.6079 152.612 57.6079Z" fill="#263238"/>
<path d="M122.794 81.4519C135.027 76.1416 137.689 64.3673 139.375 52.3267C139.375 51.9717 140.041 52.0013 140.026 52.3267C139.42 64.1602 136.299 78.5823 123.149 82.4282C123.034 82.4314 122.921 82.3984 122.826 82.3337C122.731 82.2691 122.658 82.1762 122.619 82.0681C122.58 81.9601 122.575 81.8424 122.607 81.7318C122.638 81.6212 122.703 81.5233 122.794 81.4519Z" fill="#263238"/>
<path d="M196.663 21.0869C196.672 21.0642 196.687 21.0447 196.707 21.0309C196.726 21.0171 196.75 21.0097 196.774 21.0097C196.798 21.0097 196.822 21.0171 196.842 21.0309C196.861 21.0447 196.877 21.0642 196.885 21.0869C198.719 33.7783 197.876 54.9455 213.689 59.1612C213.775 59.1788 213.851 59.2301 213.899 59.3036C213.948 59.3771 213.965 59.4669 213.947 59.5532C213.93 59.6395 213.879 59.7153 213.805 59.7638C213.732 59.8124 213.642 59.8297 213.555 59.812C198.009 57.1347 194.119 33.9262 196.663 21.0869Z" fill="#263238"/>
<path d="M116.594 41.7224L112.156 45.7162L123.709 64.1026L133.368 55.0351L116.594 41.7224ZM124.655 58.5408L116.268 46.7812L117.274 45.8198L128.117 55.4049L124.655 58.5408Z" fill="#FFCC00"/>
<path d="M120.737 33.2751L118.178 38.6298L135.795 51.2916L141.328 39.2658L120.737 33.2751ZM134.538 45.8038L122.35 38.0825L122.912 36.8252L136.565 41.6029L134.538 45.8038Z" fill="#FFCC00"/>
<path d="M210.227 71.7931C209.007 71.4405 207.807 71.0208 206.633 70.5358C205.303 70.2675 204.098 69.5713 203.201 68.5537C202.982 68.1782 202.894 67.7408 202.951 67.31C203.007 66.8792 203.204 66.4791 203.511 66.1722C204.209 65.6556 205.033 65.3352 205.896 65.2442C206.76 65.1531 207.632 65.2948 208.422 65.6545C210.131 66.143 211.6 67.2435 212.549 68.746C212.749 69.1011 212.841 69.507 212.813 69.9136C212.785 70.3202 212.638 70.7096 212.391 71.0338C212.144 71.3579 211.807 71.6026 211.423 71.7376C211.038 71.8725 210.622 71.8918 210.227 71.7931Z" fill="#263238"/>
<path d="M172.669 66.8673C173.941 66.8435 175.21 66.7447 176.471 66.5715C177.828 66.6523 179.175 66.2832 180.302 65.5213C180.608 65.2162 180.803 64.8176 180.857 64.3888C180.91 63.96 180.819 63.5256 180.597 63.1546C180.053 62.4784 179.339 61.9591 178.528 61.6498C177.717 61.3405 176.839 61.2523 175.982 61.3943C174.206 61.4315 172.505 62.1212 171.205 63.3321C170.922 63.6243 170.731 63.9928 170.655 64.3922C170.579 64.7916 170.621 65.2045 170.777 65.5801C170.933 65.9557 171.195 66.2777 171.531 66.5064C171.867 66.7351 172.262 66.8605 172.669 66.8673Z" fill="#263238"/>
<path d="M179.609 81.378C179.609 81.2301 179.298 81.526 179.284 81.6739C179.003 85.431 178.056 89.6763 174.55 90.549C174.432 90.549 174.432 90.7561 174.55 90.7561C178.736 90.6377 179.949 84.9724 179.609 81.378Z" fill="#263238"/>
<path d="M176.68 77.118C170.763 76.0234 168.959 88.0344 174.491 89.055C180.023 90.0757 181.695 78.0351 176.68 77.118Z" fill="#263238"/>
<path d="M174.239 77.399C173.085 77.9315 171.887 78.9817 170.6 78.8782C169.313 78.7746 168.189 77.399 167.405 76.0382C167.405 75.905 167.213 76.0381 167.183 76.1417C166.813 78.4492 167.361 80.9342 169.772 81.6443C172.183 82.3543 173.899 80.4757 174.801 78.2421C174.979 77.8723 174.697 77.2215 174.239 77.399Z" fill="#263238"/>
<path d="M200.42 83.6128C200.42 83.4796 200.687 83.8346 200.657 83.9825C199.962 87.6805 199.799 92.0293 202.965 93.7896C203.068 93.7896 202.965 94.0262 202.965 93.9966C198.882 92.7837 199.163 87.0001 200.42 83.6128Z" fill="#263238"/>
<path d="M204.341 80.1804C210.391 80.639 209.001 92.7092 203.409 92.2802C197.818 91.8512 199.268 79.8402 204.341 80.1804Z" fill="#263238"/>
<path d="M206.764 81.32C207.637 82.0596 208.451 83.3317 209.575 83.5388C210.699 83.7459 212.016 82.5773 213.007 81.4236C213.095 81.3052 213.184 81.4236 213.169 81.5863C212.977 83.8938 211.942 86.2162 209.664 86.3937C207.608 86.5712 206.35 84.4263 206.055 82.0596C205.995 81.6602 206.409 81.0242 206.764 81.32Z" fill="#263238"/>
<path d="M174.728 111.865C175.438 112.9 176.104 114.261 177.42 114.631C178.797 114.873 180.209 114.817 181.562 114.468C181.591 114.459 181.621 114.46 181.649 114.471C181.677 114.481 181.7 114.501 181.716 114.527C181.731 114.552 181.737 114.582 181.734 114.612C181.73 114.642 181.716 114.669 181.695 114.69C181.026 115.312 180.202 115.743 179.31 115.938C178.418 116.133 177.489 116.085 176.621 115.799C175.904 115.459 175.304 114.914 174.898 114.231C174.493 113.549 174.299 112.761 174.344 111.968C174.329 111.746 174.625 111.717 174.728 111.865Z" fill="#263238"/>
<path d="M189.962 107.722C188.214 109.69 185.988 111.173 183.498 112.027C182.132 112.463 180.664 112.463 179.297 112.027C176.339 111.006 176.457 108.225 177.182 105.903C177.581 104.662 178.122 103.47 178.795 102.353C181.851 105.286 185.763 107.167 189.962 107.722Z" fill="#263238"/>
<path d="M183.498 112.028C182.132 112.464 180.664 112.464 179.297 112.028C176.339 111.007 176.457 108.227 177.182 105.904C180.407 106.437 183.454 108.863 183.498 112.028Z" fill="#FF9CBD"/>
<path d="M192.122 100.474C192.122 100.474 192.122 106.154 191.796 108.772C191.796 109.024 191.101 109.053 190.214 108.979C190.214 108.979 190.14 108.979 190.11 108.979C187.8 109.088 185.504 108.56 183.474 107.451C181.444 106.342 179.759 104.696 178.602 102.693C178.582 102.635 178.581 102.572 178.599 102.513C178.618 102.455 178.655 102.404 178.706 102.369C178.756 102.334 178.817 102.316 178.878 102.318C178.939 102.321 178.998 102.343 179.046 102.382C182.087 105.12 185.932 106.801 190.007 107.175C190.288 106.465 189.637 97.4565 190.007 97.4861C192.023 97.9358 193.968 98.6574 195.79 99.6309C196.071 87.7974 194.474 76.0526 194.947 64.2931C194.941 64.2464 194.945 64.1991 194.957 64.1538C194.97 64.1085 194.991 64.0661 195.02 64.029C195.049 63.992 195.084 63.9609 195.125 63.9377C195.166 63.9145 195.211 63.8995 195.258 63.8937C195.304 63.8879 195.352 63.8913 195.397 63.9037C195.442 63.9162 195.485 63.9374 195.522 63.9663C195.559 63.9951 195.59 64.031 195.613 64.0718C195.636 64.1127 195.651 64.1577 195.657 64.2043C198.201 76.4224 198.172 90.031 198.172 102.234C198.246 103.758 193.113 101.066 192.122 100.474Z" fill="#263238"/>
<path d="M166.769 98.4486C163.568 97.6648 160.652 95.9983 158.351 93.6388C156.051 91.2793 154.459 88.3215 153.757 85.1019C153.055 81.8824 153.271 78.5304 154.38 75.4274C155.489 72.3244 157.447 69.595 160.03 67.5498C162.614 65.5045 165.72 64.2256 168.995 63.8586C172.269 63.4915 175.581 64.051 178.554 65.4735C181.526 66.8959 184.04 69.1241 185.808 71.9046C187.577 74.6851 188.529 77.9061 188.557 81.2012C188.58 83.8816 187.99 86.5318 186.833 88.9497C185.676 91.3676 183.982 93.4893 181.881 95.153C179.779 96.8167 177.325 97.9784 174.706 98.5495C172.087 99.1207 169.372 99.0861 166.769 98.4486ZM174.594 66.5572C173.365 66.2515 172.103 66.1024 170.836 66.1135C166.952 66.1394 163.223 67.6452 160.411 70.3242C157.598 73.0032 155.912 76.6538 155.696 80.5324C155.481 84.411 156.753 88.2257 159.252 91.1996C161.751 94.1734 165.29 96.0826 169.148 96.5382C173.005 96.9939 176.892 95.9617 180.015 93.6519C183.138 91.3421 185.263 87.9286 185.958 84.1066C186.652 80.2846 185.863 76.3416 183.752 73.081C181.64 69.8204 178.365 67.4874 174.594 66.5572Z" fill="#37474F"/>
<path d="M206.87 103.226C200.332 101.614 196.042 93.4636 197.181 84.3518C197.638 79.9865 199.46 75.8766 202.388 72.607C203.555 71.1236 205.085 69.9666 206.831 69.2481C208.576 68.5297 210.477 68.2741 212.35 68.5062C214.224 68.7383 216.005 69.4502 217.522 70.5729C219.04 71.6956 220.241 73.1911 221.011 74.9146C223.033 78.8123 223.793 83.2424 223.185 87.5912C221.987 97.2208 215.168 104.321 208.009 103.433C207.625 103.387 207.245 103.318 206.87 103.226ZM212.934 71.0095C212.648 70.9326 212.356 70.8782 212.062 70.8468C210.563 70.7252 209.057 70.967 207.672 71.5515C206.286 72.136 205.062 73.0461 204.104 74.2045C201.522 77.1227 199.914 80.773 199.503 84.6476C198.468 92.9902 202.462 100.371 208.379 101.096C214.295 101.821 219.887 95.638 220.922 87.2954C221.474 83.4424 220.812 79.5133 219.029 76.0535C218.423 74.833 217.567 73.7533 216.517 72.8844C215.467 72.0155 214.247 71.3768 212.934 71.0095Z" fill="#37474F"/>
<path d="M187.729 83.1389L186.442 81.1716C189.401 79.2635 195.865 77.0447 199.563 82.1331L197.655 83.5087C194.297 78.9676 187.996 82.991 187.729 83.1389Z" fill="#37474F"/>
<path d="M109.345 77.9761L107.408 76.6448C108.029 75.7425 113.62 67.7697 118.945 67.5922C123.915 67.4295 154.845 74.2486 156.162 74.5444L155.644 76.8371C146.769 74.8698 122.865 69.811 119.034 69.9441C115.514 70.0772 110.854 75.7426 109.345 77.9761Z" fill="#37474F"/>
<path d="M127.097 81.1866C127.097 81.1866 118.503 61.8536 109.953 64.6049C101.403 67.3562 105.515 93.7893 113.976 98.9221C115.011 99.6533 116.182 100.168 117.42 100.435C118.659 100.701 119.938 100.715 121.182 100.474C122.425 100.234 123.607 99.7446 124.657 99.0355C125.706 98.3264 126.602 97.4123 127.289 96.3483L127.097 81.1866Z" fill="#EB9481"/>
<path d="M111.329 72.1482C111.196 72.1482 111.122 72.3109 111.24 72.3849C117.157 76.1864 119.302 82.7392 120.455 89.3068C118.976 86.5851 116.698 84.7953 113.059 86.4372C112.867 86.5259 112.985 86.8217 113.163 86.8217C114.358 86.6631 115.573 86.885 116.635 87.4558C117.697 88.0267 118.552 88.9176 119.08 90.002C119.949 91.8036 120.623 93.6929 121.091 95.6377C121.284 96.259 122.363 96.1554 122.275 95.4602C122.282 95.4111 122.282 95.3614 122.275 95.3123C123.976 87.2211 119.878 74.648 111.329 72.1482Z" fill="#263238"/>
<path d="M3.73148 366.345C22.3397 377.601 85.1905 370.265 169.223 351.168C180.85 348.52 153.13 267.949 140.557 270.138C124.744 272.889 63.9345 286.986 59.6153 288.584C23.2124 302.059 -8.88601 358.697 3.73148 366.345Z" fill="#EB9481"/>
<path d="M119.092 277.993C119.092 277.993 124.151 276.129 149.223 261.929C166.574 252.122 215.106 239.283 258.565 274.62C275.221 288.17 273.002 305.772 253.196 294.767C239.247 287.031 230.253 280.463 224.987 279.206C224.987 279.206 234.321 301.778 226.777 313.76C220.184 324.225 212.859 334.209 204.856 343.639C202.812 342.563 200.836 341.363 198.939 340.045C195.545 344.508 190.958 347.921 185.708 349.889C180.458 351.858 174.758 352.301 169.266 351.169L119.092 277.993Z" fill="#EB9481"/>
<path d="M167.287 255.214C177.523 257.314 199.134 262.122 215.435 272.224C233.555 283.422 265.431 309.899 257.015 323.197C250.846 332.93 237.785 323.893 237.785 323.893C237.785 323.893 248.643 337.619 241.143 345.193C234.324 352.115 224.635 344.512 224.635 344.512C224.635 344.512 229.798 353.964 221.928 359.304C212.476 365.783 203.217 344.897 187.907 343.181C184.549 342.856 167.287 255.214 167.287 255.214Z" fill="#EB9481"/>
<path d="M200.406 289.382C209.71 292.932 228.747 306.437 237.815 323.404C238.022 323.803 237.815 324.158 237.578 323.847C226.592 310.934 214.075 299.405 200.303 289.515C200.214 289.486 200.303 289.338 200.406 289.382Z" fill="#263238"/>
<path d="M189.623 307.976C197.329 311.867 216.337 326.644 224.931 344.217C225.123 344.601 224.931 344.956 224.665 344.631C214.368 331.171 202.572 318.929 189.505 308.139C189.49 308.121 189.481 308.099 189.48 308.076C189.479 308.053 189.486 308.03 189.5 308.011C189.513 307.993 189.533 307.979 189.555 307.973C189.578 307.966 189.601 307.968 189.623 307.976Z" fill="#263238"/>
<path d="M224.664 344.659C227.528 346.607 230.89 347.695 234.353 347.795C236.051 347.789 237.716 347.322 239.169 346.444C240.623 345.566 241.811 344.31 242.607 342.81C243.317 341.281 243.617 339.594 243.479 337.914C243.318 336.227 242.93 334.57 242.326 332.988C241.12 329.777 239.407 326.781 237.252 324.113L235.536 322.012L237.829 323.492C240.482 325.256 243.458 326.478 246.586 327.086C248.113 327.385 249.688 327.35 251.201 326.983C252.673 326.595 254.006 325.801 255.047 324.69C256.1 323.568 256.866 322.208 257.28 320.726C257.647 319.23 257.713 317.676 257.472 316.155C256.889 313.044 255.686 310.081 253.937 307.442C252.208 304.759 250.184 302.279 247.902 300.047C245.654 297.724 243.331 295.476 240.979 293.242C236.33 288.756 231.442 284.524 226.335 280.566L221.144 276.69L227.06 279.308C231.889 281.433 236.586 283.843 241.127 286.527C243.405 287.894 245.612 289.375 247.739 290.964C249.819 292.492 252.026 293.839 254.337 294.988C256.611 296.167 259.049 297 261.57 297.458C263.996 297.843 266.732 297.635 268.167 295.698C268.808 294.675 269.189 293.51 269.277 292.306C269.365 291.102 269.156 289.895 268.67 288.79C267.809 286.378 266.565 284.12 264.987 282.104C261.763 278.018 257.955 274.43 253.686 271.454C249.447 268.377 244.998 265.599 240.373 263.141C231.202 258.037 221.227 254.536 210.878 252.786C221.304 254.301 231.395 257.588 240.713 262.505C245.397 264.915 249.905 267.654 254.203 270.699C258.594 273.682 262.526 277.29 265.874 281.409C267.561 283.511 268.895 285.874 269.824 288.405C270.296 289.709 270.526 291.087 270.504 292.473C270.486 293.931 270.004 295.345 269.128 296.511C268.222 297.674 266.923 298.468 265.475 298.745C264.099 298.981 262.694 298.981 261.318 298.745C258.668 298.267 256.102 297.405 253.7 296.186C251.313 295 249.027 293.62 246.867 292.059C244.772 290.519 242.6 289.087 240.358 287.769C235.849 285.145 231.197 282.775 226.424 280.669L227.149 279.397C232.313 283.411 237.251 287.707 241.941 292.266C244.293 294.514 246.615 296.777 248.878 299.129C251.21 301.459 253.279 304.039 255.047 306.821C256.882 309.614 258.134 312.748 258.73 316.037C258.972 317.731 258.871 319.456 258.434 321.11C257.956 322.773 257.083 324.295 255.89 325.548C254.679 326.799 253.142 327.686 251.452 328.107C249.79 328.469 248.07 328.469 246.408 328.107C243.151 327.437 240.063 326.119 237.326 324.231L237.903 323.595C240.089 326.339 241.813 329.422 243.006 332.722C243.596 334.381 243.959 336.113 244.086 337.869C244.189 339.646 243.832 341.419 243.05 343.017C242.191 344.562 240.927 345.845 239.395 346.728C237.864 347.611 236.121 348.062 234.353 348.031C230.869 347.848 227.509 346.679 224.664 344.659Z" fill="#263238"/>
<path d="M30.2546 310.728C33.0798 307.503 41.4373 297.282 54.6908 290.655C66.2433 284.886 82.7214 281.78 91.3155 280.759C91.5226 280.759 91.6114 280.981 91.4043 281.055C84.0083 283.57 68.9206 286.78 56.5102 292.77C46.9909 297.52 38.2196 303.64 30.4765 310.935C30.3285 311.053 30.1067 310.935 30.2546 310.728Z" fill="#263238"/>
<path d="M328.074 356.702H135.321V365.34H328.074V356.702Z" fill="#455A64"/>
<path d="M328.089 356.702H231.069V365.34H328.089V356.702Z" fill="#37474F"/>
<path d="M236.941 365.339H424.798L449.367 237.745H261.51L236.941 365.339Z" fill="#37474F"/>
<path d="M244.589 365.339H432.446L457 237.745H269.158L244.589 365.339Z" fill="#455A64"/>
<path d="M339.358 301.542C339.206 302.997 339.363 304.468 339.82 305.858C340.277 307.248 341.024 308.526 342.011 309.606C342.997 310.686 344.202 311.545 345.545 312.126C346.888 312.707 348.338 312.997 349.801 312.976C352.912 312.92 355.895 311.725 358.185 309.618C360.474 307.511 361.912 304.638 362.227 301.542C362.378 300.095 362.223 298.631 361.771 297.248C361.319 295.864 360.581 294.591 359.604 293.512C358.627 292.433 357.433 291.572 356.101 290.986C354.769 290.399 353.328 290.1 351.872 290.108C348.747 290.146 345.744 291.333 343.437 293.441C341.129 295.549 339.678 298.433 339.358 301.542Z" fill="white"/>
</svg>
