<svg width="32" height="32" viewBox="0 0 32 32" fill="none" xmlns="http://www.w3.org/2000/svg">
<path d="M27.4935 11.2668C26.0935 5.10683 20.7201 2.3335 16.0001 2.3335C16.0001 2.3335 16.0001 2.3335 15.9868 2.3335C11.2801 2.3335 5.89346 5.0935 4.49346 11.2535C2.93346 18.1335 7.14679 23.9602 10.9601 27.6268C12.3735 28.9868 14.1868 29.6668 16.0001 29.6668C17.8135 29.6668 19.6268 28.9868 21.0268 27.6268C24.8401 23.9602 29.0535 18.1468 27.4935 11.2668ZM16.0001 17.9468C13.6801 17.9468 11.8001 16.0668 11.8001 13.7468C11.8001 11.4268 13.6801 9.54683 16.0001 9.54683C18.3201 9.54683 20.2001 11.4268 20.2001 13.7468C20.2001 16.0668 18.3201 17.9468 16.0001 17.9468Z" fill="#213C90"/>
</svg>
