<svg width="327" height="327" viewBox="0 0 327 327" fill="none" xmlns="http://www.w3.org/2000/svg">
<path d="M303.542 186.458C316.221 109.115 263.801 36.1372 186.458 23.4579C109.115 10.7786 36.1372 63.1991 23.4579 140.542C10.7786 217.885 63.199 290.863 140.542 303.542C217.885 316.222 290.863 263.801 303.542 186.458Z" fill="#213C90" fill-opacity="0.1"/>
<path d="M253 255H74V115.38L163.5 63L253 115.38V255Z" fill="#A6A6A6"/>
<path d="M243 254H84V70H202.079L243 105.971V254Z" fill="white"/>
<path d="M199.044 69.8936L236.797 105.826H199.044V69.8936Z" fill="#EBEBEB"/>
<path d="M104.437 106.372L185.991 106.372V101.551L104.437 101.551V106.372Z" fill="#DBDBDB"/>
<path d="M104.437 118.562L185.991 118.562V113.741L104.437 113.741V118.562Z" fill="#DBDBDB"/>
<path d="M104.437 130.752H185.991V125.93L104.437 125.93V130.752Z" fill="#DBDBDB"/>
<path d="M104.393 142.987L223.926 142.987V138.166H104.393V142.987Z" fill="#DBDBDB"/>
<path d="M104.393 155.177L223.926 155.177V150.356H104.393V155.177Z" fill="#DBDBDB"/>
<path d="M104.393 167.412L223.926 167.412V162.59H104.393V167.412Z" fill="#DBDBDB"/>
<path d="M104.393 179.602L223.926 179.602V174.78H104.393V179.602Z" fill="#DBDBDB"/>
<path d="M104.393 191.792L223.926 191.792V186.971H104.393V191.792Z" fill="#DBDBDB"/>
<path d="M104.393 204.027L223.926 204.027V199.205H104.393V204.027Z" fill="#DBDBDB"/>
<path d="M104.393 216.217L223.926 216.217V211.395H104.393V216.217Z" fill="#DBDBDB"/>
<path d="M104.393 228.452L223.926 228.452V223.631H104.393V228.452Z" fill="#DBDBDB"/>
<path d="M104.393 240.642L223.926 240.642V235.821H104.393V240.642Z" fill="#DBDBDB"/>
<path d="M253 150V255H74V150C81.682 154.007 89.2162 158.242 96.849 162.385C104.482 166.529 112.016 170.763 119.501 175.043C127.905 179.779 136.293 184.575 144.664 189.432L163.475 200.314L182.237 189.432H181.991H182.286L207.401 175.089C214.935 170.809 222.518 166.62 230.102 162.431C237.685 158.242 245.318 154.052 253 150Z" fill="#213C90"/>
<path d="M246.121 150.173C239.48 154.722 232.476 159.27 225.926 163.819C219.376 168.367 212.28 172.916 205.503 177.464C198.726 182.012 191.221 186.788 184.08 191.382L183.443 191.837L164.385 203.981L163.43 204.527L162.52 203.981L143.508 191.792L142.826 191.382C135.639 186.803 128.483 182.164 121.357 177.464C114.58 172.916 107.712 168.367 100.98 163.819C94.2483 159.27 87.3347 154.722 80.7849 150.173C87.8805 154.176 94.8396 158.406 101.89 162.545C108.94 166.684 115.899 170.914 122.813 175.19C130.575 179.92 138.323 184.711 146.055 189.563L163.43 200.434L180.76 189.563L203.957 175.235C210.916 170.96 217.921 166.775 224.925 162.591C231.93 158.406 239.025 154.221 246.121 150.173Z" fill="#DBDBDB"/>
<path d="M146.283 189.472L143.69 191.701C139.551 195.203 135.276 198.569 130.955 201.799C125.678 205.847 120.311 209.667 114.899 213.488C109.486 217.309 103.982 220.993 98.3877 224.541C92.7931 228.089 87.1985 231.636 81.3311 234.82C86.3798 230.272 91.565 226.36 96.8412 222.358C102.117 218.355 107.53 214.489 112.897 210.668C118.264 206.847 123.813 203.163 129.408 199.57C133.957 196.704 138.505 193.93 143.053 191.292C144.1 190.655 145.191 190.064 146.283 189.472Z" fill="#DBDBDB"/>
<path d="M245.894 234.957C240.026 231.773 234.386 228.271 228.837 224.678C223.288 221.084 217.784 217.4 212.281 213.625C206.777 209.85 201.501 205.983 196.225 201.935C191.949 198.706 187.673 195.386 183.58 191.883L180.942 189.609H180.714H180.987L184.217 191.474C188.765 194.112 193.314 196.887 197.862 199.752C203.411 203.345 208.915 207.075 214.327 210.85C219.74 214.625 225.153 218.492 230.383 222.54C235.614 226.588 240.708 230.59 245.894 234.957Z" fill="#DBDBDB"/>
<path d="M197.338 140.725C201.768 122.026 190.201 103.275 171.502 98.8447C152.803 94.414 134.052 105.981 129.621 124.68C125.191 143.38 136.758 162.13 155.457 166.561C174.156 170.992 192.907 159.425 197.338 140.725Z" fill="#008B42"/>
<path d="M145.828 135.573C150.799 139.72 155.508 144.171 159.929 148.9L156.745 149.127C158.473 146.08 160.338 143.124 162.248 140.031C164.159 136.938 166.069 134.163 168.116 131.343C172.12 125.564 176.512 120.063 181.261 114.878C178.478 121.345 175.241 127.608 171.573 133.617C169.844 136.619 167.888 139.576 166.023 142.714C164.159 145.853 162.157 148.536 160.065 151.402L158.473 153.63L156.881 151.629C152.854 146.521 149.163 141.158 145.828 135.573Z" fill="white"/>
</svg>
