<svg width="32" height="32" viewBox="0 0 32 32" fill="none" xmlns="http://www.w3.org/2000/svg">
<path d="M22.6665 4.6665H9.33317C5.33317 4.6665 2.6665 6.6665 2.6665 11.3332V20.6665C2.6665 25.3332 5.33317 27.3332 9.33317 27.3332H22.6665C26.6665 27.3332 29.3332 25.3332 29.3332 20.6665V11.3332C29.3332 6.6665 26.6665 4.6665 22.6665 4.6665ZM23.2932 12.7865L19.1198 16.1198C18.2398 16.8265 17.1198 17.1732 15.9998 17.1732C14.8798 17.1732 13.7465 16.8265 12.8798 16.1198L8.7065 12.7865C8.27984 12.4398 8.21317 11.7998 8.5465 11.3732C8.89317 10.9465 9.51984 10.8665 9.9465 11.2132L14.1198 14.5465C15.1332 15.3598 16.8532 15.3598 17.8665 14.5465L22.0398 11.2132C22.4665 10.8665 23.1065 10.9332 23.4398 11.3732C23.7865 11.7998 23.7198 12.4398 23.2932 12.7865Z" fill="#213C90"/>
</svg>
