<svg width="32" height="32" viewBox="0 0 32 32" fill="none" xmlns="http://www.w3.org/2000/svg">
<g clip-path="url(#clip0_372_167)">
<path d="M16 0C7.17725 0 0 7.17725 0 16C0 24.8228 7.17725 32 16 32C24.8228 32 32 24.8228 32 16C32 7.17725 24.8228 0 16 0ZM23 17.3333H17.3333V23C17.3333 23.7361 16.7361 24.3333 16 24.3333C15.2639 24.3333 14.6667 23.7361 14.6667 23V17.3333H9C8.26394 17.3333 7.66675 16.7361 7.66675 16C7.66675 15.2639 8.26394 14.6667 9 14.6667H14.6667V9C14.6667 8.26394 15.2639 7.66675 16 7.66675C16.7361 7.66675 17.3333 8.26394 17.3333 9V14.6667H23C23.7361 14.6667 24.3333 15.2639 24.3333 16C24.3333 16.7361 23.7361 17.3333 23 17.3333Z" fill="#1E1E1E"/>
</g>
<defs>
<clipPath id="clip0_372_167">
<rect width="32" height="32" fill="white"/>
</clipPath>
</defs>
</svg>
