<svg width="128" height="128" viewBox="0 0 128 128" fill="none" xmlns="http://www.w3.org/2000/svg">
<g id="Frame">
<g id="Group">
<g id="Group_2">
<path id="Vector" d="M63.9999 62.912C78.5013 62.912 90.2559 51.216 90.2559 36.7894C90.2559 22.3627 78.5066 10.6667 63.9999 10.6667C49.4933 10.6667 37.7439 22.3627 37.7439 36.7894C37.7439 51.216 49.4933 62.912 63.9999 62.912ZM77.6746 73.7974H50.3253C34.4639 73.7974 21.3333 86.8587 21.3333 102.64C21.3333 106.448 22.9759 109.717 26.2559 111.349C31.1786 114.069 42.1173 117.333 63.9999 117.333C85.8826 117.333 96.8213 114.069 101.744 111.349C103.237 110.436 104.473 109.157 105.334 107.633C106.196 106.109 106.654 104.391 106.667 102.64C106.667 86.3147 93.5413 73.7974 77.6746 73.7974Z" fill="#213C90"/>
</g>
</g>
</g>
</svg>
