<svg width="457" height="378" viewBox="0 0 457 378" fill="none" xmlns="http://www.w3.org/2000/svg">
<path d="M100.319 200.147H176.11V175.822H100.319V200.147Z" fill="#263238"/>
<path d="M161.942 193.604C183.791 265.156 191.729 317.475 213.152 329.652C230.535 339.496 254.404 345.612 278.815 349.396C304.868 353.1 331.137 355.077 357.451 355.314C365.559 355.314 372.302 355.314 377.081 355.314C388.916 355.314 403.028 276.166 394.151 267.119C392.074 265.07 384.194 263.904 373.212 263.249C336.227 261.087 263.935 264.843 259.412 261.002C254.888 257.161 221.289 209.536 191.843 164.869C163.62 122.393 148.058 148.14 161.942 193.604Z" fill="#D3766A"/>
<path d="M338.645 359.61L366.27 261.23C366.27 261.23 267.634 263.648 261.005 259.978C254.376 256.308 217.903 198.753 190.591 160.403C169.14 130.16 145.298 134.058 160.491 196.762C176.508 262.88 189.681 314.886 207.462 329.14C237.477 353.066 338.645 359.61 338.645 359.61Z" fill="#C12127"/>
<path d="M338.105 307.66C339.575 307.181 341.146 307.102 342.657 307.432C343.48 307.727 344.194 308.267 344.702 308.979C345.21 309.69 345.489 310.54 345.502 311.415C345.506 311.982 345.651 312.539 345.924 313.035C346.197 313.532 346.59 313.953 347.067 314.26C347.606 314.602 348.222 314.807 348.859 314.857C349.587 314.949 350.309 315.082 351.021 315.256C349.566 315.771 347.988 315.831 346.498 315.426C345.697 315.092 345.015 314.526 344.538 313.801C344.062 313.076 343.813 312.225 343.823 311.358C343.802 310.782 343.637 310.22 343.344 309.723C343.051 309.226 342.639 308.81 342.145 308.513C341.59 308.192 340.964 308.016 340.324 308.001C339.556 307.944 338.844 307.859 338.105 307.66ZM215.997 266.151C216.638 266.161 217.266 266.337 217.818 266.663C218.318 266.952 218.733 267.366 219.023 267.865C219.312 268.365 219.466 268.931 219.468 269.508C219.461 270.375 219.712 271.224 220.188 271.948C220.664 272.672 221.344 273.239 222.142 273.576C223.644 273.967 225.227 273.908 226.694 273.406C225.955 273.207 225.243 273.121 224.532 272.979C223.894 272.955 223.275 272.758 222.74 272.41C222.263 272.103 221.871 271.682 221.598 271.185C221.324 270.689 221.179 270.132 221.175 269.565C221.159 268.691 220.878 267.843 220.37 267.132C219.862 266.421 219.151 265.881 218.33 265.582C216.846 265.227 215.294 265.276 213.835 265.724C214.546 265.923 215.257 266.009 215.997 266.151ZM281.006 303.762C281.649 303.781 282.277 303.967 282.826 304.302C283.326 304.591 283.742 305.006 284.031 305.505C284.321 306.004 284.474 306.57 284.476 307.147C284.472 308.01 284.723 308.855 285.2 309.574C285.676 310.293 286.355 310.855 287.151 311.187C288.649 311.607 290.24 311.547 291.703 311.017C290.963 310.846 290.252 310.761 289.541 310.618C288.898 310.598 288.275 310.391 287.748 310.021C287.272 309.714 286.879 309.293 286.606 308.796C286.333 308.3 286.188 307.743 286.183 307.176C286.163 306.303 285.881 305.457 285.374 304.747C284.866 304.036 284.157 303.495 283.338 303.193C281.836 302.857 280.27 302.946 278.815 303.449C279.555 303.534 280.294 303.62 281.006 303.762ZM236.595 307.204C236.12 307.649 235.544 307.971 234.916 308.143C234.357 308.284 233.77 308.28 233.212 308.131C232.655 307.981 232.144 307.692 231.73 307.29C231.123 306.675 230.348 306.256 229.502 306.083C228.656 305.911 227.777 305.994 226.979 306.322C225.329 307.034 224.703 308.456 223.878 309.623C224.506 309.248 225.114 308.84 225.699 308.399C226.177 307.978 226.755 307.684 227.377 307.546C227.947 307.424 228.538 307.449 229.095 307.619C229.652 307.788 230.158 308.095 230.564 308.513C231.185 309.125 231.978 309.533 232.838 309.68C233.698 309.828 234.582 309.708 235.372 309.338C236.669 308.521 237.714 307.359 238.387 305.981C237.648 306.351 237.079 306.806 236.595 307.204ZM218.558 229.593C218.086 230.036 217.508 230.349 216.879 230.503C216.322 230.648 215.736 230.648 215.179 230.504C214.621 230.359 214.11 230.075 213.693 229.678C213.089 229.059 212.315 228.634 211.469 228.456C210.623 228.279 209.743 228.358 208.942 228.682C207.291 229.422 206.694 230.844 205.869 232.011C206.495 231.641 207.064 231.186 207.661 230.788C208.132 230.355 208.713 230.06 209.34 229.934C209.909 229.813 210.501 229.838 211.058 230.007C211.615 230.176 212.12 230.484 212.526 230.901C213.152 231.507 213.945 231.909 214.803 232.057C215.661 232.204 216.543 232.089 217.334 231.726C218.956 230.93 219.525 229.536 220.378 228.369C219.525 228.739 219.041 229.194 218.444 229.593H218.558ZM317.848 341.913C317.368 342.345 316.793 342.657 316.17 342.824C315.612 342.969 315.027 342.969 314.47 342.825C313.912 342.68 313.4 342.396 312.983 341.999C312.38 341.38 311.606 340.954 310.76 340.777C309.913 340.6 309.034 340.678 308.232 341.003C306.894 341.784 305.815 342.941 305.131 344.332C305.786 343.962 306.355 343.507 306.952 343.108C307.423 342.676 308.004 342.381 308.631 342.255C309.2 342.128 309.793 342.15 310.351 342.32C310.909 342.489 311.414 342.8 311.817 343.222C312.442 343.828 313.236 344.23 314.094 344.377C314.951 344.525 315.834 344.409 316.625 344.047C317.913 343.219 318.955 342.059 319.641 340.69C318.901 341.06 318.332 341.487 317.735 341.913H317.848ZM270.109 261.229C270.041 262.086 269.662 262.888 269.044 263.485C268.426 264.083 267.611 264.434 266.752 264.472C265.888 264.46 265.039 264.705 264.315 265.176C263.59 265.647 263.023 266.323 262.684 267.118C262.293 268.62 262.352 270.203 262.854 271.67C263.054 270.959 263.139 270.219 263.281 269.508C263.309 268.871 263.506 268.252 263.85 267.716C264.157 267.239 264.578 266.847 265.075 266.573C265.571 266.3 266.128 266.155 266.695 266.151C267.57 266.139 268.42 265.86 269.131 265.351C269.843 264.843 270.383 264.129 270.678 263.306C270.903 262.658 270.981 261.968 270.906 261.286L270.109 261.229ZM191.644 193.091C191.625 193.735 191.439 194.363 191.103 194.912C190.811 195.408 190.395 195.82 189.897 196.109C189.399 196.398 188.834 196.554 188.258 196.562C187.392 196.556 186.543 196.806 185.819 197.282C185.094 197.758 184.528 198.438 184.19 199.236C183.784 200.726 183.844 202.305 184.361 203.76C184.531 203.049 184.617 202.338 184.759 201.626C184.792 200.986 184.998 200.366 185.356 199.834C185.664 199.357 186.084 198.965 186.581 198.692C187.078 198.418 187.635 198.273 188.201 198.269C189.075 198.253 189.923 197.972 190.634 197.464C191.345 196.957 191.886 196.245 192.184 195.424C192.517 193.923 192.439 192.36 191.957 190.901C191.758 191.754 191.672 192.352 191.53 193.091H191.644ZM258.075 331.871C258.052 332.51 257.876 333.134 257.563 333.691C257.268 334.186 256.852 334.596 256.354 334.885C255.856 335.174 255.293 335.331 254.718 335.341C253.851 335.335 253.002 335.585 252.278 336.061C251.554 336.538 250.987 337.218 250.649 338.016C250.251 339.507 250.31 341.083 250.82 342.539C251.019 341.8 251.076 341.088 251.218 340.377C251.251 339.736 251.457 339.117 251.816 338.585C252.123 338.108 252.544 337.716 253.04 337.443C253.537 337.169 254.094 337.024 254.661 337.02C255.534 337.004 256.383 336.723 257.094 336.215C257.805 335.707 258.345 334.996 258.644 334.175C258.977 332.674 258.898 331.111 258.416 329.651C258.189 330.42 258.103 331.159 257.961 331.871H258.075ZM181.573 149.506L181.032 149.876C180.57 150.326 179.987 150.633 179.354 150.758C178.788 150.869 178.204 150.839 177.653 150.67C177.102 150.501 176.602 150.199 176.196 149.79C175.539 149.155 174.698 148.744 173.793 148.616C172.889 148.488 171.967 148.65 171.16 149.079C169.857 149.911 168.805 151.081 168.116 152.465C168.745 152.08 169.352 151.662 169.937 151.213C170.408 150.77 170.986 150.456 171.615 150.302C172.17 150.161 172.753 150.165 173.306 150.314C173.859 150.464 174.365 150.754 174.773 151.156C175.422 151.762 176.239 152.159 177.116 152.296C177.993 152.433 178.892 152.303 179.695 151.924C180.638 151.501 181.417 150.782 181.914 149.876L181.573 149.506ZM183.393 274.686C182.931 275.136 182.348 275.443 181.715 275.568H181.317C181.433 276.012 181.575 276.449 181.743 276.877C181.865 276.906 181.992 276.906 182.113 276.877C183.792 276.165 184.389 274.714 185.214 273.548C184.446 273.719 183.906 274.259 183.28 274.572L183.393 274.686ZM316.71 277.787C317.181 277.337 317.759 277.014 318.389 276.848C318.949 276.707 319.535 276.711 320.093 276.861C320.651 277.01 321.161 277.3 321.575 277.702C322.18 278.319 322.956 278.741 323.803 278.914C324.649 279.086 325.529 279.001 326.326 278.669C327.977 277.958 328.574 276.535 329.399 275.369C328.773 275.739 328.204 276.165 327.607 276.592C327.128 277.014 326.551 277.307 325.928 277.446C325.359 277.567 324.767 277.542 324.21 277.373C323.653 277.204 323.148 276.896 322.742 276.478C322.116 275.873 321.323 275.47 320.465 275.323C319.607 275.176 318.725 275.291 317.934 275.653C316.628 276.47 315.575 277.632 314.89 279.01C315.43 278.527 315.999 278.072 316.597 277.673L316.71 277.787Z" fill="white"/>
<path d="M333.325 309.594C335.506 301.856 337.631 294.108 339.698 286.351C341.803 278.356 343.254 270.134 345.587 262.197C345.587 261.855 345.16 261.77 345.075 262.197C342.856 270.106 339.783 277.844 337.337 285.725C334.89 293.605 332.671 301.031 330.452 308.741C326.042 324.275 321.49 339.894 318.133 355.683C318.133 356.167 318.787 356.423 318.958 355.939C324.563 340.719 328.972 325.071 333.325 309.594Z" fill="#263238"/>
<path d="M259.355 348.599C238.273 343.99 218.387 337.617 207.632 328.997C189.851 314.772 176.679 262.737 160.661 196.619C148.485 146.433 161.373 134.029 177.987 146.433L259.355 348.599Z" fill="#263238"/>
<path d="M196.765 373.834C191.9 377.647 0.857722 370.989 0.0611204 369.766C-2.07263 366.068 51.8402 192.551 133.776 139.321C148.229 129.961 169.936 136.817 179.296 144.356C183.962 148.14 197.391 176.533 198.984 199.578C200.577 222.622 199.61 371.302 196.765 373.834Z" fill="#C12127"/>
<path d="M143.137 171.584C144.597 171.102 146.16 171.023 147.66 171.356C148.482 171.655 149.193 172.195 149.701 172.906C150.209 173.617 150.489 174.465 150.505 175.339C150.51 175.906 150.655 176.463 150.928 176.959C151.201 177.456 151.594 177.877 152.07 178.184C152.605 178.532 153.225 178.729 153.863 178.753C154.574 178.753 155.285 178.981 155.996 179.18C154.541 179.697 152.963 179.756 151.473 179.35C150.675 179.013 149.994 178.446 149.518 177.722C149.042 176.998 148.792 176.149 148.798 175.282C148.788 174.707 148.631 174.143 148.342 173.646C148.053 173.148 147.643 172.732 147.148 172.437C146.596 172.111 145.969 171.935 145.328 171.925C144.559 171.84 143.848 171.84 143.137 171.584ZM176.566 311.529C177.217 311.558 177.851 311.743 178.415 312.07C178.906 312.369 179.314 312.786 179.602 313.283C179.89 313.779 180.049 314.341 180.065 314.915C180.058 315.781 180.309 316.631 180.785 317.355C181.261 318.079 181.941 318.646 182.739 318.983C184.231 319.373 185.805 319.314 187.263 318.813C186.552 318.613 185.84 318.528 185.101 318.386C184.463 318.358 183.845 318.161 183.308 317.817C182.835 317.506 182.446 317.084 182.173 316.589C181.9 316.093 181.753 315.538 181.744 314.972C181.725 314.095 181.444 313.244 180.937 312.529C180.43 311.814 179.72 311.268 178.899 310.96C177.396 310.625 175.83 310.714 174.375 311.216C175.143 311.245 175.854 311.387 176.566 311.529ZM80.4899 229.024C81.1409 229.053 81.7753 229.238 82.3391 229.565C82.8297 229.864 83.2377 230.28 83.5259 230.777C83.8141 231.274 83.9734 231.835 83.9892 232.41C83.9827 233.276 84.2332 234.125 84.7093 234.85C85.1853 235.574 85.8654 236.14 86.6636 236.478C88.1553 236.868 89.729 236.809 91.1871 236.307C90.4758 236.108 89.7646 236.023 89.0249 235.881C88.3877 235.852 87.7693 235.656 87.2325 235.312C86.763 234.997 86.3757 234.575 86.1034 234.08C85.8311 233.585 85.6817 233.031 85.6678 232.467C85.6494 231.59 85.3684 230.739 84.8612 230.024C84.354 229.309 83.6439 228.762 82.8228 228.455C81.3203 228.12 79.7542 228.208 78.2992 228.711C79.0674 228.74 79.7786 228.74 80.4899 228.882V229.024ZM164.418 357.988C165.068 357.995 165.706 358.171 166.267 358.5C166.757 358.799 167.165 359.216 167.454 359.713C167.742 360.21 167.901 360.771 167.917 361.345C167.907 362.213 168.156 363.063 168.632 363.788C169.109 364.513 169.791 365.079 170.591 365.414C172.083 365.804 173.657 365.744 175.115 365.243C174.403 365.044 173.692 364.958 172.953 364.816C172.315 364.788 171.697 364.592 171.16 364.247C170.689 363.937 170.302 363.515 170.034 363.018C169.766 362.522 169.625 361.966 169.624 361.402C169.608 360.529 169.327 359.68 168.819 358.969C168.311 358.258 167.6 357.718 166.779 357.419C165.278 357.086 163.715 357.165 162.255 357.647C162.995 357.618 163.706 357.704 164.418 357.846V357.988ZM123.563 289.281C124.214 289.288 124.851 289.464 125.413 289.793C125.9 290.096 126.305 290.514 126.593 291.01C126.88 291.506 127.042 292.065 127.063 292.638C127.056 293.505 127.307 294.354 127.783 295.078C128.259 295.802 128.939 296.369 129.737 296.707C131.227 297.113 132.805 297.053 134.26 296.536C133.549 296.337 132.838 296.252 132.127 296.109C131.489 296.085 130.869 295.889 130.334 295.54C129.858 295.233 129.465 294.813 129.192 294.316C128.919 293.819 128.774 293.262 128.77 292.695C128.753 291.822 128.473 290.974 127.965 290.263C127.457 289.552 126.746 289.011 125.925 288.712C124.424 288.379 122.861 288.458 121.401 288.94C122.141 288.912 122.795 288.997 123.563 289.139V289.281ZM46.2929 301.999C46.934 302.009 47.5614 302.185 48.1137 302.511C48.6135 302.799 49.0289 303.214 49.3184 303.713C49.608 304.212 49.7616 304.779 49.7638 305.356C49.7573 306.222 50.0078 307.071 50.4839 307.795C50.9599 308.52 51.64 309.086 52.4382 309.424C53.9299 309.814 55.5036 309.755 56.9617 309.253C56.2504 309.054 55.5392 308.969 54.8279 308.827C54.19 308.803 53.5705 308.606 53.0356 308.258C52.5591 307.951 52.1665 307.53 51.8933 307.033C51.6202 306.536 51.4749 305.979 51.4708 305.413C51.4545 304.539 51.174 303.691 50.6661 302.98C50.1582 302.269 49.4469 301.728 48.6258 301.43C47.125 301.097 45.5621 301.175 44.1023 301.657C44.842 301.629 45.5532 301.714 46.2929 301.856V301.999ZM159.154 230.873C159.797 230.897 160.423 231.083 160.975 231.414C161.475 231.705 161.891 232.12 162.185 232.618C162.479 233.116 162.64 233.681 162.654 234.259C162.641 235.123 162.886 235.972 163.357 236.696C163.828 237.421 164.504 237.988 165.299 238.327C166.801 238.718 168.384 238.659 169.851 238.157C169.14 237.957 168.401 237.872 167.689 237.73C167.052 237.702 166.434 237.505 165.897 237.161C165.42 236.854 165.028 236.433 164.755 235.936C164.481 235.44 164.336 234.883 164.332 234.316C164.32 233.441 164.041 232.591 163.532 231.88C163.024 231.168 162.31 230.628 161.487 230.333C159.987 229.99 158.422 230.069 156.964 230.56C157.693 230.609 158.424 230.619 159.154 230.589V230.873ZM123.08 147.003L122.596 147.373C122.61 147.59 122.61 147.809 122.596 148.027C122.563 148.668 122.378 149.292 122.055 149.848C121.767 150.347 121.352 150.763 120.853 151.052C120.354 151.342 119.788 151.496 119.21 151.498C118.551 151.497 117.9 151.642 117.304 151.925C116.579 152.279 115.961 152.819 115.512 153.489C115.356 153.698 115.231 153.928 115.142 154.172C114.751 155.673 114.811 157.256 115.313 158.724C115.512 157.984 115.597 157.273 115.74 156.562C115.764 155.924 115.96 155.305 116.308 154.77C116.619 154.297 117.041 153.907 117.537 153.634C118.033 153.361 118.588 153.214 119.154 153.205C120.029 153.183 120.878 152.9 121.593 152.393C122.307 151.887 122.854 151.179 123.165 150.36C123.475 149.258 123.445 148.088 123.08 147.003ZM127.432 246.35C127.414 246.994 127.228 247.622 126.892 248.171C126.603 248.671 126.189 249.086 125.69 249.376C125.19 249.665 124.624 249.819 124.047 249.821C123.184 249.816 122.34 250.068 121.62 250.544C120.901 251.02 120.34 251.7 120.007 252.495C119.588 253.993 119.647 255.585 120.178 257.047C120.348 256.308 120.434 255.597 120.576 254.885C120.596 254.242 120.804 253.619 121.173 253.093C121.48 252.616 121.901 252.224 122.398 251.951C122.895 251.677 123.452 251.532 124.018 251.528C124.896 251.514 125.749 251.234 126.464 250.726C127.18 250.219 127.726 249.506 128.03 248.683C128.365 247.181 128.277 245.615 127.774 244.16C127.66 244.899 127.575 245.639 127.432 246.35ZM57.8152 250.874C57.7966 251.517 57.6103 252.145 57.2747 252.695C56.9818 253.191 56.5663 253.603 56.0681 253.892C55.5698 254.181 55.0056 254.337 54.4296 254.345C53.5631 254.338 52.714 254.589 51.9898 255.065C51.2656 255.541 50.6989 256.221 50.3613 257.019C49.9553 258.509 50.0149 260.087 50.532 261.543C50.7027 260.831 50.7881 260.12 50.9303 259.409C50.9628 258.768 51.1693 258.148 51.5277 257.616C51.8348 257.14 52.2556 256.747 52.7523 256.474C53.249 256.201 53.8059 256.056 54.3727 256.052C55.2463 256.035 56.0945 255.755 56.8055 255.247C57.5165 254.739 58.057 254.028 58.3558 253.207C58.6887 251.706 58.61 250.143 58.1282 248.683C58.0428 249.423 57.9575 250.134 57.8152 250.874ZM94.6011 183.703C94.5947 184.354 94.4182 184.991 94.089 185.553C93.7901 186.043 93.3732 186.451 92.8763 186.739C92.3794 187.028 91.8182 187.187 91.244 187.203C90.3774 187.196 89.5283 187.447 88.8042 187.923C88.08 188.399 87.5133 189.079 87.1756 189.877C86.7697 191.367 86.8292 192.945 87.3463 194.4C87.5455 193.689 87.6309 192.978 87.7731 192.267C87.7971 191.629 87.9938 191.009 88.3421 190.474C88.6491 189.998 89.07 189.605 89.5667 189.332C90.0634 189.059 90.6203 188.914 91.1871 188.91C92.0607 188.893 92.9089 188.613 93.6199 188.105C94.3309 187.597 94.8713 186.886 95.1701 186.065C95.503 184.564 95.4244 183.001 94.9425 181.541C94.8287 182.281 94.7433 182.992 94.6011 183.703ZM191.53 193.092C191.512 193.735 191.325 194.363 190.99 194.913C190.697 195.409 190.282 195.821 189.783 196.11C189.285 196.399 188.721 196.555 188.145 196.563C187.278 196.556 186.429 196.807 185.705 197.283C184.981 197.759 184.414 198.439 184.076 199.237C183.671 200.727 183.73 202.305 184.247 203.761C184.418 203.049 184.503 202.338 184.646 201.627C184.678 200.986 184.885 200.366 185.243 199.834C185.55 199.358 185.971 198.965 186.468 198.692C186.964 198.419 187.521 198.274 188.088 198.27C188.962 198.253 189.81 197.973 190.521 197.465C191.232 196.957 191.772 196.246 192.071 195.425C192.404 193.924 192.325 192.361 191.843 190.901C191.758 191.755 191.673 192.352 191.53 193.092ZM99.4376 320.946C99.4179 321.595 99.2423 322.229 98.9255 322.796C98.6228 323.283 98.2051 323.688 97.709 323.976C97.2129 324.263 96.6536 324.425 96.0805 324.446C95.2139 324.439 94.3648 324.69 93.6407 325.166C92.9165 325.642 92.3497 326.322 92.0121 327.12C91.6062 328.61 91.6658 330.188 92.1829 331.643C92.382 330.932 92.4389 330.221 92.5812 329.481C92.6315 328.844 92.8365 328.229 93.1786 327.689C93.4889 327.218 93.9112 326.831 94.4077 326.563C94.9042 326.295 95.4594 326.154 96.0236 326.153C96.8972 326.136 97.7454 325.856 98.4564 325.348C99.1674 324.84 99.7079 324.129 100.007 323.308C100.34 321.807 100.261 320.244 99.779 318.784C99.6652 319.524 99.5798 320.235 99.4376 320.946ZM21.0862 324.901C21.0665 325.549 20.8908 326.184 20.5741 326.75C20.2714 327.237 19.8536 327.642 19.3575 327.93C18.8614 328.218 18.3022 328.379 17.7291 328.4C16.8617 328.39 16.0109 328.639 15.286 329.115C14.5612 329.592 13.9952 330.274 13.6607 331.074C13.2547 332.564 13.3143 334.143 13.8314 335.598C14.0079 334.886 14.1409 334.164 14.2297 333.436C14.28 332.799 14.4851 332.183 14.8272 331.643C15.1375 331.172 15.5598 330.785 16.0563 330.517C16.5528 330.249 17.1079 330.108 17.6722 330.107C18.5438 330.083 19.3885 329.8 20.098 329.293C20.8076 328.786 21.3498 328.079 21.6552 327.262C21.9881 325.761 21.9094 324.198 21.4276 322.739C21.3138 323.478 21.2284 324.19 21.0862 324.901ZM66.8054 340.292C66.7991 340.943 66.6225 341.58 66.2933 342.142C66.0005 342.638 65.585 343.05 65.0867 343.339C64.5885 343.628 64.0242 343.784 63.4483 343.792C62.5817 343.785 61.7326 344.036 61.0085 344.512C60.2843 344.988 59.7176 345.668 59.38 346.466C58.9899 347.958 59.0493 349.531 59.5507 350.99C59.7498 350.278 59.8351 349.567 59.9774 348.856C60.0014 348.218 60.198 347.598 60.5464 347.063C60.8534 346.587 61.2743 346.194 61.771 345.921C62.2677 345.648 62.8245 345.503 63.3914 345.499C64.265 345.482 65.1132 345.202 65.8242 344.694C66.5352 344.186 67.0757 343.475 67.3744 342.654C67.7073 341.153 67.6287 339.59 67.1468 338.13C67.033 338.87 66.9477 339.695 66.8054 340.292ZM182.54 148.738C181.971 149.08 181.431 149.506 180.862 149.876C180.399 150.327 179.816 150.633 179.183 150.758C178.618 150.869 178.034 150.839 177.483 150.67C176.932 150.502 176.431 150.2 176.025 149.791C175.382 149.192 174.573 148.804 173.704 148.676C172.835 148.549 171.947 148.69 171.16 149.08C169.858 149.912 168.805 151.082 168.116 152.465C168.745 152.081 169.353 151.663 169.937 151.213C170.409 150.77 170.987 150.457 171.615 150.303C172.171 150.161 172.753 150.165 173.306 150.315C173.86 150.464 174.365 150.754 174.773 151.156C175.423 151.762 176.239 152.159 177.116 152.296C177.994 152.433 178.892 152.304 179.695 151.925C180.95 151.182 181.944 150.069 182.54 148.738ZM118.499 206.207C118.966 205.752 119.545 205.428 120.178 205.268C120.738 205.127 121.324 205.131 121.882 205.281C122.44 205.43 122.95 205.72 123.364 206.122C123.971 206.736 124.747 207.156 125.593 207.328C126.439 207.501 127.317 207.417 128.115 207.089C129.765 206.378 130.391 204.927 131.216 203.761C130.587 204.145 129.98 204.563 129.396 205.012C128.917 205.434 128.339 205.727 127.717 205.866C127.147 205.979 126.558 205.951 126.002 205.782C125.447 205.613 124.941 205.31 124.531 204.899C123.908 204.288 123.117 203.88 122.259 203.728C121.401 203.576 120.517 203.686 119.722 204.045C118.42 204.877 117.368 206.047 116.678 207.431C117.39 207.061 117.959 206.606 118.556 206.207H118.499ZM79.1243 283.762C79.5994 283.318 80.1755 282.995 80.8028 282.823C81.3627 282.682 81.9493 282.686 82.507 282.836C83.0647 282.985 83.575 283.275 83.9892 283.677C84.5939 284.294 85.3696 284.716 86.2165 284.889C87.0634 285.061 87.9425 284.976 88.7404 284.644C90.3905 283.933 90.9879 282.51 91.8414 281.344C91.2129 281.719 90.6051 282.127 90.0206 282.567C89.542 282.989 88.9646 283.282 88.3421 283.421C87.7725 283.542 87.1814 283.517 86.6241 283.348C86.0669 283.179 85.5616 282.871 85.1557 282.453C84.5346 281.841 83.7408 281.434 82.8812 281.286C82.0215 281.139 81.1373 281.258 80.3476 281.628C79.0424 282.445 77.9887 283.607 77.3035 284.985C78.0147 284.616 78.5837 284.16 79.1812 283.762H79.1243ZM96.1943 364.333C96.6743 363.901 97.2495 363.589 97.8729 363.422C98.4327 363.281 99.0193 363.285 99.577 363.435C100.135 363.584 100.645 363.874 101.059 364.276C101.656 364.877 102.414 365.293 103.241 365.474C104.069 365.656 104.931 365.595 105.725 365.3C107.375 364.589 108.001 363.138 108.826 361.971C108.172 362.341 107.603 362.796 107.005 363.195C106.535 363.634 105.955 363.939 105.327 364.077C104.757 364.19 104.168 364.161 103.612 363.993C103.056 363.824 102.551 363.52 102.14 363.109C101.518 362.499 100.726 362.091 99.8683 361.939C99.0104 361.787 98.1264 361.897 97.3323 362.256C96.051 363.071 95.0178 364.223 94.3451 365.584C95.0279 365.3 95.5968 364.759 96.1943 364.333ZM172.412 275.768C172.878 275.332 173.445 275.019 174.062 274.857C174.622 274.716 175.209 274.72 175.766 274.87C176.324 275.019 176.834 275.309 177.248 275.711C177.859 276.318 178.635 276.734 179.479 276.906C180.324 277.078 181.2 276.999 182 276.678C183.678 275.967 184.276 274.516 185.101 273.349C184.446 273.719 183.906 274.174 183.28 274.573C182.818 275.023 182.235 275.33 181.601 275.455C181.036 275.571 180.451 275.543 179.899 275.374C179.347 275.205 178.846 274.9 178.443 274.487C177.815 273.878 177.018 273.471 176.156 273.319C175.294 273.167 174.406 273.277 173.607 273.634C172.303 274.493 171.26 275.694 170.591 277.105C171.16 276.65 171.786 276.194 172.412 275.768ZM136.622 332.241C137.098 331.804 137.674 331.491 138.3 331.331C138.858 331.186 139.443 331.185 140.001 331.33C140.558 331.474 141.07 331.758 141.487 332.156C142.09 332.775 142.865 333.2 143.711 333.377C144.557 333.555 145.437 333.476 146.238 333.151C147.576 332.371 148.655 331.213 149.339 329.823C148.685 330.193 148.116 330.648 147.518 331.046C147.047 331.479 146.467 331.774 145.84 331.9C145.27 332.027 144.678 332.004 144.119 331.835C143.561 331.665 143.056 331.354 142.653 330.932C142.028 330.327 141.234 329.924 140.377 329.777C139.519 329.63 138.637 329.745 137.845 330.107C136.553 330.939 135.503 332.097 134.801 333.464C135.455 333.094 136.024 332.639 136.622 332.241ZM15.6807 363.792C16.1449 363.348 16.7117 363.025 17.3308 362.853C17.891 362.72 18.4756 362.728 19.0319 362.877C19.5881 363.026 20.0986 363.311 20.5172 363.707C21.1228 364.322 21.8969 364.746 22.7422 364.923C23.5876 365.1 24.4664 365.023 25.2683 364.702C26.9469 363.963 27.5443 362.54 28.3694 361.374C27.7409 361.748 27.133 362.157 26.5486 362.597C26.0699 363.019 25.4925 363.312 24.87 363.451C24.3005 363.572 23.7094 363.547 23.1521 363.378C22.5948 363.209 22.0896 362.901 21.6837 362.483C21.0583 361.878 20.2649 361.475 19.407 361.328C18.5492 361.181 17.667 361.296 16.8756 361.658C15.5874 362.486 14.5457 363.646 13.8599 365.015C14.4858 364.646 15.0548 364.19 15.6807 363.792Z" fill="white"/>
<path d="M109.594 162.394C78.299 197.615 3.90217 330.079 29.2796 353.18C54.6571 376.282 191.16 340.634 229.227 321.231C240.607 315.541 195.086 245.07 181.516 243.761C170.136 242.68 113.549 270.476 111.813 267.204C110.078 263.932 118.214 235.738 130.704 185.496C145.071 127.571 123.364 146.832 109.594 162.394Z" fill="#D3766A"/>
<path d="M237.904 219.152C265.7 214.543 273.552 217.616 294.804 201.257C308.83 190.531 321.718 194.855 313.979 211.527C301.347 238.811 266.752 252.296 253.409 253.52L237.904 219.152Z" fill="#D3766A"/>
<path d="M164.56 247.972C164.56 247.972 195.428 229.735 224.561 221.883C244.675 216.449 289.825 209.507 334.349 253.036C344.904 263.363 352.614 285.555 329.257 274.971C312.642 267.432 304.392 257.645 293.95 255.056C293.95 255.056 300.409 284.445 289.654 294.63C280.255 303.525 270.234 311.739 259.668 319.211C257.855 317.583 256.145 315.844 254.547 314.005C254.547 314.005 243.622 322.54 222.541 321.117L164.56 247.972Z" fill="#D3766A"/>
<path d="M244.589 219.778C254.433 224.558 275.088 235.084 288.971 249.537C304.42 265.64 329.854 300.747 317.848 312.127C309.057 320.406 298.189 307.831 298.189 307.831C298.189 307.831 305.643 324.588 296.055 330.307C287.321 335.541 279.497 325.299 279.497 325.299C279.497 325.299 282.342 336.253 272.897 339.667C261.517 343.763 257.648 320.178 242.655 314.488C239.269 313.123 244.589 219.778 244.589 219.778Z" fill="#D3766A"/>
<path d="M269.284 263.05C283.246 274.506 293.38 289.95 298.331 307.318C298.331 307.745 298.161 308.086 297.962 307.688C290.192 291.737 280.504 276.795 269.113 263.192C269.113 263.192 269.17 262.879 269.284 263.05Z" fill="#263238"/>
<path d="M253.494 279.096C260.293 285.042 275.713 304.986 279.839 325.015C279.839 325.47 279.64 325.783 279.469 325.385C272.536 309.059 263.764 293.577 253.323 279.239C253.323 279.239 253.409 279.011 253.494 279.096Z" fill="#263238"/>
<path d="M293.95 254.828C303.111 257.275 309.142 261.571 316.937 266.692C320.781 269.275 324.76 271.649 328.858 273.804C332.613 275.71 338.161 278.584 342.002 275.341C342.903 274.35 343.516 273.132 343.777 271.819C344.037 270.506 343.935 269.146 343.481 267.887C342.287 264.222 340.509 260.773 338.218 257.673C338.218 257.673 338.218 257.389 338.417 257.502C340.616 260.327 342.523 263.368 344.107 266.578C345.14 268.776 345.487 271.235 345.103 273.634C343.908 278.698 338.019 279.494 333.723 278.242C331.212 277.393 328.792 276.297 326.497 274.971C324.249 273.776 322.087 272.439 319.925 271.073C315.543 268.228 311.39 265.383 306.923 262.367C302.68 259.681 298.271 257.268 293.722 255.141C293.637 255.056 293.779 254.8 293.95 254.828Z" fill="#263238"/>
<path d="M313.837 286.322C307.872 275.477 301.22 265.024 293.922 255.027L294.093 254.857C301.347 261.372 313.211 278.897 316.028 284.558C318.844 290.22 322.002 297.276 322.173 303.563C322.429 313.065 316.17 314.943 313.865 315.541C311.119 316.131 308.253 315.749 305.757 314.459C302.817 312.764 300.259 310.478 298.246 307.745L298.417 307.575C301.803 311.216 307.379 314.772 312.642 313.947C313.762 313.801 314.841 313.434 315.818 312.867C316.794 312.301 317.649 311.546 318.332 310.647C319.665 308.312 320.129 305.581 319.641 302.937C318.671 297.108 316.707 291.488 313.837 286.322Z" fill="#263238"/>
<path d="M164.56 247.972L210.99 339.296C210.99 339.296 40.0908 382.484 24.4433 352.952C8.79575 323.421 72.467 204.5 101.657 169.592C135.484 129.108 140.292 142.451 133.549 177.7C126.465 214.685 112.354 268.058 112.354 268.058L164.56 247.972Z" fill="#C12127"/>
<path d="M174.431 311.245C175.886 310.742 177.453 310.653 178.955 310.989C179.776 311.296 180.486 311.842 180.993 312.558C181.501 313.273 181.782 314.124 181.8 315C181.809 315.566 181.956 316.121 182.229 316.617C182.502 317.113 182.892 317.534 183.365 317.845C183.902 318.19 184.52 318.386 185.157 318.414C185.897 318.556 186.608 318.642 187.319 318.841C185.861 319.342 184.287 319.402 182.796 319.012C181.998 318.674 181.318 318.107 180.842 317.383C180.365 316.659 180.115 315.81 180.121 314.943C180.106 314.369 179.946 313.808 179.658 313.311C179.37 312.814 178.962 312.397 178.471 312.098C177.908 311.772 177.273 311.586 176.622 311.558C175.854 311.387 175.143 311.245 174.431 311.245ZM80.5463 228.996C81.1973 229.024 81.8318 229.209 82.3956 229.536C82.8861 229.835 83.2941 230.252 83.5823 230.749C83.8706 231.246 84.0298 231.807 84.0457 232.381C84.0391 233.248 84.2897 234.097 84.7657 234.821C85.2417 235.545 85.9218 236.112 86.72 236.45C88.2117 236.84 89.7854 236.78 91.2435 236.279C90.5323 236.08 89.821 235.994 89.0813 235.852C88.4441 235.824 87.8257 235.628 87.289 235.283C86.8194 234.969 86.4321 234.546 86.1598 234.051C85.8875 233.556 85.7381 233.003 85.7242 232.438C85.7058 231.562 85.4248 230.711 84.9176 229.996C84.4104 229.28 83.7004 228.734 82.8792 228.427C81.3768 228.091 79.8107 228.18 78.3557 228.683C79.0669 228.74 79.7782 228.74 80.4894 228.882L80.5463 228.996ZM123.62 289.253C124.27 289.259 124.908 289.436 125.469 289.765C125.956 290.068 126.361 290.485 126.649 290.981C126.937 291.478 127.098 292.037 127.119 292.61C127.112 293.477 127.363 294.326 127.839 295.05C128.315 295.774 128.995 296.341 129.793 296.678C131.283 297.084 132.862 297.025 134.317 296.508C133.606 296.308 132.894 296.223 132.183 296.081C131.545 296.057 130.926 295.86 130.391 295.512C129.914 295.205 129.522 294.784 129.249 294.287C128.975 293.791 128.83 293.234 128.826 292.667C128.81 291.793 128.529 290.945 128.021 290.234C127.513 289.523 126.802 288.983 125.981 288.684C124.48 288.351 122.917 288.43 121.457 288.911C122.14 288.911 122.795 288.997 123.563 289.139L123.62 289.253ZM46.3494 301.97C46.9904 301.98 47.6179 302.156 48.1702 302.482C48.6699 302.771 49.0853 303.185 49.3749 303.684C49.6644 304.184 49.818 304.75 49.8203 305.327C49.8137 306.194 50.0643 307.043 50.5403 307.767C51.0163 308.491 51.6964 309.058 52.4945 309.395C53.9863 309.786 55.56 309.726 57.0181 309.225C56.3069 309.026 55.5956 308.94 54.8844 308.798C54.2464 308.774 53.627 308.577 53.092 308.229C52.6155 307.922 52.2229 307.501 51.9498 307.004C51.6766 306.508 51.5314 305.951 51.5272 305.384C51.5109 304.51 51.2304 303.662 50.7225 302.951C50.2147 302.24 49.5033 301.7 48.6822 301.401C47.1814 301.068 45.6185 301.147 44.1587 301.629C44.8415 301.629 45.5527 301.714 46.2924 301.856L46.3494 301.97ZM123.164 147.913L122.311 148.51C122.258 149.033 122.093 149.537 121.827 149.99C121.539 150.49 121.124 150.905 120.625 151.195C120.126 151.484 119.559 151.638 118.982 151.64H118.442C117.275 152.664 115.995 153.831 114.686 155.139C114.599 156.377 114.734 157.619 115.085 158.809C115.284 158.07 115.369 157.358 115.511 156.647C115.535 156.009 115.732 155.39 116.08 154.855C116.391 154.382 116.813 153.992 117.309 153.719C117.805 153.447 118.36 153.299 118.925 153.29C119.801 153.268 120.65 152.985 121.365 152.479C122.079 151.972 122.626 151.264 122.937 150.445C123.27 149.605 123.378 148.693 123.25 147.799L123.164 147.913ZM57.7294 250.988C57.7108 251.631 57.5244 252.259 57.1888 252.808C56.896 253.304 56.4805 253.717 55.9822 254.006C55.4839 254.295 54.9198 254.451 54.3438 254.458C53.4772 254.452 52.6281 254.702 51.904 255.178C51.1798 255.654 50.6131 256.335 50.2754 257.133C49.8695 258.623 49.9291 260.201 50.4462 261.656C50.6169 260.945 50.7022 260.234 50.8445 259.523C50.877 258.882 51.0835 258.262 51.4419 257.73C51.7489 257.254 52.1698 256.861 52.6665 256.588C53.1632 256.315 53.7201 256.17 54.2869 256.165C55.1605 256.149 56.0087 255.869 56.7197 255.361C57.4307 254.853 57.9712 254.141 58.2699 253.32C58.6028 251.82 58.5242 250.257 58.0423 248.797C58.0423 249.423 57.957 250.134 57.8147 250.874L57.7294 250.988ZM94.5153 183.817C94.5089 184.468 94.3324 185.105 94.0032 185.666C93.7043 186.157 93.2874 186.565 92.7905 186.853C92.2936 187.141 91.7324 187.3 91.1582 187.316C90.2916 187.31 89.4425 187.56 88.7183 188.036C87.9942 188.512 87.4274 189.192 87.0898 189.991C86.6838 191.481 86.7434 193.059 87.2605 194.514C87.4596 193.803 87.545 193.092 87.6873 192.38C87.7113 191.742 87.9079 191.123 88.2563 190.588C88.5633 190.112 88.9842 189.719 89.4809 189.446C89.9775 189.173 90.5344 189.027 91.1013 189.023C91.9749 189.007 92.823 188.726 93.534 188.219C94.245 187.711 94.7855 186.999 95.0843 186.178C95.4172 184.677 95.3385 183.115 94.8567 181.655C94.8282 182.281 94.7429 182.992 94.6006 183.703L94.5153 183.817ZM99.3518 321.06C99.3321 321.709 99.1564 322.343 98.8397 322.909C98.537 323.396 98.1192 323.802 97.6231 324.089C97.127 324.377 96.5678 324.538 95.9947 324.559C95.1281 324.553 94.279 324.803 93.5548 325.279C92.8307 325.755 92.2639 326.435 91.9263 327.234C91.5203 328.724 91.5799 330.302 92.097 331.757C92.2962 331.046 92.3531 330.335 92.4953 329.595C92.5456 328.958 92.7507 328.343 93.0928 327.803C93.4031 327.331 93.8254 326.944 94.3219 326.676C94.8183 326.408 95.3735 326.267 95.9378 326.266C96.8114 326.25 97.6595 325.969 98.3705 325.462C99.0815 324.954 99.622 324.242 99.9208 323.421C100.254 321.92 100.175 320.358 99.6932 318.898C99.6647 319.524 99.5794 320.235 99.4371 320.946L99.3518 321.06ZM66.7196 340.406C66.7132 341.057 66.5367 341.694 66.2075 342.255C65.9147 342.751 65.4992 343.164 65.0009 343.453C64.5027 343.742 63.9384 343.897 63.3625 343.905C62.4959 343.899 61.6468 344.149 60.9226 344.625C60.1985 345.101 59.6317 345.782 59.2941 346.58C58.904 348.071 58.9634 349.645 59.4648 351.103C59.664 350.392 59.7493 349.681 59.8916 348.969C59.9156 348.332 60.1122 347.712 60.4606 347.177C60.7676 346.701 61.1885 346.308 61.6851 346.035C62.1818 345.762 62.7387 345.616 63.3056 345.612C64.1792 345.596 65.0273 345.315 65.7383 344.808C66.4493 344.3 66.9898 343.588 67.2886 342.767C67.6215 341.267 67.5429 339.704 67.061 338.244C67.0325 338.87 66.9472 339.695 66.8049 340.292L66.7196 340.406ZM124.502 205.012C123.88 204.402 123.088 203.994 122.23 203.842C121.372 203.69 120.488 203.8 119.694 204.159C118.391 204.991 117.339 206.161 116.649 207.544C117.304 207.174 117.873 206.719 118.47 206.321C118.937 205.865 119.516 205.542 120.149 205.382C120.709 205.241 121.295 205.245 121.853 205.394C122.411 205.544 122.921 205.833 123.335 206.236C123.823 206.727 124.42 207.096 125.078 207.313C125.735 207.531 126.434 207.59 127.119 207.487L127.46 206.008C126.928 206.059 126.391 205.985 125.893 205.793C125.394 205.6 124.947 205.294 124.587 204.898L124.502 205.012ZM78.9816 283.876C79.4567 283.431 80.0327 283.109 80.6601 282.937C81.2199 282.796 81.8066 282.8 82.3643 282.949C82.922 283.099 83.4322 283.388 83.8465 283.79C84.4511 284.408 85.2269 284.83 86.0738 285.003C86.9206 285.175 87.7997 285.09 88.5977 284.758C90.2478 284.046 90.8452 282.624 91.6987 281.458C91.0702 281.832 90.4624 282.241 89.8779 282.681C89.3992 283.102 88.8219 283.396 88.1994 283.534C87.6298 283.656 87.0387 283.631 86.4814 283.462C85.9242 283.292 85.4189 282.985 85.013 282.567C84.3919 281.955 83.5981 281.547 82.7384 281.4C81.8788 281.252 80.9946 281.372 80.2049 281.742C78.8996 282.558 77.846 283.72 77.1608 285.099C78.0143 284.615 78.5832 284.16 79.1807 283.762L78.9816 283.876ZM177.561 274.06C176.951 273.663 176.25 273.426 175.524 273.371C174.798 273.316 174.07 273.446 173.407 273.748C172.192 274.602 171.221 275.76 170.591 277.105C171.217 276.735 171.786 276.28 172.412 275.853C172.877 275.417 173.445 275.104 174.062 274.942C174.621 274.801 175.208 274.805 175.766 274.955C176.323 275.104 176.834 275.394 177.248 275.796C177.794 276.332 178.471 276.714 179.211 276.905L177.561 274.06ZM136.422 332.355C136.898 331.918 137.475 331.605 138.101 331.444C138.658 331.299 139.243 331.299 139.801 331.443C140.359 331.588 140.87 331.872 141.287 332.269C141.891 332.888 142.665 333.314 143.511 333.491C144.357 333.668 145.237 333.59 146.038 333.265C147.377 332.484 148.455 331.327 149.139 329.936C148.485 330.306 147.916 330.761 147.319 331.16C146.848 331.592 146.267 331.887 145.64 332.013C145.071 332.14 144.478 332.118 143.92 331.948C143.361 331.779 142.856 331.468 142.454 331.046C141.828 330.441 141.035 330.038 140.177 329.891C139.319 329.744 138.437 329.859 137.646 330.221C136.353 331.053 135.303 332.211 134.601 333.578C135.455 333.094 136.024 332.639 136.621 332.241L136.422 332.355Z" fill="white"/>
<path d="M60.7172 294.175C68.573 288.465 76.8255 283.321 85.4118 278.783C93.9083 274.34 102.724 270.537 111.785 267.403C116.935 265.554 122.169 263.961 127.376 262.311C127.546 262.311 127.603 262.51 127.376 262.567C118.283 265.779 109.382 269.512 100.718 273.747C92.0692 277.901 83.5342 282.188 75.1129 286.607C70.3049 289.139 65.6391 291.87 60.8879 294.544C60.6888 294.516 60.518 294.175 60.7172 294.175Z" fill="#263238"/>
<path d="M164.076 247.716C163.222 247.972 116.621 264.786 115.085 265.525C115.284 264.786 123.051 239.579 124.217 235.88C124.217 235.51 124.416 235.141 124.53 234.771C125.355 233.121 126.18 231.471 126.92 229.764C127.887 227.601 128.826 225.439 129.765 223.277C128.741 225.382 127.688 227.516 126.664 229.65C126.18 230.617 125.725 231.613 125.298 232.495C126.066 229.906 126.778 227.288 127.517 224.643C128.655 220.46 129.68 216.108 130.704 212.039C130.704 211.897 130.533 211.869 130.476 212.039C128.172 219.408 125.64 226.691 123.335 234.031C121.031 241.371 111.955 268.484 112.126 268.456C112.297 268.427 163.336 248.797 164.417 248.37C164.504 248.325 164.569 248.247 164.598 248.153C164.628 248.06 164.619 247.959 164.574 247.872C164.528 247.785 164.45 247.72 164.357 247.691C164.264 247.661 164.162 247.67 164.076 247.716Z" fill="#263238"/>
<path d="M168.855 307.973C163.734 297.76 158.699 287.546 153.208 277.531C150.107 271.841 147.006 266.151 143.848 260.461C143.705 260.262 143.335 260.461 143.421 260.661C148.172 271.073 152.923 281.543 158.13 291.757C163.336 301.97 168.4 312.127 173.72 322.227C176.736 327.917 179.922 333.607 183.279 339.154C183.279 339.154 183.535 339.154 183.479 339.154C179.097 328.486 174.005 318.215 168.855 307.973Z" fill="#263238"/>
<path d="M207.235 331.16C206.723 330.448 206.154 330.619 206.581 331.359C207.946 333.919 209.113 336.793 210.478 339.41C208.088 339.951 205.67 340.434 203.28 341.032L194.973 342.995C189.53 344.285 184.077 345.498 178.614 346.636C167.576 349.007 156.48 351.122 145.328 352.981C122.997 356.852 100.482 359.577 77.8726 361.146C71.5567 361.544 65.2218 361.791 58.8679 361.886C52.9219 361.886 38.014 360.861 33.8034 359.041C31.2651 358.043 28.9903 356.474 27.1551 354.456C25.3199 352.439 23.9735 350.026 23.22 347.405C21.8656 341.689 22.072 335.715 23.8175 330.107C25.3253 324.161 27.2315 318.3 29.0807 312.468C36.4611 289.493 45.4938 267.082 56.1083 245.411C62.0448 233.216 68.3608 221.21 75.056 209.393C75.0679 209.346 75.0644 209.297 75.0462 209.252C75.028 209.207 74.9959 209.169 74.9546 209.144C74.9133 209.118 74.865 209.107 74.8168 209.111C74.7685 209.115 74.7227 209.134 74.6861 209.166C69.8876 216.601 65.3545 224.187 61.087 231.926C61.9121 229.337 62.7656 226.776 63.7613 224.273C63.7613 224.074 63.5622 223.931 63.5053 224.102C62.2174 227.207 61.0968 230.379 60.1482 233.604C52.5363 247.614 45.6795 262.021 39.6072 276.763C34.8086 288.428 30.4558 300.244 26.5487 312.212C24.5572 318.329 22.5088 324.531 21.0578 330.818C19.5372 336.395 19.4394 342.264 20.7733 347.888C21.5336 350.765 22.9597 353.423 24.9366 355.647C26.9134 357.87 29.3855 359.598 32.1533 360.691C39.5503 363.536 60.0059 364.076 73.5482 363.536C84.9282 362.967 96.3082 362.056 107.688 360.691C130.202 358.016 152.573 354.403 174.802 349.851C181.023 348.562 187.225 347.215 193.408 345.811C196.538 345.1 199.667 344.389 202.768 343.592C205.869 342.796 213.352 341.373 213.067 340.889C211.417 337.874 209.141 333.834 207.235 331.16Z" fill="#263238"/>
<path d="M173.266 173.831C162.284 176.078 144.104 158.866 137.134 145.125C136.65 144.186 141.629 107.315 141.857 99.9175C141.857 98.3812 187.974 112.606 187.974 112.606C185.037 121.836 183.241 131.39 182.626 141.056C182.54 142.024 183.849 171.64 173.266 173.831Z" fill="#D3766A"/>
<path d="M182.54 142.451C182.54 143.02 182.54 143.702 182.54 144.499C181.026 144.63 179.503 144.63 177.988 144.499C152.839 143.389 145.271 112.094 143.279 99.9177L144.161 100.088L146.096 100.515L147.149 100.771L148.599 101.141L149.368 101.34L150.989 101.767L156.452 103.275L156.992 103.417L158.415 103.844C162.284 104.925 166.438 106.148 170.364 107.315L171.587 107.685L177.476 109.449L178.927 109.875L179.752 110.131L180.577 110.387L182.711 111.042L183.849 111.383L184.646 111.639L185.414 111.867L187.861 112.606C184.915 121.786 183.109 131.294 182.483 140.914V141.938C182.468 142.042 182.468 142.148 182.483 142.251L182.54 142.451Z" fill="#263238"/>
<path d="M145.868 41.1111C137.759 56.3319 137.134 104.725 146.579 117.414C160.292 135.793 187.319 142.621 204.076 125.096C220.35 108.026 220.065 44.9803 209.084 33.0029C192.896 15.3638 157.874 18.664 145.868 41.1111Z" fill="#D3766A"/>
<path d="M186.722 78.523C186.722 78.523 186.466 78.6937 186.466 78.8075C186.466 82.0793 186.011 85.8347 183.052 86.8589C183.052 86.8589 183.052 87.058 183.052 87.0296C186.665 86.489 187.291 81.6241 186.722 78.523Z" fill="#263238"/>
<path d="M183.877 75.1097C178.642 74.6261 178.045 85.1241 182.881 85.5793C187.718 86.0345 188.23 75.4796 183.877 75.1097Z" fill="#263238"/>
<path d="M204.673 80.0598C204.673 79.9175 204.929 80.2304 204.901 80.3442C204.616 83.616 204.901 87.3714 207.746 88.6232C207.746 88.6232 207.746 88.8224 207.746 88.7939C204.104 88.0827 203.877 83.0755 204.673 80.0598Z" fill="#263238"/>
<path d="M207.775 76.8167C213.038 76.8167 212.839 87.2578 207.974 87.3432C203.109 87.4285 203.365 76.902 207.775 76.8167Z" fill="#263238"/>
<path d="M180.008 70.0452C181.412 69.707 182.798 69.2987 184.161 68.8218C185.681 68.6227 187.086 67.9099 188.144 66.8019C188.456 66.382 188.608 65.8643 188.571 65.3425C188.535 64.8207 188.313 64.3292 187.945 63.9569C187.191 63.3237 186.28 62.9072 185.308 62.7519C184.336 62.5965 183.339 62.7082 182.426 63.0749C180.461 63.5036 178.726 64.6499 177.561 66.2898C177.27 66.6817 177.106 67.1533 177.091 67.6413C177.076 68.1292 177.211 68.61 177.477 69.019C177.744 69.428 178.129 69.7456 178.581 69.929C179.034 70.1125 179.532 70.153 180.008 70.0452Z" fill="#263238"/>
<path d="M212.156 71.7523C210.759 71.3892 209.382 70.9524 208.031 70.4436C206.516 70.161 205.131 69.4037 204.076 68.2814C203.827 67.8602 203.72 67.3698 203.771 66.8829C203.822 66.396 204.029 65.9387 204.361 65.5787C205.161 64.967 206.11 64.5788 207.11 64.4539C208.109 64.3289 209.124 64.4716 210.051 64.8674C212.008 65.3487 213.714 66.5467 214.83 68.2245C215.073 68.6331 215.188 69.1048 215.161 69.5791C215.134 70.0535 214.967 70.5092 214.68 70.8878C214.393 71.2665 213.999 71.5509 213.55 71.7049C213.1 71.8589 212.615 71.8754 212.156 71.7523Z" fill="#263238"/>
<path d="M185.1 98.9218C185.854 100.258 186.874 101.425 188.097 102.35C189.321 103.275 190.722 103.938 192.213 104.299C193.515 104.619 194.856 104.753 196.196 104.697H196.964H197.675C197.851 104.675 198.016 104.597 198.144 104.474C198.272 104.351 198.357 104.19 198.386 104.014C198.4 103.901 198.4 103.786 198.386 103.673V103.388C198.586 100.885 198.557 97.0725 198.557 97.0725C199.468 97.5846 203.991 99.9175 203.991 98.6373C204.34 87.3204 203.549 75.997 201.63 64.8386C201.61 64.7749 201.57 64.7193 201.516 64.6798C201.463 64.6403 201.398 64.619 201.331 64.619C201.264 64.619 201.199 64.6403 201.146 64.6798C201.092 64.7193 201.052 64.7749 201.032 64.8386C200.634 75.2798 202.085 85.7494 201.857 96.1337C200.253 95.2577 198.527 94.6249 196.736 94.256C196.366 94.256 196.907 101.653 196.736 102.791C194.653 102.895 192.571 102.576 190.615 101.852C188.659 101.128 186.87 100.015 185.356 98.5804C185.186 98.4666 184.93 98.6657 185.1 98.9218Z" fill="#263238"/>
<path d="M194.802 103.36C193.307 105.056 191.409 106.348 189.282 107.115C188.116 107.486 186.864 107.486 185.698 107.115C183.137 106.29 183.194 103.901 183.792 101.881C184.117 100.817 184.566 99.7954 185.129 98.8364C187.786 101.34 191.177 102.925 194.802 103.36Z" fill="#263238"/>
<path d="M189.282 107.115C188.116 107.486 186.864 107.486 185.698 107.115C183.137 106.29 183.194 103.9 183.792 101.88C185.161 102.013 186.446 102.6 187.441 103.549C188.437 104.498 189.085 105.754 189.282 107.115Z" fill="#FF99BA"/>
<path d="M143.648 82.2503C152.496 81.4537 150.96 59.8033 150.96 59.8033C150.96 59.8033 164.388 56.9582 170.42 38.1812C170.42 38.1812 188.144 48.5655 202.654 45.436C225.414 40.5426 223.82 10.8692 215.086 5.09381C202.682 -3.0998 181.487 10.0726 181.487 10.0726C181.487 10.0726 148.485 2.02121 139.466 24.2976C135.242 24.7344 131.34 26.7562 128.547 29.9555C125.754 33.1548 124.278 37.2938 124.416 41.5383C123.932 57.8117 137.019 82.8478 143.648 82.2503Z" fill="#263238"/>
<path d="M147.86 62.4491C154.398 61.1195 160.305 57.6451 164.645 52.577C166.961 49.8235 168.583 46.5549 169.375 43.0452C170.167 39.5355 170.106 35.8871 169.197 32.4059C169.197 32.036 169.709 31.8938 169.795 32.4059C170.954 36.0238 171.3 39.8531 170.808 43.6203C170.316 47.3874 168.999 50.9995 166.95 54.1986C164.866 57.2326 162.021 59.6655 158.7 61.2534C155.38 62.8413 151.7 63.5283 148.03 63.2457C147.978 63.2569 147.924 63.2577 147.871 63.2481C147.819 63.2384 147.769 63.2185 147.724 63.1894C147.679 63.1604 147.64 63.1227 147.61 63.0787C147.579 63.0347 147.558 62.9851 147.547 62.9328C147.535 62.8805 147.535 62.8265 147.544 62.7738C147.554 62.7212 147.574 62.671 147.603 62.6261C147.632 62.5812 147.67 62.5425 147.714 62.5121C147.758 62.4817 147.807 62.4603 147.86 62.4491Z" fill="#263238"/>
<path d="M122.937 32.4343C127.262 26.5736 134.118 25.464 140.918 25.4925C140.981 25.5124 141.037 25.5521 141.076 25.6058C141.116 25.6595 141.137 25.7245 141.137 25.7912C141.137 25.8579 141.116 25.9229 141.076 25.9766C141.037 26.0303 140.981 26.07 140.918 26.0899C134.232 25.5209 127.631 30.2152 124.331 35.7914C121.031 41.3676 122.055 47.9965 123.62 53.8856C126.604 65.2594 133.7 75.1226 143.535 81.5675C143.535 81.5675 143.535 81.9374 143.364 81.8236C137.789 78.5497 132.939 74.1749 129.109 68.9658C125.279 63.7567 122.55 57.8223 121.088 51.5243C119.665 45.2084 118.983 37.6691 122.937 32.4343Z" fill="#263238"/>
<path d="M180.605 11.1819C183.337 6.46188 187.697 2.90098 192.867 1.16749C199.156 -0.756461 205.934 -0.290423 211.9 2.47619C214.271 3.66167 216.286 5.45086 217.745 7.66349C219.203 9.87612 220.053 12.434 220.208 15.0796C220.432 21.2277 218.511 27.2623 214.774 32.1496C214.774 32.1496 214.461 32.1496 214.546 32.0073C217.495 27.3997 218.955 21.9964 218.728 16.5305C218.577 13.9261 217.697 11.4167 216.188 9.28873C214.678 7.16078 212.601 5.50006 210.193 4.49614C200.691 0.626929 186.978 1.65113 181.146 11.4948C181.102 11.561 181.034 11.6078 180.957 11.6258C180.879 11.6438 180.798 11.6316 180.729 11.5918C180.66 11.552 180.609 11.4874 180.586 11.4113C180.563 11.3351 180.57 11.2531 180.605 11.1819Z" fill="#263238"/>
<path d="M178.301 93.1462C175.729 92.6718 173.341 91.4849 171.411 89.7204C169.48 87.9559 168.083 85.6849 167.38 83.1657C166.676 80.6466 166.694 77.9805 167.432 75.4711C168.169 72.9617 169.596 70.7096 171.55 68.9714C173.505 67.2331 175.908 66.0784 178.486 65.6387C181.064 65.1991 183.714 65.4921 186.134 66.4844C188.554 67.4768 190.647 69.1286 192.174 71.2519C193.701 73.3751 194.602 75.8845 194.773 78.4944C194.912 80.6162 194.565 82.7416 193.759 84.7089C192.952 86.6762 191.707 88.4333 190.118 89.8465C188.529 91.2596 186.639 92.2914 184.591 92.8632C182.543 93.4351 180.392 93.5318 178.301 93.1462ZM183.052 67.5412C182.056 67.3693 181.045 67.312 180.036 67.3705C176.975 67.582 174.11 68.952 172.023 71.2016C169.937 73.4512 168.786 76.4114 168.805 79.4796C168.824 82.5478 170.012 85.4935 172.126 87.717C174.24 89.9405 177.123 91.2747 180.186 91.4481C183.249 91.6215 186.264 90.6211 188.615 88.6504C190.967 86.6797 192.479 83.8869 192.845 80.8404C193.21 77.7939 192.4 74.7228 190.581 72.252C188.762 69.7813 186.069 68.0967 183.052 67.5412Z" fill="#455A64"/>
<path d="M210.279 95.0243C205.015 94.057 201.26 87.7979 201.744 80.5147C201.906 77.0397 203.16 73.7045 205.328 70.984C206.186 69.7589 207.345 68.7753 208.693 68.1282C210.041 67.4811 211.534 67.1922 213.026 67.2894C214.518 67.3866 215.96 67.8666 217.213 68.6832C218.466 69.4997 219.488 70.6252 220.179 71.9513C221.941 74.949 222.745 78.4132 222.484 81.8804C221.972 89.5619 216.794 95.5079 211.104 95.1381L210.279 95.0243ZM213.607 69.2201H212.896C211.703 69.1985 210.522 69.4637 209.453 69.9935C208.383 70.5232 207.457 71.302 206.751 72.2642C204.834 74.7106 203.73 77.6946 203.593 80.7993C203.166 87.4566 206.609 93.1181 211.303 93.4026C215.997 93.6871 220.179 88.5661 220.606 82.0226C220.882 78.9431 220.175 75.8555 218.586 73.2031C218.065 72.2607 217.353 71.4374 216.496 70.7858C215.639 70.1343 214.655 69.6688 213.607 69.4192V69.2201Z" fill="#455A64"/>
<path d="M194.205 80.0592L193.095 78.5514C195.314 76.9297 200.35 74.8529 203.536 78.7221L202.085 79.917C199.24 76.4461 194.404 79.917 194.205 80.0592Z" fill="#455A64"/>
<path d="M131.899 79.5758L130.306 78.6085C130.761 77.8688 134.829 71.3253 139.011 70.8985C143.194 70.4718 167.746 74.5402 168.799 74.7109L168.514 76.5317C161.402 75.3937 142.226 72.4633 139.211 72.7762C136.195 73.0892 133.008 77.755 131.899 79.5758Z" fill="#455A64"/>
<path d="M148.399 81.169C148.399 81.169 140.462 64.0989 132.922 66.7164C125.383 69.3338 129.48 92.6628 137.048 97.101C137.976 97.7353 139.023 98.1753 140.126 98.3945C141.229 98.6136 142.364 98.6074 143.465 98.3761C144.565 98.1449 145.607 97.6934 146.529 97.0489C147.45 96.4044 148.231 95.5802 148.826 94.6258L148.399 81.169Z" fill="#D3766A"/>
<path d="M134.174 73.3734C134.174 73.3734 134.004 73.5157 134.174 73.601C139.438 76.8728 141.515 82.6766 142.71 88.4804C142.477 87.8572 142.113 87.2913 141.643 86.8211C141.172 86.3509 140.606 85.9874 139.983 85.7553C139.359 85.5232 138.693 85.428 138.03 85.476C137.366 85.524 136.721 85.7142 136.138 86.0337C136.092 86.0337 136.049 86.0517 136.017 86.0837C135.985 86.1157 135.967 86.1591 135.967 86.2044C135.967 86.2496 135.985 86.2931 136.017 86.3251C136.049 86.3571 136.092 86.3751 136.138 86.3751C137.202 86.2421 138.281 86.4447 139.225 86.9548C140.168 87.4648 140.929 88.2568 141.401 89.2201C142.198 90.81 142.827 92.4786 143.279 94.1989C143.449 94.7394 144.417 94.654 144.303 94.0281V93.8859C145.697 86.4889 141.856 75.4787 134.174 73.3734Z" fill="#263238"/>
<path d="M182.768 144.129L170.676 171.213L137.93 135.452L127.944 146.234C127.944 146.234 159.239 202.309 159.524 199.834L171.587 176.676L187.291 193.746V152.578L182.768 144.129Z" fill="white"/>
<path d="M188.486 173.262C188.287 166.462 188.259 159.606 187.747 152.835C187.747 152.579 187.348 152.465 187.291 152.835C185.698 159.321 186.637 185.325 186.381 191.555C185.755 190.815 171.843 176.619 171.672 176.818C169.112 180.488 160.292 197.33 159.638 198.867C154.688 189.962 135.655 157.557 129.737 149.079C129.698 149.043 129.649 149.02 129.596 149.013C129.543 149.006 129.49 149.016 129.443 149.041C129.396 149.066 129.358 149.105 129.334 149.153C129.31 149.2 129.302 149.254 129.31 149.307C133.635 158.667 158.784 202.309 159.183 202.224C163.832 194.288 168.058 186.111 171.843 177.728C174.176 180.801 188.145 196.79 188.23 195.766C188.705 188.274 188.791 180.762 188.486 173.262Z" fill="#263238"/>
<path d="M337.307 368.962H154.263V377.16H337.307V368.962Z" fill="#C7C7C7"/>
<path d="M337.331 368.962H245.191V377.16H337.331V368.962Z" fill="#A6A6A6"/>
<path d="M255.09 377.16H433.476L456.814 256H278.428L255.09 377.16Z" fill="#C7C7C7"/>
<path d="M345.086 316.58C344.934 317.964 345.078 319.364 345.51 320.687C345.941 322.011 346.65 323.227 347.59 324.254C348.529 325.281 349.676 326.097 350.956 326.645C352.235 327.193 353.617 327.462 355.008 327.434C357.963 327.381 360.796 326.248 362.972 324.248C365.148 322.248 366.516 319.52 366.817 316.58C366.966 315.198 366.819 313.799 366.386 312.477C365.953 311.156 365.243 309.941 364.305 308.915C363.367 307.888 362.221 307.073 360.943 306.523C359.665 305.974 358.286 305.702 356.895 305.727C353.942 305.785 351.111 306.92 348.937 308.919C346.762 310.918 345.393 313.642 345.086 316.58Z" fill="#A6A6A6"/>
</svg>
