<svg width="16" height="16" viewBox="0 0 16 16" fill="none" xmlns="http://www.w3.org/2000/svg">
<g clip-path="url(#clip0_149_6620)">
<path d="M10 4.33333C9.82319 4.33333 9.65362 4.26309 9.5286 4.13807C9.40357 4.01304 9.33333 3.84347 9.33333 3.66666V2.66666H6.66667V3.66666C6.66667 3.84347 6.59643 4.01304 6.4714 4.13807C6.34638 4.26309 6.17681 4.33333 6 4.33333C5.82319 4.33333 5.65362 4.26309 5.5286 4.13807C5.40357 4.01304 5.33333 3.84347 5.33333 3.66666V2.66666C5.33333 1.93133 5.93133 1.33333 6.66667 1.33333H9.33333C10.0687 1.33333 10.6667 1.93133 10.6667 2.66666V3.66666C10.6667 3.84347 10.5964 4.01304 10.4714 4.13807C10.3464 4.26309 10.1768 4.33333 10 4.33333ZM8.47333 10.2533C8.15286 10.3635 7.80405 10.3588 7.48667 10.24L0 7.74666V12.8333C0 13.8467 0.82 14.6667 1.83333 14.6667H14.1667C15.18 14.6667 16 13.8467 16 12.8333V7.74666L8.47333 10.2533Z" fill="#213C90"/>
<path d="M16 5.16666V6.69333L8.16 9.30666C8.10667 9.32666 8.05333 9.33333 8 9.33333C7.94667 9.33333 7.89333 9.32666 7.84 9.30666L0 6.69333V5.16666C0 4.15333 0.82 3.33333 1.83333 3.33333H14.1667C15.18 3.33333 16 4.15333 16 5.16666Z" fill="#213C90"/>
</g>
<defs>
<clipPath id="clip0_149_6620">
<rect width="16" height="16" fill="white"/>
</clipPath>
</defs>
</svg>
