<svg width="24" height="24" viewBox="0 0 24 24" fill="none" xmlns="http://www.w3.org/2000/svg">
<path d="M12.0001 3.48C11.9201 3.48 11.8401 3.49 11.7601 3.49L12.5801 2.47C12.8401 2.15 12.7901 1.67 12.4601 1.42C12.1301 1.17 11.6701 1.21 11.4101 1.54L9.4401 4C9.4301 4.01 9.4301 4.02 9.4201 4.04C9.3901 4.08 9.3701 4.13 9.3501 4.17C9.3301 4.22 9.3101 4.26 9.3001 4.3C9.2901 4.35 9.2901 4.39 9.2901 4.44C9.2901 4.49 9.2901 4.54 9.2901 4.59C9.2901 4.61 9.2901 4.62 9.2901 4.64C9.3001 4.67 9.3201 4.69 9.3301 4.72C9.3501 4.77 9.3701 4.81 9.3901 4.86C9.4201 4.9 9.4501 4.94 9.4901 4.97C9.5101 5 9.5201 5.03 9.5501 5.05C9.5701 5.06 9.5801 5.07 9.6001 5.08C9.6301 5.1 9.6501 5.11 9.6801 5.12C9.7301 5.15 9.7901 5.17 9.8501 5.18C9.8801 5.2 9.9101 5.2 9.9401 5.2C9.9701 5.2 9.9901 5.21 10.0201 5.21C10.0501 5.21 10.0701 5.2 10.0901 5.19C10.1201 5.19 10.1501 5.2 10.1801 5.19C10.8201 5.04 11.4201 4.97 11.9901 4.97C16.4801 4.97 20.1301 8.62 20.1301 13.11C20.1301 17.6 16.4801 21.25 11.9901 21.25C7.5001 21.25 3.8501 17.6 3.8501 13.11C3.8501 11.37 4.4201 9.69 5.5001 8.25C5.7501 7.92 5.6801 7.45 5.3501 7.2C5.0201 6.95 4.5501 7.02 4.3001 7.35C3.0201 9.05 2.3501 11.04 2.3501 13.11C2.3501 18.42 6.6701 22.75 11.9901 22.75C17.3101 22.75 21.6301 18.43 21.6301 13.11C21.6301 7.79 17.3101 3.48 12.0001 3.48Z" fill="white"/>
</svg>
