<svg width="128" height="128" viewBox="0 0 128 128" fill="none" xmlns="http://www.w3.org/2000/svg">
<g id="vuesax/bold/global">
<path id="Vector" d="M40.7999 111.52C40.6399 111.52 40.4266 111.627 40.2666 111.627C29.9199 106.507 21.4933 98.0267 16.3199 87.6801C16.3199 87.5201 16.4266 87.3067 16.4266 87.1467C22.9333 89.0667 29.6533 90.5067 36.3199 91.6267C37.4933 98.3467 38.8799 105.013 40.7999 111.52Z" fill="#C12127"/>
<path id="Vector_2" d="M111.68 87.7334C106.4 98.3467 97.5999 106.933 86.8799 112.107C88.9065 105.333 90.6132 98.5067 91.7332 91.6267C98.4532 90.5067 105.067 89.0667 111.573 87.1467C111.52 87.3601 111.68 87.5734 111.68 87.7334Z" fill="#C12127"/>
<path id="Vector_3" d="M112.107 41.12C105.387 39.0933 98.6132 37.44 91.7332 36.2666C90.6132 29.3866 88.9599 22.56 86.8799 15.8933C97.9199 21.1733 106.827 30.08 112.107 41.12Z" fill="#C12127"/>
<path id="Vector_4" d="M40.8 16.4801C38.88 22.9867 37.4933 29.6001 36.3733 36.3201C29.4933 37.3867 22.6666 39.0934 15.8933 41.1201C21.0666 30.4001 29.6533 21.6001 40.2666 16.3201C40.4266 16.3201 40.64 16.4801 40.8 16.4801Z" fill="#C12127"/>
<path id="Vector_5" d="M82.6134 35.1467C70.2401 33.7601 57.7601 33.7601 45.3867 35.1467C46.7201 27.8401 48.4267 20.5334 50.8267 13.4934C50.9334 13.0667 50.8801 12.7467 50.9334 12.3201C55.1467 11.3067 59.4667 10.6667 64.0001 10.6667C68.4801 10.6667 72.8534 11.3067 77.0134 12.3201C77.0667 12.7467 77.0667 13.0667 77.1734 13.4934C79.5734 20.5867 81.2801 27.8401 82.6134 35.1467Z" fill="#C12127"/>
<path id="Vector_6" d="M35.1466 82.6134C27.7866 81.2801 20.5333 79.5734 13.4933 77.1734C13.0666 77.0667 12.7466 77.1201 12.32 77.0667C11.3066 72.8534 10.6666 68.5334 10.6666 64.0001C10.6666 59.5201 11.3066 55.1467 12.32 50.9867C12.7466 50.9334 13.0666 50.9334 13.4933 50.8267C20.5866 48.48 27.7866 46.7201 35.1466 45.3867C33.8133 57.7601 33.8133 70.2401 35.1466 82.6134Z" fill="#C12127"/>
<path id="Vector_7" d="M117.333 64.0001C117.333 68.5334 116.693 72.8534 115.68 77.0667C115.253 77.1201 114.933 77.0667 114.507 77.1734C107.413 79.5201 100.16 81.2801 92.8533 82.6134C94.2399 70.2401 94.2399 57.7601 92.8533 45.3867C100.16 46.7201 107.467 48.4267 114.507 50.8267C114.933 50.9334 115.253 50.9867 115.68 50.9867C116.693 55.2001 117.333 59.5201 117.333 64.0001Z" fill="#C12127"/>
<path id="Vector_8" d="M82.6134 92.8533C81.2801 100.213 79.5734 107.467 77.1734 114.507C77.0667 114.933 77.0667 115.253 77.0134 115.68C72.8534 116.693 68.4801 117.333 64.0001 117.333C59.4667 117.333 55.1467 116.693 50.9334 115.68C50.8801 115.253 50.9334 114.933 50.8267 114.507C48.48 107.413 46.7201 100.213 45.3867 92.8533C51.5734 93.5466 57.7601 94.0266 64.0001 94.0266C70.2401 94.0266 76.4801 93.5466 82.6134 92.8533Z" fill="#C12127"/>
<path id="Vector_9" d="M84.0711 84.0712C70.7319 85.7542 57.268 85.7542 43.9289 84.0712C42.2459 70.732 42.2459 57.2682 43.9289 43.929C57.268 42.246 70.7319 42.246 84.0711 43.929C85.754 57.2682 85.754 70.732 84.0711 84.0712Z" fill="#C12127"/>
</g>
</svg>
