<svg width="170" height="128" viewBox="0 0 170 128" fill="none" xmlns="http://www.w3.org/2000/svg">
<path d="M63.6799 11.7866L50.8266 41.7066H37.9733C35.8399 41.7066 33.7599 41.8666 31.7333 42.2932L37.0666 29.4932L37.2799 29.0132L37.5999 28.1599C37.7599 27.7866 37.8666 27.4666 38.0266 27.1999C44.2133 12.8532 51.1466 8.37325 63.6799 11.7866Z" fill="#C12127"/>
<path d="M99.8933 43.1466L99.7867 43.0933C96.5867 42.1866 93.3333 41.7066 90.0267 41.7066H56.64L68.64 13.8133L68.8 13.4399C69.5467 13.7066 70.3467 14.0799 71.1467 14.3466L82.9333 19.3066C89.4934 22.0266 94.08 24.8533 96.9067 28.2666C97.3867 28.9066 97.8134 29.4933 98.24 30.1866C98.72 30.9333 99.0934 31.6799 99.3067 32.4799C99.52 32.9599 99.68 33.3866 99.7867 33.8666C100.587 36.5866 100.64 39.6799 99.8933 43.1466Z" fill="#C12127"/>
<path d="M66.7733 94.1866H68.1066C69.7066 94.1866 71.04 92.7466 71.04 90.9866C71.04 88.7466 70.4 88.4266 69.0133 87.8933L66.7733 87.0933V94.1866Z" fill="#C12127"/>
<path d="M97.5467 50.7732C95.1467 50.0799 92.64 49.7065 90.0266 49.7065H37.9733C34.3467 49.7065 30.9333 50.3999 27.7333 51.7865C18.4533 55.7865 11.9467 65.0132 11.9467 75.7332V86.1332C11.9467 87.4132 12.0533 88.6399 12.2133 89.9199C13.3867 106.88 22.4533 115.947 39.4133 117.067C40.64 117.227 41.8667 117.333 43.2 117.333H84.8C104.533 117.333 114.933 107.947 115.947 89.2799C116 88.2665 116.053 87.1999 116.053 86.1332V75.7332C116.053 63.9465 108.213 54.0265 97.5467 50.7732ZM70.8267 82.6665C73.28 83.5199 76.5866 85.3332 76.5866 90.9865C76.5866 95.8399 72.8 99.7332 68.1067 99.7332H66.7733V100.907C66.7733 102.453 65.5467 103.68 64 103.68C62.4533 103.68 61.2267 102.453 61.2267 100.907V99.7332H60.7467C55.6267 99.7332 51.4133 95.4132 51.4133 90.0799C51.4133 88.5332 52.64 87.3065 54.1867 87.3065C55.7333 87.3065 56.96 88.5332 56.96 90.0799C56.96 92.3199 58.6667 94.1865 60.7467 94.1865H61.2267V85.1732L57.1733 83.7332C54.72 82.8799 51.4133 81.0665 51.4133 75.4132C51.4133 70.5599 55.2 66.6665 59.8933 66.6665H61.2267V65.4932C61.2267 63.9465 62.4533 62.7199 64 62.7199C65.5467 62.7199 66.7733 63.9465 66.7733 65.4932V66.6665H67.2533C72.3733 66.6665 76.5866 70.9865 76.5866 76.3199C76.5866 77.8665 75.36 79.0932 73.8133 79.0932C72.2667 79.0932 71.04 77.8665 71.04 76.3199C71.04 74.0799 69.3333 72.2132 67.2533 72.2132H66.7733V81.2265L70.8267 82.6665Z" fill="#C12127"/>
<path d="M56.96 75.4134C56.96 77.6534 57.6 77.9734 58.9866 78.5067L61.2266 79.3067V72.2134H59.8933C58.24 72.2134 56.96 73.6534 56.96 75.4134Z" fill="#C12127"/>
<path fill-rule="evenodd" clip-rule="evenodd" d="M141 4.83325C127.662 4.83325 116.833 15.6623 116.833 28.9999C116.833 42.3375 127.662 53.1666 141 53.1666C154.338 53.1666 165.167 42.3375 165.167 28.9999C165.167 15.6623 154.338 4.83325 141 4.83325ZM137.58 28.9999L130.746 22.1632C130.306 21.7074 130.062 21.0969 130.068 20.4633C130.073 19.8296 130.327 19.2235 130.775 18.7754C131.224 18.3274 131.83 18.0732 132.463 18.0677C133.097 18.0622 133.707 18.3058 134.163 18.746L141 25.5828L147.834 18.746C148.29 18.3058 148.9 18.0622 149.534 18.0677C150.168 18.0732 150.774 18.3274 151.222 18.7754C151.67 19.2235 151.924 19.8296 151.93 20.4633C151.935 21.0969 151.692 21.7074 151.251 22.1632L144.417 28.9999L151.251 35.8343C151.476 36.0586 151.654 36.325 151.775 36.6182C151.897 36.9113 151.959 37.2255 151.959 37.5428C151.959 37.8601 151.897 38.1744 151.775 38.4675C151.654 38.7607 151.476 39.027 151.251 39.2514C151.027 39.4758 150.761 39.6538 150.468 39.7752C150.174 39.8966 149.86 39.9591 149.543 39.9591C149.226 39.9591 148.911 39.8966 148.618 39.7752C148.325 39.6538 148.059 39.4758 147.834 39.2514L141 32.4171L134.163 39.2514C133.939 39.4758 133.672 39.6538 133.379 39.7752C133.086 39.8966 132.772 39.9591 132.455 39.9591C132.137 39.9591 131.823 39.8966 131.53 39.7752C131.237 39.6538 130.97 39.4758 130.746 39.2514C130.522 39.027 130.344 38.7607 130.222 38.4675C130.101 38.1744 130.038 37.8601 130.038 37.5428C130.038 37.2255 130.101 36.9113 130.222 36.6182C130.344 36.325 130.522 36.0586 130.746 35.8343L137.58 28.9999Z" fill="#C12127"/>
</svg>
