<svg width="186" height="128" viewBox="0 0 186 128" fill="none" xmlns="http://www.w3.org/2000/svg">
<path d="M86.3466 10.6667H41.6533C22.24 10.6667 10.6666 22.2401 10.6666 41.6534V86.2934C10.6666 105.76 22.24 117.333 41.6533 117.333H86.2933C105.707 117.333 117.28 105.76 117.28 86.3468V41.6534C117.333 22.2401 105.76 10.6667 86.3466 10.6667ZM90.6666 92.0001H37.3333C35.1466 92.0001 33.3333 90.1868 33.3333 88.0001C33.3333 85.8134 35.1466 84.0001 37.3333 84.0001H90.6666C92.8533 84.0001 94.6666 85.8134 94.6666 88.0001C94.6666 90.1868 92.8533 92.0001 90.6666 92.0001ZM90.6666 68.0001H37.3333C35.1466 68.0001 33.3333 66.1867 33.3333 64.0001C33.3333 61.8134 35.1466 60.0001 37.3333 60.0001H90.6666C92.8533 60.0001 94.6666 61.8134 94.6666 64.0001C94.6666 66.1867 92.8533 68.0001 90.6666 68.0001ZM90.6666 44.0001H37.3333C35.1466 44.0001 33.3333 42.1867 33.3333 40.0001C33.3333 37.8134 35.1466 36.0001 37.3333 36.0001H90.6666C92.8533 36.0001 94.6666 37.8134 94.6666 40.0001C94.6666 42.1867 92.8533 44.0001 90.6666 44.0001Z" fill="#C12127"/>
<path fill-rule="evenodd" clip-rule="evenodd" d="M157 4.83325C143.662 4.83325 132.833 15.6623 132.833 28.9999C132.833 42.3375 143.662 53.1666 157 53.1666C170.338 53.1666 181.167 42.3375 181.167 28.9999C181.167 15.6623 170.338 4.83325 157 4.83325ZM153.58 28.9999L146.746 22.1632C146.306 21.7074 146.062 21.0969 146.068 20.4633C146.073 19.8296 146.327 19.2235 146.775 18.7754C147.224 18.3274 147.83 18.0732 148.463 18.0677C149.097 18.0622 149.707 18.3058 150.163 18.746L157 25.5828L163.834 18.746C164.29 18.3058 164.9 18.0622 165.534 18.0677C166.168 18.0732 166.774 18.3274 167.222 18.7754C167.67 19.2235 167.924 19.8296 167.93 20.4633C167.935 21.0969 167.692 21.7074 167.251 22.1632L160.417 28.9999L167.251 35.8343C167.476 36.0586 167.654 36.325 167.775 36.6182C167.897 36.9113 167.959 37.2255 167.959 37.5428C167.959 37.8601 167.897 38.1744 167.775 38.4675C167.654 38.7607 167.476 39.027 167.251 39.2514C167.027 39.4758 166.761 39.6538 166.468 39.7752C166.174 39.8966 165.86 39.9591 165.543 39.9591C165.226 39.9591 164.911 39.8966 164.618 39.7752C164.325 39.6538 164.059 39.4758 163.834 39.2514L157 32.4171L150.163 39.2514C149.939 39.4758 149.672 39.6538 149.379 39.7752C149.086 39.8966 148.772 39.9591 148.455 39.9591C148.137 39.9591 147.823 39.8966 147.53 39.7752C147.237 39.6538 146.97 39.4758 146.746 39.2514C146.522 39.027 146.344 38.7607 146.222 38.4675C146.101 38.1744 146.038 37.8601 146.038 37.5428C146.038 37.2255 146.101 36.9113 146.222 36.6182C146.344 36.325 146.522 36.0586 146.746 35.8343L153.58 28.9999Z" fill="#C12127"/>
</svg>
